<svg height="512pt" viewBox="0 -18 512.00118 512" width="512pt" xmlns="http://www.w3.org/2000/svg"><path d="m.324219 421.136719 2.980469 8.9375c2.859374 8.578125 10.886718 14.363281 19.929687 14.363281h34.984375c2.6875 0 5.070312 1.71875 5.917969 4.265625l4.296875 12.882813c2.859375 8.578124 10.886718 14.367187 19.929687 14.367187h345.777344c9.042969 0 17.074219-5.789063 19.933594-14.367187l4.292969-12.882813c.847656-2.546875 3.234374-4.265625 5.917968-4.265625h24.480469c9.042969 0 17.070313-5.785156 19.929687-14.363281l2.980469-8.9375c1.347657-4.039063-1.660156-8.210938-5.917969-8.210938h-499.515624c-4.257813 0-7.265626 4.171875-5.917969 8.210938zm0 0" fill="#def4f8"/><path d="m493.402344 412.925781-10.503906 31.515625h5.867187c9.042969 0 17.070313-5.789062 19.929687-14.367187l2.980469-8.9375c1.347657-4.039063-1.660156-8.210938-5.917969-8.210938zm0 0" fill="#bce8f1"/><path d="m454.074219 461.585938 4.292969-12.878907c.847656-2.550781 3.234374-4.265625 5.917968-4.265625h-17.933594c-4.519531 0-8.535156 2.890625-9.964843 7.179688l-.117188.34375c-1.429687 4.289062-5.441406 7.183594-9.964843 7.183594h-358.6875l.816406 2.441406c1.429687 4.289062 4.152344 7.878906 7.644531 10.398437.875.628907 1.796875 1.191407 2.757813 1.683594.964843.488281 1.964843.90625 3 1.242187 2.070312.679688 4.265624 1.039063 6.527343 1.039063h345.777344c9.042969 0 17.074219-5.785156 19.933594-14.367187zm0 0" fill="#bce8f1"/><path d="m194.023438 234.292969c0 26.109375-21.164063 47.273437-47.269532 47.273437-26.109375 0-47.273437-21.164062-47.273437-47.273437 0-26.105469 21.164062-68.277344 47.273437-68.277344 26.105469 0 47.269532 42.171875 47.269532 68.277344zm0 0" fill="#f76c57"/><path d="m170.726562 178.042969c5.410157 11.550781 8.589844 24.078125 8.589844 34.191406 0 26.109375-21.164062 47.273437-47.269531 47.273437-11.589844 0-22.199219-4.179687-30.421875-11.101562 6.003906 19.214844 23.9375 33.160156 45.128906 33.160156 26.105469 0 47.269532-21.164062 47.269532-47.269531 0-17.359375-9.355469-41.808594-23.296876-56.253906zm0 0" fill="#e5554e"/><path d="m146.753906 312.039062c-29.917968 0-57.546875-17.328124-70.742187-43.742187-1.625-3.253906-.0625-7.207031 3.324219-8.542969l23.25-9.171875c7.0625 17.910157 24.8125 29.945313 44.167968 29.945313 19.351563 0 37.101563-12.035156 44.167969-29.945313l23.25 9.171875c3.382813 1.335938 4.945313 5.289063 3.320313 8.542969-13.195313 26.414063-40.824219 43.742187-70.738282 43.742187zm0 0" fill="#82cd64"/><path d="m207.085938 256.960938c-13.136719 26.585937-40.855469 44.050781-70.886719 44.050781-19.257813 0-37.558594-7.183594-51.679688-19.34375 14.757813 18.730469 37.722657 30.371093 62.234375 30.371093 29.914063 0 57.542969-17.332031 70.738282-43.746093 1.625-3.253907.0625-7.203125-3.320313-8.539063zm0 0" fill="#5db33a"/><path d="m224.550781 412.925781h-155.59375c-3.449219 0-6.242187-2.792969-6.242187-6.238281v-48.472656c0-4.59375 3.726562-8.316406 8.320312-8.316406h151.433594c4.597656 0 8.320312 3.722656 8.320312 8.316406v48.472656c0 3.445312-2.792968 6.238281-6.238281 6.238281zm0 0" fill="#d19a75"/><path d="m215.03125 349.898438v36.765624c0 5.800782-4.703125 10.503907-10.503906 10.503907h-49.875c-5.523438 0-10-4.476563-10-10v-21.070313c0-8.480468 6.519531-15.78125 14.992187-16.183594 9.050781-.425781 16.519531 6.785157 16.519531 15.742188 0 8.953125 7.46875 16.164062 16.519532 15.738281 8.472656-.398437 14.996094-7.699219 14.996094-16.183593v-9.011719c0-3.480469 2.820312-6.300781 6.300781-6.300781h-107.144531c3.480468 0 6.300781 2.820312 6.300781 6.300781l.023437 40.96875h-50.445312v7.4375c0 4.597656 3.726562 8.320312 8.320312 8.320312h151.433594c4.597656 0 8.320312-3.726562 8.320312-8.320312v-46.390625c0-4.59375-3.726562-8.316406-8.320312-8.316406zm0 0" fill="#c47e4e"/><path d="m83.726562 314.183594v29.410156c0 3.484375 2.820313 6.304688 6.300782 6.304688h3.152344c3.480468 0 6.300781 2.820312 6.300781 6.304687v40.519531c0 8.484375 6.523437 15.785156 14.996093 16.1875 9.050782.425782 16.519532-6.785156 16.519532-15.742187v-31.066407c0-8.484374 6.519531-15.785156 14.992187-16.183593 9.050781-.425781 16.519531 6.78125 16.519531 15.738281 0 8.953125 7.46875 16.164062 16.519532 15.738281 8.476562-.398437 14.996094-7.699219 14.996094-16.183593v-9.007813c0-3.484375 2.820312-6.304687 6.300781-6.304687h3.152343c3.480469 0 6.300782-2.820313 6.300782-6.304688v-29.410156c0-3.480469-2.820313-6.304688-6.300782-6.304688h-113.449218c-3.480469 0-6.300782 2.824219-6.300782 6.304688zm0 0" fill="#fff2b2"/><path d="m203.476562 307.878906h-15.757812c3.480469 0 6.304688 2.824219 6.304688 6.304688v29.410156c0 3.484375-2.824219 6.304688-6.304688 6.304688h-3.148438c-3.480468 0-6.304687 2.820312-6.304687 6.304687v9.007813c0 5.898437-3.152344 11.214843-7.917969 14.046874 2.53125 1.480469 5.503906 2.285157 8.679688 2.136719 8.476562-.398437 14.996094-7.699219 14.996094-16.183593v-9.007813c0-3.484375 2.820312-6.304687 6.300781-6.304687h3.152343c3.480469 0 6.300782-2.820313 6.300782-6.304688v-29.410156c.003906-3.480469-2.820313-6.304688-6.300782-6.304688zm0 0" fill="#ffea84"/><path d="m134.4375 349.914062c-8.476562.402344-14.996094 7.699219-14.996094 16.183594v31.070313c0 6.644531-4.117187 12.320312-9.933594 14.636719 1.546876.625 3.214844 1.019531 4.96875 1.101562 9.050782.425781 16.519532-6.78125 16.519532-15.738281v-31.070313c0-6.722656 4.105468-12.691406 10.023437-15.078125-2.023437-.808593-4.25-1.214843-6.582031-1.105469zm0 0" fill="#ffea84"/><path d="m146.753906 44.140625v52.523437h61.082032c2.945312 0 4.957031-2.972656 3.863281-5.703124l-7.605469-19.011719c-.398438-.992188-.398438-2.101563 0-3.089844l7.605469-19.015625c1.09375-2.730469-.917969-5.703125-3.863281-5.703125zm0 0" fill="#ffe046"/><path d="m207.839844 44.140625h-9.035156l-9.578126 23.945313c-.59375 1.488281-.59375 3.144531 0 4.632812l9.578126 23.945312h9.035156c2.941406 0 4.953125-2.972656 3.859375-5.707031l-7.605469-19.011719c-.394531-.992187-.394531-2.097656 0-3.089843l7.605469-19.011719c1.09375-2.730469-.917969-5.703125-3.859375-5.703125zm0 0" fill="#ffd508"/><path d="m164.609375 17.859375c0 9.863281-7.996094 17.855469-17.855469 17.855469-9.863281 0-17.859375-7.992188-17.859375-17.855469s7.996094-17.859375 17.859375-17.859375c9.859375 0 17.855469 7.996094 17.855469 17.859375zm0 0" fill="#e6e6e6"/><path d="m153.738281 1.417969c.910157 2.148437 1.417969 4.507812 1.417969 6.984375 0 9.863281-7.996094 17.859375-17.859375 17.859375-2.476563 0-4.835937-.507813-6.984375-1.417969 2.71875 6.390625 9.054688 10.871094 16.441406 10.871094 9.859375 0 17.855469-7.996094 17.855469-17.855469 0-7.386719-4.480469-13.722656-10.871094-16.441406zm0 0" fill="#cdcdcd"/><path d="m412.519531 234.292969c0 26.109375-21.164062 47.273437-47.273437 47.273437-26.105469 0-47.269532-21.164062-47.269532-47.273437 0-26.105469 21.164063-68.277344 47.269532-68.277344 26.109375 0 47.273437 42.171875 47.273437 68.277344zm0 0" fill="#f76c57"/><path d="m389.222656 178.042969c5.410156 11.550781 8.589844 24.078125 8.589844 34.191406 0 26.109375-21.164062 47.273437-47.269531 47.273437-11.589844 0-22.199219-4.179687-30.421875-11.101562 6.003906 19.214844 23.933594 33.160156 45.128906 33.160156 26.105469 0 47.269531-21.164062 47.269531-47.269531 0-17.359375-9.355469-41.808594-23.296875-56.253906zm0 0" fill="#e5554e"/><path d="m365.25 312.039062c-29.917969 0-57.546875-17.328124-70.742188-43.742187-1.625-3.253906-.0625-7.207031 3.324219-8.542969l17.792969-7.019531c2.902344-1.144531 6.253906.003906 7.730469 2.75 8.148437 15.167969 24.363281 25.042969 41.890625 25.042969 17.53125 0 33.742187-9.875 41.894531-25.042969 1.476563-2.746094 4.828125-3.894531 7.730469-2.75l17.792968 7.019531c3.382813 1.335938 4.949219 5.289063 3.324219 8.542969-13.195312 26.414063-40.824219 43.742187-70.738281 43.742187zm0 0" fill="#82cd64"/><path d="m425.582031 256.960938c-13.136719 26.585937-40.855469 44.050781-70.886719 44.050781-19.257812 0-37.558593-7.183594-51.679687-19.34375 14.757813 18.730469 37.722656 30.371093 62.230469 30.371093 29.917968 0 57.546875-17.332031 70.742187-43.746093 1.625-3.253907.058594-7.203125-3.324219-8.539063zm0 0" fill="#5db33a"/><path d="m443.046875 412.925781h-155.597656c-3.445313 0-6.238281-2.792969-6.238281-6.238281v-50.550781c0-3.445313 2.792968-6.238281 6.238281-6.238281h155.59375c3.445312 0 6.238281 2.792968 6.238281 6.238281v50.550781c.003906 3.445312-2.789062 6.238281-6.234375 6.238281zm0 0" fill="#d19a75"/><path d="m433.527344 349.898438v36.765624c0 5.800782-4.703125 10.503907-10.503906 10.503907h-49.878907c-5.519531 0-10-4.476563-10-10v-21.070313c0-8.480468 6.523438-15.78125 14.996094-16.183594 9.050781-.425781 16.519531 6.785157 16.519531 15.742188 0 8.953125 7.46875 16.164062 16.515625 15.738281 8.476563-.398437 14.996094-7.699219 14.996094-16.183593v-9.011719c0-3.480469 2.820313-6.300781 6.304687-6.300781h-107.144531c3.480469 0 6.300781 2.820312 6.300781 6.300781l.019532 40.96875h-50.441406v9.519531c0 3.445312 2.792968 6.238281 6.238281 6.238281h155.59375c3.445312 0 6.238281-2.792969 6.238281-6.238281v-50.550781c0-3.445313-2.792969-6.238281-6.238281-6.238281zm0 0" fill="#c47e4e"/><path d="m302.21875 314.183594v29.410156c0 3.484375 2.824219 6.304688 6.304688 6.304688h3.152343c3.480469 0 6.300781 2.820312 6.300781 6.304687v40.519531c0 8.484375 6.519532 15.785156 14.996094 16.1875 9.046875.425782 16.515625-6.785156 16.515625-15.742187v-31.066407c0-8.484374 6.523438-15.785156 14.996094-16.183593 9.050781-.425781 16.519531 6.78125 16.519531 15.738281 0 8.953125 7.46875 16.164062 16.519532 15.738281 8.472656-.398437 14.992187-7.699219 14.992187-16.183593v-9.007813c0-3.484375 2.824219-6.304687 6.304687-6.304687h3.152344c3.480469 0 6.300782-2.820313 6.300782-6.304688v-29.410156c0-3.480469-2.820313-6.304688-6.300782-6.304688h-113.449218c-3.480469 0-6.304688 2.824219-6.304688 6.304688zm0 0" fill="#fff2b2"/><path d="m421.972656 307.878906h-15.757812c3.480468 0 6.304687 2.824219 6.304687 6.304688v29.410156c0 3.484375-2.824219 6.304688-6.304687 6.304688h-3.152344c-3.480469 0-6.300781 2.820312-6.300781 6.304687v9.007813c0 5.898437-3.15625 11.214843-7.921875 14.046874 2.535156 1.480469 5.507812 2.285157 8.683594 2.136719 8.472656-.398437 14.992187-7.699219 14.992187-16.183593v-9.007813c0-3.484375 2.824219-6.304687 6.304687-6.304687h3.152344c3.480469 0 6.300782-2.820313 6.300782-6.304688v-29.410156c0-3.480469-2.820313-6.304688-6.300782-6.304688zm0 0" fill="#ffea84"/><path d="m352.929688 349.914062c-8.472657.402344-14.992188 7.699219-14.992188 16.183594v31.070313c0 6.644531-4.117188 12.320312-9.9375 14.636719 1.550781.625 3.214844 1.019531 4.972656 1.101562 9.050782.425781 16.519532-6.78125 16.519532-15.738281v-31.070313c0-6.722656 4.101562-12.691406 10.023437-15.078125-2.023437-.808593-4.25-1.214843-6.585937-1.105469zm0 0" fill="#ffea84"/><path d="m365.25 44.140625v52.523437h61.082031c2.945313 0 4.957031-2.972656 3.863281-5.703124l-7.605468-19.015626c-.398438-.992187-.398438-2.097656 0-3.089843l7.605468-19.011719c1.09375-2.730469-.917968-5.703125-3.863281-5.703125zm0 0" fill="#ffe046"/><path d="m426.332031 44.140625h-9.03125l-9.578125 23.945313c-.59375 1.488281-.59375 3.144531 0 4.632812l9.578125 23.945312h9.03125c2.945313 0 4.957031-2.972656 3.863281-5.707031l-7.605468-19.011719c-.398438-.992187-.398438-2.097656 0-3.089843l7.605468-19.011719c1.09375-2.730469-.917968-5.703125-3.863281-5.703125zm0 0" fill="#ffd508"/><path d="m383.105469 17.859375c0 9.863281-7.996094 17.855469-17.855469 17.855469-9.863281 0-17.859375-7.992188-17.859375-17.855469s7.996094-17.859375 17.859375-17.859375c9.859375 0 17.855469 7.996094 17.855469 17.859375zm0 0" fill="#e6e6e6"/><g fill="#cdcdcd"><path d="m372.230469 1.417969c.914062 2.148437 1.421875 4.507812 1.421875 6.984375 0 9.863281-7.996094 17.859375-17.859375 17.859375-2.480469 0-4.839844-.507813-6.984375-1.417969 2.71875 6.390625 9.054687 10.871094 16.4375 10.871094 9.863281 0 17.859375-7.996094 17.859375-17.855469 0-7.386719-4.480469-13.722656-10.875-16.441406zm0 0"/><path d="m146.753906 175.894531c-4.308594 0-7.800781-3.492187-7.800781-7.800781v-134.457031c0-4.308594 3.492187-7.800781 7.800781-7.800781 4.304688 0 7.796875 3.492187 7.796875 7.800781v134.457031c0 4.308594-3.492187 7.800781-7.796875 7.800781zm0 0"/><path d="m365.25 175.894531c-4.308594 0-7.800781-3.492187-7.800781-7.800781v-134.457031c0-4.308594 3.492187-7.800781 7.800781-7.800781 4.304688 0 7.796875 3.492187 7.796875 7.800781v134.457031c0 4.308594-3.492187 7.800781-7.796875 7.800781zm0 0"/></g></svg>