<svg viewBox="0 -114 512.001 512" xmlns="http://www.w3.org/2000/svg"><g fill="#594f69"><path d="m256 0c-4.140625 0-7.5 3.359375-7.5 7.5v92.714844c0 4.144531 3.359375 7.5 7.5 7.5s7.5-3.355469 7.5-7.5v-92.714844c0-4.140625-3.359375-7.5-7.5-7.5zm0 0"/><path d="m135.46875 0c-4.140625 0-7.5 3.359375-7.5 7.5v92.714844c0 4.144531 3.359375 7.5 7.5 7.5s7.5-3.355469 7.5-7.5v-92.714844c0-4.140625-3.359375-7.5-7.5-7.5zm0 0"/><path d="m376.53125 0c-4.140625 0-7.5 3.359375-7.5 7.5v92.714844c0 4.144531 3.359375 7.5 7.5 7.5s7.5-3.355469 7.5-7.5v-92.714844c0-4.140625-3.359375-7.5-7.5-7.5zm0 0"/></g><path d="m277.25 223.484375h-42.5c-11.734375 0-21.25-9.515625-21.25-21.25v-42.5c0-11.738281 9.515625-21.25 21.25-21.25h42.5c11.734375 0 21.25 9.511719 21.25 21.25v42.5c0 11.734375-9.515625 21.25-21.25 21.25zm0 0" fill="#ffd659"/><path d="m277.25 138.484375h-31.871094c11.734375 0 21.25 9.511719 21.25 21.25v42.5c0 11.734375-9.515625 21.25-21.25 21.25h31.871094c11.734375 0 21.25-9.515625 21.25-21.25v-42.5c0-11.738281-9.515625-21.25-21.25-21.25zm0 0" fill="#ffbd54"/><path d="m297.207031 98.566406c0 22.757813-18.449219 41.207032-41.207031 41.207032s-41.207031-18.449219-41.207031-41.207032c0-22.757812 18.449219-41.207031 41.207031-41.207031s41.207031 18.449219 41.207031 41.207031zm0 0" fill="#ff2c5c"/><path d="m256 57.359375c-5.464844 0-10.679688 1.074219-15.449219 3.007813 15.097657 6.113281 25.753907 20.910156 25.753907 38.199218 0 17.292969-10.65625 32.089844-25.753907 38.203125 4.769531 1.929688 9.984375 3.003907 15.449219 3.003907 22.757812 0 41.207031-18.449219 41.207031-41.207032 0-22.757812-18.449219-41.207031-41.207031-41.207031zm0 0" fill="#e62753"/><path d="m156.71875 223.484375h-42.5c-11.734375 0-21.25-9.515625-21.25-21.25v-42.5c0-11.738281 9.515625-21.25 21.25-21.25h42.5c11.734375 0 21.25 9.511719 21.25 21.25v42.5c0 11.734375-9.515625 21.25-21.25 21.25zm0 0" fill="#ffd659"/><path d="m156.71875 138.484375h-31.871094c11.738282 0 21.25 9.511719 21.25 21.25v42.5c0 11.734375-9.511718 21.25-21.25 21.25h31.871094c11.734375 0 21.25-9.515625 21.25-21.25v-42.5c0-11.738281-9.515625-21.25-21.25-21.25zm0 0" fill="#ffbd54"/><path d="m176.675781 98.566406c0 22.757813-18.449219 41.207032-41.207031 41.207032s-41.207031-18.449219-41.207031-41.207032c0-22.757812 18.449219-41.207031 41.207031-41.207031s41.207031 18.449219 41.207031 41.207031zm0 0" fill="#ff2c5c"/><path d="m135.46875 57.359375c-5.464844 0-10.679688 1.074219-15.449219 3.007813 15.097657 6.113281 25.753907 20.910156 25.753907 38.199218 0 17.292969-10.65625 32.089844-25.753907 38.203125 4.769531 1.929688 9.984375 3.003907 15.449219 3.003907 22.757812 0 41.207031-18.449219 41.207031-41.207032 0-22.757812-18.449219-41.207031-41.207031-41.207031zm0 0" fill="#e62753"/><path d="m397.78125 223.484375h-42.5c-11.734375 0-21.25-9.515625-21.25-21.25v-42.5c0-11.738281 9.515625-21.25 21.25-21.25h42.5c11.734375 0 21.25 9.511719 21.25 21.25v42.5c0 11.734375-9.515625 21.25-21.25 21.25zm0 0" fill="#ffd659"/><path d="m397.78125 138.484375h-31.871094c11.734375 0 21.25 9.511719 21.25 21.25v42.5c0 11.734375-9.515625 21.25-21.25 21.25h31.871094c11.734375 0 21.25-9.515625 21.25-21.25v-42.5c0-11.738281-9.515625-21.25-21.25-21.25zm0 0" fill="#ffbd54"/><path d="m417.738281 98.566406c0 22.757813-18.449219 41.207032-41.207031 41.207032s-41.207031-18.449219-41.207031-41.207032c0-22.757812 18.449219-41.207031 41.207031-41.207031s41.207031 18.449219 41.207031 41.207031zm0 0" fill="#ff2c5c"/><path d="m376.53125 57.359375c-5.464844 0-10.679688 1.074219-15.453125 3.007813 15.101563 6.113281 25.757813 20.910156 25.757813 38.199218 0 17.292969-10.65625 32.089844-25.757813 38.203125 4.773437 1.929688 9.988281 3.003907 15.453125 3.003907 22.757812 0 41.207031-18.449219 41.207031-41.207032 0-22.757812-18.449219-41.207031-41.207031-41.207031zm0 0" fill="#e62753"/><path d="m436.28125 284h-360.5625c-11.378906 0-20.605469-9.222656-20.605469-20.601562v-25.757813h401.773438v25.757813c0 11.378906-9.226563 20.601562-20.605469 20.601562zm0 0" fill="#d1c4c4"/><path d="m496.546875 253.09375h-481.09375c-8.535156 0-15.453125-6.917969-15.453125-15.453125 0-8.53125 6.917969-15.449219 15.453125-15.449219h481.09375c8.535156 0 15.453125 6.917969 15.453125 15.449219 0 8.535156-6.917969 15.453125-15.453125 15.453125zm0 0" fill="#ebe4e2"/><path d="m496.546875 222.191406h-30.902344c8.535157 0 15.453125 6.917969 15.453125 15.449219 0 8.535156-6.917968 15.453125-15.453125 15.453125h30.902344c8.535156 0 15.453125-6.917969 15.453125-15.453125 0-8.53125-6.917969-15.449219-15.453125-15.449219zm0 0" fill="#d1c4c4"/></svg>