<?xml version="1.0" encoding="iso-8859-1"?>
<!-- Generator: Adobe Illustrator 19.0.0, SVG Export Plug-In . SVG Version: 6.00 Build 0)  -->
<svg version="1.1" id="Layer_1" xmlns="http://www.w3.org/2000/svg" xmlns:xlink="http://www.w3.org/1999/xlink" x="0px" y="0px"
	 viewBox="0 0 492.8 492.8" style="enable-background:new 0 0 492.8 492.8;" xml:space="preserve">
<path style="fill:#FF665A;" d="M339.2,81.6c-31.2,0-63.2,8-92.8,21.6c-29.6-13.6-61.6-21.6-92.8-21.6C59.2,81.6,12,155.2,12,245.6
	s96.8,247.2,191.2,247.2c15.2,0,29.6-4,43.2-12c13.6,7.2,28,12,43.2,12c94.4,0,191.2-156.8,191.2-247.2
	C480.8,154.4,433.6,81.6,339.2,81.6z"/>
<path style="fill:#D6270F;" d="M203.2,492.8c15.2,0,29.6-4,43.2-12c13.6,7.2,28,12,43.2,12c94.4,0,191.2-156.8,191.2-247.2
	s-47.2-164-141.6-164c-31.2,0-63.2,8-92.8,21.6c-29.6-13.6-61.6-21.6-92.8-21.6"/>
<path style="fill:#A50C00;" d="M246.4,480.8c13.6,7.2,28,12,43.2,12c94.4,0,191.2-156.8,191.2-247.2s-47.2-164-141.6-164
	c-31.2,0-63.2,8-92.8,21.6"/>
<path style="fill:#FCF7C5;" d="M324.8,122.4c-26.4,0-53.6,6.4-78.4,17.6c-24.8-11.2-52-17.6-78.4-17.6c-80,0-120,59.2-120,131.2
	C48,326.4,129.6,452,209.6,452c12.8,0,25.6-3.2,36.8-9.6c11.2,5.6,23.2,9.6,36.8,9.6c80,0,161.6-125.6,161.6-198.4
	S404.8,122.4,324.8,122.4z"/>
<path style="fill:#EADFA0;" d="M246.4,442.4c11.2,5.6,23.2,9.6,36.8,9.6c80,0,161.6-125.6,161.6-198.4s-40-131.2-120-131.2
	c-26.4,0-53.6,6.4-78.4,17.6"/>
<path style="fill:#773D0E;" d="M173.6,282.4L173.6,282.4l41.6,26.4l-8.8-46.4l0,0c-0.8-2.4-1.6-5.6-3.2-8c-6.4-9.6-20-12-29.6-5.6
	c-10.4,6.4-12.8,18.4-6.4,28C168.8,279.2,171.2,280.8,173.6,282.4z"/>
<path style="fill:#441F06;" d="M215.2,308.8l-8.8-46.4l0,0c-0.8-2.4-1.6-5.6-3.2-8c-6.4-9.6-20-12-29.6-5.6"/>
<path style="fill:#773D0E;" d="M319.2,282.4L319.2,282.4l-41.6,26.4l8.8-46.4l0,0c0.8-2.4,1.6-5.6,3.2-8c6.4-9.6,20-12,29.6-5.6
	c10.4,6.4,12.8,18.4,6.4,28C324,279.2,321.6,280.8,319.2,282.4z"/>
<g>
	<path style="fill:#441F06;" d="M277.6,308.8l8.8-46.4l0,0c0.8-2.4,1.6-5.6,3.2-8c6.4-9.6,20-12,29.6-5.6"/>
</g>
<path style="fill:#A50C00;" d="M246.4,120V9.6c0,0,18.4-14.4,32,0L260,112L246.4,120z"/>
<path style="fill:#5EA304;" d="M236.8,88.8L236.8,88.8L236.8,88.8L236.8,88.8c8-25.6,12.8-48.8-3.2-65.6
	c-27.2-28-58.4-9.6-92.8-23.2l0,0l0,0l0,0"/>
<path style="fill:#80C11A;" d="M228,96L228,96L228,96L228,96c-28,8-52,12.8-70.4-1.6C127.2,68.8,147.2,40,132.8,8l0,0l0,0l0,0"/>
<g>
</g>
<g>
</g>
<g>
</g>
<g>
</g>
<g>
</g>
<g>
</g>
<g>
</g>
<g>
</g>
<g>
</g>
<g>
</g>
<g>
</g>
<g>
</g>
<g>
</g>
<g>
</g>
<g>
</g>
</svg>
