<?xml version="1.0" encoding="iso-8859-1"?>
<!-- Generator: Adobe Illustrator 19.0.0, SVG Export Plug-In . SVG Version: 6.00 Build 0)  -->
<svg version="1.1" id="Layer_1" xmlns="http://www.w3.org/2000/svg" xmlns:xlink="http://www.w3.org/1999/xlink" x="0px" y="0px"
	 viewBox="0 0 496.8 496.8" style="enable-background:new 0 0 496.8 496.8;" xml:space="preserve">
<path style="fill:#EABC49;" d="M464,45.677c-13.6,172.8-200.8,308.8-429.6,308.8c-11.2,0-22.4-0.8-34.4-0.8
	c52,62.4,129.6,103.2,217.6,103.2c154.4,0,279.2-125.6,279.2-280C496.8,129.677,484.8,84.877,464,45.677z"/>
<path style="fill:#FFDC6C;" d="M3.2,354.477c322.4,130.4,475.2-111.2,472.8-282.4c-4-8.8-7.2-17.6-12-25.6
	c-13.6,172-200.8,308-429.6,308c-11.2,0-22.4-0.8-34.4-0.8"/>
<path style="fill:#FCF7C5;" d="M4,355.277c264.8,33.6,448-118.4,470.4-288.8c-3.2-7.2-6.4-14.4-9.6-20.8
	c-14.4,172.8-201.6,308.8-430.4,308.8c-11.2,0-22.4-0.8-34.4-0.8"/>
<path style="fill:#562300;" d="M473.6,64.077l-1.6-18.4c0-4-3.2-6.4-7.2-5.6c-4,0-6.4,3.2-5.6,7.2l1.6,18.4c-5.6,3.2-8.8,8.8-8,15.2
	l1.6,19.2l32-3.2l-1.6-19.2C484,71.277,479.2,66.477,473.6,64.077z"/>
<path style="fill:#281000;" d="M468,98.477l18.4-1.6l-1.6-19.2c-0.8-6.4-4.8-11.2-10.4-13.6l-1.6-18.4c0-4-3.2-6.4-7.2-5.6"/>
<g>
	
		<ellipse transform="matrix(-0.4455 0.8953 -0.8953 -0.4455 729.2685 -304.0116)" style="fill:#8C4719;" cx="458.781" cy="73.835" rx="6.4" ry="1.6"/>
	<path style="fill:#8C4719;" d="M43.2,354.477c-3.2,0-5.6,0-8.8,0c-11.2,0-22.4-0.8-34.4-0.8c8,10.4,17.6,20,27.2,28.8
		C35.2,374.477,40.8,364.877,43.2,354.477z"/>
</g>
<path style="fill:#281000;" d="M0.8,353.677c8,10.4,17.6,20,27.2,28.8c4-4,7.2-8.8,10.4-14.4"/>
<path style="fill:#CE921B;" d="M402.4,291.277l-73.6,73.6l44.8,44.8c28.8-19.2,54.4-44,74.4-72.8L402.4,291.277z"/>
<circle style="fill:#3CBC0C;" cx="362.4" cy="324.877" r="52"/>
<path style="fill:#2B9907;" d="M400,287.277c20,20,20,53.6,0,73.6s-53.6,20-73.6,0"/>
<circle style="fill:#017C1B;" cx="362.4" cy="324.877" r="32.8"/>
<path style="fill:#006B12;" d="M339.2,300.877c12.8-12.8,33.6-12.8,46.4,0s12.8,33.6,0,46.4"/>
<polygon style="fill:#FFE000;" points="362.4,304.877 369.6,317.677 384,320.077 373.6,329.677 376,344.077 362.4,337.677 
	349.6,344.077 352,329.677 341.6,320.077 356,317.677 "/>
<polyline style="fill:#FFC200;" points="369.6,317.677 384,320.077 373.6,329.677 376,344.077 362.4,337.677 349.6,344.077 "/>
<g>
</g>
<g>
</g>
<g>
</g>
<g>
</g>
<g>
</g>
<g>
</g>
<g>
</g>
<g>
</g>
<g>
</g>
<g>
</g>
<g>
</g>
<g>
</g>
<g>
</g>
<g>
</g>
<g>
</g>
</svg>
