<?xml version="1.0" encoding="iso-8859-1"?>
<!-- Generator: Adobe Illustrator 19.0.0, SVG Export Plug-In . SVG Version: 6.00 Build 0)  -->
<svg version="1.1" id="Layer_1" xmlns="http://www.w3.org/2000/svg" xmlns:xlink="http://www.w3.org/1999/xlink" x="0px" y="0px"
	 viewBox="0 0 497.6 497.6" style="enable-background:new 0 0 497.6 497.6;" xml:space="preserve">
<polygon style="fill:#424242;" points="496,196.8 0,188 0,182.4 496,172.8 "/>
<path style="fill:#873D15;" d="M168.8,239.2c-12.8,12.8-32.8,12.8-45.6,0L92,208c-12.8-12.8-12.8-32.8,0-45.6l31.2-31.2
	c12.8-12.8,32.8-12.8,45.6,0l31.2,31.2c12.8,12.8,12.8,32.8,0,45.6L168.8,239.2z"/>
<path style="fill:#68300B;" d="M168.8,131.2l31.2,31.2c12.8,12.8,12.8,32.8,0,45.6l-31.2,31.2c-12.8,12.8-32.8,12.8-45.6,0L92,208"
	/>
<path style="fill:#562306;" d="M168.8,131.2l31.2,31.2c12.8,12.8,12.8,32.8,0,45.6l-31.2,31.2"/>
<path style="fill:#843A12;" d="M209.6,184.8c0,9.6-3.2,17.6-6.4,17.6c-4,0-7.2-8-7.2-17.6s3.2-17.6,7.2-17.6
	C206.4,167.2,209.6,175.2,209.6,184.8z"/>
<ellipse cx="205.6" cy="184.8" rx="4.8" ry="11.2"/>
<path style="fill:#BA6A2F;" d="M145.6,132c1.6,1.6,1.6,4.8,0,6.4l-38.4,38.4c-1.6,1.6-4.8,1.6-6.4,0l0,0c-1.6-1.6-1.6-4.8,0-6.4
	l38.4-38.4C140.8,130.4,144,130.4,145.6,132L145.6,132z"/>
<path style="fill:#873D15;" d="M299.2,239.2c-12.8,12.8-32.8,12.8-45.6,0L222.4,208c-12.8-12.8-12.8-32.8,0-45.6l31.2-31.2
	c12.8-12.8,32.8-12.8,45.6,0l31.2,31.2c12.8,12.8,12.8,32.8,0,45.6L299.2,239.2z"/>
<path style="fill:#68300B;" d="M299.2,131.2l31.2,31.2c12.8,12.8,12.8,32.8,0,45.6l-31.2,31.2c-12.8,12.8-32.8,12.8-45.6,0
	L222.4,208"/>
<path style="fill:#562306;" d="M299.2,131.2l31.2,31.2c12.8,12.8,12.8,32.8,0,45.6l-31.2,31.2"/>
<path style="fill:#843A12;" d="M340,184.8c0,9.6-3.2,17.6-7.2,17.6s-7.2-8-7.2-17.6s3.2-17.6,7.2-17.6S340,175.2,340,184.8z"/>
<ellipse cx="336" cy="184.8" rx="4.8" ry="11.2"/>
<path style="fill:#BA6A2F;" d="M276,132c1.6,1.6,1.6,4.8,0,6.4l-38.4,38.4c-1.6,1.6-4.8,1.6-6.4,0l0,0c-1.6-1.6-1.6-4.8,0-6.4
	l38.4-38.4C272,130.4,274.4,130.4,276,132L276,132z"/>
<path style="fill:#873D15;" d="M431.2,240.8c-12.8,12.8-33.6,12.8-46.4,0l-32-32c-12.8-12.8-12.8-33.6,0-46.4l32-32
	c12.8-12.8,33.6-12.8,46.4,0l32,32c12.8,12.8,12.8,33.6,0,46.4L431.2,240.8z"/>
<path style="fill:#68300B;" d="M431.2,129.6l32,32c12.8,12.8,12.8,33.6,0,46.4l-32,32c-12.8,12.8-33.6,12.8-46.4,0l-32-32"/>
<path style="fill:#562306;" d="M431.2,129.6l32,32c12.8,12.8,12.8,33.6,0,46.4l-32,32"/>
<path style="fill:#843A12;" d="M472.8,184.8c0,10.4-3.2,18.4-7.2,18.4s-7.2-8-7.2-18.4s3.2-18.4,7.2-18.4
	C469.6,167.2,472.8,175.2,472.8,184.8z"/>
<ellipse cx="468.8" cy="184.8" rx="4.8" ry="11.2"/>
<path style="fill:#BA6A2F;" d="M406.4,130.4c1.6,1.6,1.6,4.8,0,6.4l-40,40c-1.6,1.6-4.8,1.6-6.4,0l0,0c-1.6-1.6-1.6-4.8,0-6.4l40-40
	C402.4,128.8,404.8,128.8,406.4,130.4L406.4,130.4z"/>
<path style="fill:#562306;" d="M496,484c-48-12.8-111.2-20-184-20c-93.6,0-175.2,8.8-216.8,32.8H496V484z"/>
<polygon style="fill:#E89215;" points="315.2,232.8 386.4,405.6 308.8,495.2 235.2,401.6 "/>
<polyline style="fill:#FFCD50;" points="308.8,495.2 235.2,401.6 315.2,232.8 "/>
<polygon style="fill:#F9A035;" points="312.8,337.6 264.8,439.2 308.8,495.2 356,440.8 "/>
<polyline style="fill:#ED7014;" points="308.8,495.2 356,440.8 312.8,337.6 "/>
<polygon style="fill:#FFC114;" points="124,336 229.6,379.2 234.4,451.2 162.4,442.4 "/>
<polyline style="fill:#FFCD50;" points="234.4,451.2 162.4,442.4 124,336 "/>
<polygon style="fill:#F9A035;" points="168,381.6 191.2,446.4 234.4,451.2 231.2,408 "/>
<polyline style="fill:#FF9A15;" points="234.4,451.2 231.2,408 168,381.6 "/>
<polygon style="fill:#FFC114;" points="214.4,270.4 255.2,324.8 236,363.2 201.6,336.8 "/>
<polyline style="fill:#FFCD50;" points="236,363.2 201.6,336.8 214.4,270.4 "/>
<polygon style="fill:#F9A035;" points="223.2,307.2 215.2,347.2 236,363.2 248,340 "/>
<polyline style="fill:#FF9A15;" points="236,363.2 248,340 223.2,307.2 "/>
<polygon style="fill:#FFC114;" points="497.6,336 392.8,379.2 387.2,451.2 459.2,442.4 "/>
<polyline style="fill:#FFCD50;" points="387.2,451.2 459.2,442.4 497.6,336 "/>
<polygon style="fill:#F9A035;" points="453.6,381.6 430.4,446.4 387.2,451.2 390.4,408 "/>
<polyline style="fill:#FF9A15;" points="387.2,451.2 390.4,408 453.6,381.6 "/>
<polygon style="fill:#FFC114;" points="407.2,270.4 366.4,324.8 385.6,363.2 420.8,336.8 "/>
<polyline style="fill:#FFCD50;" points="385.6,363.2 420.8,336.8 407.2,270.4 "/>
<polygon style="fill:#F9A035;" points="399.2,307.2 406.4,347.2 385.6,363.2 374.4,340 "/>
<polyline style="fill:#FF9A15;" points="385.6,363.2 374.4,340 399.2,307.2 "/>
<g>
	<path style="fill:#BCB8A6;" d="M160,100.8c0,2.4-1.6,4-4,4l0,0c-2.4,0-4-1.6-4-4v-96c0-2.4,1.6-4,4-4l0,0c2.4,0,4,1.6,4,4V100.8z"
		/>
	<path style="fill:#BCB8A6;" d="M192,116.8c0,2.4-1.6,4-4,4l0,0c-2.4,0-4-1.6-4-4v-96c0-2.4,1.6-4,4-4l0,0c2.4,0,4,1.6,4,4V116.8z"
		/>
	<path style="fill:#BCB8A6;" d="M216,132.8c0,2.4-1.6,4-4,4l0,0c-2.4,0-4-1.6-4-4v-96c0-2.4,1.6-4,4-4l0,0c2.4,0,4,1.6,4,4V132.8z"
		/>
	<path style="fill:#BCB8A6;" d="M304,99.2c0,2.4-1.6,4.8-4,4.8l0,0c-2.4,0-4-2.4-4-4.8v-92c0-2.4,1.6-4.8,4-4.8l0,0
		c2.4,0,4,2.4,4,4.8V99.2z"/>
	<path style="fill:#BCB8A6;" d="M336,113.6c0,2.4-1.6,4.8-4,4.8l0,0c-2.4,0-4-2.4-4-4.8v-92c0-2.4,1.6-4.8,4-4.8l0,0
		c2.4,0,4,2.4,4,4.8V113.6z"/>
	<path style="fill:#BCB8A6;" d="M360,128.8c0,2.4-1.6,4.8-4,4.8l0,0c-2.4,0-4-2.4-4-4.8v-92c0-2.4,1.6-4.8,4-4.8l0,0
		c2.4,0,4,2.4,4,4.8V128.8z"/>
</g>
<g>
</g>
<g>
</g>
<g>
</g>
<g>
</g>
<g>
</g>
<g>
</g>
<g>
</g>
<g>
</g>
<g>
</g>
<g>
</g>
<g>
</g>
<g>
</g>
<g>
</g>
<g>
</g>
<g>
</g>
</svg>
