<?xml version="1.0" encoding="iso-8859-1"?>
<!-- Generator: Adobe Illustrator 19.0.0, SVG Export Plug-In . SVG Version: 6.00 Build 0)  -->
<svg version="1.1" id="Layer_1" xmlns="http://www.w3.org/2000/svg" xmlns:xlink="http://www.w3.org/1999/xlink" x="0px" y="0px"
	 viewBox="0 0 485.6 485.6" style="enable-background:new 0 0 485.6 485.6;" xml:space="preserve">
<path style="fill:#FFD96E;" d="M384.8,244c0,114.4-61.6,152.8-138.4,152.8S108,358.4,108,244S169.6,0,246.4,0
	C323.2,0,384.8,129.6,384.8,244z"/>
<path style="fill:#F7C937;" d="M246.4,0c76.8,0,138.4,129.6,138.4,244s-61.6,152.8-138.4,152.8"/>
<g>
	
		<ellipse transform="matrix(0.2183 -0.9759 0.9759 0.2183 -44.9958 284.7886)" style="fill:#FCF6DB;" cx="155.268" cy="170.481" rx="75.201" ry="21.6"/>
	
		<ellipse transform="matrix(0.3129 -0.9498 0.9498 0.3129 62.3014 222.3187)" style="fill:#FCF6DB;" cx="184.807" cy="68.1" rx="20" ry="12.8"/>
</g>
<path style="fill:#D61E69;" d="M75.2,323.2c12.8,96,84,162.4,171.2,162.4s158.4-66.4,171.2-162.4H75.2z"/>
<rect x="123.198" y="283.956" transform="matrix(-0.9693 0.2458 -0.2458 -0.9693 506.5717 578.2812)" style="fill:#F7C937;" width="187.996" height="73.599"/>
<path style="fill:#AF045A;" d="M136,443.2h220.8c32-28,54.4-72,60.8-120H75.2C81.6,371.2,104,416,136,443.2z"/>
<path style="fill:#F77FC7;" d="M430.4,324c0,8-6.4,15.2-15.2,15.2H69.6c-8,0-15.2-6.4-15.2-15.2v-2.4c0-8,6.4-15.2,15.2-15.2H416
	c8,0,15.2,6.4,15.2,15.2v2.4H430.4z"/>
<path style="fill:#E252AF;" d="M70.4,307.2h344.8c8,0,15.2,6.4,15.2,15.2v2.4c0,8-6.4,15.2-15.2,15.2"/>
<g>
	
		<ellipse transform="matrix(0.7071 -0.7071 0.7071 0.7071 -232.8237 214.2755)" style="fill:#F77FC7;" cx="142.242" cy="388.181" rx="35.2" ry="6.4"/>
	
		<ellipse transform="matrix(0.7068 0.7074 -0.7074 0.7068 316.1029 13.4532)" style="fill:#F77FC7;" cx="141.822" cy="388.068" rx="35.2" ry="6.4"/>
	
		<ellipse transform="matrix(0.7071 -0.7071 0.7071 0.7071 -212.4819 263.4934)" style="fill:#F77FC7;" cx="211.824" cy="388.235" rx="35.2" ry="6.4"/>
	
		<ellipse transform="matrix(0.7065 0.7077 -0.7077 0.7065 336.6715 -35.6259)" style="fill:#F77FC7;" cx="211.288" cy="388.098" rx="35.2" ry="6.4"/>
	
		<ellipse transform="matrix(0.7068 -0.7074 0.7074 0.7068 -191.943 312.3677)" style="fill:#F77FC7;" cx="280.864" cy="387.741" rx="35.2" ry="6.4"/>
	
		<ellipse transform="matrix(0.7065 0.7077 -0.7077 0.7065 356.8798 -85.3963)" style="fill:#F77FC7;" cx="281.399" cy="387.577" rx="35.2" ry="6.4"/>
	
		<ellipse transform="matrix(0.7068 -0.7074 0.7074 0.7068 -171.5452 361.5695)" style="fill:#F77FC7;" cx="350.419" cy="387.734" rx="35.2" ry="6.4"/>
	
		<ellipse transform="matrix(0.7065 0.7077 -0.7077 0.7065 377.3041 -134.5411)" style="fill:#F77FC7;" cx="350.863" cy="387.63" rx="35.2" ry="6.4"/>
	<path style="fill:#F77FC7;" d="M170.4,467.2c17.6,10.4,47.2,18.4,76,18.4c40.8-0.8,59.2-10.4,76-18.4H170.4z"/>
</g>
<g>
	<path style="fill:#FFCCED;" d="M148.8,323.2c0,4-3.2,8-7.2,8H72.8c-4,0-7.2-4-7.2-8l0,0c0-4,3.2-8,7.2-8h68.8
		C145.6,315.2,148.8,319.2,148.8,323.2L148.8,323.2z"/>
	<circle style="fill:#FFCCED;" cx="176.8" cy="387.2" r="4"/>
	<circle style="fill:#FFCCED;" cx="246.4" cy="387.2" r="4"/>
	<circle style="fill:#FFCCED;" cx="316" cy="387.2" r="4"/>
</g>
<g>
</g>
<g>
</g>
<g>
</g>
<g>
</g>
<g>
</g>
<g>
</g>
<g>
</g>
<g>
</g>
<g>
</g>
<g>
</g>
<g>
</g>
<g>
</g>
<g>
</g>
<g>
</g>
<g>
</g>
</svg>
