<?xml version="1.0" encoding="iso-8859-1"?>
<!-- Generator: Adobe Illustrator 19.0.0, SVG Export Plug-In . SVG Version: 6.00 Build 0)  -->
<svg version="1.1" id="Layer_1" xmlns="http://www.w3.org/2000/svg" xmlns:xlink="http://www.w3.org/1999/xlink" x="0px" y="0px"
	 viewBox="0 0 481.655 481.655" style="enable-background:new 0 0 481.655 481.655;" xml:space="preserve">
<path style="fill:#EAE5D8;" d="M438.828,174.4c0,96-88.8,126.4-198.4,126.4s-198.4-29.6-198.4-126.4S130.828,0,240.428,0
	S438.828,77.6,438.828,174.4z"/>
<path style="fill:#FFFFFF;" d="M426.828,168.8c0,93.6-86.4,122.4-192.8,122.4c-105.6,0-192-28.8-192-122.4S128.428,0,234.828,0
	C340.428,0,426.828,75.2,426.828,168.8z"/>
<path style="fill:#F4F1E6;" d="M234.828,0c106.4,0,192.8,76,192.8,168.8s-87.2,122.4-192.8,122.4"/>
<ellipse style="fill:#FFB000;" cx="234.828" cy="120" rx="80" ry="62.4"/>
<path style="fill:#FF7900;" d="M234.828,56.8c44,0,80,28,80,62.4s-36,62.4-80,62.4"/>
<ellipse transform="matrix(-0.6038 -0.7971 0.7971 -0.6038 239.8159 301.6482)" style="fill:#FFDA00;" cx="194.87" cy="91.228" rx="12" ry="33.599"/>
<circle style="fill:#F4F1E6;" cx="118.828" cy="160" r="10.4"/>
<circle style="fill:#FFFFFF;" cx="356.428" cy="155.2" r="10.4"/>
<circle style="fill:#F4F1E6;" cx="99.628" cy="217.6" r="12"/>
<circle style="fill:#FFFFFF;" cx="333.228" cy="222.4" r="16.8"/>
<circle style="fill:#F4F1E6;" cx="126.028" cy="80" r="8.8"/>
<circle style="fill:#FFFFFF;" cx="296.428" cy="43.2" r="8.8"/>
<path style="fill:#C95039;" d="M440.428,321.6c-16-7.2-52.8-13.6-96.8-14.4c-49.6,0-90.4,5.6-101.6,13.6l0,0
	c-9.6,8-51.2,16-102.4,15.2c-46.4-0.8-83.2-6.4-99.2-14.4v59.2c16,8,52,13.6,97.6,14.4c51.2,0.8,93.6-5.6,103.2-14.4l0,0
	c10.4-8.8,52-14.4,101.6-13.6c45.6,0.8,81.6,6.4,97.6,14.4V321.6z"/>
<path style="fill:#AD361A;" d="M440.428,321.6c-16-7.2-52.8-13.6-96.8-13.6c-44-0.8-80.8,4-96.8,10.4l-0.8,58.4
	c16-7.2,52.8-11.2,96-10.4c45.6,0.8,81.6,6.4,97.6,14.4v-59.2H440.428z"/>
<g>
	<path style="fill:#ED8A72;" d="M440.428,357.6c-16-8-52.8-13.6-97.6-14.4c-49.6-0.8-91.2,5.6-102.4,13.6l0,0
		c-8.8,8.8-51.2,15.2-102.4,14.4c-45.6,0-81.6-6.4-97.6-13.6v8c16,8,52.8,13.6,98.4,14.4c51.2,0.8,93.6-5.6,103.2-14.4l0,0
		c10.4-8.8,52-14.4,101.6-13.6c44.8,0.8,81.6,6.4,97.6,14.4v-8.8H440.428z"/>
	<path style="fill:#ED8A72;" d="M440.428,336.8c-16-7.2-52.8-13.6-96.8-13.6c-49.6-0.8-91.2,5.6-102.4,13.6l0,0
		c-8.8,8.8-51.2,15.2-102.4,14.4c-46.4-0.8-82.4-6.4-98.4-14.4v8c16,8,52,14.4,98.4,14.4c51.2,0.8,93.6-5.6,103.2-14.4l0,0
		c11.2-8.8,52-14.4,101.6-13.6c44.8,0,80.8,6.4,96.8,13.6V336.8z"/>
</g>
<path style="fill:#C95039;" d="M40.428,468c16,7.2,52.8,12,96.8,12c49.6,0.8,90.4-7.2,101.6-15.2l0,0c9.6-8,51.2-13.6,102.4-12.8
	c46.4,0.8,82.4,8.8,98.4,16v-59.2c-16-8-52-13.6-97.6-14.4c-50.4,0-93.6,6.4-102.4,15.2l0,0c-10.4,8.8-52,14.4-101.6,13.6
	c-45.6,0-81.6-6.4-97.6-14.4V468z"/>
<path style="fill:#AD361A;" d="M40.428,468c16,7.2,52.8,13.6,96.8,13.6c44,0.8,80.8-7.2,96.8-14.4l0.8-55.2
	c-16,7.2-52.8,11.2-96,10.4c-45.6,0.8-82.4-5.6-98.4-13.6V468z"/>
<g>
	<path style="fill:#ED8A72;" d="M40.428,432c16,8,52.8,13.6,97.6,14.4c49.6,0.8,91.2-5.6,102.4-13.6l0,0
		c8.8-8.8,51.2-15.2,102.4-14.4c45.6,0,81.6,6.4,97.6,14.4v-8c-16-8-52.8-13.6-98.4-14.4c-51.2-1.6-93.6,4.8-102.4,14.4l0,0
		c-10.4,8.8-52,14.4-101.6,13.6c-45.6-0.8-81.6-6.4-97.6-14.4V432z"/>
	<path style="fill:#ED8A72;" d="M40.428,452.8c16,7.2,52.8,13.6,96.8,13.6c49.6,0.8,91.2-5.6,102.4-13.6l0,0
		c9.6-8.8,51.2-15.2,102.4-14.4c46.4,0.8,82.4,6.4,98.4,14.4v-8c-16-8-52-14.4-98.4-14.4c-51.2-0.8-93.6,5.6-103.2,14.4l0,0
		c-11.2,8.8-52,14.4-101.6,13.6c-44.8,0-80.8-6.4-96.8-13.6V452.8z"/>
</g>
<g>
</g>
<g>
</g>
<g>
</g>
<g>
</g>
<g>
</g>
<g>
</g>
<g>
</g>
<g>
</g>
<g>
</g>
<g>
</g>
<g>
</g>
<g>
</g>
<g>
</g>
<g>
</g>
<g>
</g>
</svg>
