<?xml version="1.0" encoding="iso-8859-1"?>
<!-- Generator: Adobe Illustrator 19.0.0, SVG Export Plug-In . SVG Version: 6.00 Build 0)  -->
<svg version="1.1" id="Layer_1" xmlns="http://www.w3.org/2000/svg" xmlns:xlink="http://www.w3.org/1999/xlink" x="0px" y="0px"
	 viewBox="0 0 496 496" style="enable-background:new 0 0 496 496;" xml:space="preserve">
<path style="fill:#07A5A5;" d="M496,367.745H0v80l0,0c8,16,117.6,32.8,248,32.8s236.8-16.8,244.8-32.8h3.2V367.745z"/>
<path style="fill:#028184;" d="M244.8,480.545c130.4,0,243.2-16.8,251.2-32.8l0,0v-80H0"/>
<path style="fill:#F9A035;" d="M496,287.745H0v80l0,0c8,16,117.6,32.8,248,32.8s236.8-16.8,244.8-32.8h3.2V287.745z"/>
<path style="fill:#ED5E0F;" d="M244,400.545c130.4,0,244-16.8,252-32.8l0,0v-80H0"/>
<path style="fill:#D33CAC;" d="M496,207.745l-496-1.6v81.6l0,0c8,16,117.6,32.8,248,32.8s236.8-16.8,244.8-32.8h3.2V207.745z"/>
<path style="fill:#AD1591;" d="M246.4,320.545c129.6,0,241.6-16.8,249.6-32.8l0,0v-81.6l-496,1.6"/>
<path style="fill:#F77FC7;" d="M493.6,206.145c0,19.2-109.6,35.2-245.6,35.2s-248-16-248-35.2s112.8-35.2,248-35.2
	S493.6,186.145,493.6,206.145z"/>
<path style="fill:#E260BA;" d="M248,170.945c135.2,0,248,16,248,35.2s-112.8,34.4-248,34.4"/>
<ellipse style="fill:#BA4A9D;" cx="248" cy="194.145" rx="163.2" ry="23.2"/>
<path style="fill:#A03589;" d="M248,170.945c90.4,0,163.2,10.4,163.2,23.2s-73.6,23.2-163.2,23.2"/>
<path style="fill:#82C60A;" d="M154.4,33.345L154.4,33.345L154.4,33.345L154.4,33.345c0.8,48.8-39.2,76.8-15.2,125.6
	c13.6,28,46.4,33.6,84,37.6l0,0h0.8l0,0c24-29.6,41.6-56.8,31.2-86.4C236.8,58.145,189.6,67.745,154.4,33.345z"/>
<path style="fill:#5EA304;" d="M223.2,195.745L223.2,195.745L223.2,195.745L223.2,195.745c24.8-29.6,42.4-57.6,32-86.4
	c-18.4-51.2-66.4-41.6-100.8-76l0,0h-0.8l0,0"/>
<g>
	<polygon style="fill:#74B208;" points="184.8,105.345 152,99.745 189.6,114.945 204,78.145 	"/>
	<polygon style="fill:#74B208;" points="208,159.745 175.2,154.145 212,169.345 227.2,132.545 	"/>
	<polygon style="fill:#74B208;" points="196.8,131.745 159.2,126.145 200.8,142.945 217.6,100.545 	"/>
</g>
<path style="fill:#82C60A;" d="M49.6,138.145L49.6,138.145L49.6,138.145L49.6,138.145c29.6,27.2,24,66.4,65.6,79.2
	c24,7.2,45.6-8.8,68.8-29.6l0,0l0,0l0,0c-4.8-30.4-10.4-56.8-33.6-66.4C110.4,103.745,89.6,137.345,49.6,138.145z"/>
<path style="fill:#5EA304;" d="M184.8,187.745L184.8,187.745L184.8,187.745L184.8,187.745c-4.8-30.4-10.4-56.8-33.6-67.2
	c-40-17.6-61.6,16-100.8,17.6l0,0l0,0l0,0"/>
<g>
	<polygon style="fill:#74B208;" points="109.6,160.545 88,177.345 117.6,162.945 104,134.145 	"/>
	<polygon style="fill:#74B208;" points="154.4,176.545 132.8,193.345 162.4,179.745 148.8,150.145 	"/>
	<polygon style="fill:#74B208;" points="131.2,168.545 107.2,186.945 140.8,171.745 124.8,138.145 	"/>
</g>
<path style="fill:#AF0547;" d="M319.2,154.945c0,46.4-32,39.2-71.2,39.2s-71.2,7.2-71.2-39.2s32-104,71.2-104
	C287.2,50.945,319.2,108.545,319.2,154.945z"/>
<path style="fill:#84003C;" d="M248,50.945c39.2,0,71.2,57.6,71.2,104s-32,39.2-71.2,39.2"/>
<ellipse style="fill:#5EA304;" cx="248" cy="195.745" rx="32" ry="4.8"/>
<path style="fill:#527C00;" d="M248,190.945c17.6,0,32,2.4,32,4.8s-14.4,4.8-32,4.8"/>
<ellipse transform="matrix(0.7245 -0.6893 0.6893 0.7245 8.3703 174.227)" style="fill:#D12269;" cx="222.129" cy="76.643" rx="25.6" ry="8"/>
<g>
	<circle style="fill:#680034;" cx="210.4" cy="151.745" r="5.6"/>
	<circle style="fill:#680034;" cx="200.8" cy="174.945" r="5.6"/>
	<circle style="fill:#680034;" cx="228" cy="130.945" r="5.6"/>
	<circle style="fill:#680034;" cx="208.8" cy="110.945" r="4.8"/>
	<circle style="fill:#680034;" cx="196.8" cy="131.745" r="4.8"/>
	<circle style="fill:#680034;" cx="235.2" cy="101.345" r="4"/>
	<circle style="fill:#680034;" cx="220" cy="86.145" r="4"/>
	<circle style="fill:#680034;" cx="237.6" cy="69.345" r="3.2"/>
	<circle style="fill:#680034;" cx="234.4" cy="172.545" r="5.6"/>
</g>
<g>
	<circle style="fill:#C1145A;" cx="285.6" cy="151.745" r="5.6"/>
	<circle style="fill:#C1145A;" cx="295.2" cy="174.945" r="5.6"/>
	<circle style="fill:#C1145A;" cx="268" cy="130.945" r="5.6"/>
	<circle style="fill:#C1145A;" cx="287.2" cy="110.945" r="4.8"/>
	<circle style="fill:#C1145A;" cx="299.2" cy="131.745" r="4.8"/>
	<circle style="fill:#C1145A;" cx="260.8" cy="101.345" r="4"/>
	<circle style="fill:#C1145A;" cx="276" cy="86.145" r="4"/>
	<circle style="fill:#C1145A;" cx="258.4" cy="69.345" r="3.2"/>
	<circle style="fill:#C1145A;" cx="261.6" cy="172.545" r="5.6"/>
</g>
<path style="fill:#C4B37E;" d="M456,18.945c-13.6-6.4-28.8-4-34.4,7.2l-82.4,164.8l-0.8,0.8H400l71.2-142.4
	C476.8,38.945,469.6,26.145,456,18.945z"/>
<path style="fill:#AA945E;" d="M368,191.745c0,0-28.8,0-29.6,0H400l71.2-142.4c5.6-10.4-1.6-23.2-15.2-30.4"/>
<polygon style="fill:#823061;" points="398.4,72.545 460,72.545 472,48.545 410.4,48.545 "/>
<polyline style="fill:#680034;" points="460,72.545 472,48.545 411.2,48.545 "/>
<polygon style="fill:#823061;" points="379.2,111.745 440,112.545 452,87.745 391.2,87.745 "/>
<polyline style="fill:#680034;" points="440.8,110.945 452,87.745 392,87.745 "/>
<polygon style="fill:#823061;" points="359.2,151.745 420.8,151.745 432,127.745 371.2,127.745 "/>
<polyline style="fill:#680034;" points="420.8,151.745 432,127.745 376,127.745 "/>
<polygon style="fill:#823061;" points="400.8,191.745 412.8,167.745 351.2,167.745 338.4,191.745 "/>
<polyline style="fill:#680034;" points="400.8,191.745 412.8,167.745 352,167.745 "/>
<ellipse transform="matrix(-0.0953 -0.9955 0.9955 -0.0953 456.6184 464.1151)" style="fill:#D8CAA4;" cx="439.217" cy="24.557" rx="4.8" ry="12.801"/>
<g>
	
		<ellipse transform="matrix(-0.1481 -0.989 0.989 -0.1481 -145.9097 275.366)" style="fill:#F2C0E3;" cx="45.646" cy="200.527" rx="8.8" ry="30.401"/>
	<path style="fill:#F2C0E3;" d="M24,273.345c0,4-2.4,6.4-6.4,6.4h-3.2c-4,0-6.4-2.4-6.4-6.4v-44c0-3.2,2.4-5.6,6.4-5.6h4
		c3.2,0,5.6,2.4,5.6,6.4V273.345z"/>
</g>
<path style="fill:#F7C937;" d="M24,353.345c0,4-2.4,6.4-6.4,6.4h-3.2c-4,0-6.4-2.4-6.4-6.4v-44c0-3.2,2.4-5.6,6.4-5.6h4
	c3.2,0,5.6,2.4,5.6,6.4V353.345z"/>
<path style="fill:#3EC6BF;" d="M24,433.345c0,4-2.4,6.4-6.4,6.4h-3.2c-4,0-6.4-2.4-6.4-6.4v-44c0-3.2,2.4-5.6,6.4-5.6h4
	c3.2,0,5.6,2.4,5.6,6.4V433.345z"/>
<g>
</g>
<g>
</g>
<g>
</g>
<g>
</g>
<g>
</g>
<g>
</g>
<g>
</g>
<g>
</g>
<g>
</g>
<g>
</g>
<g>
</g>
<g>
</g>
<g>
</g>
<g>
</g>
<g>
</g>
</svg>
