<?xml version="1.0" encoding="iso-8859-1"?>
<!-- Generator: Adobe Illustrator 19.0.0, SVG Export Plug-In . SVG Version: 6.00 Build 0)  -->
<svg version="1.1" id="Layer_1" xmlns="http://www.w3.org/2000/svg" xmlns:xlink="http://www.w3.org/1999/xlink" x="0px" y="0px"
	 viewBox="0 0 496 496" style="enable-background:new 0 0 496 496;" xml:space="preserve">
<path style="fill:#EF4220;" d="M320,174.4C320,272,288,496,248,496s-72-224-72-321.6s32-112.8,72-112.8S320,76.8,320,174.4z"/>
<path style="fill:#D6270F;" d="M248,61.6c40,0,72,16,72,112.8C320,272,288,496,248,496"/>
<g>
	
		<ellipse transform="matrix(0.6757 -0.7372 0.7372 0.6757 -0.63 188.9733)" style="fill:#FC7854;" cx="214.461" cy="95.203" rx="30.401" ry="12.8"/>
	<ellipse style="fill:#FC7854;" cx="248" cy="170.4" rx="46.4" ry="4.8"/>
	<ellipse style="fill:#FC7854;" cx="248" cy="255.2" rx="46.4" ry="4.8"/>
	<ellipse style="fill:#FC7854;" cx="248" cy="340" rx="46.4" ry="4.8"/>
</g>
<path style="fill:#489E10;" d="M294.4,80C291.2,56,272,40,248,40s-43.2,16-46.4,40H294.4z"/>
<path style="fill:#337A05;" d="M248,80h46.4C291.2,56,272,40,248,40"/>
<path style="fill:#489E10;" d="M256,42.4c0,4.8-3.2,8-8,8l0,0c-4.8,0-8-4-8-8V8c0-4.8,3.2-8,8-8l0,0c4.8,0,8,4,8,8V42.4z"/>
<path style="fill:#337A05;" d="M248,0L248,0c4.8,0,8,4,8,8v33.6c0,4.8-4,8-8,8l0,0"/>
<g>
</g>
<g>
</g>
<g>
</g>
<g>
</g>
<g>
</g>
<g>
</g>
<g>
</g>
<g>
</g>
<g>
</g>
<g>
</g>
<g>
</g>
<g>
</g>
<g>
</g>
<g>
</g>
<g>
</g>
</svg>
