<svg xmlns="http://www.w3.org/2000/svg" viewBox="0 0 339.5 283.23"><g id="Layer_2" data-name="Layer 2"><g id="Layer_1-2" data-name="Layer 1"><path d="M285.58,283.23c-7,0-13.83-2.45-20.3-7.28-12.49-9.32-16.65-22-12.71-38.87l.57-2.45H174.63l.63,2.49c3.57,14.08.58,26.07-8.88,35.65-6.62,6.71-15,10.11-24.9,10.11h-.34a34.68,34.68,0,0,1-27-14c-6.76-8.91-8.76-20.18-5.63-31.74l.63-2.3-2.38-.21c-1.51-.13-3-.23-4.53-.32a77.41,77.41,0,0,1-9.36-1c-26.39-4.91-44.15-26.34-44.19-53.32-.06-38.58-.06-80.58,0-128.39,0-1,0-2.08,0-3.16.12-7.45.26-15.9-4.51-20.75-2.39-2.42-5.75-3.65-10-3.65-.43,0-13.41-.53-23.8-1A10.92,10.92,0,0,1,0,12.62v-.31A10.91,10.91,0,0,1,10.4,1.08C16.19.82,22.81.52,27.58.29L34,0c11,0,19.61,3.05,25.48,9.05C70.43,20.21,70,39.08,69.8,49.22c0,1.26-.06,2.37-.06,3.33q.06,38.85,0,77.69,0,24.24,0,48.46c0,16.71,8.76,29.11,23.41,33.18a35.33,35.33,0,0,0,9.47,1.22q70.43.06,140.85.05h43.23c16.76,0,29.91,12.34,32.48,23.78,4.25,19-1.48,33-17,41.7A34,34,0,0,1,285.58,283.23ZM142,234.32a13.75,13.75,0,1,0-.13,27.49h0A13.64,13.64,0,0,0,155.69,248a13.6,13.6,0,0,0-13.46-13.71Zm143.92,0a13.74,13.74,0,0,0-.28,27.47h.13a13.74,13.74,0,0,0,.31-27.47Z"/><path d="M126,188.11c-3.22,0-5.82,0-8.19-.07A27.88,27.88,0,0,1,102.66,137a7.58,7.58,0,0,0,3.66-6.21c4.25-44.1,35.83-81.81,78.58-93.84.68-.19,1.35-.41,2-.62l.78-.25,1.45-.47-.06-1.52c-.42-11,2.33-19.95,8-25.79,4.46-4.63,10.63-7.08,17.86-7.08a26.6,26.6,0,0,1,19.87,9.25c3.66,4.27,7.65,11.76,5.89,23.22l-.25,1.66,1.59.53c1,.35,2.06.68,3.1,1,2.16.7,4.39,1.42,6.51,2.26,41.17,16.31,65.24,46.63,71.55,90.11.43,3,1.35,6.11,5.08,8.58,5.48,3.63,9,9.21,11.28,18.07V164a3.55,3.55,0,0,0-.49,1.07c-3.8,15.05-13.93,23-29.3,23l-77.7,0H126Zm182.51-21c.28,0,.58,0,.89,0l1.14,0a5,5,0,0,0,3.21-.89c3-2.36,4.44-4.45,4.4-6.39s-1.51-3.93-4.64-6.21a4.76,4.76,0,0,0-2.86-.78c-.43,0-.88,0-1.33.07s-.69,0-1,0H212.76v0H121.6c-4.26,0-7,.8-8.68,2.5a6.15,6.15,0,0,0-1.67,4.65c.19,6.91,7.7,6.91,10.17,6.91l151.53,0ZM214.9,53.76c-1.23,0-2.48,0-3.72.08-47.53,1.92-79.68,40.1-83.3,75.9l-.23,2.2H302.23L302,129.7c-2.38-19.89-12.21-38.66-27.69-52.84A87.61,87.61,0,0,0,214.9,53.76Zm-2-36.6a38.13,38.13,0,0,1-2.78,2.72c-2.54,2.35-5.18,4.77-5.37,7.71-.17,2.74,1.91,5.12,4.78,8.41,1.33,1.51,2.83,3.22,4.3,5.21L215.16,43l1.28-1.86c1.41-2.06,2.9-3.9,4.21-5.52,2.86-3.52,4.93-6.07,4.29-8.6-.77-3.07-3.73-5.3-6.58-7.46-1.16-.87-2.24-1.69-3.17-2.54L214,15.93Z"/></g></g></svg>