<?xml version="1.0" encoding="iso-8859-1"?>
<!-- Generator: Adobe Illustrator 19.0.0, SVG Export Plug-In . SVG Version: 6.00 Build 0)  -->
<svg version="1.1" id="Layer_1" xmlns="http://www.w3.org/2000/svg" xmlns:xlink="http://www.w3.org/1999/xlink" x="0px" y="0px"
	 viewBox="0 0 496 496" style="enable-background:new 0 0 496 496;" xml:space="preserve">
<polygon style="fill:#FFD00B;" points="496,440 0,440 0,176 312.8,56 496,176 "/>
<rect y="176" style="fill:#F79E00;" width="496" height="264"/>
<polyline style="fill:#F47A00;" points="0,176 496,176 496,440 "/>
<circle style="fill:#FFD00B;" cx="108.8" cy="286.4" r="36.8"/>
<circle style="fill:#FFED0D;" cx="115.2" cy="292.8" r="28"/>
<circle style="fill:#FFD00B;" cx="404.8" cy="364.8" r="36.8"/>
<circle style="fill:#FFED0D;" cx="411.2" cy="372" r="28"/>
<circle style="fill:#FFD00B;" cx="268" cy="343.2" r="24.8"/>
<circle style="fill:#FFED0D;" cx="272" cy="348" r="19.2"/>
<circle style="fill:#FFD00B;" cx="340" cy="278.4" r="17.6"/>
<circle style="fill:#FFED0D;" cx="343.2" cy="281.6" r="13.6"/>
<circle style="fill:#FFD00B;" cx="209.6" cy="232" r="22.4"/>
<circle style="fill:#FFED0D;" cx="212.8" cy="236" r="16.8"/>
<circle style="fill:#FFD00B;" cx="46.4" cy="216.8" r="15.2"/>
<circle style="fill:#FFED0D;" cx="48.8" cy="220" r="12"/>
<circle style="fill:#FFD00B;" cx="185.6" cy="313.6" r="15.2"/>
<circle style="fill:#FFED0D;" cx="188" cy="316" r="12"/>
<ellipse style="fill:#F79E00;" cx="342.4" cy="124.8" rx="22.4" ry="12.8"/>
<ellipse style="fill:#FFB40D;" cx="346.4" cy="127.2" rx="16.8" ry="9.6"/>
<ellipse style="fill:#F79E00;" cx="288" cy="104" rx="15.2" ry="8.8"/>
<ellipse style="fill:#FFB40D;" cx="290.4" cy="105.6" rx="11.2" ry="6.4"/>
<ellipse style="fill:#F79E00;" cx="192" cy="138.4" rx="10.4" ry="6.4"/>
<ellipse style="fill:#FFB40D;" cx="194.4" cy="140" rx="8" ry="4.8"/>
<ellipse style="fill:#F79E00;" cx="249.6" cy="149.6" rx="12.8" ry="7.2"/>
<ellipse style="fill:#FFB40D;" cx="252" cy="151.2" rx="9.6" ry="5.6"/>
<ellipse style="fill:#F79E00;" cx="387.2" cy="155.2" rx="8.8" ry="5.6"/>
<ellipse style="fill:#FFB40D;" cx="388.8" cy="156" rx="7.2" ry="4"/>
<ellipse style="fill:#F79E00;" cx="124.8" cy="152" rx="8.8" ry="5.6"/>
<ellipse style="fill:#FFB40D;" cx="126.4" cy="152.8" rx="7.2" ry="4"/>
<ellipse style="fill:#F79E00;" cx="252" cy="124.8" rx="6.4" ry="4"/>
<ellipse style="fill:#FFB40D;" cx="252.8" cy="125.6" rx="4.8" ry="3.2"/>
<ellipse style="fill:#F79E00;" cx="436.8" cy="158.4" rx="6.4" ry="4"/>
<ellipse style="fill:#FFB40D;" cx="437.6" cy="159.2" rx="4.8" ry="3.2"/>
<circle style="fill:#FFD00B;" cx="220.8" cy="395.2" r="15.2"/>
<circle style="fill:#FFED0D;" cx="223.2" cy="397.6" r="12"/>
<circle style="fill:#FFD00B;" cx="458.4" cy="264" r="15.2"/>
<circle style="fill:#FFED0D;" cx="460.8" cy="266.4" r="12"/>
<circle style="fill:#FFD00B;" cx="40" cy="351.2" r="10.4"/>
<path style="fill:#FFED0D;" d="M49.6,352.8c0,4-3.2,8-8,8s-8-3.2-8-8c0-4,3.2-8,8-8S49.6,348.8,49.6,352.8z"/>
<circle style="fill:#FFD00B;" cx="384.8" cy="235.2" r="10.4"/>
<circle style="fill:#FFED0D;" cx="386.4" cy="236.8" r="8"/>
<circle style="fill:#FFD00B;" cx="300.8" cy="228" r="10.4"/>
<circle style="fill:#FFED0D;" cx="302.4" cy="229.6" r="8"/>
<circle style="fill:#FFD00B;" cx="113.6" cy="363.2" r="6.4"/>
<circle style="fill:#FFED0D;" cx="114.4" cy="364" r="4.8"/>
<path style="fill:#FFD00B;" d="M84.8,396.8c0,4-3.2,6.4-6.4,6.4c-4,0-6.4-3.2-6.4-6.4c0-4,3.2-6.4,6.4-6.4
	C81.6,390.4,84.8,392.8,84.8,396.8z"/>
<circle style="fill:#FFED0D;" cx="79.2" cy="397.6" r="4.8"/>
<path style="fill:#FFD00B;" d="M344,372c0,4-3.2,6.4-6.4,6.4c-4,0-6.4-3.2-6.4-6.4s3.2-6.4,6.4-6.4S344,368.8,344,372z"/>
<circle style="fill:#FFED0D;" cx="338.4" cy="373.6" r="4.8"/>
<g>
</g>
<g>
</g>
<g>
</g>
<g>
</g>
<g>
</g>
<g>
</g>
<g>
</g>
<g>
</g>
<g>
</g>
<g>
</g>
<g>
</g>
<g>
</g>
<g>
</g>
<g>
</g>
<g>
</g>
</svg>
