<?xml version="1.0" encoding="iso-8859-1"?>
<!-- Generator: Adobe Illustrator 19.0.0, SVG Export Plug-In . SVG Version: 6.00 Build 0)  -->
<svg version="1.1" id="Layer_1" xmlns="http://www.w3.org/2000/svg" xmlns:xlink="http://www.w3.org/1999/xlink" x="0px" y="0px"
	 viewBox="0 0 497.581 497.581" style="enable-background:new 0 0 497.581 497.581;" xml:space="preserve">
<polygon style="fill:#FFC114;" points="60.495,46.4 204.495,192 162.895,315.2 49.295,250.4 "/>
<polyline style="fill:#FFCD50;" points="162.895,315.2 49.295,250.4 60.495,46.4 "/>
<polygon style="fill:#F9A035;" points="101.295,153.6 94.895,276 162.895,315.2 187.695,240.8 "/>
<polyline style="fill:#FF9A15;" points="162.895,315.2 187.695,240.8 101.295,153.6 "/>
<polygon style="fill:#E89215;" points="460.495,12.8 458.095,350.4 266.095,444.8 209.295,237.6 "/>
<polyline style="fill:#FFCD50;" points="266.095,444.8 209.295,237.6 460.495,12.8 "/>
<polygon style="fill:#F9A035;" points="382.895,184.8 231.695,320.8 266.095,444.8 381.295,388 "/>
<polyline style="fill:#ED7014;" points="266.095,444.8 381.295,388 382.895,184.8 "/>
<polygon style="fill:#FFC114;" points="256.495,0 286.095,119.2 226.895,170.4 187.695,102.4 "/>
<polyline style="fill:#FFCD50;" points="226.895,170.4 187.695,102.4 256.495,0 "/>
<polygon style="fill:#F9A035;" points="244.495,68 203.695,129.6 226.895,170.4 262.095,140 "/>
<polyline style="fill:#FF9A15;" points="226.895,170.4 262.095,140 244.495,68 "/>
<path style="fill:#FFFCEE;" d="M421.295,114.4c-10.4-12-28.8-12.8-40.8-1.6c-11.2,10.4-12.8,28-3.2,39.2
	c-11.2,7.2-24.8,19.2-41.6,34.4c-45.6,41.6-24,30.4-12,44s-0.8,33.6,44.8-8c16.8-15.2,29.6-28,38.4-38.4c11.2,10.4,28,11.2,40,0.8
	s12.8-28.8,1.6-40.8c-4.8-5.6-12-8.8-19.2-9.6C429.295,127.2,426.895,120,421.295,114.4z"/>
<g>
	<path style="fill:#EDE9D9;" d="M323.695,230.4c12,13.6-0.8,33.6,44.8-8c16.8-15.2,29.6-28,38.4-38.4c11.2,10.4,28,11.2,40,0.8
		s12.8-28.8,1.6-40.8c-4.8-5.6-12-8.8-19.2-9.6"/>
	<path style="fill:#EDE9D9;" d="M323.695,230.4c12,13.6-0.8,33.6,44.8-8c4-4,8-7.2,11.2-10.4c-4-6.4-8.8-13.6-14.4-20
		s-12-12-18.4-16c-4,3.2-7.2,6.4-12,10.4C290.095,228,311.695,216.8,323.695,230.4z"/>
</g>
<path style="fill:#874B15;" d="M322.895,226.4c45.6,50.4-14.4,180-75.2,235.2s-129.6,42.4-175.2-8s-52-120,9.6-175.2
	C142.095,223.2,276.495,176,322.895,226.4z"/>
<path style="fill:#68300B;" d="M322.895,226.4c45.6,50.4-14.4,180-75.2,235.2s-129.6,42.4-175.2-8"/>
<path style="fill:#874B15;" d="M349.295,202.4c20,22.4,12.8,61.6-1.6,74.4c-14.4,13.6-38.4,2.4-58.4-20s-28.8-47.2-14.4-60
	C289.295,183.2,329.295,180,349.295,202.4z"/>
<path style="fill:#68300B;" d="M349.295,202.4c20,22.4,12.8,61.6-1.6,74.4c-14.4,13.6-38.4,2.4-58.4-20"/>
<g>
	<circle style="fill:#874B15;" cx="128.495" cy="437.6" r="8"/>
	<circle style="fill:#874B15;" cx="167.695" cy="402.4" r="8"/>
	<circle style="fill:#874B15;" cx="206.895" cy="366.4" r="8"/>
	<circle style="fill:#874B15;" cx="246.095" cy="331.2" r="8"/>
	<circle style="fill:#874B15;" cx="284.495" cy="295.2" r="8"/>
	<circle style="fill:#874B15;" cx="174.095" cy="444" r="8"/>
	<circle style="fill:#874B15;" cx="213.295" cy="408" r="8"/>
	<circle style="fill:#874B15;" cx="252.495" cy="372.8" r="8"/>
	<circle style="fill:#874B15;" cx="291.695" cy="336.8" r="8"/>
	<circle style="fill:#874B15;" cx="216.495" cy="449.6" r="8"/>
	<circle style="fill:#874B15;" cx="254.895" cy="413.6" r="8"/>
</g>
<path style="fill:#A56B2D;" d="M226.095,231.2c7.2,11.2-47.2,57.6-84.8,81.6s-62.4,27.2-69.6,16s6.4-32,44-56
	C154.095,249.6,219.695,220,226.095,231.2z"/>
<g>
	<circle style="fill:#68300B;" cx="94.895" cy="400.8" r="8"/>
	<circle style="fill:#68300B;" cx="134.095" cy="364.8" r="8"/>
	<circle style="fill:#68300B;" cx="173.295" cy="329.6" r="8"/>
	<circle style="fill:#68300B;" cx="211.695" cy="293.6" r="8"/>
	<circle style="fill:#68300B;" cx="250.895" cy="258.4" r="8"/>
	<circle style="fill:#68300B;" cx="93.295" cy="354.4" r="8"/>
	<circle style="fill:#68300B;" cx="132.495" cy="319.2" r="8"/>
	<circle style="fill:#68300B;" cx="171.695" cy="283.2" r="8"/>
	<circle style="fill:#68300B;" cx="210.095" cy="248" r="8"/>
	<circle style="fill:#68300B;" cx="91.695" cy="312" r="8"/>
	<circle style="fill:#68300B;" cx="130.095" cy="276.8" r="8"/>
</g>
<g>
</g>
<g>
</g>
<g>
</g>
<g>
</g>
<g>
</g>
<g>
</g>
<g>
</g>
<g>
</g>
<g>
</g>
<g>
</g>
<g>
</g>
<g>
</g>
<g>
</g>
<g>
</g>
<g>
</g>
</svg>
