<?xml version="1.0" encoding="iso-8859-1"?>
<!-- Generator: Adobe Illustrator 19.0.0, SVG Export Plug-In . SVG Version: 6.00 Build 0)  -->
<svg version="1.1" id="Layer_1" xmlns="http://www.w3.org/2000/svg" xmlns:xlink="http://www.w3.org/1999/xlink" x="0px" y="0px"
	 viewBox="0 0 496 496" style="enable-background:new 0 0 496 496;" xml:space="preserve">
<polygon points="416,496 80,496 80,396 104,320 392,320 416,340 "/>
<polyline style="fill:#773515;" points="248,0 248,144 104,144 "/>
<polyline style="fill:#632309;" points="232,16 232,128 120,128 "/>
<polyline style="fill:#894121;" points="216,49.6 218.4,112 152,112 "/>
<rect x="248" style="fill:#773515;" width="144" height="144"/>
<polyline style="fill:#8E4829;" points="248,144 248,0 392,0 "/>
<polygon style="fill:#9E683C;" points="320.8,72.8 392,0 248,0 248,0 "/>
<rect x="264" y="16" style="fill:#773515;" width="112" height="112"/>
<polyline style="fill:#632309;" points="376,16 376,128 264,128 "/>
<polyline style="fill:#894121;" points="280,88 280,32 336,32 "/>
<rect x="104" y="144" style="fill:#773515;" width="144" height="144"/>
<polyline style="fill:#8E4829;" points="104,288 104,144 248,144 "/>
<polygon style="fill:#9E683C;" points="176,217.6 248.8,144 104,144 104,145.6 "/>
<rect x="120" y="160" style="fill:#773515;" width="112" height="112"/>
<polyline style="fill:#632309;" points="232,160 232,272 120,272 "/>
<polyline style="fill:#894121;" points="128,240 128,176 192,176 "/>
<rect x="248" y="144" style="fill:#773515;" width="144" height="144"/>
<polyline style="fill:#8E4829;" points="248,288 248,144 392,144 "/>
<polygon style="fill:#9E683C;" points="320.8,217.6 392,144 248,144 248,145.6 "/>
<rect x="264" y="160" style="fill:#773515;" width="112" height="112"/>
<polyline style="fill:#632309;" points="376,160 376,272 264,272 "/>
<polyline style="fill:#894121;" points="280,240 280,176 336,176 "/>
<rect x="104" y="288" style="fill:#773515;" width="144" height="152"/>
<polyline style="fill:#8E4829;" points="104,440 104,288 248,288 "/>
<polygon style="fill:#9E683C;" points="176,363.2 248.8,288 104,288 104,292 "/>
<rect x="120" y="304" style="fill:#773515;" width="112" height="120"/>
<polyline style="fill:#632309;" points="232,304 232,424 120,424 "/>
<polyline style="fill:#894121;" points="128,384 128,320 192,320 "/>
<rect x="248" y="288" style="fill:#773515;" width="144" height="152"/>
<polyline style="fill:#8E4829;" points="248,440 248,288 392,288 "/>
<polygon style="fill:#9E683C;" points="320.8,363.2 392,288 248,288 248,292 "/>
<rect x="264" y="304" style="fill:#773515;" width="112" height="120"/>
<polyline style="fill:#632309;" points="376,304 376,424 264,424 "/>
<polyline style="fill:#894121;" points="280,384 280,320 336,320 "/>
<polygon style="fill:#FCE577;" points="416,496 80,496 80,399.2 136,392.8 208.8,352 416,352 "/>
<polygon style="fill:#FFB31A;" points="416,496 80,496 192,462.4 136,392.8 208.8,352 416,352 "/>
<polygon style="fill:#551B7A;" points="416,496 80,496 80,414.4 189.6,459.2 247.2,352 416,352 "/>
<polyline style="fill:#360B60;" points="189.6,459.2 247.2,352 416,352 416,496 "/>
<g>
	<rect x="392" y="376" style="fill:#C675CC;" width="8" height="112"/>
	<polygon style="fill:#C675CC;" points="240,376 236,384 400,384 400,376 	"/>
</g>
<g>
</g>
<g>
</g>
<g>
</g>
<g>
</g>
<g>
</g>
<g>
</g>
<g>
</g>
<g>
</g>
<g>
</g>
<g>
</g>
<g>
</g>
<g>
</g>
<g>
</g>
<g>
</g>
<g>
</g>
</svg>
