<svg id="Capa_1" enable-background="new 0 0 497.998 497.998" height="512" viewBox="0 0 497.998 497.998" width="512" xmlns="http://www.w3.org/2000/svg"><g><path d="m438.869 0h-104.39c-6.44 0-12.16 4.11-14.22 10.21l-94.65 281.08c-.65 1.92.38 4 2.3 4.65l21.48 7.23c1.92.65 4-.39 4.65-2.31l90.37-268.36c.51-1.5 1.9-2.5 3.48-2.5h90.98c2.03 0 3.67-1.65 3.67-3.67v-22.66c0-2.03-1.64-3.67-3.67-3.67z" fill="#e1f5f8"/><path d="m263.431 450.202 81.018 39.992c3.904 1.927 2.532 7.804-1.821 7.804h-187.259c-4.353 0-5.725-5.877-1.821-7.804l81.018-39.992v-191.473h29.624z" fill="#e1f5f8"/><path d="m144.064 211.505-7.065 19.925 32.55 36.42 30.341 16.29h92.444l36.865-17.13 31.82-35.6 3.349-19.905z" fill="#b1f5d5"/><path d="m259.669 284.14 24.46-72.635h-31.654l-24.459 72.635z" fill="#91f2c5"/><g><g id="XMLID_400_"><g><path d="m466.549 96.79h-435.1c-5.71 0-8.73 6.75-4.93 11l78.48 87.83 42.752 15.885h200.906l44.752-16.355 78.07-87.36c3.8-4.25.78-11-4.93-11z" fill="#ea9a98"/><path d="m252.475 211.505h31.654l38.63-114.715h-31.655z" fill="#e5827f"/><path d="m83.842 96.79h-52.393c-5.71 0-8.73 6.75-4.93 11l78.48 87.83 42.752 15.885h38.601z" fill="#e5827f"/><path d="m393.409 195.15-32.39 36.26-224.02.02-32-35.81z" fill="#fcf0b6"/><path d="m277.424 231.417 12.156-36.098-31.672.052-12.139 36.049z" fill="#fbe88c"/><path d="m186.352 211.505h-42.288l-7.065 19.925 32.55 36.42 30.341 16.29h51.368z" fill="#91f2c5"/><path d="m329.199 267.01-70.28 78.65c-5.29 5.92-14.55 5.92-19.84 0l-69.53-77.81z" fill="#d2b3ea"/><path d="m233.615 267.513-8.007 23.777c-.65 1.92.38 4 2.3 4.65l21.48 7.23c1.92.65 4-.39 4.65-2.31l11.286-33.514z" fill="#c39be2"/></g></g><path d="m280.948 317.365-44.561-49.867-66.838.352 69.53 77.81c5.29 5.92 14.55 5.92 19.84 0l23.814-26.65c-.63-.489-1.233-1.027-1.785-1.645z" fill="#c39be2"/><path d="m236.387 267.498-2.771.015-8.007 23.777c-.65 1.92.38 4 2.3 4.65l21.48 7.23c1.92.65 4-.39 4.65-2.31l3.328-9.883z" fill="#b485db"/><path d="m172.059 195.511-67.06.109 32 35.81 67.152-.006z" fill="#fbe88c"/><path d="m203.732 303.644h90.828" fill="none"/><g id="XMLID_404_"><path d="m404.209 0v30h15v-30z" fill="#d9f2f6"/></g></g></g></svg>