<?xml version="1.0" encoding="iso-8859-1"?>
<!-- Generator: Adobe Illustrator 19.0.0, SVG Export Plug-In . SVG Version: 6.00 Build 0)  -->
<svg version="1.1" id="Layer_1" xmlns="http://www.w3.org/2000/svg" xmlns:xlink="http://www.w3.org/1999/xlink" x="0px" y="0px"
	 viewBox="0 0 496 496" style="enable-background:new 0 0 496 496;" xml:space="preserve">
<path d="M496,324.8V280h-76.8c-44-16-104.8-20-171.2-20s-126.4,4-171.2,20H0v44.8c0,1.6,0,2.4,0,4.8c0,39.2,111.2,71.2,247.2,71.2
	s248.8-32,248.8-70.4C496,328,496,327.2,496,324.8z"/>
<ellipse style="fill:#003F3A;" cx="248" cy="286.4" rx="246.4" ry="70.4"/>
<ellipse style="fill:#125952;" cx="248" cy="273.6" rx="156.8" ry="42.4"/>
<ellipse transform="matrix(-0.1226 -0.9925 0.9925 -0.1226 -44.06 471.5449)" style="fill:#1F6D64;" cx="186.41" cy="255.249" rx="13.601" ry="64.803"/>
<path style="fill:#CEC8B2;" d="M496,265.6V216h-76.8c-44-8-104.8-20-171.2-20s-126.4,12-171.2,20L0,208v57.6c0,1.6,0,3.2,0,4.8
	c0,39.2,111.2,70.4,247.2,70.4s248-31.2,248-70.4C495.2,268.8,496,267.2,496,265.6z"/>
<path style="fill:#B7B098;" d="M248,340.8c136,0,248-31.2,248-70.4c0-1.6,0-3.2,0-4.8V200l-76.8,16c-44-8-104.8-17.6-171.2-17.6"/>
<ellipse style="fill:#F4F1E6;" cx="248" cy="226.4" rx="246.4" ry="70.4"/>
<path style="fill:#CEC8B2;" d="M248,156c136,0,246.4,31.2,246.4,70.4S384,296,248,296"/>
<ellipse style="fill:#125952;" cx="248" cy="213.6" rx="156.8" ry="42.4"/>
<ellipse transform="matrix(-0.1226 -0.9925 0.9925 -0.1226 15.472 404.1795)" style="fill:#1F6D64;" cx="186.398" cy="195.251" rx="13.601" ry="64.803"/>
<path d="M496,204.8v-40l-76.8-4.8c-44-16-104.8-20-171.2-20s-126.4,4-171.2,20L0,164v41.6c0,1.6,0,3.2,0,4.8
	C0,248.8,111.2,280,247.2,280s248-31.2,248-70.4C495.2,208,496,206.4,496,204.8z"/>
<path style="fill:#003F3A;" d="M494.4,165.6C494.4,204.8,384,236,248,236S0,204,0,164.8s112-69.6,248-69.6S494.4,127.2,494.4,165.6z
	"/>
<path style="fill:#032B27;" d="M248,95.2c136,0,248,31.2,248,69.6S384,236,248,236"/>
<ellipse style="fill:#003F3A;" cx="248" cy="153.6" rx="156.8" ry="42.4"/>
<path style="fill:#032B27;" d="M248,196c-86.4,0-156.8-19.2-156.8-42.4c0-23.2,70.4-42.4,156.8-42.4"/>
<g>
	
		<ellipse transform="matrix(-0.1226 -0.9925 0.9925 -0.1226 57.681 329.3258)" style="fill:#003F3A;" cx="174.415" cy="139.166" rx="11.2" ry="52.802"/>
	<path style="fill:#003F3A;" d="M16,189.6v44.8c6.4,4,8,5.6,16,9.6v-44.8C25.6,196,24,192.8,16,189.6z"/>
	<path style="fill:#003F3A;" d="M16,309.6v44.8c5.6,4.8,8,5.6,16,9.6v-45.6C24,316,24,312.8,16,309.6z"/>
	<path style="fill:#003F3A;" d="M72,335.2V380c6.4,2.4,8,2.4,16,4v-45.6C80,337.6,80,336,72,335.2z"/>
	<path style="fill:#003F3A;" d="M72,213.6v45.6c6.4,2.4,8,2.4,16,4v-44.8C80,217.6,80,215.2,72,213.6z"/>
	<path style="fill:#003F3A;" d="M128,347.2V392c6.4,0.8,8,1.6,16,2.4v-44.8C136,348,136,347.2,128,347.2z"/>
	<path style="fill:#003F3A;" d="M128,227.2V272c6.4,0.8,8,0.8,16,2.4v-44.8C136,228,136,227.2,128,227.2z"/>
	<path style="fill:#003F3A;" d="M184,352.8v44.8c8,0,8,0.8,16,0.8v-44.8C192,353.6,192,353.6,184,352.8z"/>
	<path style="fill:#003F3A;" d="M184,232.8v44.8c8,0,8,0.8,16,0.8v-44.8C192,233.6,192,233.6,184,232.8z"/>
	<path style="fill:#003F3A;" d="M248,355.2c-2.4,0-8,0-8,0V400c0,0,5.6,0,8,0s8,0,8,0v-44.8C256,355.2,250.4,355.2,248,355.2z"/>
	<path style="fill:#003F3A;" d="M248,235.2c-2.4,0-8,0.8-8,0.8v44c0,0,5.6,0,7.2,0c2.4,0,8.8,0,8.8,0v-44
		C256,236,250.4,235.2,248,235.2z"/>
</g>
<g>
	<path style="fill:#032B27;" d="M296,355.2v44c8,0,8-0.8,16-0.8v-44C304,354.4,304,354.4,296,355.2z"/>
	<path style="fill:#032B27;" d="M296,227.2v52c8,0,8-0.8,16-0.8v-52C304,226.4,304,226.4,296,227.2z"/>
	<path style="fill:#032B27;" d="M352,349.6v44c8-0.8,8-0.8,16-2.4v-44C360,348.8,360.8,348.8,352,349.6z"/>
	<path style="fill:#032B27;" d="M352,228.8v44.8c8.8-0.8,8.8-0.8,16-2.4v-45.6C360,226.4,360.8,227.2,352,228.8z"/>
	<path style="fill:#032B27;" d="M408,339.2V384c8-2.4,11.2-3.2,16-4v-44C416.8,337.6,416.8,337.6,408,339.2z"/>
	<path style="fill:#032B27;" d="M408,218.4V264c8-2.4,11.2-3.2,16-4v-45.6C416.8,216,416.8,216,408,218.4z"/>
	<path style="fill:#032B27;" d="M464,320v44c8-4,10.4-5.6,16-9.6v-44.8C473.6,315.2,471.2,316,464,320z"/>
	<path style="fill:#032B27;" d="M464,192v52c8-4,10.4-5.6,16-9.6v-47.2C473.6,192,471.2,188,464,192z"/>
</g>
<g>
</g>
<g>
</g>
<g>
</g>
<g>
</g>
<g>
</g>
<g>
</g>
<g>
</g>
<g>
</g>
<g>
</g>
<g>
</g>
<g>
</g>
<g>
</g>
<g>
</g>
<g>
</g>
<g>
</g>
</svg>
