<?xml version="1.0" encoding="iso-8859-1"?>
<!-- Generator: Adobe Illustrator 18.0.0, SVG Export Plug-In . SVG Version: 6.00 Build 0)  -->
<!DOCTYPE svg PUBLIC "-//W3C//DTD SVG 1.1//EN" "http://www.w3.org/Graphics/SVG/1.1/DTD/svg11.dtd">
<svg version="1.1" id="Capa_1" xmlns="http://www.w3.org/2000/svg" xmlns:xlink="http://www.w3.org/1999/xlink" x="0px" y="0px"
	 viewBox="0 0 81.756 81.756" style="enable-background:new 0 0 81.756 81.756;" xml:space="preserve">
<g>
	<path d="M71.832,11.558H9.924C4.452,11.558,0,16.01,0,21.482v38.792c0,5.473,4.452,9.924,9.924,9.924h8.987
		c1.993,0,3.609-1.615,3.609-3.608s-1.616-3.608-3.609-3.608H9.924c-1.493,0-2.707-1.215-2.707-2.707V37.341h67.321v22.934
		c0,1.492-1.214,2.707-2.706,2.707H34.249c-1.993,0-3.609,1.615-3.609,3.608s1.616,3.608,3.609,3.608h37.583
		c5.472,0,9.924-4.451,9.924-9.924V21.482C81.756,16.01,77.304,11.558,71.832,11.558z M7.218,26.959v-5.476
		c0-1.492,1.214-2.707,2.707-2.707h61.908c1.493,0,2.706,1.215,2.706,2.707v5.476H7.218z"/>
	<path d="M63.569,58.033c0.997,0,1.804-0.809,1.804-1.805c0-0.996-0.808-1.805-1.804-1.805H45.074c-0.997,0-1.804,0.809-1.804,1.805
		c0,0.996,0.808,1.805,1.804,1.805H63.569z"/>
</g>
<g>
</g>
<g>
</g>
<g>
</g>
<g>
</g>
<g>
</g>
<g>
</g>
<g>
</g>
<g>
</g>
<g>
</g>
<g>
</g>
<g>
</g>
<g>
</g>
<g>
</g>
<g>
</g>
<g>
</g>
</svg>
