<?xml version="1.0" encoding="iso-8859-1"?>
<!-- Generator: Adobe Illustrator 19.0.0, SVG Export Plug-In . SVG Version: 6.00 Build 0)  -->
<svg version="1.1" id="Layer_1" xmlns="http://www.w3.org/2000/svg" xmlns:xlink="http://www.w3.org/1999/xlink" x="0px" y="0px"
	 viewBox="0 0 495.2 495.2" style="enable-background:new 0 0 495.2 495.2;" xml:space="preserve">
<path style="fill:#562306;" d="M350.4,167.2c-3.2,0-7.2,0-10.4,0.8c-14.4-38.4-50.4-65.6-93.6-65.6s-79.2,27.2-93.6,65.6
	c-3.2,0-7.2-0.8-10.4-0.8c-55.2,0-100,44.8-100,100s44.8,100,100,100c43.2,0,79.2-27.2,93.6-65.6c3.2,0,7.2,0.8,10.4,0.8
	c3.2,0,7.2,0,10.4-0.8c14.4,38.4,50.4,65.6,93.6,65.6c55.2,0,100-44.8,100-100S405.6,167.2,350.4,167.2z"/>
<path style="fill:#3D1704;" d="M236,301.6c3.2,0,7.2,0.8,10.4,0.8s7.2,0,10.4-0.8c14.4,38.4,50.4,65.6,93.6,65.6
	c55.2,0,100-44.8,100-100s-44.8-100-100-100c-3.2,0-7.2,0-10.4,0.8c-14.4-38.4-50.4-65.6-93.6-65.6"/>
<polygon style="fill:#74B208;" points="358.4,487.2 132,487.2 41.6,287.2 452.8,287.2 "/>
<polyline style="fill:#3E9904;" points="47.2,287.2 452.8,287.2 360,487.2 "/>
<polygon style="fill:#F7E98B;" points="323.2,487.2 171.2,487.2 108.8,287.2 385.6,287.2 "/>
<polyline style="fill:#FFB31A;" points="111.2,287.2 385.6,287.2 324.8,484 "/>
<polygon style="fill:#3E9904;" points="276.8,487.2 217.6,487.2 192.8,287.2 301.6,287.2 "/>
<polyline style="fill:#74B208;" points="279.2,487.2 217.6,487.2 194.4,290.4 "/>
<g>
	<path style="fill:#3E9904;" d="M461.6,283.2c0,3.2-4,4-8,4h-412c-4.8,0-8-0.8-8-4l0,0c0-3.2,4-4,8-4h412
		C457.6,279.2,461.6,280,461.6,283.2L461.6,283.2z"/>
	<path style="fill:#3E9904;" d="M372,491.2c0,3.2-3.2,4-7.2,4H129.6c-4,0-7.2-0.8-7.2-4l0,0c0-3.2,3.2-4,7.2-4h236
		C368.8,487.2,372,488,372,491.2L372,491.2z"/>
</g>
<ellipse transform="matrix(-0.5014 -0.8652 0.8652 -0.5014 -14.376 391.6628)" style="fill:#7A3817;" cx="105.663" cy="199.974" rx="13.6" ry="36"/>
<ellipse transform="matrix(-0.5014 -0.8652 0.8652 -0.5014 324.4157 603.0555)" style="fill:#562306;" cx="335.968" cy="208.053" rx="13.6" ry="36"/>
<ellipse transform="matrix(-0.5014 -0.8652 0.8652 -0.5014 190.537 394.1875)" style="fill:#7A3817;" cx="208.847" cy="142.194" rx="13.6" ry="36"/>
<path style="fill:#F7E98B;" d="M181.6,207.2c0.8,1.6,0,4-1.6,4.8l-32,14.4c-1.6,0.8-4,0-4.8-1.6l0,0c-0.8-1.6,0-4,1.6-4.8l32-14.4
	C179.2,204.8,180.8,205.6,181.6,207.2L181.6,207.2z"/>
<path style="fill:#91EDEA;" d="M387.2,246.4c-0.8,1.6-3.2,3.2-4.8,2.4l-32.8-12c-1.6-0.8-3.2-3.2-2.4-4.8l0,0
	c0.8-1.6,3.2-3.2,4.8-2.4l32.8,12C386.4,242.4,388,244.8,387.2,246.4L387.2,246.4z"/>
<g>
	<path style="fill:#F7E98B;" d="M106.4,246.4c0,2.4-1.6,3.2-2.4,3.2l-20-2.4c-0.8,0-1.6-1.6-1.6-4l0,0c0-2.4,1.6-4,2.4-3.2l19.2,2.4
		C105.6,243.2,106.4,244.8,106.4,246.4L106.4,246.4z"/>
	<path style="fill:#F7E98B;" d="M308,245.6c0,2.4-1.6,3.2-2.4,3.2l-19.2-2.4c-0.8,0-1.6-1.6-1.6-4l0,0c0-2.4,1.6-4,2.4-3.2l19.2,2.4
		C307.2,241.6,308,243.2,308,245.6L308,245.6z"/>
	<path style="fill:#F7E98B;" d="M297.6,164c0,2.4-1.6,3.2-2.4,3.2l-19.2-2.4c-0.8,0-1.6-1.6-1.6-4l0,0c0-2.4,1.6-4,2.4-3.2L296,160
		C297.6,160,298.4,161.6,297.6,164L297.6,164z"/>
</g>
<g>
	<path style="fill:#91EDEA;" d="M323.2,199.2c0,2.4-1.6,3.2-2.4,3.2l-19.2-2.4c-0.8,0-1.6-1.6-1.6-4l0,0c0-2.4,1.6-4,2.4-3.2
		l19.2,2.4C323.2,195.2,324,196.8,323.2,199.2L323.2,199.2z"/>
	<path style="fill:#91EDEA;" d="M225.6,165.6c0.8,1.6,1.6,4,0,4l-16,11.2c-0.8,0.8-2.4,0-4-1.6l0,0c-0.8-1.6-1.6-4,0-4l16-11.2
		C222.4,163.2,224,164,225.6,165.6L225.6,165.6z"/>
	<path style="fill:#91EDEA;" d="M120.8,196c1.6,1.6,2.4,3.2,1.6,4l-11.2,16c-0.8,0.8-2.4,0.8-4-0.8l0,0c-1.6-1.6-2.4-3.2-1.6-4
		l11.2-16C116.8,194.4,119.2,194.4,120.8,196L120.8,196z"/>
</g>
<g>
	<path style="fill:#FF7C76;" d="M242.4,244.8c0,2.4-1.6,3.2-2.4,3.2l-19.2-2.4c-0.8,0-1.6-1.6-1.6-4l0,0c0-2.4,1.6-4,2.4-3.2
		l19.2,2.4C242.4,240.8,243.2,242.4,242.4,244.8L242.4,244.8z"/>
	<path style="fill:#FF7C76;" d="M168,256.8c-1.6-0.8-3.2-2.4-3.2-3.2l6.4-18.4c0-0.8,2.4-1.6,4-0.8l0,0c1.6,0.8,3.2,2.4,3.2,3.2
		L172,256C172,257.6,169.6,257.6,168,256.8L168,256.8z"/>
	<path style="fill:#FF7C76;" d="M390.4,208.8c0,2.4-1.6,3.2-2.4,3.2l-19.2-2.4c-0.8,0-1.6-1.6-1.6-4l0,0c0-2.4,1.6-4,2.4-3.2
		l19.2,2.4C390.4,204.8,391.2,206.4,390.4,208.8L390.4,208.8z"/>
</g>
<circle style="fill:#D32E26;" cx="246.4" cy="80" r="47.2"/>
<path style="fill:#B20202;" d="M280,46.4c18.4,18.4,18.4,48.8,0,67.2s-48.8,18.4-67.2,0"/>
<ellipse transform="matrix(-0.5696 -0.8219 0.8219 -0.5696 313.5362 271.5273)" style="fill:#F24141;" cx="227.865" cy="53.668" rx="7.2" ry="22.401"/>
<path style="fill:#3D1704;" d="M255.2,41.6c0,3.2-4.8,5.6-8,5.6l0,0c-3.2,0-8-2.4-8-5.6v-36c0-3.2,4.8-5.6,8-5.6l0,0
	c3.2,0,8,2.4,8,5.6V41.6z"/>
<g>
</g>
<g>
</g>
<g>
</g>
<g>
</g>
<g>
</g>
<g>
</g>
<g>
</g>
<g>
</g>
<g>
</g>
<g>
</g>
<g>
</g>
<g>
</g>
<g>
</g>
<g>
</g>
<g>
</g>
</svg>
