<svg height="512" viewBox="0 0 58 59" width="512" xmlns="http://www.w3.org/2000/svg"><g id="Page-1" fill="none" fill-rule="evenodd"><g id="030---Cake" fill-rule="nonzero"><path id="Shape" d="m54.05 40.95c2.51 1.77 3.95 3.84 3.95 6.05 0 6.63-12.98 12-29 12s-29-5.37-29-12c0-2.21 1.44-4.28 3.95-6.05z" fill="#a56a43"/><path id="Shape" d="m12 15-9 29c0 4.971 11.641 9 26 9s26-4.029 26-9l-9-29" fill="#f0c419"/><path id="Shape" d="m35.61 9.47c6.1.91 10.39 3.05 10.39 5.53 0 3.31-7.61 6-17 6s-17-2.69-17-6c0-2.58 4.62-4.78 11.09-5.63z" fill="#df4d60"/><path id="Shape" d="m31.421 16.845c2.0183141-.9387235 3.5360218-2.6993665 4.167-4.834.0382311-.1477294.0672866-.2976825.087-.449.35-1.988-.44-3.9-2.151-4.345-1.1915547-.29851309-2.4539153-.07167414-3.467.623-.5461096-1.10049364-1.5360928-1.91547432-2.721-2.24-1.841-.473-3.58 1.046-4.134 3.18-.3429273 1.4518246-.2436718 2.9730448.285 4.368v.01c.568233 1.486803 1.5206051 2.7963147 2.76 3.795z" fill="#802f34"/><path id="Shape" d="m27.99 18c-1.4630255.0159354-2.9250816-.081691-4.373-.292-.5445527-.0925077-.9110076-.6089472-.8185-1.1535.0925077-.5445527.6089472-.9110077 1.1535-.8185 3.9285705.4844247 7.9109819.2953819 11.776-.559.353084-.0847969.7243885.0284728.9700195.295913.2456311.2674402.3269829.6470174.2125288.9916319-.1144541.3446144-.4067254.6001032-.7635483.6674551-2.680927.5752739-5.415047.8662162-8.157.868z" fill="#c03a2b"/><path id="Shape" d="m30.246 8.552c-.5438061.00013162-.9880363-.43432554-1-.978-.0086489-2.87407438 1.6158927-5.50358299 4.19-6.782 2.6215423-1.25302857 5.7138534-1.00297131 8.1.655.4484552.32253429.5505343.94754478.228 1.396s-.9475448.55053429-1.396.228c-1.788179-1.22125501-4.0887768-1.40609391-6.049-.486-1.8709441.94120137-3.058368 2.84972666-3.076 4.944.0122889.55195525-.4250509 1.00943867-.977 1.022z" fill="#24ae5f"/><path id="Shape" d="m46.86 30.93c.15 1.65 1.43 2.94 1.52 4.6.1299833.8136855-.2279159 1.6281995-.9151799 2.0827848-.6872641.4545853-1.5768773.4652284-2.2748201.0272152-.8333161-.5319144-1.548163-1.2297411-2.1-2.05-.4706317-.7427982-1.0582054-1.4046627-1.74-1.96-.6918707-.5621461-1.6200221-.7387579-2.47-.47-1.1242729.619212-1.7279261 1.8868837-1.5 3.15.1715824.9865215.4848191 1.9430723.93 2.84.54 1.27 1.12 2.74.66 4.13-.29117.8473734-.9214427 1.5356023-1.74 1.9-1.0737075.4969299-2.3321788.3745254-3.29-.32-.62689-.5140483-1.0978884-1.1928402-1.36-1.96-.7-1.92-.45-4.64-2.52-5.77-.5762066-.3359911-1.2709492-.4018088-1.9-.18-.8124312.4014692-1.2992895 1.2564399-1.23 2.16-.16 2.46 0 5.43-2.6 6.73-1.1010919.5750944-2.4391599.4373521-3.4-.35-.5586112-.5479622-.8996744-1.279827-.96-2.06-.0395902-1.0240778.1446938-2.0444654.54-2.99.3972204-.9434419.7312902-1.9122441 1-2.9.2684768-.9955862.1653934-2.0548576-.29-2.98-.3691005-.7119922-1.0717058-1.1904565-1.8694193-1.273048-.7977134-.0825916-1.5834404.2417777-2.0905807.863048-1.15 1.3-1.2 3.11-2 4.59-.3456142.753986-1.0283104 1.2994009-1.84 1.47-2.45.28-2.93-3.17-2.71-4.86.29-2.27 1.39-4.41 1.35-6.73-.04-1.76-1.17-3.94-3.02-4.08l2.96-9.54c0 3.31 7.61 6 17 6s17-2.69 17-6l3.79 12.21c-1.8151741.2554487-3.1069338 1.8954985-2.93 3.72z" fill="#c03a2b"/></g></g></svg>