<?xml version="1.0" encoding="iso-8859-1"?>
<!-- Generator: Adobe Illustrator 19.0.0, SVG Export Plug-In . SVG Version: 6.00 Build 0)  -->
<svg version="1.1" id="Layer_1" xmlns="http://www.w3.org/2000/svg" xmlns:xlink="http://www.w3.org/1999/xlink" x="0px" y="0px"
	 viewBox="0 0 484.8 484.8" style="enable-background:new 0 0 484.8 484.8;" xml:space="preserve">
<path style="fill:#EFD27F;" d="M242.4,0C108,0,0,108,0,242.4s108,242.4,242.4,242.4S484.8,376,484.8,242.4S376.8,0,242.4,0z
	 M242.4,328c-47.2,0-85.6-38.4-85.6-85.6s38.4-85.6,85.6-85.6s85.6,38.4,85.6,85.6S289.6,328,242.4,328z"/>
<path style="fill:#E2A050;" d="M242.4,15.2c-125.6,0-227.2,101.6-227.2,227.2s101.6,227.2,227.2,227.2S469.6,368,469.6,242.4
	S368,15.2,242.4,15.2z M242.4,322.4c-44,0-80-36-80-80s36-80,80-80s80,36,80,80S286.4,322.4,242.4,322.4z"/>
<g>
	<path style="fill:#D38939;" d="M403.2,81.6l-104,104l0.8,0.8c30.4,32,30.4,81.6-0.8,112.8s-82.4,31.2-113.6,0l-104,104
		c88.8,88.8,232.8,88.8,321.6,0S492,170.4,403.2,81.6z"/>
	<path style="fill:#D38939;" d="M186.4,298.4l-0.8,0.8L186.4,298.4z"/>
</g>
<path style="fill:#EFD27F;" d="M135.2,43.2c8,8-4.8,35.2-29.6,60s-51.2,38.4-59.2,30.4c-8-8,4.8-35.2,29.6-60
	C100,48.8,126.4,35.2,135.2,43.2z"/>
<path style="fill:#FFEFC7;" d="M120.8,47.2c4,4-8,23.2-27.2,42.4s-38.4,32-42.4,28s8-23.2,27.2-42.4
	C97.6,55.2,116.8,43.2,120.8,47.2z"/>
<path style="fill:#F2498A;" d="M425.6,307.2c1.6-1.6,4-3.2,5.6-4.8c16-10.4,26.4-28,26.4-48c0-7.2-1.6-13.6-4-20
	c-3.2-26.4-19.2-48-40.8-59.2c-0.8-1.6-1.6-3.2-2.4-5.6c0.8-3.2,0.8-7.2,0.8-10.4c0-35.2-23.2-65.6-55.2-76
	c-14.4-22.4-39.2-37.6-67.2-37.6c-10.4,0-20.8,2.4-30.4,5.6c-14.4-14.4-33.6-22.4-56-22.4c-35.2,0-65.6,23.2-76,55.2
	c-28,6.4-51.2,27.2-59.2,54.4c-24,13.6-40.8,40-40.8,69.6c0,18.4,6.4,34.4,16,48c0,4,0,8.8,0,12.8c0,16,4.8,31.2,12.8,43.2
	c-1.6,4.8-1.6,10.4-1.6,16c0,24,12.8,44.8,31.2,56c12.8,27.2,40,45.6,72,45.6c1.6,0,2.4,0,4,0c10.4,9.6,23.2,15.2,38.4,15.2
	c2.4,0,4.8,0,8-0.8c12,8,26.4,12,42.4,12c20,0,37.6-7.2,52-19.2c0.8,0,1.6,0,3.2,0c36.8,0,68-24.8,76.8-59.2
	c26.4-4.8,47.2-28,47.2-56C427.2,316.8,426.4,312,425.6,307.2z M242.4,328c-47.2,0-85.6-38.4-85.6-85.6s38.4-85.6,85.6-85.6
	s85.6,38.4,85.6,85.6S289.6,328,242.4,328z"/>
<path style="fill:#D61E69;" d="M228,416.8c1.6,1.6,4,2.4,5.6,4c12,12,30.4,17.6,48,13.6c6.4-1.6,12-4,16.8-7.2
	c21.6-8.8,36.8-26.4,42.4-48c1.6-0.8,3.2-1.6,4-3.2c3.2,0,6.4-0.8,9.6-1.6c31.2-7.2,52.8-33.6,55.2-64
	c16.8-16.8,24.8-41.6,18.4-67.2c-2.4-9.6-6.4-17.6-11.2-24.8c9.6-15.2,12.8-34.4,8-53.6c-7.2-31.2-33.6-52.8-64-55.2
	c-11.2-23.2-34.4-39.2-60-40.8C284,50.4,257.6,41.6,231.2,48c-16,4-28.8,12.8-38.4,24c-4,0-8,0.8-12,1.6
	c-14.4,3.2-26.4,10.4-35.2,20c-4.8,0-9.6,0.8-14.4,1.6c-20.8,4.8-36,20-42.4,39.2c-20.8,16.8-31.2,44.8-24.8,72
	c0,1.6,0.8,2.4,0.8,3.2c-5.6,11.2-8,24-4.8,36.8c0.8,2.4,1.6,4.8,2.4,6.4c-4,12-4.8,25.6-1.6,39.2c4,17.6,14.4,31.2,27.2,41.6
	c0,0.8,0,1.6,0.8,2.4c8,32,36,54.4,68,55.2c9.6,22.4,34.4,35.2,59.2,29.6C220,420,224,418.4,228,416.8z M171.2,260.8
	c-9.6-41.6,16-83.2,56.8-92.8c41.6-9.6,83.2,16,92.8,56.8c9.6,41.6-16,83.2-56.8,92.8C223.2,328,181.6,302.4,171.2,260.8z"/>
<g>
	
		<ellipse transform="matrix(-0.6224 -0.7827 0.7827 -0.6224 230.1635 219.702)" style="fill:#FFA1C7;" cx="168.078" cy="54.332" rx="8" ry="24.8"/>
	
		<ellipse transform="matrix(-0.9143 -0.4051 0.4051 -0.9143 15.6562 372.3659)" style="fill:#FFA1C7;" cx="47.227" cy="184.526" rx="7.2" ry="22.401"/>
	<path style="fill:#FFA1C7;" d="M65.6,324.8c2.4-0.8,6.4,5.6,8.8,13.6c1.6,8,1.6,15.2-1.6,16c-2.4,0.8-6.4-5.6-8.8-13.6
		S62.4,325.6,65.6,324.8z"/>
	<path style="fill:#FFA1C7;" d="M100,385.6c2.4-3.2,12.8,0.8,23.2,8.8c10.4,8,16,17.6,13.6,20.8c-2.4,3.2-12.8-0.8-23.2-8.8
		C103.2,398.4,97.6,388.8,100,385.6z"/>
	
		<ellipse transform="matrix(-0.9436 0.331 -0.331 -0.9436 164.0391 429.222)" style="fill:#FFA1C7;" cx="45.47" cy="228.579" rx="4" ry="12.8"/>
</g>
<path style="fill:#FFEFC7;" d="M178.4,131.2c0,4-3.2,7.2-7.2,7.2h-1.6c-4,0-7.2-3.2-7.2-7.2V97.6c0-4,3.2-7.2,7.2-7.2h1.6
	c4,0,7.2,3.2,7.2,7.2V131.2z"/>
<g>
	<path style="fill:#A0D128;" d="M241.6,122.4c3.2,2.4,4,6.4,1.6,9.6l0,0c-2.4,3.2-6.4,4-9.6,1.6L204,112c-3.2-2.4-4-6.4-1.6-9.6l0,0
		c2.4-3.2,6.4-4,9.6-1.6L241.6,122.4z"/>
	<path style="fill:#A0D128;" d="M135.2,262.4c4,0.8,6.4,4,6.4,8l0,0c-0.8,4-4,6.4-8,6.4l-36.8-4c-4-0.8-6.4-4-6.4-8l0,0
		c0.8-4,4-6.4,8-6.4L135.2,262.4z"/>
	<path style="fill:#A0D128;" d="M241.6,370.4c4,0,7.2,2.4,7.2,6.4l0,0c0,4-2.4,7.2-6.4,8l-36.8,3.2c-4,0-7.2-2.4-7.2-6.4l0,0
		c0-4,2.4-7.2,6.4-8L241.6,370.4z"/>
</g>
<g>
	<path style="fill:#FFEFC7;" d="M152.8,345.6c-4,1.6-8-0.8-8.8-4l0,0c-1.6-4,0.8-8,4-8.8l34.4-12.8c4-1.6,8,0.8,8.8,4l0,0
		c1.6,4-0.8,8-4,8.8L152.8,345.6z"/>
	<path style="fill:#FFEFC7;" d="M308.8,145.6c-3.2-1.6-4.8-6.4-3.2-9.6l0,0c1.6-3.2,6.4-4.8,9.6-3.2l32.8,17.6
		c3.2,1.6,4.8,6.4,3.2,9.6l0,0c-1.6,3.2-6.4,4.8-9.6,3.2L308.8,145.6z"/>
	<path style="fill:#FFEFC7;" d="M109.6,216c-2.4,1.6-6.4,0-8.8-3.2l0,0c-2.4-3.2-1.6-7.2,0.8-8.8l24.8-15.2c2.4-1.6,6.4,0,8,3.2l0,0
		c2.4,3.2,1.6,7.2-0.8,8.8L109.6,216z"/>
</g>
<g>
	<path style="fill:#91EDEA;" d="M288.8,114.4c0,3.2-3.2,5.6-7.2,5.6l0,0c-4,0-7.2-2.4-7.2-5.6V84.8c0-3.2,3.2-5.6,7.2-5.6l0,0
		c4,0,7.2,2.4,7.2,5.6V114.4z"/>
	<path style="fill:#91EDEA;" d="M131.2,326.4c0,3.2-3.2,5.6-7.2,5.6l0,0c-4,0-7.2-2.4-7.2-5.6v-29.6c0-3.2,3.2-5.6,7.2-5.6l0,0
		c4,0,7.2,2.4,7.2,5.6V326.4z"/>
	<path style="fill:#91EDEA;" d="M369.6,260.8c-2.4,1.6-6.4,0.8-8.8-2.4l0,0c-2.4-3.2-2.4-7.2,0-8.8L384,232c2.4-1.6,6.4-0.8,8.8,2.4
		l0,0c2.4,3.2,2.4,7.2,0,8.8L369.6,260.8z"/>
	<path style="fill:#91EDEA;" d="M138.4,143.2c2.4,1.6,2.4,5.6,0,8.8l0,0c-2.4,3.2-6.4,4-8.8,2.4l-23.2-17.6c-2.4-1.6-2.4-5.6,0-8.8
		l0,0c2.4-3.2,6.4-4,8.8-2.4L138.4,143.2z"/>
	<path style="fill:#91EDEA;" d="M301.6,330.4c-3.2,0-5.6-3.2-5.6-7.2l0,0c0-4,2.4-7.2,5.6-7.2l29.6,0.8c3.2,0,5.6,3.2,5.6,7.2l0,0
		c0,4-2.4,7.2-5.6,7.2L301.6,330.4z"/>
</g>
<path style="fill:#A0D128;" d="M351.2,212.8c-3.2,0-5.6-3.2-5.6-7.2l0,0c0-4,2.4-7.2,5.6-7.2l29.6,0.8c3.2,0,5.6,3.2,5.6,7.2l0,0
	c0,4-2.4,7.2-5.6,7.2L351.2,212.8z"/>
<g>
	<path style="fill:#FFEFC7;" d="M344,298.4c-2.4-1.6-3.2-5.6-0.8-8.8l0,0c2.4-3.2,6.4-4,8.8-2.4l24,16.8c2.4,1.6,3.2,5.6,0.8,8.8
		l0,0c-2.4,3.2-6.4,4-8.8,2.4L344,298.4z"/>
	<path style="fill:#FFEFC7;" d="M278.4,354.4c-1.6-2.4,0-6.4,3.2-8l0,0c3.2-1.6,7.2-1.6,8.8,1.6l15.2,25.6c1.6,2.4,0,6.4-3.2,8l0,0
		c-3.2,1.6-7.2,1.6-8.8-0.8L278.4,354.4z"/>
</g>
<path style="fill:#99004D;" d="M171.2,260.8c-9.6-41.6,16-83.2,56.8-92.8c41.6-9.6,83.2,16,92.8,56.8c0,0.8,0.8,2.4,0.8,3.2
	c0-5.6-0.8-11.2-2.4-16.8c-12-48.8-60.8-79.2-110.4-68c-48.8,12-79.2,60.8-68,110.4c12,48.8,60.8,79.2,110.4,68
	c4-0.8,7.2-2.4,10.4-3.2C221.6,327.2,180.8,301.6,171.2,260.8z"/>
<g>
	<circle style="fill:#EFD27F;" cx="100" cy="167.2" r="6.4"/>
	<circle style="fill:#EFD27F;" cx="342.4" cy="236.8" r="6.4"/>
</g>
<g>
	<circle style="fill:#FFCE00;" cx="84" cy="236.8" r="6.4"/>
	<circle style="fill:#FFCE00;" cx="368" cy="337.6" r="6.4"/>
	<circle style="fill:#FFCE00;" cx="151.2" cy="305.6" r="4"/>
	<circle style="fill:#FFCE00;" cx="390.4" cy="272.8" r="4"/>
</g>
<g>
	<circle style="fill:#91EDEA;" cx="123.2" cy="236.8" r="4"/>
	<circle style="fill:#91EDEA;" cx="326.4" cy="177.6" r="4"/>
</g>
<circle style="fill:#FFEFC7;" cx="97.6" cy="300" r="4"/>
<g>
	<circle style="fill:#FFCE00;" cx="322.4" cy="108" r="6.4"/>
	<circle style="fill:#FFCE00;" cx="182.4" cy="356" r="6.4"/>
</g>
<circle style="fill:#91EDEA;" cx="241.6" cy="344.8" r="6.4"/>
<circle style="fill:#FFCE00;" cx="330.4" cy="352.8" r="6.4"/>
<g>
	<circle style="fill:#EFD27F;" cx="246.4" cy="80.8" r="6.4"/>
	<circle style="fill:#EFD27F;" cx="375.2" cy="172.8" r="6.4"/>
</g>
<g>
</g>
<g>
</g>
<g>
</g>
<g>
</g>
<g>
</g>
<g>
</g>
<g>
</g>
<g>
</g>
<g>
</g>
<g>
</g>
<g>
</g>
<g>
</g>
<g>
</g>
<g>
</g>
<g>
</g>
</svg>
