<svg xmlns="http://www.w3.org/2000/svg" viewBox="0 0 384 384"><g id="Layer_2" data-name="Layer 2"><g id="Layer_1-2" data-name="Layer 1"><path d="M384,384H0V0H384ZM49.4,303.34c2.71-8.91,4.35-17.48,7.84-25.21,20.39-45.24,55.39-69.25,105.25-70.66,48.72-1.38,84.26-42.13,78.61-90.45-5.31-45.37-47.49-77.25-92.35-69.81C92.29,56.58,63.18,117.18,91.4,167c4,7,9.1,13.31,13.75,20-3.3,1.51-7.12,3-10.71,4.92-50.76,27-75.82,69.9-77.77,126.83-.36,10.39,6.08,16.55,16.48,16.59,17.09.05,34.19,0,51.28,0,14.72,0,29.44.06,44.17,0,7.76,0,13.26-4.14,15.13-10.95,3.22-11.74-3.8-21-16.23-21-24.2-.09-48.41,0-72.61,0Zm144.07,32.6a35.4,35.4,0,0,0,4.72-1c18.78-6.27,37.57-12.49,56.26-19a24.92,24.92,0,0,0,9.06-5.61q49.51-49.2,98.77-98.66c7.78-7.79,7.74-16.44-.06-24.28q-18.48-18.57-37-37.07c-9-9-17.13-9-26.14,0q-48.44,48.44-96.76,97a30.37,30.37,0,0,0-6.86,10.86c-6.54,18.56-12.38,37.36-19,55.91C172.42,325.45,181,335.75,193.47,335.94Z" style="fill:#fff"/><path d="M49.4,303.34h5.49c24.2,0,48.41-.06,72.61,0,12.43,0,19.45,9.26,16.23,21-1.87,6.81-7.37,10.91-15.13,10.95-14.73.09-29.45,0-44.17,0-17.09,0-34.19,0-51.28,0-10.4,0-16.84-6.2-16.48-16.59,1.95-56.93,27-99.8,77.77-126.83,3.59-1.91,7.41-3.41,10.71-4.92-4.65-6.7-9.79-13-13.75-20-28.22-49.81.89-110.41,57.35-119.78,44.86-7.44,87,24.44,92.35,69.81,5.65,48.32-29.89,89.07-78.61,90.45-49.86,1.41-84.86,25.42-105.25,70.66C53.75,285.86,52.11,294.43,49.4,303.34ZM208.23,127.8c0-27.26-20.37-47.81-47.64-48-27.07-.16-48,20.49-48.16,47.55s20.78,48.23,47.94,48.28S208.19,154.92,208.23,127.8Z"/><path d="M193.47,335.94c-12.46-.19-21.05-10.49-17-21.89,6.58-18.55,12.42-37.35,19-55.91a30.37,30.37,0,0,1,6.86-10.86q48.21-48.65,96.76-97c9-9,17.15-9,26.14,0q18.51,18.54,37,37.07c7.8,7.84,7.84,16.49.06,24.28q-49.32,49.4-98.77,98.66a24.92,24.92,0,0,1-9.06,5.61c-18.69,6.53-37.48,12.75-56.26,19A35.4,35.4,0,0,1,193.47,335.94ZM311.52,182c-1,1.28-1.92,2.52-3,3.58-22.65,22.68-44.95,45.74-68.16,67.85-10.38,9.88-18.15,20.51-20.74,34.69-.31,1.71-1,3.37-1.61,5.65,7.85-2.47,14.89-4.55,21.83-6.92a15.9,15.9,0,0,0,5.95-3.48q40.59-40.38,81-80.93c.87-.87,1.69-1.79,2.34-2.48Z"/><path d="M208.23,127.8c0,27.12-20.82,47.9-47.86,47.86s-48.11-21.15-47.94-48.28,21.09-47.71,48.16-47.55C187.86,80,208.27,100.54,208.23,127.8Z" style="fill:#fff"/><path d="M311.52,182l17.66,18c-.65.69-1.47,1.61-2.34,2.48q-40.48,40.5-81,80.93a15.9,15.9,0,0,1-5.95,3.48c-6.94,2.37-14,4.45-21.83,6.92.66-2.28,1.3-3.94,1.61-5.65,2.59-14.18,10.36-24.81,20.74-34.69,23.21-22.11,45.51-45.17,68.16-67.85C309.6,184.51,310.47,183.27,311.52,182Z" style="fill:#fff"/></g></g></svg>