<?xml version="1.0" encoding="iso-8859-1"?>
<!-- Generator: Adobe Illustrator 19.0.0, SVG Export Plug-In . SVG Version: 6.00 Build 0)  -->
<svg version="1.1" id="Layer_1" xmlns="http://www.w3.org/2000/svg" xmlns:xlink="http://www.w3.org/1999/xlink" x="0px" y="0px"
	 viewBox="0 0 494.4 494.4" style="enable-background:new 0 0 494.4 494.4;" xml:space="preserve">
<path style="fill:#E259B1;" d="M155.2,342.751c-3.2,16.8,0.8,34.4,12,48.8c20.8,27.2,60,32,87.2,11.2c0.8-0.8,0.8-0.8,1.6-1.6
	l-32.8-43.2L155.2,342.751z"/>
<path style="fill:#9B1077;" d="M168.8,345.951c-2.4,12,0.8,25.6,8.8,36c15.2,20,44.8,24,64.8,8.8l0.8-0.8l-24.8-32L168.8,345.951z"
	/>
<path style="fill:#E259B1;" d="M244.8,304.351c0,16.8,6.4,33.6,20,45.6c25.6,23.2,64.8,21.6,88-4c0.8-0.8,0.8-0.8,1.6-1.6l-40-36.8
	L244.8,304.351z"/>
<path style="fill:#9B1077;" d="M254.4,304.351c0,13.6,5.6,28,16.8,37.6c20.8,19.2,53.6,17.6,72.8-3.2c0-0.8,0.8-0.8,0.8-1.6
	l-32.8-30.4L254.4,304.351z"/>
<path style="fill:#E259B1;" d="M124.8,190.751c0,1.6,0,1.6,0,1.6h213.6c0,0,0-0.8,0-1.6c0-61.6-48-112-107.2-112
	C172.8,78.751,124.8,129.151,124.8,190.751z"/>
<path style="fill:#C92396;" d="M148,190.751c0,0.8,0,1.6,0,1.6h189.6c0,0,0,0,0-1.6c0-55.2-42.4-99.2-95.2-99.2
	C190.4,91.551,148,136.351,148,190.751z"/>
<path style="fill:#9B1077;" d="M173.6,191.551c0,0.8,0,0.8,0,0.8h164.8c0,0,0,0,0-0.8c0-48-36.8-86.4-82.4-86.4
	C210.4,105.151,173.6,143.551,173.6,191.551z"/>
<path style="fill:#08B2C4;" d="M471.2,256.351c0.8,0,1.6,0,2.4,0h-4c-78.4-24-143.2-112-250.4-123.2c-107.2-12-205.6,60-219.2,118.4
	c0,1.6,16.8,2.4,21.6,4c-4,1.6-21.6,2.4-21.6,4c13.6,58.4,112,131.2,219.2,119.2c106.4-12,172-106.4,250.4-122.4h4
	C472.8,256.351,472,256.351,471.2,256.351z"/>
<path style="fill:#149CAF;" d="M21.6,256.351c-4,1.6-21.6,2.4-21.6,4c13.6,58.4,112,131.2,219.2,119.2s172-107.2,250.4-123.2h4
	c-0.8,0-1.6,0-2.4,0c0.8,0,1.6,0,2.4,0h-3.2"/>
<path style="fill:#9B1077;" d="M135.2,207.551c-0.8,0-0.8,0-0.8,0v95.2h0.8c26.4,0,48-21.6,48-48
	C183.2,229.151,161.6,207.551,135.2,207.551z"/>
<path style="fill:#C92396;" d="M135.2,218.751C134.4,218.751,134.4,218.751,135.2,218.751l-0.8,72c0,0,0,0,0.8,0c20,0,36-16,36-36
	C171.2,235.551,155.2,218.751,135.2,218.751z"/>
<path style="fill:#E259B1;" d="M134.4,233.151L134.4,233.151v44l0,0c12,0,22.4-9.6,22.4-22.4
	C156.8,242.751,146.4,233.151,134.4,233.151z"/>
<g>
	<path style="fill:#1491AF;" d="M134.4,149.151L134.4,149.151v54.4l0,0c15.2,0,27.2-12,27.2-27.2S149.6,149.151,134.4,149.151z"/>
	<path style="fill:#1491AF;" d="M176,149.151h-1.6v54.4c0,0,0.8,0,1.6,0c15.2,0,27.2-12,27.2-27.2S190.4,149.151,176,149.151z"/>
	<path style="fill:#1491AF;" d="M216.8,149.151h-2.4v54.4c0,0,1.6,0,2.4,0c15.2,0,27.2-12,27.2-27.2S232,149.151,216.8,149.151z"/>
	<path style="fill:#1491AF;" d="M12.8,289.151c34.4,56,118.4,100,206.4,89.6c67.2-7.2,129.6-50.4,180.8-90.4L12.8,289.151z"/>
	<path style="fill:#1491AF;" d="M473.6,254.751h-4h-3.2v2.4c0.8,0,2.4-0.8,3.2-0.8h4c-0.8,0-1.6,0-2.4-0.8
		C472,254.751,472.8,254.751,473.6,254.751z"/>
	<path style="fill:#1491AF;" d="M261.6,149.151C261.6,149.151,262.4,149.151,261.6,149.151l0.8,54.4h-0.8c15.2,0,27.2-12,27.2-27.2
		S276.8,149.151,261.6,149.151z"/>
</g>
<g>
	<path style="fill:#08B2C4;" d="M134.4,309.151L134.4,309.151v54.4l0,0c15.2,0,27.2-12,27.2-27.2S149.6,309.151,134.4,309.151z"/>
	<path style="fill:#08B2C4;" d="M176,309.151h-1.6v54.4c0,0,0.8,0,1.6,0c15.2,0,27.2-12,27.2-27.2S190.4,309.151,176,309.151z"/>
	<path style="fill:#08B2C4;" d="M216.8,309.151h-2.4v54.4c0,0,1.6,0,2.4,0c15.2,0,27.2-12,27.2-27.2S232,309.151,216.8,309.151z"/>
	<path style="fill:#08B2C4;" d="M261.6,309.151C261.6,309.151,262.4,309.151,261.6,309.151l0.8,54.4h-0.8c15.2,0,27.2-12,27.2-27.2
		S276.8,309.151,261.6,309.151z"/>
</g>
<g>
	<path style="fill:#1491AF;" d="M192.8,228.351h-2.4v54.4h2.4c15.2,0,27.2-12,27.2-27.2C220,240.351,208,228.351,192.8,228.351z"/>
	<path style="fill:#1491AF;" d="M238.4,228.351C237.6,228.351,238.4,228.351,238.4,228.351v54.4c0,0-0.8,0,0,0
		c15.2,0,27.2-12,27.2-27.2C264.8,240.351,252.8,228.351,238.4,228.351z"/>
	<path style="fill:#1491AF;" d="M279.2,228.351C278.4,228.351,278.4,228.351,279.2,228.351l-0.8,53.6c0,0,0,0,0.8,0
		c15.2,0,27.2-12,27.2-27.2C306.4,240.351,294.4,228.351,279.2,228.351z"/>
	<path style="fill:#1491AF;" d="M320,228.351h-1.6v54.4h1.6c15.2,0,27.2-12,27.2-27.2C347.2,240.351,335.2,228.351,320,228.351z"/>
	<path style="fill:#1491AF;" d="M360,228.351h-1.6v54.4h1.6c15.2,0,27.2-12,27.2-27.2C387.2,240.351,375.2,228.351,360,228.351z"/>
	<path style="fill:#1491AF;" d="M400.8,228.351h-2.4v54.4c0,0,1.6,0,2.4,0c15.2,0,27.2-12,27.2-27.2
		C428,240.351,416,228.351,400.8,228.351z"/>
</g>
<path style="fill:#9B1077;" d="M494.4,180.351c-16,0.8-29.6,7.2-40,20c-12.8,16-16,36.8-8.8,54.4c-7.2,17.6-4,39.2,8.8,54.4
	c10.4,12,24,19.2,40,20v-60.8l-11.2-13.6l11.2-13.6V180.351z"/>
<path style="fill:#C92396;" d="M470.4,209.951c-8,0.8-16.8,4.8-22.4,12c-8,9.6-8.8,22.4-4.8,33.6c-4,11.2-4,24,4,33.6
	c6.4,7.2,15.2,11.2,23.2,12v-36.8l-7.2-8.8l7.2-8.8L470.4,209.951L470.4,209.951z"/>
<polygon style="fill:#149CAF;" points="125.6,259.551 93.6,291.551 40.8,238.751 72.8,207.551 "/>
<path style="fill:#F9F9F9;" d="M68,223.551l5.6-5.6c2.4-2.4,2.4-7.2,0-10.4c-2.4-2.4-7.2-2.4-10.4,0l-5.6,5.6l-5.6-5.6
	c-2.4-2.4-7.2-2.4-10.4,0c-2.4,2.4-2.4,7.2,0,10.4l5.6,5.6l-5.6,5.6c-2.4,2.4-2.4,7.2,0,10.4c2.4,2.4,7.2,2.4,10.4,0l5.6-5.6
	l5.6,5.6c2.4,2.4,7.2,2.4,10.4,0c2.4-2.4,2.4-7.2,0-10.4L68,223.551z"/>
<ellipse transform="matrix(-0.4704 -0.8824 0.8824 -0.4704 -25.7514 330.7108)" style="fill:#67CBDB;" cx="86.359" cy="173.082" rx="7.2" ry="41.598"/>
<g>
</g>
<g>
</g>
<g>
</g>
<g>
</g>
<g>
</g>
<g>
</g>
<g>
</g>
<g>
</g>
<g>
</g>
<g>
</g>
<g>
</g>
<g>
</g>
<g>
</g>
<g>
</g>
<g>
</g>
</svg>
