<svg id="Layer_1" enable-background="new 0 0 512.181 512.181" height="512" viewBox="0 0 512.181 512.181" width="512" xmlns="http://www.w3.org/2000/svg"><path d="m80.02 14.823c-.071-.077-.143-.153-.214-.229-15.944-17.34-42.572-19.285-61.013-5.07-8.633 6.497-14.781 15.668-17.312 25.823-2.839 11.394-.958 23.542 5.297 34.206 6.703 11.426 13.584 23.208 20.602 35.22 66.548 113.925 141.976 243.05 196.295 297.369 3.668 3.669 8.618 5.769 13.805 5.855 2.575.044 63.741.809 124.504-21.191 1.514-.549 2.922-1.261 4.21-2.109l111.268 120.851c7.497 8.14 20.154 8.634 28.26 1.167 8.126-7.482 8.648-20.135 1.167-28.261zm166.173 353.044c-50.634-54.491-124.493-180.928-184.274-283.27-7.03-12.034-13.925-23.837-20.639-35.283-.669-1.142-2.707-4.615 1.566-7.831 2.92-2.391 6.113-1.526 7.863.56l286.308 310.964c-37.897 11.79-74.964 14.325-90.824 14.86zm53.067-154.951c-36.389-34.878-35.584-98.446.723-133.224 28.969-28.97 79.977-72.982 82.135-74.841 8.367-7.211 20.996-6.275 28.207 2.092s6.275 20.995-2.091 28.207c-.517.446-52.049 44.909-79.967 72.827-10.236 10.236-15.95 23.916-16.088 38.518-.852 29.329 24.19 54.318 53.504 53.504 14.602-.139 28.281-5.852 38.518-16.088 27.933-27.933 72.38-79.45 72.826-79.967 7.212-8.367 19.841-9.303 28.207-2.092 8.367 7.211 9.303 19.84 2.092 28.207-1.859 2.157-45.871 53.166-74.841 82.136-17.896 17.909-41.91 27.815-67.352 27.807-25.025-.001-48.385-9.599-65.873-27.086zm56.679-83.963 74-75c7.757-7.862 20.42-7.948 28.284-.19 7.863 7.758 7.948 20.421.19 28.284l-74 75c-7.761 7.865-20.424 7.945-28.284.19-7.863-7.758-7.948-20.421-.19-28.284zm-335.944 383.228c-17.561.107-26.752-21.609-14.142-34.143l111.181-111.181c19.512-18.017 46.293 8.795 28.284 28.285l-111.181 111.181c-3.905 3.906-9.023 5.858-14.142 5.858z"/></svg>