<?xml version="1.0" encoding="iso-8859-1"?>
<!-- Generator: Adobe Illustrator 19.0.0, SVG Export Plug-In . SVG Version: 6.00 Build 0)  -->
<svg version="1.1" id="Layer_1" xmlns="http://www.w3.org/2000/svg" xmlns:xlink="http://www.w3.org/1999/xlink" x="0px" y="0px"
	 viewBox="0 0 496 496" style="enable-background:new 0 0 496 496;" xml:space="preserve">
<polygon style="fill:#960909;" points="417.6,264 78.4,264 76,224 420,224 "/>
<polygon style="fill:#FFFBC7;" points="309.6,291.2 356,297.6 389.6,13.6 352.8,8.8 "/>
<polygon style="fill:#F7D772;" points="309.6,291.2 356,297.6 377.6,27.2 352.8,8.8 "/>
<polygon style="fill:#EFA348;" points="352.8,8.8 372.8,26.4 326.4,293.6 309.6,291.2 "/>
<polygon style="fill:#FFFBC7;" points="306.4,291.2 350.4,307.2 447.2,38.4 412.8,25.6 "/>
<polygon style="fill:#F7D772;" points="306.4,291.2 350.4,307.2 432.8,48.8 412.8,25.6 "/>
<polygon style="fill:#EFA348;" points="412.8,25.6 428.8,47.2 322.4,296.8 306.4,291.2 "/>
<polygon style="fill:#FFFBC7;" points="324,311.2 366.4,332.8 490.4,75.2 457.6,59.2 "/>
<polygon style="fill:#F7D772;" points="324,311.2 366.4,332.8 475.2,84 457.6,59.2 "/>
<polygon style="fill:#EFA348;" points="457.6,59.2 471.2,82.4 340,319.2 324,311.2 "/>
<polygon style="fill:#FFFBC7;" points="296.8,288 343.2,288 338.4,0 301.6,0 "/>
<polygon style="fill:#F7D772;" points="296.8,288 343.2,288 328.8,16.8 301.6,2.4 "/>
<polygon style="fill:#EFA348;" points="301.6,2.4 324,16.8 313.6,288 296.8,288 "/>
<polygon style="fill:#FFFBC7;" points="245.6,288 292,288 287.2,0 250.4,0 "/>
<polygon style="fill:#F7D772;" points="245.6,288 292,288 277.6,16.8 250.4,2.4 "/>
<polygon style="fill:#EFA348;" points="250.4,2.4 272.8,16.8 262.4,288 245.6,288 "/>
<polygon style="fill:#FFFBC7;" points="288,353.6 328,379.2 477.6,136 447.2,116 "/>
<polygon style="fill:#F7D772;" points="288,353.6 328,379.2 461.6,143.2 447.2,116 "/>
<polygon style="fill:#EFA348;" points="447.2,116 457.6,140.8 303.2,363.2 288,353.6 "/>
<polygon style="fill:#FFFBC7;" points="260.8,348 308,351.2 325.6,66.4 288.8,63.2 "/>
<polygon style="fill:#F7D772;" points="260.8,348 308,351.2 314.4,80.8 288.8,63.2 "/>
<polygon style="fill:#EFA348;" points="288.8,63.2 309.6,80 278.4,349.6 260.8,348 "/>
<polygon style="fill:#FFFBC7;" points="248,410.4 294.4,412.8 302.4,127.2 265.6,125.6 "/>
<polygon style="fill:#F7D772;" points="248,410.4 294.4,412.8 292,141.6 265.6,125.6 "/>
<polygon style="fill:#EFA348;" points="265.6,125.6 288,140.8 264.8,411.2 248,410.4 "/>
<polygon style="fill:#FFFBC7;" points="292,352 336.8,364.8 408.8,88.8 373.6,78.4 "/>
<polygon style="fill:#F7D772;" points="292,352 336.8,364.8 395.2,100 373.6,78.4 "/>
<polygon style="fill:#EFA348;" points="373.6,78.4 391.2,99.2 308.8,356.8 292,352 "/>
<polygon style="fill:#FFFBC7;" points="277.6,408 324,416 364.8,132.8 328,127.2 "/>
<polygon style="fill:#F7D772;" points="277.6,408 324,416 352.8,146.4 328,127.2 "/>
<polygon style="fill:#EFA348;" points="328,127.2 348,145.6 294.4,411.2 277.6,408 "/>
<polygon style="fill:#FFFBC7;" points="186.4,291.2 140,297.6 106.4,13.6 143.2,8.8 "/>
<polygon style="fill:#F7D772;" points="186.4,291.2 140,297.6 118.4,27.2 143.2,8.8 "/>
<polygon style="fill:#EFA348;" points="143.2,8.8 123.2,26.4 169.6,293.6 186.4,291.2 "/>
<polygon style="fill:#FFFBC7;" points="189.6,291.2 145.6,307.2 48.8,38.4 83.2,25.6 "/>
<polygon style="fill:#F7D772;" points="189.6,291.2 145.6,307.2 63.2,48.8 83.2,25.6 "/>
<polygon style="fill:#EFA348;" points="83.2,25.6 67.2,47.2 173.6,296.8 189.6,291.2 "/>
<polygon style="fill:#FFFBC7;" points="172,311.2 129.6,332.8 5.6,75.2 38.4,59.2 "/>
<polygon style="fill:#F7D772;" points="172,311.2 129.6,332.8 20.8,84 38.4,59.2 "/>
<polygon style="fill:#EFA348;" points="38.4,59.2 24.8,82.4 156,319.2 172,311.2 "/>
<polygon style="fill:#FFFBC7;" points="199.2,288 152.8,288 157.6,0 194.4,0 "/>
<polygon style="fill:#F7D772;" points="199.2,288 152.8,288 167.2,16.8 194.4,2.4 "/>
<polygon style="fill:#EFA348;" points="194.4,2.4 172,16.8 182.4,288 199.2,288 "/>
<polygon style="fill:#FFFBC7;" points="250.4,288 204,288 208.8,0 245.6,0 "/>
<polygon style="fill:#F7D772;" points="250.4,288 204,288 218.4,16.8 245.6,2.4 "/>
<polygon style="fill:#EFA348;" points="245.6,2.4 223.2,16.8 233.6,288 250.4,288 "/>
<polygon style="fill:#FFFBC7;" points="272,344 224.8,344 229.6,56 266.4,56 "/>
<polygon style="fill:#F7D772;" points="272,344 224.8,344 239.2,71.2 266.4,57.6 "/>
<polygon style="fill:#EFA348;" points="266.4,56.8 244,72.8 254.4,344 272,344 "/>
<polygon style="fill:#FFFBC7;" points="208,353.6 168,379.2 18.4,136 48.8,116 "/>
<polygon style="fill:#F7D772;" points="208,353.6 168,379.2 34.4,143.2 48.8,116 "/>
<polygon style="fill:#EFA348;" points="48.8,116 38.4,140.8 192.8,363.2 208,353.6 "/>
<polygon style="fill:#FFFBC7;" points="235.2,348 188,351.2 170.4,66.4 207.2,63.2 "/>
<polygon style="fill:#F7D772;" points="235.2,348 188,351.2 181.6,80.8 207.2,63.2 "/>
<polygon style="fill:#EFA348;" points="207.2,63.2 186.4,80 217.6,349.6 235.2,348 "/>
<polygon style="fill:#FFFBC7;" points="248,410.4 201.6,412.8 193.6,127.2 230.4,125.6 "/>
<polygon style="fill:#F7D772;" points="248,410.4 201.6,412.8 204,141.6 230.4,125.6 "/>
<polygon style="fill:#EFA348;" points="230.4,125.6 208,140.8 231.2,411.2 248,410.4 "/>
<polygon style="fill:#FFFBC7;" points="204,352 159.2,364.8 87.2,88.8 122.4,78.4 "/>
<polygon style="fill:#F7D772;" points="204,352 159.2,364.8 100.8,100 122.4,78.4 "/>
<polygon style="fill:#EFA348;" points="122.4,78.4 104.8,99.2 187.2,356.8 204,352 "/>
<polygon style="fill:#FFFBC7;" points="218.4,408 172,416 131.2,132.8 168,127.2 "/>
<polygon style="fill:#F7D772;" points="218.4,408 172,416 143.2,146.4 168,127.2 "/>
<polygon style="fill:#EFA348;" points="168,127.2 148,145.6 201.6,411.2 218.4,408 "/>
<polygon style="fill:#BA1515;" points="380.8,496 115.2,496 83.2,264 412.8,264 "/>
<polygon style="fill:#D32020;" points="380.8,496 115.2,496 195.2,264 300.8,264 "/>
<polygon style="fill:#BF1111;" points="380.8,496 115.2,496 195.2,408 300.8,408 "/>
<polygon style="fill:#960909;" points="380.8,496 115.2,496 195.2,456 300.8,456 "/>
<path style="fill:#FFFFFF;" d="M248,305.6c-40,0-72.8,32.8-72.8,72.8s32.8,72.8,72.8,72.8s72.8-32.8,72.8-72.8S288,305.6,248,305.6z
	 M248,424c-25.6,0-45.6-20.8-45.6-45.6s20.8-45.6,45.6-45.6s45.6,20.8,45.6,45.6S273.6,424,248,424z"/>
<path style="fill:#DDDDDD;" d="M248,450.4c40,0,72.8-32.8,72.8-72.8s-32.8-72-72.8-72 M248,332c25.6,0,45.6,20.8,45.6,45.6
	S273.6,424,248,424"/>
<g style="opacity:0.2;">
	<rect x="80" y="240" style="fill:#960909;" width="336" height="24"/>
</g>
<g>
</g>
<g>
</g>
<g>
</g>
<g>
</g>
<g>
</g>
<g>
</g>
<g>
</g>
<g>
</g>
<g>
</g>
<g>
</g>
<g>
</g>
<g>
</g>
<g>
</g>
<g>
</g>
<g>
</g>
</svg>
