<svg id="Layer_1" enable-background="new 0 0 512 512" height="512" viewBox="0 0 512 512" width="512" xmlns="http://www.w3.org/2000/svg"><g><g><path clip-rule="evenodd" d="m464.9 427.468-209.112-11.991-208.688 11.991v18.369c0 10.12 8.249 18.369 18.369 18.369h381.063c10.091 0 18.369-8.249 18.369-18.369v-18.369z" fill="#bed8fb" fill-rule="evenodd"/></g><g><path clip-rule="evenodd" d="m464.9 427.468h-52.838-12.047v18.369c0 10.12-8.249 18.369-18.369 18.369h64.885c10.091 0 18.369-8.249 18.369-18.369z" fill="#8eaadf" fill-rule="evenodd"/></g><g><path clip-rule="evenodd" d="m356.9 253.699c-1.956 0-3.883.227-5.726.652-1.304.312-2.58.737-3.798 1.247-2.891-10.517-12.501-18.256-23.924-18.256-5.102 0-9.836 1.531-13.748 4.167-4.422-6.86-12.132-11.396-20.891-11.396-4.195 0-8.135 1.049-11.594 2.891-8.419 4.536-187.824 116.196-171.497 51.734-.85-.113-1.729-.142-2.608-.142-5.811 0-11.169 1.984-15.392 5.358-5.613 3.855-9.553 9.922-10.545 16.98-.822-.085-1.672-.142-2.523-.142-13.72 0-24.832 11.112-24.832 24.804 0 1.701.17 3.345.51 4.932-10.573 2.863-18.34 12.501-18.34 23.953 0 4.309 1.106 8.334 3.033 11.849l239.358 18.001 202.593-18.001c1.899-3.515 3.005-7.54 3.005-11.849 0-11.452-7.767-21.09-18.312-23.953.312-1.587.482-3.232.482-4.932 0-8.844-4.649-16.612-11.622-21.005-3.827-2.41-8.334-3.799-13.181-3.799-.879 0-1.729.057-2.551.142-.992-7.059-4.932-13.125-10.517-16.98-3.827-3.033-8.532-4.961-13.691-5.301-.567-.057-1.134-.057-1.701-.057-2.409 0-4.734.34-6.917.964-3.26-9.298-11.877-16.101-22.167-16.612-3.742-8.956-12.586-15.249-22.904-15.249z" fill="#ffd772" fill-rule="evenodd"/></g><g><path clip-rule="evenodd" d="m219.305 224.133c-1.786 19.985-53.603 41.5-84.274 26.618-13.946 8.221-24.576 18.426-28.432 30.87-.312 1.049-.624 2.098-.879 3.118-5.131 20.297 3.6 32.203 19.219 30.728 11.424-1.077 29.254-7.144 44.901 10.092 18.85 20.694 64.942 17.689 80.419-3.855 8.674-12.076 13.266-24.917 24.18-45.923 9.014-17.377 10.658-32.883 2.778-42.776-6.888-8.646-21.061-13.04-43.965-10.659-4.252.455-8.958 1.05-13.947 1.787z" fill="#f9f7f8" fill-rule="evenodd"/></g><g><path clip-rule="evenodd" d="m217.038 223.084c-22.025-7.739-65.594-4.592-80.221 24.01-.709 1.417-1.332 2.551-1.786 3.657-1.247 2.891-1.389 5.471.652 12.643 3.543 12.274 23.216 23.16 39.487 13.04 7.767-4.819 12.246-15.109 30.614-15.733 35.32-1.162 34.951-25.739 13.521-36.568-.737-.368-1.502-.709-2.267-1.049z" fill="#ffd772" fill-rule="evenodd"/></g><g><path clip-rule="evenodd" d="m370.364 197.742c-13.096 15.818-20.353 35.689-19.191 56.61 8.079 16.215 16.98 20.694 25.285 26.845 14.117.737 17.036 7.115 25.285 7.115.567 0 8.277-3.714 8.844-3.657 1.871-5.981 3.09-12.218 3.515-18.568.312-4.677.198-9.468-.369-14.259-2.608-22.621-14.684-42.039-32.23-55.391-5.441-4.138-6.774-3.968-11.139 1.305z" fill="#a7e9a6" fill-rule="evenodd"/></g><g><path clip-rule="evenodd" d="m481.879 255.825c-19.134-6.321-40.025-5.386-58.451 4.365-3.288 1.729-6.406 3.714-9.326 5.896-6.86 5.358-17.376 23.812-12.359 30.87 5.159.34 14.173 7.881 18 10.885.51.369 14.57 2.75 17.093 2.75 4.847 0 9.865-2.41 13.691 0 18.227-9.78 30.643-26.42 36.142-45.696 1.73-6.008 1.135-7.114-4.79-9.07z" fill="#4fc9af" fill-rule="evenodd"/></g><g><path clip-rule="evenodd" d="m476.975 372.333h-441.951-21.061c-3.572 0-6.463 2.92-6.463 6.463v21.119c0 15.137 12.387 27.554 27.553 27.554h12.047 417.8 12.019c15.165 0 27.581-12.416 27.581-27.554v-21.119c0-3.543-2.92-6.463-6.463-6.463z" fill="#f9f7f8" fill-rule="evenodd"/></g><g><path clip-rule="evenodd" d="m401.971 285.562c-3.26-9.298-11.877-16.101-22.167-16.612-3.742-8.958-12.586-15.251-22.904-15.251-1.956 0-3.883.227-5.726.652-1.304.312-2.58.737-3.798 1.247-2.891-10.517-12.501-18.256-23.924-18.256-.794 0-1.587.057-2.353.113 12.302 21.686 19.247 46.32 19.247 72.427 0 22.196-5.017 43.315-14.06 62.449h150.69c1.899-3.515 3.005-7.54 3.005-11.849 0-11.452-7.767-21.09-18.312-23.953.312-1.587.482-3.232.482-4.932 0-8.844-4.649-16.612-11.622-21.005-3.827-2.41-8.334-3.799-13.181-3.799-.879 0-1.729.057-2.551.142-.992-7.059-4.932-13.125-10.517-16.98-3.827-3.033-8.532-4.961-13.691-5.301-.567-.057-1.134-.057-1.701-.057-2.41.001-4.735.341-6.917.965z" fill="#fbba58" fill-rule="evenodd"/></g><g><path clip-rule="evenodd" d="m413.734 251.828c-2.608-22.621-14.684-42.039-32.23-55.391-5.443-4.139-6.775-3.969-11.14 1.304-1.729 2.069-3.345 4.224-4.876 6.435 15.165 13.125 25.484 31.154 27.865 51.819.539 4.819.652 9.581.34 14.259-.085 1.219-.198 2.41-.312 3.6 3.912 2.92 6.945 7.002 8.589 11.707 2.183-.624 4.507-.964 6.917-.964.567 0 1.134 0 1.701.057 1.871-5.981 3.09-12.218 3.515-18.568.312-4.676.198-9.467-.369-14.258z" fill="#7fdbae" fill-rule="evenodd"/></g><g><path clip-rule="evenodd" d="m486.67 264.897c1.729-6.01 1.134-7.115-4.791-9.071-3.713-1.219-7.483-2.183-11.282-2.863.397 1.247.085 2.948-.68 5.641-5.443 19.106-17.717 35.661-35.717 45.441.255.935.454 1.899.595 2.891.822-.085 1.672-.142 2.551-.142 4.847 0 9.354 1.389 13.181 3.799 18.228-9.78 30.644-26.42 36.143-45.696z" fill="#26bb9e" fill-rule="evenodd"/></g><g><path clip-rule="evenodd" d="m210.546 260.389c30.501-3.147 29.169-25.938 8.759-36.256-.737-.369-1.502-.709-2.268-1.049-19.361-6.803-55.361-5.188-73.701 14.684 17.461-5.755 37.616-4.932 50.428-.425.794.34 1.559.68 2.296 1.049 10.745 5.443 16.215 14.344 14.486 21.997z" fill="#fbba58" fill-rule="evenodd"/></g><g><path clip-rule="evenodd" d="m250.26 321.705c8.674-12.076 13.266-24.917 24.18-45.923 9.014-17.377 10.658-32.883 2.778-42.776-5.131-6.435-14.287-10.517-28.091-11.197.935.85 1.786 1.758 2.551 2.721 4.337 5.443 5.783 12.558 4.734 20.722-.85 6.747-3.43 14.202-7.512 22.054-10.885 21.005-15.506 33.847-24.18 45.923-9.354 13.011-29.849 19.248-48.756 17.632 21.259 14.655 60.293 10.318 74.296-9.156z" fill="#e5e4ed" fill-rule="evenodd"/></g><g><path clip-rule="evenodd" d="m504.5 378.796c0-3.543-2.92-6.463-6.463-6.463h-21.061-43.824c3.572 0 6.463 2.92 6.463 6.463v21.119c0 15.137-12.387 27.554-27.553 27.554h52.838 12.019c15.165 0 27.581-12.416 27.581-27.554z" fill="#e5e4ed" fill-rule="evenodd"/></g><g><path d="m234.757 156.891c.334 4.669 5.008 7.946 9.513 6.683 2.092-.587 3.859-2.095 4.774-4.065 1.074-2.313.593-4.811.317-7.245-1.361-12.043-3.641-32.198 24.992-41.75 18.078-6.048 29.969-19.173 34.387-37.955 3.21-13.645 1.24-25.539 1.155-26.038-.696-4.073-4.556-6.811-8.631-6.121-4.076.684-6.829 4.548-6.158 8.626.247 1.499 5.683 36.826-25.506 47.262-40.149 13.393-36.513 45.555-35.144 57.662.132 1.169.246 2.177.301 2.941z"/><path d="m305.4 117.066c-26.703 8.913-24.166 30.973-23.333 38.222.278 2.419.553 4.595 2.372 6.396 1.604 1.587 3.88 2.377 6.123 2.124 2.226-.251 4.258-1.518 5.469-3.402 1.377-2.144 1.216-4.41.938-6.83-1.043-9.075-.821-17.607 13.188-22.283 23.03-7.714 25.474-30.958 23.548-42.171-.698-4.066-4.547-6.79-8.619-6.108-4.071.677-6.827 4.535-6.171 8.609.327 2.03 2.724 20.003-13.515 25.443z"/><path d="m178.491 156.919c.335 4.45 4.637 7.687 9.007 6.777 2.048-.426 3.853-1.716 4.922-3.515 1.246-2.096 1.068-4.284.8-6.607-1.043-9.075-.82-17.607 13.188-22.283 23.03-7.714 25.474-30.958 23.548-42.171-.701-4.082-4.572-6.825-8.661-6.122-4.082.701-6.823 4.578-6.122 8.661.138.806 3.198 19.806-13.522 25.406-26.703 8.913-24.166 30.973-23.333 38.222.073.622.138 1.17.173 1.632z"/><path d="m498.037 364.832h-10.853c.197-1.44.296-2.894.296-4.349 0-12.369-7.083-23.491-17.83-28.891-.001-7.482-2.564-14.374-6.851-19.856 14.901-10.673 25.792-26.241 31.078-44.767 2.852-9.911.147-15.033-9.646-18.266-21.356-7.057-43.609-5.562-62.852 4.132-.06-.623-.121-1.245-.195-1.868-2.751-23.865-15.23-45.351-35.141-60.501-8.676-6.598-14.491-5.923-21.457 2.49-10.89 13.154-17.774 28.606-20.122 44.71-5.722-4.908-13.112-7.825-21.015-7.825-4.084 0-8.07.756-11.787 2.215-5.997-6.002-14.153-9.443-22.853-9.443-3.312 0-6.611.517-9.756 1.516-9.688-8.344-25.308-11.451-46.599-9.241-3.856.412-7.885.916-12.008 1.5-.306-.133-.61-.269-.924-.381-13.162-4.624-31.162-5.343-46.978-1.873-19.828 4.35-34.888 14.842-42.406 29.544-.31.602-.611 1.209-.914 1.814-14.916 9.188-24.673 19.848-29.055 31.739-6.16.564-12.071 2.892-16.919 6.694-5.511 3.854-9.655 9.314-11.905 15.535-16.28 1.66-29.026 15.438-29.026 32.136v.005c-10.747 5.401-17.83 16.517-17.83 28.881 0 1.457.1 2.91.297 4.349h-10.823c-7.699.001-13.963 6.266-13.963 13.965v21.118c0 19.329 15.725 35.054 35.053 35.054h4.547v10.869c0 14.265 11.604 25.869 25.869 25.869h381.063c14.264 0 25.869-11.604 25.869-25.869v-10.869h4.519c19.344 0 35.081-15.725 35.081-35.054v-21.118c-.001-7.699-6.265-13.964-13.964-13.964zm-76.774-94.616c1.841-1.235 3.736-2.377 5.674-3.397 15.912-8.42 34.552-9.807 52.499-3.902-4.788 16.715-15.051 30.458-29.089 39.115-3.028-1.336-6.295-2.227-9.722-2.573-2.246-6.211-6.377-11.668-11.869-15.526-2.692-2.113-5.715-3.765-8.924-4.919.631-2.917 1.108-5.851 1.431-8.798zm-45.122-67.691c.135-.163.261-.313.378-.452.138.103.286.214.443.334 16.628 12.653 27.042 30.51 29.323 50.297.899 7.655.538 15.301-1.05 22.817-4.771-7.022-12.121-11.908-20.55-13.521-5.467-9.224-15.177-15.155-26.015-15.742.847-15.677 6.903-30.969 17.471-43.733zm-233.295 49.272c.212-.418.436-.859.67-1.33 12.861-25.068 52.74-26.594 70.792-20.392 8.946 3.931 12.976 10.257 12.221 14.254-.716 3.796-6.645 8.397-20.999 8.876-16.105.547-23.808 7.64-29.432 12.818-1.799 1.657-3.354 3.089-4.889 4.042-7.016 4.361-13.898 2.772-17.376 1.438-5.383-2.067-9.781-6.163-10.943-10.188-1.767-6.129-1.637-6.385-.044-9.518zm-90.554 91.973c3.848-1.041 6.208-4.911 5.374-8.809-.229-1.067-.344-2.199-.344-3.363 0-9.541 7.775-17.304 17.332-17.304.516 0 1.089.033 1.751.102 4.023.421 7.637-2.42 8.198-6.416.671-4.771 3.355-9.088 7.365-11.843.148-.102.293-.209.434-.321 1.357-1.083 2.844-1.939 4.427-2.556-.455 8.483 1.527 15.736 5.883 21.092 5.24 6.441 13.385 9.487 22.933 8.583 1.905-.18 3.855-.467 5.921-.771 10.868-1.601 22.106-3.256 32.727 8.441 8.876 9.763 23.467 15.743 40.033 16.41 15.756.622 31.089-3.456 42.073-11.221 3.382-2.391 4.186-7.071 1.795-10.453-2.391-3.383-7.071-4.187-10.454-1.795-15.991 11.303-48.553 12.142-62.345-3.027-15.994-17.617-34.06-14.955-46.015-13.195-1.866.275-3.628.535-5.148.678-4.524.435-7.851-.617-9.883-3.115-3.264-4.013-3.477-11.686-.584-21.045 2.108-6.806 6.95-13.282 14.439-19.34.087.317.179.643.274.973 2.475 8.575 10.13 16.251 19.978 20.033 10.345 3.973 21.525 2.985 30.668-2.7 2.736-1.698 4.973-3.758 7.136-5.749 4.954-4.563 9.233-8.503 19.774-8.86 29.185-.975 34.347-16.386 35.234-21.086 1.138-6.031-.438-12.158-4.18-17.584 17.645-1.374 29.977 1.788 34.893 9.008 4.809 7.061 3.278 19.378-4.2 33.794-3.905 7.532-11.583 23.541-12.446 25.319-1.811 3.726-.258 8.213 3.468 10.023 3.725 1.81 8.214.257 10.024-3.469.875-1.8 8.473-17.646 12.271-24.969 8.261-15.924 10.619-30.354 6.963-41.604.25-.011.5-.016.751-.016 5.922 0 11.375 2.976 14.588 7.959 1.092 1.694 2.82 2.878 4.795 3.283 1.975.404 4.029 0 5.701-1.128 2.801-1.888 6.105-2.886 9.556-2.886 7.766 0 14.63 5.24 16.692 12.744.57 2.073 2.003 3.803 3.935 4.748s4.176 1.015 6.164.194c2.133-.883 4.373-1.33 6.657-1.33 7.01 0 13.284 4.177 15.984 10.642 1.114 2.668 3.662 4.457 6.549 4.601 7.043.349 13.111 4.902 15.46 11.602 1.314 3.748 5.32 5.818 9.139 4.729 1.566-.447 3.2-.675 4.855-.675 3.962 0 7.666 1.286 10.712 3.718.136.108.276.213.419.312 4.001 2.763 6.68 7.082 7.351 11.853.562 3.996 4.187 6.836 8.198 6.416.663-.068 1.245-.102 1.78-.102 9.541 0 17.303 7.763 17.303 17.304 0 1.159-.115 2.333-.342 3.488-.757 3.861 1.598 7.651 5.395 8.683 7.523 2.042 12.777 8.915 12.777 16.715 0 1.485-.184 2.938-.55 4.349h-431.886c-.368-1.405-.553-2.858-.553-4.349 0-7.802 5.264-14.675 12.801-16.715zm444.708 56.144c0 11.058-9.008 20.054-20.081 20.054h-201.771c-4.142 0-7.5 3.357-7.5 7.5s3.358 7.5 7.5 7.5h182.252v10.869c0 5.993-4.875 10.869-10.869 10.869h-381.062c-5.993 0-10.869-4.876-10.869-10.869v-10.869h185.682c4.142 0 7.5-3.357 7.5-7.5s-3.358-7.5-7.5-7.5h-205.229c-11.057 0-20.053-8.996-20.053-20.054v-20.082h482z"/><path d="m310.074 289.561c2.257-2.258 5.262-3.501 8.458-3.501 3.197 0 6.202 1.243 8.459 3.501 1.465 1.465 3.384 2.197 5.304 2.197s3.839-.732 5.303-2.196c2.929-2.929 2.929-7.678 0-10.606-5.091-5.092-11.862-7.896-19.066-7.896s-13.975 2.804-19.066 7.896c-2.929 2.929-2.928 7.678 0 10.606 2.93 2.928 7.678 2.929 10.608-.001z"/><path d="m394.005 344.031c1.919 0 3.839-.732 5.304-2.197 2.257-2.258 5.261-3.501 8.458-3.501s6.201 1.243 8.458 3.501c2.929 2.93 7.678 2.929 10.607.001 2.929-2.929 2.929-7.678 0-10.606-5.091-5.092-11.862-7.896-19.066-7.896s-13.975 2.804-19.066 7.896c-2.929 2.929-2.928 7.678.001 10.606 1.466 1.463 3.385 2.196 5.304 2.196z"/><path d="m280.05 335.91c1.461 1.461 3.371 2.189 5.282 2.189 1.92 0 3.842-.736 5.31-2.204 2.929-2.929 2.915-7.691-.014-10.621-2.929-2.928-7.678-2.928-10.606 0-2.929 2.93-2.929 7.678 0 10.607z"/><path d="m83.636 343.676c1.461 1.461 3.371 2.189 5.282 2.189 1.92 0 3.842-.736 5.31-2.204 2.929-2.929 2.915-7.691-.014-10.621-2.929-2.928-7.678-2.928-10.606 0-2.929 2.93-2.929 7.678 0 10.607z"/><path d="m363.277 314.874c4.142 0 7.5-3.371 7.5-7.514s-3.358-7.5-7.5-7.5-7.5 3.357-7.5 7.5v.028c0 4.144 3.358 7.486 7.5 7.486z"/><path d="m327.938 330.621c-2.904 2.954-2.863 7.702.091 10.606l.029.028c1.457 1.432 3.347 2.145 5.236 2.145 1.942 0 3.884-.753 5.355-2.25 2.904-2.953 2.849-7.716-.105-10.62-2.954-2.905-7.702-2.864-10.606.091z"/></g></g></svg>