<?xml version="1.0" encoding="iso-8859-1"?>
<!-- Generator: Adobe Illustrator 18.0.0, SVG Export Plug-In . SVG Version: 6.00 Build 0)  -->
<!DOCTYPE svg PUBLIC "-//W3C//DTD SVG 1.1//EN" "http://www.w3.org/Graphics/SVG/1.1/DTD/svg11.dtd">
<svg version="1.1" id="Capa_1" xmlns="http://www.w3.org/2000/svg" xmlns:xlink="http://www.w3.org/1999/xlink" x="0px" y="0px"
	 viewBox="0 0 81.514 81.514" style="enable-background:new 0 0 81.514 81.514;" xml:space="preserve">
<g>
	<path d="M65.467,41.885c6.964,0,12.63-5.641,12.63-12.574c0-6.932-5.666-12.572-12.63-12.572h-2.425
		c0.457-0.78,0.845-1.595,1.131-2.439c1.166-3.451,0.73-7.017-1.198-9.784C60.974,1.646,57.652,0,53.859,0
		c-2.793,0-5.663,0.928-8.081,2.613c-2.398,1.669-4.418,5.04-5.955,8.357c-1.538-3.317-3.559-6.687-5.955-8.356
		c-2.749-1.917-5.986-2.83-9.125-2.57c-3.342,0.276-6.284,1.906-8.072,4.473c-1.14,1.635-0.737,3.884,0.898,5.024
		c1.635,1.138,3.884,0.739,5.024-0.898c0.759-1.088,2.045-1.348,2.745-1.406c1.441-0.12,3.049,0.354,4.404,1.299
		c1.396,0.973,3.216,4.444,4.689,8.204H16.048c-6.964,0-12.63,5.64-12.63,12.572c0,5.133,3.108,9.55,7.547,11.502v28.071
		c0,6.964,5.666,12.63,12.63,12.63h34.323c6.964,0,12.63-5.666,12.63-12.63V52.771c0-1.993-1.615-3.608-3.608-3.608
		s-3.608,1.615-3.608,3.608v16.113c0,2.984-2.429,5.413-5.413,5.413H44.365V41.885H65.467z M70.88,29.311
		c0,2.954-2.429,5.357-5.413,5.357H44.365V24.159c1.921-0.002,3.594-0.077,5.047-0.202h16.055
		C68.451,23.957,70.88,26.359,70.88,29.311z M49.904,8.535c1.219-0.85,2.623-1.317,3.955-1.317c1.398,0,2.562,0.519,3.193,1.424
		c0.828,1.189,0.532,2.607,0.283,3.344c-0.442,1.307-1.387,2.515-2.657,3.4c-0.749,0.521-2.569,1.067-5.618,1.353h-3.843
		C46.608,13.186,48.409,9.576,49.904,8.535z M16.048,23.957h21.101v10.711H16.048c-2.984,0-5.413-2.403-5.413-5.357
		C10.635,26.359,13.063,23.957,16.048,23.957z M37.148,74.297H23.595c-2.984,0-5.413-2.429-5.413-5.413V41.885h18.967V74.297z"/>
	<path d="M24.815,67.206c0.996,0,1.805-0.809,1.805-1.805V53.222c0-0.996-0.809-1.805-1.805-1.805c-0.996,0-1.805,0.809-1.805,1.805
		v12.179C23.011,66.397,23.819,67.206,24.815,67.206z"/>
</g>
<g>
</g>
<g>
</g>
<g>
</g>
<g>
</g>
<g>
</g>
<g>
</g>
<g>
</g>
<g>
</g>
<g>
</g>
<g>
</g>
<g>
</g>
<g>
</g>
<g>
</g>
<g>
</g>
<g>
</g>
</svg>
