<?xml version="1.0" encoding="iso-8859-1"?>
<!-- Generator: Adobe Illustrator 19.0.0, SVG Export Plug-In . SVG Version: 6.00 Build 0)  -->
<svg version="1.1" id="Layer_1" xmlns="http://www.w3.org/2000/svg" xmlns:xlink="http://www.w3.org/1999/xlink" x="0px" y="0px"
	 viewBox="0 0 499.2 499.2" style="enable-background:new 0 0 499.2 499.2;" xml:space="preserve">
<path style="fill:#C98028;" d="M465.6,217.6c0,68-96.8,49.6-216,49.6s-216,18.4-216-49.6s96.8-124,216-124S465.6,148.8,465.6,217.6z
	"/>
<path style="fill:#E5A641;" d="M465.6,217.6c0,68-96.8-1.6-216-1.6s-216,69.6-216,1.6s96.8-124,216-124S465.6,148.8,465.6,217.6z"/>
<path style="fill:#D89636;" d="M249.6,93.6c119.2,0,216,55.2,216,124c0,68-96.8-1.6-216-1.6"/>
<g>
	<ellipse style="fill:#D38D31;" cx="188.8" cy="131.2" rx="15.2" ry="5.6"/>
	<ellipse style="fill:#D38D31;" cx="229.6" cy="158.4" rx="15.2" ry="5.6"/>
</g>
<g>
	<ellipse style="fill:#E5A641;" cx="318.4" cy="154.4" rx="15.2" ry="5.6"/>
	<ellipse style="fill:#E5A641;" cx="288" cy="125.6" rx="11.2" ry="4"/>
	<ellipse style="fill:#E5A641;" cx="383.2" cy="183.2" rx="11.2" ry="4"/>
</g>
<ellipse style="fill:#D38D31;" cx="146.4" cy="157.6" rx="11.2" ry="4"/>
<path style="fill:#F2C56D;" d="M119.2,150.4c8,7.2,0,27.2-18.4,44s-40,25.6-48,17.6c-8-7.2,0-27.2,18.4-44S111.2,143.2,119.2,150.4z
	"/>
<path style="fill:#52A305;" d="M140.8,284.8c0,0-73.6-37.6-108.8-22.4c-34.4,16-20,48.8-2.4,50.4c0,0-8.8,16.8,1.6,22.4
	s12,2.4,12,2.4s-12.8,6.4-9.6,28.8S74.4,396,80.8,340c4-34.4,48-46.4,48-46.4l22.4-1.6L140.8,284.8z"/>
<path style="fill:#448400;" d="M80.8,340.8c4-34.4,48-46.4,48-46.4l22.4-1.6l-9.6-8c0,0-35.2-18.4-68.8-24
	c-14.4-2.4-28.8-2.4-40,2.4"/>
<g>
	<path style="fill:#76CE19;" d="M35.2,268.8c2.4,1.6,0,7.2-4,12.8c-4.8,5.6-10.4,8-12,6.4c-2.4-1.6,0-7.2,4-12.8
		C28,270.4,32.8,267.2,35.2,268.8z"/>
	<path style="fill:#76CE19;" d="M42.4,295.2c2.4,0.8,3.2,4.8,1.6,10.4c-1.6,5.6-4,9.6-6.4,8.8s-3.2-5.6-1.6-10.4
		S40,295.2,42.4,295.2z"/>
	<path style="fill:#76CE19;" d="M50.4,340.8c2.4,0.8,0.8,5.6-1.6,10.4c-3.2,4.8-7.2,8-8.8,7.2s-1.6-5.6,1.6-10.4
		C44.8,342.4,48.8,339.2,50.4,340.8z"/>
</g>
<path style="fill:#52A305;" d="M358.4,284.8c0,0,73.6-37.6,108.8-22.4c34.4,16,20,48.8,2.4,50.4c0,0,8.8,16.8-1.6,22.4
	s-12,2.4-12,2.4s12.8,6.4,9.6,28.8S424.8,396,418.4,340c-4-34.4-48-46.4-48-46.4L348,292L358.4,284.8z"/>
<path style="fill:#448400;" d="M418.4,340.8c-4-34.4-48-46.4-48-46.4l-22.4-1.6l9.6-8c0,0,35.2-18.4,68.8-24
	c14.4-2.4,28.8-2.4,40,2.4"/>
<g>
	<path style="fill:#76CE19;" d="M464,268.8c-2.4,1.6,0,7.2,4,12.8c4.8,5.6,10.4,8,12,6.4c2.4-1.6,0-7.2-4-12.8
		C471.2,270.4,466.4,267.2,464,268.8z"/>
	<path style="fill:#76CE19;" d="M456.8,295.2c-2.4,0.8-3.2,4.8-1.6,10.4s4,9.6,6.4,8.8c2.4-0.8,3.2-5.6,1.6-10.4
		S459.2,295.2,456.8,295.2z"/>
	<path style="fill:#76CE19;" d="M448.8,340.8c-2.4,0.8-0.8,5.6,1.6,10.4c3.2,4.8,7.2,8,8.8,7.2c1.6-0.8,1.6-5.6-1.6-10.4
		C454.4,342.4,450.4,339.2,448.8,340.8z"/>
</g>
<path style="fill:#A56016;" d="M460.8,432.8c0,58.4-94.4,66.4-211.2,66.4s-211.2-8.8-211.2-66.4s94.4-51.2,211.2-51.2
	S460.8,374.4,460.8,432.8z"/>
<path style="fill:#D38D31;" d="M460.8,432.8c0,58.4-94.4,66.4-211.2,66.4s-211.2-8.8-211.2-66.4s94.4-21.6,211.2-21.6
	S460.8,374.4,460.8,432.8z"/>
<path style="fill:#C67822;" d="M249.6,411.2c116.8,0,211.2-36,211.2,21.6s-94.4,66.4-211.2,66.4"/>
<path style="fill:#FFD400;" d="M447.2,309.6c0,11.2-10.4,20-22.4,20H74.4c-12.8,0-22.4-8.8-22.4-20l0,0c0-11.2,10.4-20,22.4-20
	h350.4C436.8,289.6,447.2,298.4,447.2,309.6L447.2,309.6z"/>
<path style="fill:#FFB000;" d="M447.2,308.8L447.2,308.8c0,11.2-10.4,20.8-22.4,20.8H74.4c-12.8,0-22.4-8.8-22.4-20.8l0,0"/>
<path style="fill:#6D3113;" d="M444,361.6c0,16.8-14.4,32-32.8,32H88c-18.4,0-32.8-15.2-32.8-32l0,0c0-16.8,14.4-32,32.8-32h323.2
	C429.6,329.6,444,344.8,444,361.6L444,361.6z"/>
<path style="fill:#562306;" d="M444,362.4c0,16.8-14.4,31.2-32.8,31.2H88c-18.4,0-32.8-14.4-32.8-31.2l0,0
	c0-16.8,14.4-32.8,32.8-8.8h323.2C429.6,329.6,444,345.6,444,362.4L444,362.4z"/>
<path style="fill:#FFFFFF;" d="M440.8,280.8c0,16.8-85.6,8-191.2,8s-191.2,8.8-191.2-8c0-16.8,85.6-31.2,191.2-31.2
	S440.8,264,440.8,280.8z"/>
<path style="fill:#E2D9C5;" d="M249.6,249.6c105.6,0,191.2,13.6,191.2,30.4s-85.6,8-191.2,8"/>
<path style="fill:#FFB000;" d="M349.6,252.8c0,16-44.8,7.2-100,7.2s-100,8.8-100-7.2s44.8-28.8,100-28.8
	C304.8,224.8,349.6,237.6,349.6,252.8z"/>
<path style="fill:#FF8B00;" d="M249.6,224.8c55.2,0,100,12.8,100,28.8s-44.8,7.2-100,7.2"/>
<path style="fill:#E5A641;" d="M113.6,450.4c-4.8,11.2-22.4,15.2-38.4,8.8c-16.8-6.4-26.4-20-21.6-30.4C58.4,417.6,76,413.6,92,420
	C108,425.6,118.4,439.2,113.6,450.4z"/>
<path style="fill:#FFD400;" d="M234.4,233.6c0.8,3.2-10.4,8.8-24.8,11.2c-14.4,2.4-26.4,1.6-27.2-1.6c-0.8-3.2,10.4-8.8,24.8-11.2
	C221.6,229.6,233.6,230.4,234.4,233.6z"/>
<path style="fill:#FFFFFF;" d="M123.2,290.4c0,0,9.6-1.6,14.4,7.2c4,8.8,15.2,8.8,31.2,2.4c15.2-6.4,21.6-0.8,29.6,8.8
	c8,9.6,20-12.8,27.2-4s12.8,12.8,15.2,15.2c6.4,5.6,8.8,0,8.8,0v-39.2l-81.6-7.2l-24,9.6L123.2,290.4z"/>
<path style="fill:#E2D9C5;" d="M376,290.4c0,0-9.6-1.6-14.4,7.2c-4,8.8-15.2,8.8-31.2,2.4c-15.2-6.4-21.6-0.8-29.6,8.8
	c-8,9.6-20-12.8-27.2-4s-12.8,12.8-15.2,15.2c-6.4,5.6-8.8,0-8.8,0v-39.2l81.6-7.2l24,9.6L376,290.4z"/>
<ellipse style="fill:#C98028;" cx="249.6" cy="115.2" rx="32" ry="8"/>
<path style="fill:#562306;" d="M257.6,107.2c0,4.8-4,8-8,8l0,0c-4,0-8-4-8-8V8c0-4.8,4-8,8-8l0,0c4,0,8,4,8,8V107.2z"/>
<polygon style="fill:#F73939;" points="257.6,7.2 257.6,72.8 334.4,40 "/>
<polygon style="fill:#D32E26;" points="257.6,37.6 257.6,72.8 334.4,40 "/>
<g>
	<ellipse style="fill:#E5A641;" cx="161.6" cy="427.2" rx="12.8" ry="4.8"/>
	<ellipse style="fill:#E5A641;" cx="200" cy="457.6" rx="12.8" ry="4.8"/>
	<ellipse style="fill:#E5A641;" cx="222.4" cy="435.2" rx="12.8" ry="4.8"/>
</g>
<g>
	<ellipse style="fill:#A56016;" cx="340" cy="436" rx="12.8" ry="4.8"/>
	<ellipse style="fill:#A56016;" cx="297.6" cy="460.8" rx="12.8" ry="4.8"/>
	<ellipse style="fill:#A56016;" cx="380" cy="463.2" rx="12.8" ry="4.8"/>
</g>
<g>
</g>
<g>
</g>
<g>
</g>
<g>
</g>
<g>
</g>
<g>
</g>
<g>
</g>
<g>
</g>
<g>
</g>
<g>
</g>
<g>
</g>
<g>
</g>
<g>
</g>
<g>
</g>
<g>
</g>
</svg>
