<svg xmlns="http://www.w3.org/2000/svg" viewBox="0 0 464.1 404"><g id="Layer_2" data-name="Layer 2"><g id="Capa_1" data-name="Capa 1"><path d="M412.65,52a115.63,115.63,0,0,0-165.82,0c-1.12,1.14-2.12,2.53-3.53,3.77-7.54,6.66-16.37,6.32-22.49,0-1.31-1.35-2.42-2.63-3.54-3.77A115.63,115.63,0,0,0,51.45,52c-45.93,46.82-45.93,123,0,169.83L200.29,373.57a44.27,44.27,0,0,0,63.52,0L412.65,221.86h0C458.59,175,458.59,98.85,412.65,52Z" style="fill:none;stroke:#000;stroke-miterlimit:10;stroke-width:34px"/><path d="M380.73,90.06A68.58,68.58,0,0,0,356,73.81a11.89,11.89,0,1,0-8.44,22.24,44.93,44.93,0,0,1,16.2,10.67,48.81,48.81,0,0,1,0,68L322,217.31A11.9,11.9,0,1,0,339,234l41.75-42.55C408.15,163.48,408.15,118,380.73,90.06Z"/><path d="M311.26,84a11.89,11.89,0,0,1-3.41,16.47,47,47,0,0,0-7.63,6.29,11.9,11.9,0,0,1-17-16.66,70.24,70.24,0,0,1,11.55-9.5A11.9,11.9,0,0,1,311.26,84Z"/></g></g></svg>