<?xml version="1.0" encoding="iso-8859-1"?>
<!-- Generator: Adobe Illustrator 19.0.0, SVG Export Plug-In . SVG Version: 6.00 Build 0)  -->
<svg version="1.1" id="Layer_1" xmlns="http://www.w3.org/2000/svg" xmlns:xlink="http://www.w3.org/1999/xlink" x="0px" y="0px"
	 viewBox="0 0 504.8 504.8" style="enable-background:new 0 0 504.8 504.8;" xml:space="preserve">
<path style="fill:#C6872C;" d="M478.4,236.4c0,29.6-100.8,24.8-225.6,24.8S27.2,266,27.2,236.4s100.8-49.6,225.6-49.6
	S478.4,206.8,478.4,236.4z"/>
<path style="fill:#F2C05C;" d="M478.4,236.4c0,29.6-100.8,1.6-225.6,1.6s-225.6,28-225.6-1.6s100.8-49.6,225.6-49.6
	S478.4,206.8,478.4,236.4z"/>
<path style="fill:#E5A641;" d="M478.4,236.4c0,29.6-100.8,1.6-225.6,1.6s-225.6,28-225.6-1.6s104-40,228.8-40
	C380,196.4,478.4,206.8,478.4,236.4z"/>
<g>
	<ellipse style="fill:#C6872C;" cx="141.6" cy="220.4" rx="9.6" ry="4"/>
	<path style="fill:#C6872C;" d="M80,229.2c0.8,1.6-1.6,3.2-4.8,3.2c-3.2,0.8-6.4,0-7.2-1.6c-0.8-0.8,1.6-2.4,4.8-2.4
		C76,227.6,79.2,228.4,80,229.2z"/>
	<ellipse style="fill:#C6872C;" cx="250.4" cy="211.6" rx="9.6" ry="4"/>
	<path style="fill:#C6872C;" d="M418.4,235.6c-0.8,2.4-5.6,3.2-11.2,2.4s-8.8-3.2-8-5.6c0.8-2.4,5.6-3.2,11.2-2.4
		C415.2,230.8,419.2,233.2,418.4,235.6z"/>
	<ellipse style="fill:#C6872C;" cx="349.6" cy="223.6" rx="6.4" ry="2.4"/>
	<ellipse style="fill:#C6872C;" cx="314.4" cy="212.4" rx="6.4" ry="2.4"/>
	<ellipse style="fill:#C6872C;" cx="204.8" cy="223.6" rx="6.4" ry="2.4"/>
	<path style="fill:#C6872C;" d="M27.2,386c0-29.6,100.8-24.8,225.6-24.8s225.6-4.8,225.6,24.8c0,29.6-100.8,49.6-225.6,49.6
		S27.2,415.6,27.2,386z"/>
</g>
<path style="fill:#F2C05C;" d="M27.2,386c0-29.6,100.8-1.6,225.6-1.6s225.6-28,225.6,1.6s-100.8,49.6-225.6,49.6
	S27.2,415.6,27.2,386z"/>
<path style="fill:#E5A641;" d="M27.2,386c0-29.6,100.8-1.6,225.6-1.6s225.6-28,225.6,1.6s-104,40-228.8,40
	C125.6,426,27.2,415.6,27.2,386z"/>
<g>
	<ellipse style="fill:#C6872C;" cx="364" cy="402" rx="9.6" ry="4"/>
	<path style="fill:#C6872C;" d="M425.6,392.4c-0.8-1.6,1.6-3.2,4.8-3.2c3.2-0.8,6.4,0,7.2,1.6s-1.6,3.2-4.8,3.2
		C429.6,394.8,426.4,394,425.6,392.4z"/>
	<ellipse style="fill:#C6872C;" cx="255.2" cy="410.8" rx="9.6" ry="4"/>
	<path style="fill:#C6872C;" d="M87.2,386.8c0.8-2.4,5.6-3.2,11.2-2.4c5.6,0.8,8.8,3.2,8,5.6s-5.6,3.2-11.2,2.4
		C90.4,391.6,86.4,389.2,87.2,386.8z"/>
	<ellipse style="fill:#C6872C;" cx="156" cy="398" rx="6.4" ry="2.4"/>
	<ellipse style="fill:#C6872C;" cx="191.2" cy="410" rx="6.4" ry="2.4"/>
	<ellipse style="fill:#C6872C;" cx="300.8" cy="398" rx="6.4" ry="2.4"/>
</g>
<path style="fill:#A54300;" d="M504.8,308.4c0,30.4-24.8,56-56,56H56c-30.4,0-56-25.6-56-56l0,0c0-30.4,24.8-56,56-56h392.8
	C480,252.4,504.8,278,504.8,308.4L504.8,308.4z"/>
<path style="fill:#823500;" d="M504.8,308.4c0,22.4-24.8,40-56,40H56c-30.4,0-56-17.6-56-40l0,0c0-22.4,24.8-40,56-40h392.8
	C480,268.4,504.8,286,504.8,308.4L504.8,308.4z"/>
<path style="fill:#722F01;" d="M504.8,308.4c0,13.6-24.8,24-56,24H56c-30.4,0-56-10.4-56-24l0,0c0-13.6,24.8-24,56-24h392.8
	C480,284.4,504.8,294.8,504.8,308.4L504.8,308.4z"/>
<g>
	<ellipse style="fill:#823500;" cx="9.6" cy="310.8" rx="5.6" ry="8.8"/>
	<ellipse style="fill:#823500;" cx="496" cy="310.8" rx="5.6" ry="8.8"/>
</g>
<path style="fill:#F7D323;" d="M422.4,268.4c23.2,0,42.4,19.2,42.4,42.4c0,4.8-4,8.8-8.8,8.8s-8.8-4-8.8-8.8
	c0-13.6-11.2-24.8-24.8-24.8c-13.6,0-24.8,11.2-24.8,24.8c0,4.8-4,8.8-8.8,8.8s-8.8-4-8.8-8.8C380,286.8,399.2,268.4,422.4,268.4z"
	/>
<path style="fill:#FF9100;" d="M354.4,354c-23.2,0-42.4-19.2-42.4-42.4c0-4.8,4-8.8,8.8-8.8s8.8,4,8.8,8.8
	c0,13.6,11.2,24.8,24.8,24.8c13.6,0,24.8-11.2,24.8-24.8c0-4.8,4-8.8,8.8-8.8s8.8,4,8.8,8.8C397.6,334.8,378.4,354,354.4,354z"/>
<path style="fill:#F7D323;" d="M286.4,268.4c23.2,0,42.4,19.2,42.4,42.4c0,4.8-4,8.8-8.8,8.8s-8.8-4-8.8-8.8
	c0-13.6-11.2-24.8-24.8-24.8c-13.6,0-24.8,11.2-24.8,24.8c0,4.8-4,8.8-8.8,8.8c-4.8,0-8.8-4-8.8-8.8
	C244,286.8,263.2,268.4,286.4,268.4z"/>
<path style="fill:#FF9100;" d="M219.2,354c-23.2,0-42.4-19.2-42.4-42.4c0-4.8,4-8.8,8.8-8.8s8.8,4,8.8,8.8
	c0,13.6,11.2,24.8,24.8,24.8s24.8-11.2,24.8-24.8c0-4.8,4-8.8,8.8-8.8c4.8,0,8.8,4,8.8,8.8C261.6,334.8,242.4,354,219.2,354z"/>
<path style="fill:#F7D323;" d="M151.2,268.4c23.2,0,42.4,19.2,42.4,42.4c0,4.8-4,8.8-8.8,8.8s-8.8-4-8.8-8.8
	c0-13.6-11.2-24.8-24.8-24.8s-24.8,11.2-24.8,24.8c0,4.8-4,8.8-8.8,8.8s-8.8-4-8.8-8.8C108,286.8,127.2,268.4,151.2,268.4z"/>
<path style="fill:#FF9100;" d="M83.2,354c-23.2,0-42.4-19.2-42.4-42.4c0-4.8,4-8.8,8.8-8.8s8.8,4,8.8,8.8
	c0,13.6,11.2,24.8,24.8,24.8c13.6,0,24.8-11.2,24.8-24.8c0-4.8,4-8.8,8.8-8.8s8.8,4,8.8,8.8C125.6,334.8,106.4,354,83.2,354z"/>
<path d="M251.2,190c0,3.2-2.4,6.4-6.4,6.4h-4c-3.2,0-6.4-2.4-6.4-6.4v-83.2c0-3.2,2.4-6.4,6.4-6.4h4c3.2,0,6.4,2.4,6.4,6.4V190z"/>
<circle cx="243.2" cy="106.8" r="37.6"/>
<circle style="fill:#F7D323;" cx="243.2" cy="106.8" r="18.4"/>
<path style="fill:#FF9100;" d="M256,94c7.2,7.2,7.2,19.2,0,26.4c-7.2,7.2-19.2,7.2-26.4,0"/>
<g>
</g>
<g>
</g>
<g>
</g>
<g>
</g>
<g>
</g>
<g>
</g>
<g>
</g>
<g>
</g>
<g>
</g>
<g>
</g>
<g>
</g>
<g>
</g>
<g>
</g>
<g>
</g>
<g>
</g>
</svg>
