<svg xmlns="http://www.w3.org/2000/svg" xmlns:xlink="http://www.w3.org/1999/xlink" viewBox="0 0 17.34 17.98"><defs><linearGradient id="linear-gradient" x1="2.66" y1="6.04" x2="5.08" y2="6.04" gradientUnits="userSpaceOnUse"><stop offset="0.11" stop-color="#f58943"/><stop offset="0.36" stop-color="#f26c43"/><stop offset="0.7" stop-color="#ef4b42"/><stop offset="0.88" stop-color="#ee3e42"/></linearGradient><linearGradient id="linear-gradient-2" x1="11.52" y1="15.06" x2="17.34" y2="15.06" xlink:href="#linear-gradient"/><linearGradient id="linear-gradient-3" x1="0" y1="7.48" x2="14.97" y2="7.48" xlink:href="#linear-gradient"/></defs><g id="Layer_2" data-name="Layer 2"><g id="Layer_1-2" data-name="Layer 1"><path d="M4.89,4A.66.66,0,0,0,4,4,4.46,4.46,0,0,0,2.69,7.66a.65.65,0,0,0,.65.59H3.4A.65.65,0,0,0,4,7.53,3.15,3.15,0,0,1,4.89,5,.65.65,0,0,0,4.89,4Z" style="fill:url(#linear-gradient)"/><path d="M17.12,16.69,12.8,12.37a.75.75,0,1,0-1.06,1.07l4.32,4.32a.79.79,0,0,0,.53.22.77.77,0,0,0,.53-.22A.75.75,0,0,0,17.12,16.69Z" style="fill:url(#linear-gradient-2)"/><path d="M7.48,13.66a6.18,6.18,0,1,1,6.18-6.18A6.18,6.18,0,0,1,7.48,13.66ZM7.48,0A7.49,7.49,0,1,0,15,7.48,7.49,7.49,0,0,0,7.48,0Z" style="fill:url(#linear-gradient-3)"/></g></g></svg>