<?xml version="1.0" encoding="iso-8859-1"?>
<!-- Generator: Adobe Illustrator 19.0.0, SVG Export Plug-In . SVG Version: 6.00 Build 0)  -->
<svg version="1.1" id="Layer_1" xmlns="http://www.w3.org/2000/svg" xmlns:xlink="http://www.w3.org/1999/xlink" x="0px" y="0px"
	 viewBox="0 0 494.4 494.4" style="enable-background:new 0 0 494.4 494.4;" xml:space="preserve">
<circle style="fill:#F2871C;" cx="342.4" cy="146.4" r="115.2"/>
<path style="fill:#E5580A;" d="M342.4,31.2c63.2,0,115.2,51.2,115.2,115.2c0,63.2-51.2,115.2-115.2,115.2"/>
<circle style="fill:#FFCE00;" cx="342.4" cy="146.4" r="92"/>
<path style="fill:#FFB000;" d="M407.2,80.8c36,36,36,94.4,0,130.4s-94.4,36-130.4,0"/>
<path style="fill:#F2871C;" d="M328,92L328,92l14.4,33.6L356.8,92l0,0c0.8-1.6,1.6-4,1.6-6.4c0-8.8-7.2-15.2-15.2-15.2
	c-8.8,0-16,7.2-16,15.2C326.4,88,327.2,90.4,328,92z"/>
<path style="fill:#80C612;" d="M356.8,200.8L356.8,200.8l-14.4-33.6L328,200.8l0,0c-0.8,1.6-1.6,4-1.6,6.4c0,8.8,7.2,15.2,15.2,15.2
	c8.8,0,15.2-7.2,15.2-15.2C357.6,204.8,357.6,202.4,356.8,200.8z"/>
<g>
	<path style="fill:#F2871C;" d="M396,132L396,132l-33.6,14.4l33.6,14.4l0,0c1.6,0.8,4,1.6,6.4,1.6c8.8,0,15.2-7.2,15.2-15.2
		c0-8.8-7.2-15.2-15.2-15.2C400.8,130.4,398.4,131.2,396,132z"/>
	<path style="fill:#F2871C;" d="M288,160.8L288,160.8l33.6-14.4L288,132l0,0c-1.6-0.8-4-1.6-6.4-1.6c-8.8,0-15.2,7.2-15.2,15.2
		c0,8.8,7.2,15.2,15.2,15.2C284,161.6,286.4,161.6,288,160.8z"/>
	<path style="fill:#F2871C;" d="M371.2,95.2L371.2,95.2l-13.6,35.2l34.4-12l0,0c1.6-0.8,3.2-1.6,5.6-3.2c6.4-6.4,5.6-16,0-22.4
		c-6.4-6.4-16-7.2-22.4-1.6C372.8,92.8,372,93.6,371.2,95.2z"/>
</g>
<path style="fill:#80C612;" d="M314.4,194.4L314.4,194.4l13.6-33.6l-33.6,13.6l0,0c-2.4,0.8-4,1.6-5.6,3.2c-6.4,6.4-6.4,16,0,22.4
	c6.4,6.4,16,6.4,22.4,0C312,198.4,313.6,196.8,314.4,194.4z"/>
<g>
	<path style="fill:#F2871C;" d="M391.2,174.4L391.2,174.4l-34.4-15.2l13.6,32l0,0c0.8,8,1.6,5.6,3.2,7.2c6.4,6.4,16,7.2,22.4,0.8
		c6.4-6.4,8-14.4,2.4-20.8C396.8,176.8,393.6,175.2,391.2,174.4z"/>
	<path style="fill:#F2871C;" d="M295.2,118.4L295.2,118.4l32.8,12l-13.6-35.2l0,0c-0.8-1.6-2.4-4-4-5.6c-6.4-6.4-15.2-4-21.6,1.6
		c-6.4,6.4-7.2,16-0.8,21.6C289.6,115.2,293.6,117.6,295.2,118.4z"/>
</g>
<path style="fill:#68300B;" d="M391.2,220.8c0,32-26.4,58.4-58.4,58.4H153.6c-32,0-58.4-26.4-58.4-58.4v-3.2
	c0-32,26.4-58.4,58.4-58.4h179.2c32,0,61.6,26.4,61.6,58.4L391.2,220.8z"/>
<path style="fill:#74B208;" d="M494.4,383.2c0,44-29.6,80-65.6,80H65.6c-36.8,0-65.6-36-65.6-80l61.6-104.8
	c0-44,29.6-78.4,65.6-78.4h240c36,0,65.6,34.4,65.6,78.4L494.4,383.2z"/>
<path style="fill:#4AAF09;" d="M494.4,383.2c0,44-29.6,80-65.6,80H65.6c-36.8,0-65.6-36-65.6-80"/>
<path style="fill:#91D115;" d="M394.4,383.2c0,44-17.6,80-39.2,80h-216c-21.6,0-39.2-36-39.2-80l36.8-104.8
	c0-44,17.6-78.4,39.2-78.4h143.2c21.6,0,39.2,34.4,39.2,78.4L394.4,383.2z"/>
<path style="fill:#5FCE17;" d="M394.4,383.2c0,44-17.6,80-39.2,80h-216c-21.6,0-39.2-36-39.2-80"/>
<path style="fill:#74B208;" d="M305.6,383.2c0,44-7.2,80-15.2,80H204c-8.8,0-15.2-36-15.2-80l14.4-104.8c0-44,7.2-78.4,15.2-78.4
	h56.8c8.8,0,15.2,34.4,15.2,78.4L305.6,383.2z"/>
<path style="fill:#4AAF09;" d="M305.6,383.2c0,44-7.2,80-15.2,80H204c-8.8,0-15.2-36-15.2-80"/>
<g>
	
		<ellipse transform="matrix(-0.3833 0.9236 -0.9236 -0.3833 351.0992 261.327)" style="fill:#91D115;" cx="88.307" cy="247.876" rx="40.799" ry="14.4"/>
	
		<ellipse transform="matrix(-0.0812 0.9967 -0.9967 -0.0812 488.0402 52.4221)" style="fill:#91D115;" cx="219.857" cy="251.169" rx="39.2" ry="9.6"/>
</g>
<ellipse transform="matrix(-0.2005 0.9797 -0.9797 -0.2005 430.8174 148.6696)" style="fill:#BDE854;" cx="154.746" cy="250.124" rx="39.2" ry="9.6"/>
<path style="fill:#9B4D21;" d="M353.6,171.2c0,3.2-2.4,4-5.6,4H146.4c-3.2,0-5.6-0.8-5.6-4l0,0c0-3.2,2.4-4,5.6-4H348
	C351.2,167.2,353.6,168,353.6,171.2L353.6,171.2z"/>
<path style="fill:#68300B;" d="M104.8,196c0,0-10.4,20.8,1.6,16c12-4.8,30.4-20.8,19.2-8c-40.8,50.4-19.2,62.4-9.6,45.6
	s41.6-46.4,43.2-33.6s11.2,23.2,28.8,6.4c17.6-16.8,33.6-4.8,38.4,1.6c4.8,6.4,14.4,8.8,20.8-3.2s11.2-22.4,20.8,10.4
	c9.6,33.6,30.4,182.4,37.6,129.6s-9.6-144.8,8-127.2c17.6,17.6,28,14.4,28.8-7.2s55.2,20.8,56,1.6c0.8-18.4-12.8-42.4-15.2-42.4
	s-144.8,0-144.8,0l-119.2,4L104.8,196z"/>
<g>
	
		<ellipse transform="matrix(-0.2026 -0.9793 0.9793 -0.2026 109.1889 559.376)" style="fill:#9B4D21;" cx="282.343" cy="235.232" rx="25.601" ry="4"/>
	
		<ellipse transform="matrix(-0.5487 -0.836 0.836 -0.5487 306.1802 611.3948)" style="fill:#9B4D21;" cx="318.11" cy="223.057" rx="13.6" ry="4"/>
	
		<ellipse transform="matrix(0.022 0.9998 -0.9998 0.022 375.8019 35.7754)" style="fill:#9B4D21;" cx="169.615" cy="209.967" rx="12.001" ry="3.2"/>
	
		<ellipse transform="matrix(0.2266 0.974 -0.974 0.2266 385.2766 -61.3814)" style="fill:#9B4D21;" cx="231.289" cy="211.909" rx="12" ry="3.2"/>
	
		<ellipse transform="matrix(0.6528 0.7575 -0.7575 0.6528 283.186 -199.3777)" style="fill:#9B4D21;" cx="359.103" cy="209.251" rx="12" ry="3.2"/>
	
		<ellipse transform="matrix(-0.6526 0.7577 -0.7577 -0.6526 376.9172 236.3572)" style="fill:#9B4D21;" cx="134.275" cy="204.585" rx="13.6" ry="4"/>
	
		<ellipse transform="matrix(-0.7478 0.6639 -0.6639 -0.7478 340.0895 243.8264)" style="fill:#9B4D21;" cx="123.736" cy="186.505" rx="19.2" ry="5.6"/>
</g>
<g>
	<path style="fill:#91D115;" d="M32.8,372.8c-0.8,2.4-4.8,3.2-7.2,2.4l0,0c-2.4-1.6-4-4.8-2.4-8l44-84.8c1.6-2.4,4.8-4,7.2-2.4l0,0
		c2.4,1.6,4,4.8,2.4,7.2L32.8,372.8z"/>
	<path style="fill:#91D115;" d="M210.4,368c0,2.4-3.2,4-6.4,4l0,0c-3.2-0.8-4.8-3.2-4.8-5.6l11.2-80.8c0-2.4,3.2-4,6.4-4l0,0
		c3.2,0.8,4.8,3.2,4.8,5.6L210.4,368z"/>
</g>
<path style="fill:#BDE854;" d="M128.8,370.4c-0.8,2.4-4,4-6.4,3.2l0,0c-3.2-0.8-4.8-4-4-6.4l24-85.6c0.8-2.4,4-4,6.4-3.2l0,0
	c3.2,0.8,4.8,4,4,6.4L128.8,370.4z"/>
<ellipse transform="matrix(-0.5574 -0.8302 0.8302 -0.5574 -295.4326 685.4877)" style="fill:#91D115;" cx="34.994" cy="421.488" rx="35.999" ry="12"/>
<ellipse transform="matrix(-0.4303 -0.9027 0.9027 -0.4303 -200.5538 723.2858)" style="fill:#BDE854;" cx="127.963" cy="424.93" rx="32" ry="12.8"/>
<ellipse transform="matrix(-0.5574 0.8302 -0.8302 -0.5574 1066.2711 275.9373)" style="fill:#279E00;" cx="459.587" cy="422.173" rx="35.999" ry="12"/>
<ellipse transform="matrix(-0.4302 0.9027 -0.9027 -0.4302 908.0892 277.0252)" style="fill:#4AAF09;" cx="366.618" cy="425.098" rx="31.999" ry="12.8"/>
<ellipse transform="matrix(-0.0347 -0.9994 0.9994 -0.0347 -203.5833 649.7854)" style="fill:#91D115;" cx="212.007" cy="423.208" rx="28.8" ry="12.8"/>
<g>
</g>
<g>
</g>
<g>
</g>
<g>
</g>
<g>
</g>
<g>
</g>
<g>
</g>
<g>
</g>
<g>
</g>
<g>
</g>
<g>
</g>
<g>
</g>
<g>
</g>
<g>
</g>
<g>
</g>
</svg>
