<?xml version="1.0" encoding="iso-8859-1"?>
<!-- Generator: Adobe Illustrator 19.0.0, SVG Export Plug-In . SVG Version: 6.00 Build 0)  -->
<svg version="1.1" id="Layer_1" xmlns="http://www.w3.org/2000/svg" xmlns:xlink="http://www.w3.org/1999/xlink" x="0px" y="0px"
	 viewBox="0 0 500.065 500.065" style="enable-background:new 0 0 500.065 500.065;" xml:space="preserve">
<path style="fill:#9E683C;" d="M237.326,2.012c-136-17.6-216,82.4-233.6,216.8s105.6,261.6,241.6,279.2
	c136,17.6,233.6-80,251.2-214.4C514.126,149.212,373.326,19.612,237.326,2.012z M308.526,267.612c-8.8,32-36,52-68,42.4
	c-32-8.8-56.8-44-48-75.2c8.8-32,31.2-52.8,63.2-44C287.726,200.412,317.326,236.412,308.526,267.612z"/>
<path style="fill:#824B22;" d="M237.326,2.012l3.2,185.6h0.8c6.4,0,12.8,1.6,18.4,5.6c30.4,10.4,57.6,44.8,48.8,75.2
	c-8.8,31.2-34.4,51.2-66.4,43.2l3.2,186.4c136,17.6,233.6-80,251.2-214.4C514.126,149.212,373.326,19.612,237.326,2.012z"/>
<path style="fill:#D1844A;" d="M103.726,122.812c-27.2,42.4-60,69.6-72.8,60.8c-12.8-8.8-1.6-49.6,26.4-91.2
	c27.2-42.4,59.2-69.6,72.8-61.6C142.926,39.612,130.926,80.412,103.726,122.812z"/>
<path style="fill:#96C639;" d="M210.126,34.812c-120,0-178.4,96-178.4,215.2s121.6,215.2,242.4,215.2s194.4-96,194.4-215.2
	S330.926,34.812,210.126,34.812z M302.126,258.012c-4,28.8-24.8,48.8-54.4,44.8c-28.8-4-54.4-31.2-50.4-60s21.6-49.6,50.4-45.6
	C277.326,201.212,306.926,229.212,302.126,258.012z"/>
<path style="fill:#71B716;" d="M246.126,37.212l10.4,159.2c0.8,0.8,1.6,2.4,2.4,3.2c24.8,8.8,47.2,32.8,43.2,57.6
	c-3.2,23.2-17.6,41.6-39.2,44.8c0,0,0,0,0,0.8l11.2,162.4c120.8,0,194.4-96.8,194.4-215.2
	C468.526,142.812,356.526,53.212,246.126,37.212z"/>
<path style="fill:#B2DD2C;" d="M246.126,153.212c-52.8-7.2-84,31.2-92,83.2c-7.2,52,40,102.4,92.8,109.6c52.8,8,91.2-29.6,99.2-81.6
	C353.326,212.412,298.926,161.212,246.126,153.212z M302.126,258.012c-4,28.8-24.8,48.8-54.4,44.8c-28.8-4-54.4-31.2-50.4-60
	s21.6-49.6,50.4-45.6C277.326,201.212,306.926,229.212,302.126,258.012z"/>
<path style="fill:#96C639;" d="M246.126,153.212v43.2l0,0c1.6,0,3.2,0.8,4.8,1.6c28,5.6,54.4,32.8,50.4,60
	c-4,28-24.8,48.8-52.8,44.8c-0.8,0-1.6,0-2.4,0v43.2c53.6,8,92-29.6,100-81.6C353.326,212.412,298.926,161.212,246.126,153.212z"/>
<g>
	
		<ellipse transform="matrix(-0.3845 -0.9231 0.9231 -0.3845 -195.2102 529.6193)" style="fill:#417F0B;" cx="78.957" cy="329.888" rx="11.2" ry="14.4"/>
	
		<ellipse transform="matrix(-0.6814 -0.7319 0.7319 -0.6814 -8.1497 663.4672)" style="fill:#417F0B;" cx="140.327" cy="333.507" rx="6.4" ry="9.6"/>
	
		<ellipse transform="matrix(0.1465 -0.9892 0.9892 0.1465 -214.303 334.7913)" style="fill:#417F0B;" cx="86.861" cy="291.585" rx="6.4" ry="9.6"/>
	<path style="fill:#417F0B;" d="M126.126,308.412c0.8,3.2-2.4,5.6-5.6,6.4c-4,0.8-7.2-0.8-8-4s2.4-5.6,5.6-6.4
		C122.126,303.612,125.326,305.212,126.126,308.412z"/>
	
		<ellipse transform="matrix(-0.2049 -0.9788 0.9788 -0.2049 -120.1202 440.8819)" style="fill:#417F0B;" cx="119.013" cy="269.23" rx="3.2" ry="4.8"/>
	
		<ellipse transform="matrix(-0.2082 -0.9781 0.9781 -0.2082 -162.1388 357.6644)" style="fill:#417F0B;" cx="63.703" cy="244.461" rx="3.2" ry="4.8"/>
	<path style="fill:#417F0B;" d="M179.726,409.212c5.6,2.4,6.4,10.4,3.2,18.4c-4,7.2-11.2,11.2-16,8.8c-5.6-2.4-6.4-10.4-3.2-18.4
		C167.726,410.812,174.926,406.812,179.726,409.212z"/>
	<path style="fill:#417F0B;" d="M223.726,375.612c4,0,6.4,4.8,5.6,9.6c-0.8,4.8-4,8.8-8,8.8s-6.4-4.8-5.6-9.6
		C216.526,378.812,220.526,374.812,223.726,375.612z"/>
	<path style="fill:#417F0B;" d="M162.126,382.812c2.4,3.2,0,8-4,10.4s-9.6,2.4-11.2-0.8c-2.4-3.2,0-8,4-10.4
		S160.526,379.612,162.126,382.812z"/>
	
		<ellipse transform="matrix(-0.7977 -0.6031 0.6031 -0.7977 113.2713 799.1647)" style="fill:#417F0B;" cx="190.687" cy="380.582" rx="5.6" ry="7.2"/>
	<path style="fill:#417F0B;" d="M166.926,346.012c1.6,0.8,1.6,4,0,5.6c-1.6,2.4-4,2.4-5.6,1.6s-1.6-4,0-5.6
		S165.326,345.212,166.926,346.012z"/>
	
		<ellipse transform="matrix(-0.7986 -0.6019 0.6019 -0.7986 -30.8011 725.6415)" style="fill:#417F0B;" cx="106.016" cy="367.974" rx="3.2" ry="4.8"/>
	<path style="fill:#417F0B;" d="M302.126,416.412c5.6-1.6,12,4,14.4,11.2c2.4,8-0.8,15.2-6.4,16.8c-5.6,1.6-12-4-14.4-11.2
		C293.326,425.212,296.526,417.212,302.126,416.412z"/>
	<path style="fill:#417F0B;" d="M313.326,362.012c3.2-2.4,8-0.8,10.4,4c3.2,4,3.2,9.6,0,11.2c-3.2,2.4-8,0.8-11.2-4
		C310.126,369.212,310.126,363.612,313.326,362.012z"/>
	<path style="fill:#417F0B;" d="M271.726,407.612c3.2,0.8,5.6,5.6,4,10.4s-5.6,8-8.8,7.2c-3.2-0.8-5.6-5.6-4-10.4
		C263.726,410.012,267.726,406.812,271.726,407.612z"/>
	
		<ellipse transform="matrix(-0.9977 0.0683 -0.0683 -0.9977 609.7239 753.6284)" style="fill:#417F0B;" cx="291.974" cy="387.242" rx="5.6" ry="7.2"/>
	<path style="fill:#417F0B;" d="M250.926,377.212c1.6,0,3.2,1.6,4,4.8c0,2.4-1.6,4.8-3.2,4.8s-3.2-1.6-4-4.8
		C247.726,379.612,249.326,377.212,250.926,377.212z"/>
	<path style="fill:#417F0B;" d="M218.926,428.412c1.6,0,3.2,1.6,4,4.8c0,2.4-1.6,4.8-3.2,4.8c-1.6,0-4-1.6-4-4.8
		C215.726,430.812,217.326,428.412,218.926,428.412z"/>
	<path style="fill:#417F0B;" d="M398.926,341.212c3.2-4.8,12-5.6,18.4-0.8c6.4,4.8,9.6,12,6.4,17.6c-3.2,4.8-11.2,5.6-18.4,0.8
		S395.726,346.012,398.926,341.212z"/>
	
		<ellipse transform="matrix(-0.2429 0.97 -0.97 -0.2429 758.9647 -1.5062)" style="fill:#417F0B;" cx="380.07" cy="295.419" rx="6.4" ry="8.8"/>
	<path style="fill:#417F0B;" d="M370.126,354.812c3.2-1.6,8,0.8,9.6,5.6c2.4,4.8,0.8,9.6-2.4,11.2c-3.2,1.6-8-0.8-9.6-5.6
		C366.126,361.212,366.926,356.412,370.126,354.812z"/>
	
		<ellipse transform="matrix(-0.7079 0.7063 -0.7063 -0.7079 866.0613 294.9138)" style="fill:#417F0B;" cx="372.05" cy="326.537" rx="5.6" ry="7.2"/>
	<path style="fill:#417F0B;" d="M334.926,345.212c1.6-1.6,4-0.8,5.6,0.8c1.6,1.6,2.4,4,0.8,5.6s-4,0.8-5.6-0.8
		C333.326,349.212,333.326,346.812,334.926,345.212z"/>
	<path style="fill:#417F0B;" d="M344.526,405.212c1.6-1.6,4-0.8,5.6,0.8c1.6,1.6,2.4,4.8,0.8,5.6c-1.6,1.6-4,0.8-5.6-0.8
		C342.926,408.412,342.926,406.012,344.526,405.212z"/>
	<path style="fill:#417F0B;" d="M422.126,221.212c-0.8-5.6,5.6-11.2,13.6-12.8c8-0.8,15.2,3.2,16,8.8s-5.6,11.2-13.6,12.8
		C430.126,230.812,422.926,226.812,422.126,221.212z"/>
	<path style="fill:#417F0B;" d="M410.126,250.012c1.6-3.2,6.4-4.8,11.2-2.4c4.8,2.4,7.2,6.4,5.6,9.6s-6.4,4.8-11.2,2.4
		C410.926,258.012,408.526,253.212,410.126,250.012z"/>
	<path style="fill:#417F0B;" d="M385.326,226.812c0-3.2,3.2-4.8,7.2-4.8s7.2,3.2,6.4,5.6c0,3.2-3.2,4.8-7.2,4.8
		C388.526,232.412,385.326,230.012,385.326,226.812z"/>
	<path style="fill:#417F0B;" d="M376.526,266.012c0-1.6,2.4-3.2,4.8-3.2s4.8,1.6,4.8,4c0,1.6-2.4,3.2-4.8,3.2
		S376.526,268.412,376.526,266.012z"/>
	<path style="fill:#417F0B;" d="M422.926,305.212c0-1.6,2.4-3.2,4.8-3.2s4.8,1.6,4.8,4c0,1.6-2.4,3.2-4.8,3.2
		C425.326,308.412,422.926,306.812,422.926,305.212z"/>
	<path style="fill:#417F0B;" d="M369.326,144.412c-4.8-4-3.2-12,1.6-18.4c5.6-6.4,13.6-8,17.6-4c4.8,4,3.2,12-1.6,18.4
		C381.326,146.812,373.326,148.412,369.326,144.412z"/>
	
		<ellipse transform="matrix(0.9269 0.3752 -0.3752 0.9269 82.0299 -108.8665)" style="fill:#417F0B;" cx="320.56" cy="156.201" rx="6.4" ry="9.6"/>
	<path style="fill:#417F0B;" d="M378.926,174.012c-0.8-3.2,2.4-8,7.2-8.8c4.8-1.6,9.6,0,10.4,4c0.8,3.2-1.6,8-7.2,8.8
		C384.526,179.612,379.726,178.012,378.926,174.012z"/>
	<path style="fill:#417F0B;" d="M413.326,180.412c-0.8-3.2,2.4-8,7.2-8.8c4.8-1.6,9.6,0,10.4,4c0.8,3.2-1.6,8-7.2,8.8
		C418.926,185.212,414.126,183.612,413.326,180.412z"/>
	<path style="fill:#417F0B;" d="M345.326,173.212c-1.6-2.4-0.8-6.4,2.4-8.8c3.2-2.4,7.2-2.4,8.8,0c1.6,2.4,0.8,6.4-2.4,8.8
		C350.926,174.812,346.926,174.812,345.326,173.212z"/>
	<path style="fill:#417F0B;" d="M364.526,208.412c-0.8-1.6,0-4,1.6-5.6c2.4-1.6,4.8-1.6,5.6,0c0.8,1.6,0,4-1.6,5.6
		S365.326,210.012,364.526,208.412z"/>
	<path style="fill:#417F0B;" d="M398.926,201.212c-0.8-1.6,0-4,1.6-5.6c2.4-1.6,4.8-1.6,5.6,0c0.8,1.6,0.8,4-1.6,5.6
		C402.926,202.812,400.526,202.812,398.926,201.212z"/>
	<path style="fill:#417F0B;" d="M262.926,83.612c-6.4,0-10.4-7.2-10.4-15.2s4.8-14.4,11.2-14.4c5.6,0,10.4,7.2,10.4,15.2
		S268.526,84.412,262.926,83.612z"/>
	<path style="fill:#417F0B;" d="M237.326,133.212c-3.2,1.6-8-1.6-9.6-6.4c-1.6-4.8,0-9.6,3.2-11.2s8,1.6,9.6,6.4
		C242.926,126.812,241.326,131.612,237.326,133.212z"/>
	<path style="fill:#417F0B;" d="M290.126,100.412c-3.2-1.6-3.2-7.2-0.8-11.2c2.4-4,7.2-6.4,10.4-4c3.2,1.6,3.2,7.2,0.8,11.2
		C298.126,100.412,293.326,102.012,290.126,100.412z"/>
	<path style="fill:#417F0B;" d="M263.726,121.212c-3.2-0.8-4.8-4-4-8s4-6.4,6.4-5.6c3.2,0.8,4.8,4,4,8
		S266.126,122.012,263.726,121.212z"/>
	<path style="fill:#417F0B;" d="M301.326,135.612c-1.6-0.8-3.2-3.2-2.4-5.6c0.8-2.4,2.4-4,4-4s3.2,2.4,2.4,5.6
		C305.326,134.012,303.726,135.612,301.326,135.612z"/>
	<path style="fill:#417F0B;" d="M346.126,94.812c-1.6,0-3.2-2.4-2.4-5.6c0.8-2.4,2.4-4,4-4s3.2,2.4,2.4,5.6
		C350.126,94.012,347.726,95.612,346.126,94.812z"/>
</g>
<ellipse transform="matrix(0.5639 -0.8259 0.8259 0.5639 -83.3128 244.714)" style="fill:#CEEA59;" cx="190.042" cy="201.239" rx="36.802" ry="15.201"/>
<path style="fill:#B2DD2C;" d="M106.126,123.612c-18.4,27.2-39.2,44.8-45.6,40c-7.2-4.8,2.4-30.4,20.8-57.6s39.2-44.8,45.6-40
	C133.326,70.812,124.526,97.212,106.126,123.612z"/>
<g>
	
		<ellipse transform="matrix(0.8611 -0.5085 0.5085 0.8611 -25.8953 87.2436)" style="fill:#417F0B;" cx="146.71" cy="91.011" rx="11.2" ry="14.4"/>
	
		<ellipse transform="matrix(0.6301 -0.7765 0.7765 0.6301 -62.2934 174.4153)" style="fill:#417F0B;" cx="151.926" cy="152.593" rx="6.4" ry="9.6"/>
	
		<ellipse transform="matrix(1 0.0076 -0.0076 1 0.7216 -1.4162)" style="fill:#417F0B;" cx="185.731" cy="93.744" rx="6.4" ry="8.8"/>
	
		<ellipse transform="matrix(0.9406 -0.3394 0.3394 0.9406 -33.3946 66.051)" style="fill:#417F0B;" cx="172.13" cy="128.494" rx="5.6" ry="7.2"/>
	<path style="fill:#417F0B;" d="M214.126,126.812c-1.6,0.8-4-0.8-4.8-3.2c-0.8-2.4,0-4.8,1.6-5.6c1.6-0.8,4,0.8,4.8,3.2
		C216.526,123.612,215.726,126.012,214.126,126.812z"/>
	
		<ellipse transform="matrix(0.9406 -0.3395 0.3395 0.9406 -8.2947 81.6067)" style="fill:#417F0B;" cx="229.086" cy="64.51" rx="3.2" ry="4.8"/>
	
		<ellipse transform="matrix(0.3161 -0.9487 0.9487 0.3161 -140.6604 199.1994)" style="fill:#417F0B;" cx="67.839" cy="197.165" rx="11.2" ry="14.4"/>
	
		<ellipse transform="matrix(-0.0335 -0.9994 0.9994 -0.0335 -124.7647 361.745)" style="fill:#417F0B;" cx="112.522" cy="241.196" rx="6.4" ry="9.6"/>
	
		<ellipse transform="matrix(0.7599 -0.65 0.65 0.7599 -89.2342 106.561)" style="fill:#417F0B;" cx="99.64" cy="174.081" rx="6.4" ry="9.6"/>
	<path style="fill:#417F0B;" d="M118.126,212.412c-1.6,2.4-5.6,3.2-8.8,0.8c-3.2-1.6-4.8-5.6-4-8c1.6-2.4,5.6-3.2,8.8-0.8
		C118.126,206.012,119.726,210.012,118.126,212.412z"/>
	
		<ellipse transform="matrix(0.4866 -0.8736 0.8736 0.4866 -84.4531 212.0181)" style="fill:#417F0B;" cx="138.166" cy="177.865" rx="3.2" ry="4.8"/>
	
		<ellipse transform="matrix(0.4856 -0.8742 0.8742 0.4856 -50.0374 161.8688)" style="fill:#417F0B;" cx="112.521" cy="123.451" rx="3.2" ry="4.8"/>
</g>
<g>
</g>
<g>
</g>
<g>
</g>
<g>
</g>
<g>
</g>
<g>
</g>
<g>
</g>
<g>
</g>
<g>
</g>
<g>
</g>
<g>
</g>
<g>
</g>
<g>
</g>
<g>
</g>
<g>
</g>
</svg>
