<?xml version="1.0" encoding="iso-8859-1"?>
<!-- Generator: Adobe Illustrator 18.0.0, SVG Export Plug-In . SVG Version: 6.00 Build 0)  -->
<!DOCTYPE svg PUBLIC "-//W3C//DTD SVG 1.1//EN" "http://www.w3.org/Graphics/SVG/1.1/DTD/svg11.dtd">
<svg version="1.1" id="Capa_1" xmlns="http://www.w3.org/2000/svg" xmlns:xlink="http://www.w3.org/1999/xlink" x="0px" y="0px"
	 viewBox="0 0 94.621 94.621" style="enable-background:new 0 0 94.621 94.621;" xml:space="preserve">
<g>
	<path d="M92.382,40.837c-1.553-2.131-4.711-4.67-10.933-4.67c-3.159,0-6.045-0.098-8.24-0.202
		c0.771-3.801,1.592-9.431,0.966-14.121c-0.851-6.381-3.64-8.949-5.83-9.979c-2.533-1.192-5.428-0.912-8.15,0.791
		c-3.4,2.124-3.467,5.298-3.513,7.397c-0.043,2.031-0.088,4.132-2.266,7.301c-3.803,5.532-13.641,11.146-17.11,12.842
		c-0.008,0.004-0.014,0.01-0.021,0.014c-2.217-1.924-5.101-3.097-8.259-3.097H12.631C5.667,37.113,0,42.578,0,49.297v8.576
		c0,1.993,1.616,3.608,3.609,3.608c1.993,0,3.609-1.615,3.609-3.608v-8.576c0-2.739,2.428-4.968,5.413-4.968h16.395
		c2.985,0,5.413,2.429,5.413,5.413V69.44c0,2.984-2.428,5.413-5.413,5.413H16.787c-1.993,0-3.609,1.615-3.609,3.608
		c0,1.993,1.616,3.608,3.609,3.608h12.239c6.964,0,12.631-5.666,12.631-12.63V49.742c0-1.185-0.176-2.326-0.482-3.414
		c2.943-1.512,14.185-7.604,19.19-14.887c3.399-4.946,3.48-8.729,3.534-11.233c0.01-0.477,0.024-1.108,0.076-1.403
		c0.013-0.009,0.028-0.018,0.046-0.029c0.537-0.336,1.029-0.486,1.251-0.381c0.429,0.202,1.347,1.382,1.75,4.403
		c0.832,6.232-1.753,15.426-1.778,15.516c-0.297,1.038-0.113,2.154,0.501,3.043c0.614,0.889,1.594,1.455,2.67,1.545
		c0.237,0.02,5.891,0.482,13.036,0.482c2.56,0,4.276,0.574,5.101,1.705c0.747,1.024,1.672,3.759-0.516,10.566
		c-0.684,2.126-1.246,4.121-1.79,6.05c-2.821,9.998-4.109,14.562-14.116,14.562c-14.047,0-18.522-1.114-18.525-1.114
		c-1.915-0.547-3.913,0.57-4.456,2.487c-0.544,1.918,0.57,3.913,2.487,4.456c0.501,0.143,5.333,1.388,20.494,1.388
		c15.47,0,18.186-9.626,21.063-19.818c0.527-1.867,1.072-3.799,1.715-5.801C95.354,50.248,95.183,44.679,92.382,40.837z"/>
	<path d="M70.015,69.153c3.817,0,6.977-3.917,9.391-11.643c0.297-0.951-0.233-1.963-1.184-2.261
		c-0.952-0.297-1.963,0.232-2.26,1.184c-2.642,8.453-5.219,9.109-5.946,9.109H57.384c-0.997,0-1.804,0.809-1.804,1.805
		s0.808,1.805,1.804,1.805H70.015z"/>
</g>
<g>
</g>
<g>
</g>
<g>
</g>
<g>
</g>
<g>
</g>
<g>
</g>
<g>
</g>
<g>
</g>
<g>
</g>
<g>
</g>
<g>
</g>
<g>
</g>
<g>
</g>
<g>
</g>
<g>
</g>
</svg>
