<?xml version="1.0" encoding="iso-8859-1"?>
<!-- Generator: Adobe Illustrator 18.0.0, SVG Export Plug-In . SVG Version: 6.00 Build 0)  -->
<!DOCTYPE svg PUBLIC "-//W3C//DTD SVG 1.1//EN" "http://www.w3.org/Graphics/SVG/1.1/DTD/svg11.dtd">
<svg version="1.1" id="Capa_1" xmlns="http://www.w3.org/2000/svg" xmlns:xlink="http://www.w3.org/1999/xlink" x="0px" y="0px"
	 viewBox="0 0 110.916 110.916" style="enable-background:new 0 0 110.916 110.916;" xml:space="preserve">
<g>
	<path d="M107.308,55.442c1.993,0,3.608-1.615,3.608-3.608V36.112c0-5.473-4.451-9.924-9.924-9.924H9.924
		C4.451,26.188,0,30.639,0,36.112v38.692c0,5.473,4.451,9.924,9.924,9.924h91.068c5.473,0,9.924-4.038,9.924-9.001v-5.393
		c0-1.993-1.615-3.608-3.608-3.608c-1.993,0-3.608,1.615-3.608,3.608v5.393c0,0.842-1.158,1.784-2.707,1.784H9.924
		c-1.492,0-2.707-1.215-2.707-2.707V36.112c0-1.492,1.215-2.707,2.707-2.707h91.068c1.492,0,2.707,1.215,2.707,2.707v15.722
		C103.699,53.827,105.314,55.442,107.308,55.442z"/>
	<path d="M39.819,55.456c0,8.624,7.016,15.64,15.639,15.64c8.623,0,15.639-7.016,15.639-15.64c0-8.623-7.016-15.639-15.639-15.639
		C46.835,39.818,39.819,46.833,39.819,55.456z M63.88,55.456c0,4.645-3.778,8.423-8.422,8.423c-4.644,0-8.422-3.778-8.422-8.423
		c0-4.643,3.778-8.422,8.422-8.422C60.101,47.035,63.88,50.813,63.88,55.456z"/>
	<path d="M83.953,67.17c-0.996,0-1.805,0.809-1.805,1.805s0.809,1.805,1.805,1.805h9.924c0.996,0,1.805-0.809,1.805-1.805
		s-0.809-1.805-1.805-1.805H83.953z"/>
	<path d="M15.388,39.203c-0.996,0-1.805,0.809-1.805,1.805c0,0.996,0.809,1.805,1.805,1.805h9.924c0.996,0,1.805-0.809,1.805-1.805
		c0-0.996-0.809-1.805-1.805-1.805H15.388z"/>
</g>
<g>
</g>
<g>
</g>
<g>
</g>
<g>
</g>
<g>
</g>
<g>
</g>
<g>
</g>
<g>
</g>
<g>
</g>
<g>
</g>
<g>
</g>
<g>
</g>
<g>
</g>
<g>
</g>
<g>
</g>
</svg>
