<?xml version="1.0" encoding="iso-8859-1"?>
<!-- Generator: Adobe Illustrator 19.0.0, SVG Export Plug-In . SVG Version: 6.00 Build 0)  -->
<svg version="1.1" id="Layer_1" xmlns="http://www.w3.org/2000/svg" xmlns:xlink="http://www.w3.org/1999/xlink" x="0px" y="0px"
	 viewBox="0 0 498.4 498.4" style="enable-background:new 0 0 498.4 498.4;" xml:space="preserve">
<path style="fill:#FFFFFF;" d="M497.2,426.4v-196c-64-25.6-150.4-40.8-248.8-40.8c-97.6,0-183.2,16-247.2,40.8v196H497.2z"/>
<path style="fill:#EAEAEA;" d="M497.2,442.4V245.6c-64-25.6-150.4-40.8-248.8-40.8c-97.6,0-183.2,15.2-247.2,40.8v196.8H497.2z"/>
<path style="fill:#D1CFCD;" d="M241.2,442.4h256V245.6c-64-25.6-152-41.6-250.4-41.6"/>
<path style="fill:#68300B;" d="M497.2,498.4V303.2c-64-25.6-150.4-40.8-248.8-40.8c-97.6,0-183.2,15.2-247.2,40.8v195.2H497.2z"/>
<path style="fill:#491C06;" d="M1.2,498.4h496V303.2c-64-25.6-150.4-42.4-248.8-42.4"/>
<path style="fill:#BAABA2;" d="M467.6,458.4V456c0-47.2-39.2-86.4-87.2-86.4s-87.2,39.2-87.2,86.4v2.4H467.6z"/>
<path style="fill:#A3938B;" d="M381.2,456l-88,2.4h174.4V456c0-47.2-39.2-86.4-87.2-86.4"/>
<path style="fill:#7F716B;" d="M445.2,456l-152,2.4h174.4V456c0-47.2-39.2-86.4-87.2-86.4"/>
<path style="fill:#68300B;" d="M489.2,459.2c0,4-3.2,7.2-7.2,7.2H272.4c-4,0-7.2-3.2-7.2-7.2v-0.8c0-4,3.2-7.2,7.2-7.2h208.8
	c4,0,7.2,3.2,7.2,7.2v0.8H489.2z"/>
<path style="fill:#E0D5D1;" d="M366,377.6c2.4,4-7.2,16-22.4,28c-15.2,12-29.6,18.4-32.8,14.4c-3.2-4,7.2-16,22.4-28
	C348.4,380,362.8,373.6,366,377.6z"/>
<circle style="fill:#BAABA2;" cx="394" cy="405.6" r="4"/>
<circle style="fill:#A3938B;" cx="420.4" cy="392" r="4"/>
<circle style="fill:#BAABA2;" cx="417.2" cy="432.8" r="4"/>
<path style="fill:#F7E98B;" d="M14,367.2c-3.2-3.2-3.2-8.8,0-12c34.4-34.4,90.4-34.4,124.8,0c3.2,3.2,3.2,8.8,0,12s-8.8,3.2-12,0
	c-28-28-73.6-28-101.6,0C22.8,370.4,17.2,370.4,14,367.2z"/>
<path style="fill:#DBB052;" d="M254,360.8c3.2,3.2,3.2,8.8,0,12c-35.2,33.6-92,32-124.8-4c-3.2-3.2-3.2-8.8,0-12s8.8-3.2,12,0
	c27.2,28.8,72.8,30.4,101.6,3.2C245.2,356.8,250.8,357.6,254,360.8z"/>
<path style="fill:#F7E98B;" d="M14,416c-3.2-3.2-3.2-8.8,0-12c34.4-34.4,90.4-34.4,124.8,0c3.2,3.2,3.2,8.8,0,12s-8.8,3.2-12,0
	c-28-28-73.6-28-101.6,0C22.8,419.2,17.2,419.2,14,416z"/>
<path style="fill:#DBB052;" d="M254,409.6c3.2,3.2,3.2,8.8,0,12c-35.2,33.6-92,32-124.8-4c-3.2-3.2-3.2-8.8,0-12s8.8-3.2,12,0
	c27.2,28.8,72.8,30.4,101.6,3.2C245.2,405.6,250.8,405.6,254,409.6z"/>
<path style="fill:#F7E98B;" d="M14,464.8c-3.2-3.2-3.2-8.8,0-12c34.4-34.4,90.4-34.4,124.8,0c3.2,3.2,3.2,8.8,0,12s-8.8,3.2-12,0
	c-28-28-73.6-28-101.6,0C22.8,468,17.2,468,14,464.8z"/>
<path style="fill:#DBB052;" d="M254,457.6c3.2,3.2,3.2,8.8,0,12c-35.2,33.6-92,32-124.8-4c-3.2-3.2-3.2-8.8,0-12s8.8-3.2,12,0
	c27.2,28.8,72.8,30.4,101.6,3.2C245.2,454.4,250.8,454.4,254,457.6z"/>
<ellipse transform="matrix(-0.1731 0.9849 -0.9849 -0.1731 595.8545 90.5129)" style="fill:#68300B;" cx="259.931" cy="295.388" rx="11.2" ry="33.6"/>
<g>
	
		<ellipse transform="matrix(-0.1731 -0.9849 0.9849 -0.1731 -168.3029 449.1157)" style="fill:#491C06;" cx="104.381" cy="295.209" rx="11.2" ry="33.6"/>
	<ellipse style="fill:#491C06;" cx="185.2" cy="289.6" rx="28.8" ry="8"/>
</g>
<path d="M275.6,174.4L275.6,174.4c-3.2-40-32.8-72-70.4-80.8V0H166v93.6c-38.4,8.8-67.2,40.8-70.4,80.8l0,0v4.8c0,0.8,0,1.6,0,2.4
	l0,0v116.8c9.6-2.4,19.2-4,28.8-5.6v-77.6c2.4,0.8,4,0.8,6.4,0.8h40.8v72c8,0,15.2-0.8,23.2-0.8c1.6,0,3.2,0,4.8,0V216h40.8
	c2.4,0,4.8,0,6.4-0.8v75.2c9.6,0.8,19.2,2.4,28.8,4V181.6l0,0c0-0.8,0-1.6,0-2.4V174.4z"/>
<ellipse transform="matrix(0.6845 -0.729 0.729 0.6845 -55.2724 144.1419)" style="fill:#424242;" cx="138.897" cy="135.93" rx="36" ry="12"/>
<path style="fill:#BAABA2;" d="M348.4,330.4c0,0,0,1.6,0,0.8c0-24-19.2-41.6-44-41.6s-44,18.4-44,41.6v-0.8H348.4z"/>
<path style="fill:#A3938B;" d="M305.2,331.2l-44-0.8h87.2c0,0,0,1.6,0,0.8c0-24-19.2-41.6-44-41.6"/>
<path style="fill:#7F716B;" d="M337.2,331.2l-76-0.8h87.2c0,0,0,1.6,0,0.8c0-24-19.2-41.6-44-41.6"/>
<path style="fill:#68300B;" d="M361.2,334.4c0,2.4-1.6,4-4,4h-104c-2.4,0-4-1.6-4-4v-0.8c0-2.4,1.6-4,4-4H358
	C359.6,330.4,361.2,332,361.2,334.4L361.2,334.4z"/>
<ellipse transform="matrix(-0.6084 -0.7936 0.7936 -0.6084 214.019 716.5786)" style="fill:#E0D5D1;" cx="283.796" cy="305.489" rx="4" ry="17.6"/>
<circle style="fill:#BAABA2;" cx="311.6" cy="308.8" r="1.6"/>
<circle style="fill:#A3938B;" cx="324.4" cy="301.6" r="2.4"/>
<circle style="fill:#BAABA2;" cx="323.6" cy="322.4" r="1.6"/>
<path style="fill:#82C60A;" d="M461.2,200L461.2,200L461.2,200L461.2,200c-25.6,36-69.6,35.2-77.6,84c-4.8,28,16.8,49.6,41.6,72
	v-0.8v-0.8l0,0c32.8-8,60.8-19.2,68.8-46.4C507.6,261.6,467.6,243.2,461.2,200z"/>
<path style="fill:#5EA304;" d="M425.2,356L425.2,356v-1.6l0,0c32.8-8,60.8-19.2,68.8-46.4c13.6-47.2-26.4-64-33.6-107.2v1.6h-0.8
	v-0.8"/>
<g>
	<polygon style="fill:#74B208;" points="445.2,268.8 423.6,248 442.8,278.4 473.2,259.2 	"/>
	<polygon style="fill:#74B208;" points="433.2,320.8 411.6,300 430.8,330.4 462,311.2 	"/>
	<polygon style="fill:#74B208;" points="439.6,294.4 414.8,270.4 437.2,304.8 471.6,283.2 	"/>
</g>
<path style="fill:#82C60A;" d="M366,234.4L366,234.4L366,234.4L366,234.4c-8,33.6-40.8,46.4-32,84c4.8,21.6,26.4,31.2,52,40l0,0l0,0
	l0,0c20.8-16.8,39.2-32,36.8-54.4C418.8,265.6,383.6,264,366,234.4z"/>
<path style="fill:#5EA304;" d="M385.2,358.4L385.2,358.4L385.2,358.4L385.2,358.4c21.6-16.8,39.2-32,36.8-54.4
	c-4-38.4-38.4-40-56.8-69.6l0,0l0,0l0,0"/>
<g>
	<polygon style="fill:#74B208;" points="374.8,289.6 352.4,280 375.6,296.8 392.4,273.6 	"/>
	<polygon style="fill:#74B208;" points="381.2,331.2 358.8,321.6 382,338.4 398.8,315.2 	"/>
	<polygon style="fill:#74B208;" points="378,309.6 353.2,299.2 378.8,318.4 398,292 	"/>
</g>
<path style="fill:#BAABA2;" d="M462,362.4v-1.6c0-24-19.2-43.2-44-43.2s-44,20-44,44v1.6h88V362.4z"/>
<path style="fill:#A3938B;" d="M418.8,360.8l-44,1.6H462v-1.6c0-24-18.4-43.2-43.2-43.2"/>
<path style="fill:#7F716B;" d="M450.8,360.8l-76,1.6H462v-1.6c0-24-18.4-43.2-43.2-43.2"/>
<path style="fill:#68300B;" d="M473.2,366.4c0,2.4-1.6,4-4,4h-104c-2.4,0-4-1.6-4-4v-0.8c0-2.4,1.6-4,4-4H470
	C471.6,362.4,473.2,364,473.2,366.4L473.2,366.4z"/>
<ellipse transform="matrix(-0.6084 -0.7936 0.7936 -0.6084 376.0186 847.8758)" style="fill:#E0D5D1;" cx="397.188" cy="331.171" rx="4" ry="17.6"/>
<circle style="fill:#BAABA2;" cx="425.2" cy="335.2" r="1.6"/>
<circle style="fill:#A3938B;" cx="438.8" cy="328" r="2.4"/>
<circle style="fill:#BAABA2;" cx="437.2" cy="348" r="1.6"/>
<g>
</g>
<g>
</g>
<g>
</g>
<g>
</g>
<g>
</g>
<g>
</g>
<g>
</g>
<g>
</g>
<g>
</g>
<g>
</g>
<g>
</g>
<g>
</g>
<g>
</g>
<g>
</g>
<g>
</g>
</svg>
