<?xml version="1.0" encoding="iso-8859-1"?>
<!-- Generator: Adobe Illustrator 19.0.0, SVG Export Plug-In . SVG Version: 6.00 Build 0)  -->
<svg version="1.1" id="Layer_1" xmlns="http://www.w3.org/2000/svg" xmlns:xlink="http://www.w3.org/1999/xlink" x="0px" y="0px"
	 viewBox="0 0 492.8 492.8" style="enable-background:new 0 0 492.8 492.8;" xml:space="preserve">
<path style="fill:#42BEC1;" d="M492.8,262.4c0,44-110.4,163.2-246.4,163.2S0,306.4,0,262.4s110.4-80,246.4-80
	S492.8,218.4,492.8,262.4z"/>
<path style="fill:#2DA1AA;" d="M246.4,182.4c136,0,246.4,36,246.4,80S382.4,425.6,246.4,425.6"/>
<path style="fill:#424242;" d="M484,257.6c0,33.6-106.4,61.6-237.6,61.6S8.8,292,8.8,257.6C8.8,224,115.2,188,246.4,188
	S484,224,484,257.6z"/>
<path d="M246.4,188c131.2,0,237.6,36,237.6,69.6s-106.4,61.6-237.6,61.6"/>
<path style="fill:#FFCD50;" d="M32.8,323.2C44,336,58.4,349.6,74.4,362.4c43.2,12,104,19.2,172,19.2c67.2,0,128.8-7.2,172-19.2
	c16-12.8,30.4-26.4,41.6-39.2c-38.4,20.8-119.2,34.4-213.6,34.4C152.8,357.6,72,343.2,32.8,323.2z"/>
<path style="fill:#FFB31A;" d="M246.4,380.8c67.2,0,128.8-7.2,172-19.2c16-12.8,30.4-26.4,41.6-39.2
	c-38.4,20.8-119.2,34.4-213.6,34.4"/>
<path style="fill:#FFD217;" d="M443.2,278.4c0,28-88,42.4-196.8,42.4S49.6,306.4,49.6,278.4s88-66.4,196.8-66.4
	S443.2,250.4,443.2,278.4z"/>
<path style="fill:#FFB31A;" d="M246.4,212c108.8,0,196.8,38.4,196.8,66.4s-88,42.4-196.8,42.4"/>
<g>
	<path style="fill:#F7E98B;" d="M84.8,245.6c-2.4-2.4-2.4-5.6,0-8c23.2-24,61.6-24,85.6,0c2.4,2.4,2.4,5.6,0,8c-2.4,2.4-5.6,2.4-8,0
		c-19.2-19.2-50.4-19.2-69.6,0C91.2,248,87.2,248,84.8,245.6z"/>
	<path style="fill:#F7E98B;" d="M248.8,240.8c2.4,2.4,2.4,5.6,0,8c-24,23.2-62.4,21.6-85.6-2.4c-2.4-2.4-2.4-5.6,0-8s5.6-2.4,8,0
		c18.4,20,49.6,20.8,69.6,2.4C243.2,238.4,247.2,238.4,248.8,240.8z"/>
	<path style="fill:#F7E98B;" d="M84.8,269.6c-2.4-2.4-2.4-5.6,0-8c23.2-24,61.6-24,85.6,0c2.4,2.4,2.4,5.6,0,8s-5.6,2.4-8,0
		c-19.2-19.2-50.4-19.2-69.6,0C91.2,272,87.2,272,84.8,269.6z"/>
	<path style="fill:#F7E98B;" d="M248.8,264.8c2.4,2.4,2.4,5.6,0,8c-24,23.2-62.4,21.6-85.6-2.4c-2.4-2.4-2.4-5.6,0-8s5.6-2.4,8,0
		c18.4,20,49.6,20.8,69.6,2.4C243.2,262.4,247.2,262.4,248.8,264.8z"/>
	<path style="fill:#F7E98B;" d="M84.8,293.6c-2.4-2.4-2.4-5.6,0-8c23.2-24,61.6-24,85.6,0c2.4,2.4,2.4,5.6,0,8s-5.6,2.4-8,0
		c-19.2-19.2-50.4-19.2-69.6,0C91.2,296,87.2,296,84.8,293.6z"/>
	<path style="fill:#F7E98B;" d="M248.8,288.8c2.4,2.4,2.4,5.6,0,8c-24,23.2-62.4,21.6-85.6-2.4c-2.4-2.4-2.4-5.6,0-8s5.6-2.4,8,0
		c18.4,20,49.6,20.8,69.6,2.4C243.2,286.4,247.2,286.4,248.8,288.8z"/>
	<path style="fill:#F7E98B;" d="M244,245.6c-2.4-2.4-2.4-5.6,0-8c23.2-24,61.6-24,85.6,0c2.4,2.4,2.4,5.6,0,8c-2.4,2.4-5.6,2.4-8,0
		c-19.2-19.2-50.4-19.2-69.6,0C249.6,248,246.4,248,244,245.6z"/>
	<path style="fill:#F7E98B;" d="M408,240.8c2.4,2.4,2.4,5.6,0,8c-24,23.2-62.4,21.6-85.6-2.4c-2.4-2.4-2.4-5.6,0-8s5.6-2.4,8,0
		c18.4,20,49.6,20.8,69.6,2.4C402.4,238.4,405.6,238.4,408,240.8z"/>
	<path style="fill:#F7E98B;" d="M244,269.6c-2.4-2.4-2.4-5.6,0-8c23.2-24,61.6-24,85.6,0c2.4,2.4,2.4,5.6,0,8s-5.6,2.4-8,0
		c-19.2-19.2-50.4-19.2-69.6,0C249.6,272,246.4,272,244,269.6z"/>
	<path style="fill:#F7E98B;" d="M408,264.8c2.4,2.4,2.4,5.6,0,8c-24,23.2-62.4,21.6-85.6-2.4c-2.4-2.4-2.4-5.6,0-8s5.6-2.4,8,0
		c18.4,20,49.6,20.8,69.6,2.4C402.4,262.4,405.6,262.4,408,264.8z"/>
	<path style="fill:#F7E98B;" d="M244,293.6c-2.4-2.4-2.4-5.6,0-8c23.2-24,61.6-24,85.6,0c2.4,2.4,2.4,5.6,0,8s-5.6,2.4-8,0
		c-19.2-19.2-50.4-19.2-69.6,0C249.6,296,246.4,296,244,293.6z"/>
	<path style="fill:#F7E98B;" d="M408,288.8c2.4,2.4,2.4,5.6,0,8c-24,23.2-62.4,21.6-85.6-2.4c-2.4-2.4-2.4-5.6,0-8s5.6-2.4,8,0
		c18.4,20,49.6,20.8,69.6,2.4C402.4,286.4,405.6,286.4,408,288.8z"/>
</g>
<polygon style="fill:#D63834;" points="339.2,230.4 319.2,226.4 347.2,67.2 381.6,73.6 "/>
<polygon style="fill:#8E0404;" points="339.2,230.4 328,228 367.2,84 381.6,73.6 "/>
<polygon style="fill:#ED7777;" points="349.6,68 367.2,82.4 359.2,115.2 "/>
<polygon style="fill:#D63834;" points="378.4,244 359.2,236 423.2,86.4 454.4,100 "/>
<polygon style="fill:#8E0404;" points="378.4,244 367.2,240 438.4,107.2 454.4,100 "/>
<polygon style="fill:#ED7777;" points="424,88 438.4,105.6 422.4,136 "/>
<path style="fill:#82C60A;" d="M44.8,148.8L44.8,148.8L44.8,148.8L44.8,148.8C41.6,195.2,2.4,220,21.6,267.2
	c10.4,27.2,40.8,35.2,76,43.2l0,0l0.8-2.4v-0.8c24-26.4,43.2-51.2,36-79.2C120,178.4,74.4,184,44.8,148.8z"/>
<path style="fill:#5EA304;" d="M97.6,310.4L97.6,310.4l0.8-2.4L97.6,310.4c24-26.4,44-54.4,36-82.4c-13.6-48.8-59.2-44-88.8-78.4
	l0,0H44l0,0"/>
<g>
	<polygon style="fill:#74B208;" points="68,218.4 37.6,211.2 71.2,228 88,194.4 	"/>
	<polygon style="fill:#74B208;" points="85.6,271.2 55.2,264 88.8,280.8 105.6,247.2 	"/>
	<polygon style="fill:#74B208;" points="76.8,244.8 42.4,236 80,255.2 99.2,216.8 	"/>
</g>
<circle style="fill:#F7E98B;" cx="246.4" cy="367.2" r="32.8"/>
<path style="fill:#FFD217;" d="M246.4,334.4c18.4,0,32.8,14.4,32.8,32.8S264.8,400,246.4,400"/>
<circle style="fill:#424242;" cx="246.4" cy="367.2" r="20"/>
<path d="M266.4,367.2c0,11.2-8.8,20-20,20c-11.2,0-20-8.8-20-20"/>
<g>
</g>
<g>
</g>
<g>
</g>
<g>
</g>
<g>
</g>
<g>
</g>
<g>
</g>
<g>
</g>
<g>
</g>
<g>
</g>
<g>
</g>
<g>
</g>
<g>
</g>
<g>
</g>
<g>
</g>
</svg>
