<?xml version="1.0" encoding="iso-8859-1"?>
<!-- Generator: Adobe Illustrator 18.0.0, SVG Export Plug-In . SVG Version: 6.00 Build 0)  -->
<!DOCTYPE svg PUBLIC "-//W3C//DTD SVG 1.1//EN" "http://www.w3.org/Graphics/SVG/1.1/DTD/svg11.dtd">
<svg version="1.1" id="Capa_1" xmlns="http://www.w3.org/2000/svg" xmlns:xlink="http://www.w3.org/1999/xlink" x="0px" y="0px"
	 viewBox="0 0 90.72 90.72" style="enable-background:new 0 0 90.72 90.72;" xml:space="preserve">
<g>
	<path d="M78.089,31.137H12.631C5.667,31.137,0,36.803,0,43.768V75.73c0,6.964,5.667,12.631,12.631,12.631h65.458
		c6.964,0,12.631-5.666,12.631-12.631V43.768C90.72,36.803,85.053,31.137,78.089,31.137z M83.502,75.73
		c0,2.985-2.428,5.413-5.413,5.413H12.631c-2.985,0-5.413-2.428-5.413-5.413V43.768c0-2.985,2.428-5.413,5.413-5.413h65.458
		c2.985,0,5.413,2.428,5.413,5.413V75.73z"/>
	<path d="M30.049,29.323c0.956,0,1.909-0.378,2.619-1.125l8.657-9.128c0.827,0.267,1.706,0.414,2.62,0.414
		c1.049,0,2.051-0.199,2.981-0.546l8.362,8.788c1.374,1.444,3.658,1.501,5.102,0.127c1.444-1.374,1.501-3.658,0.127-5.102
		L51.999,13.8c0.323-0.901,0.508-1.867,0.508-2.878c0-4.722-3.841-8.563-8.563-8.563c-4.721,0-8.563,3.841-8.563,8.563
		c0,1.149,0.231,2.245,0.644,3.247l-8.595,9.062c-1.372,1.446-1.312,3.73,0.135,5.101C28.264,28.994,29.157,29.323,30.049,29.323z"
		/>
	<path d="M23.328,55.088c-3.863,0-6.264,2.707-6.336,6.48c0.072,3.772,2.473,6.48,6.336,6.48c3.845,0,6.264-2.708,6.336-6.48
		C29.592,57.796,27.173,55.088,23.328,55.088z M23.328,66.514c-2.997,0-4.693-2.166-4.693-4.946c0-2.78,1.697-4.946,4.693-4.946
		c2.979,0,4.693,2.166,4.693,4.946C28.021,64.348,26.307,66.514,23.328,66.514z"/>
	<path d="M39.116,55.269H35c-0.452,0-0.813,0.379-0.813,0.83v11.047c0,0.451,0.361,0.813,0.813,0.813c0.451,0,0.83-0.361,0.83-0.813
		v-3.863h3.285c3.646,0,4.82-2.094,4.82-4.007C43.936,57.363,42.762,55.269,39.116,55.269z M38.954,61.731h-3.123v-4.91h3.123
		c2.69,0,3.339,1.282,3.339,2.455C42.293,60.449,41.643,61.731,38.954,61.731z"/>
	<path d="M56.114,56.803c0.433,0,0.776-0.325,0.776-0.758c0-0.433-0.343-0.776-0.776-0.776h-7.238c-0.452,0-0.813,0.379-0.813,0.83
		v10.957c0,0.452,0.361,0.813,0.813,0.813h7.238c0.433,0,0.776-0.325,0.776-0.758c0-0.433-0.343-0.776-0.776-0.776h-6.408v-4.007
		h5.758c0.433,0,0.776-0.325,0.776-0.758c0-0.433-0.343-0.776-0.776-0.776h-5.758v-3.989H56.114z"/>
	<path d="M71.541,55.178c-0.451,0-0.812,0.379-0.812,0.831v9.747L63.78,55.72c-0.253-0.325-0.596-0.542-0.993-0.542h-0.235
		c-0.65,0-1.173,0.542-1.173,1.191v10.776c0,0.451,0.361,0.813,0.812,0.813c0.451,0,0.83-0.361,0.83-0.813v-9.766l6.986,10.091
		c0.217,0.289,0.56,0.487,0.957,0.487h0.217c0.65,0,1.191-0.523,1.191-1.173V56.009C72.372,55.557,71.993,55.178,71.541,55.178z"/>
	<path d="M39.768,46.034h24.359c0.997,0,1.804-0.808,1.804-1.804c0-0.997-0.808-1.804-1.804-1.804H39.768
		c-0.997,0-1.804,0.808-1.804,1.804C37.963,45.226,38.771,46.034,39.768,46.034z"/>
</g>
<g>
</g>
<g>
</g>
<g>
</g>
<g>
</g>
<g>
</g>
<g>
</g>
<g>
</g>
<g>
</g>
<g>
</g>
<g>
</g>
<g>
</g>
<g>
</g>
<g>
</g>
<g>
</g>
<g>
</g>
</svg>
