<?xml version="1.0" encoding="iso-8859-1"?>
<!-- Generator: Adobe Illustrator 19.0.0, SVG Export Plug-In . SVG Version: 6.00 Build 0)  -->
<svg xmlns="http://www.w3.org/2000/svg" xmlns:xlink="http://www.w3.org/1999/xlink" version="1.1" id="Layer_1" x="0px" y="0px" viewBox="0 0 512 512" style="enable-background:new 0 0 512 512;" xml:space="preserve" width="512" height="512">
<g id="XMLID_744_">
	<g id="XMLID_386_">
		<g id="XMLID_406_">
			<path id="XMLID_757_" style="fill:#FEC007;" d="M109.048,239.788c-3.347,3.347-8.839,3.208-11.981-0.333     C46.887,182.91,48.879,96.333,103.04,42.172s140.738-56.153,197.283-5.974c3.541,3.142,3.68,8.634,0.333,11.981L109.048,239.788z     "/>
			<path id="XMLID_2779_" style="fill:#FE9700;" d="M283.687,65.144l-28.124,28.114l-41.207,41.218l-19.007,19.007L160.95,187.89     l-34.933,34.934c-19.368-19.357-30.102-44.051-32.245-69.342c-0.031-0.329-0.062-0.649-0.082-0.979     c-0.35-4.44-0.422-8.901-0.227-13.351c0.02-0.371,0.031-0.752,0.062-1.123c1.277-24.117,10.343-47.893,27.218-67.23     c1.679-1.937,3.441-3.822,5.275-5.656s3.719-3.595,5.656-5.264c19.347-16.875,43.113-25.94,67.23-27.218     c0.371-0.031,0.752-0.041,1.123-0.062c4.45-0.196,8.901-0.124,13.341,0.226c0.33,0.021,0.659,0.052,0.989,0.082     C239.646,35.052,264.34,45.797,283.687,65.144z"/>
			<path id="XMLID_840_" style="fill:#F26200;" d="M255.565,93.262l-94.616,94.626l-6.32-80.791     c-0.583-7.455,5.315-13.835,12.801-13.835H255.565z"/>
			<path id="XMLID_1118_" style="fill:#F26200;" d="M214.355,32.909v101.566l-19.007,19.007H93.772     c-0.031-0.329-0.062-0.649-0.082-0.979c-0.35-4.44-0.422-8.901-0.227-13.351c0.02-0.371,0.031-0.752,0.062-1.123h94.447     l-67.23-67.23c1.679-1.937,3.441-3.822,5.275-5.656s3.719-3.595,5.656-5.264l67.23,67.23V32.662     c0.371-0.031,0.752-0.041,1.123-0.062c4.45-0.196,8.901-0.124,13.341,0.226C213.696,32.847,214.025,32.878,214.355,32.909z"/>
		</g>
	</g>
	<path id="XMLID_1594_" style="fill:#CAEDFF;" d="M442.889,108.333c4.805,0,8.591,4.094,8.216,8.884l-3.374,43.152l-4.501,57.592   l-22.394,286.438c-0.335,4.289-3.914,7.599-8.216,7.599H209.022c-4.302,0-7.881-3.31-8.216-7.599l-21.992-281.274l-2.833-36.271   l-5.444-69.636c-0.375-4.79,3.412-8.884,8.216-8.884H442.889z"/>
	<path id="XMLID_826_" style="fill:#76C2E0;" d="M346.172,206.046v52.512c0,4.552-3.69,8.241-8.241,8.241h-52.512   c-4.552,0-8.241-3.69-8.241-8.241v-52.512c0-4.552,3.69-8.241,8.241-8.241h52.512C342.483,197.805,346.172,201.495,346.172,206.046   z"/>
	<path id="XMLID_1582_" style="fill:#76C2E0;" d="M442.887,108.328c4.805,0,8.591,4.093,8.216,8.883l-3.372,43.157l-26.899,344.032   c-0.335,4.289-3.914,7.599-8.216,7.599h-11.351l27.493-351.631l4.066-52.041H442.887z"/>
	<path id="XMLID_736_" style="fill:#FEC007;" d="M443.23,217.96l-22.394,286.438c-0.335,4.289-3.914,7.599-8.216,7.599H209.022   c-4.302,0-7.881-3.31-8.216-7.599l-21.992-281.274c20.889-7.947,50.89-12.579,88.99-1.005   c57.26,17.392,104.061,6.059,156.257-1.598C430.36,219.588,436.74,218.724,443.23,217.96z"/>
	<path id="XMLID_819_" style="fill:#F9DE69;" d="M346.172,230.811v27.748c0,4.552-3.69,8.241-8.241,8.241h-52.512   c-4.552,0-8.241-3.69-8.241-8.241v-33.817C301.552,230.951,324.118,232.097,346.172,230.811z"/>
	<path id="XMLID_733_" style="fill:#FE9700;" d="M443.23,217.96l-22.394,286.438c-0.335,4.289-3.914,7.599-8.216,7.599h-11.357   l22.797-291.475C430.36,219.588,436.74,218.724,443.23,217.96z"/>
	<g id="XMLID_771_">
		<path id="XMLID_759_" style="fill:#F9DE69;" d="M312.411,310.684l-18.149,49.277c-1.573,4.271-6.311,6.458-10.582,4.885    l-49.277-18.149c-4.271-1.573-6.458-6.311-4.885-10.582l18.149-49.277c1.573-4.271,6.311-6.458,10.582-4.885l49.277,18.149    C311.797,301.675,313.984,306.412,312.411,310.684z"/>
	</g>
	<path id="XMLID_780_" style="fill:#F9DE69;" d="M390.381,305.656c-4.268,0-7.726-3.459-7.726-7.726v-1.657   c0-4.268,3.459-7.726,7.726-7.726c4.268,0,7.726,3.459,7.726,7.726v1.657C398.107,302.198,394.648,305.656,390.381,305.656z"/>
	<path id="XMLID_791_" style="fill:#F9DE69;" d="M283.691,472.444c-4.268,0-7.726-3.459-7.726-7.726v-1.658   c0-4.268,3.459-7.726,7.726-7.726s7.726,3.459,7.726,7.726v1.658C291.418,468.985,287.959,472.444,283.691,472.444z"/>
	<path id="XMLID_793_" style="fill:#F9DE69;" d="M311.676,484.852c-4.268,0-7.726-3.459-7.726-7.726v-1.657   c0-4.268,3.459-7.726,7.726-7.726s7.726,3.459,7.726,7.726v1.657C319.403,481.393,315.944,484.852,311.676,484.852z"/>
	<path id="XMLID_797_" style="fill:#F9DE69;" d="M375.644,421.219c-4.268,0-7.726-3.459-7.726-7.726v-1.658   c0-4.268,3.459-7.726,7.726-7.726s7.726,3.459,7.726,7.726v1.658C383.371,417.76,379.912,421.219,375.644,421.219z"/>
	<path id="XMLID_758_" style="fill:#F9DE69;" d="M303.973,399.114c-4.268,0-7.726-3.459-7.726-7.726v-1.657   c0-4.268,3.459-7.726,7.726-7.726c4.268,0,7.726,3.459,7.726,7.726v1.657C311.699,395.656,308.241,399.114,303.973,399.114z"/>
	<path id="XMLID_701_" style="fill:#F9DE69;" d="M365.597,295.609c-4.268,0-7.726-3.459-7.726-7.726v-1.657   c0-4.268,3.459-7.726,7.726-7.726s7.726,3.459,7.726,7.726v1.657C373.323,292.15,369.865,295.609,365.597,295.609z"/>
</g>















</svg>
