<?xml version="1.0" encoding="iso-8859-1"?>
<!-- Generator: Adobe Illustrator 19.0.0, SVG Export Plug-In . SVG Version: 6.00 Build 0)  -->
<svg version="1.1" id="Layer_1" xmlns="http://www.w3.org/2000/svg" xmlns:xlink="http://www.w3.org/1999/xlink" x="0px" y="0px"
	 viewBox="0 0 504.8 504.8" style="enable-background:new 0 0 504.8 504.8;" xml:space="preserve">
<path style="fill:#77003C;" d="M4.8,475.6h496v-376c-64-58.4-152.8-94.4-248-94.4s-184,36-248,94.4V475.6z"/>
<path style="fill:#56002F;" d="M4.8,475.6h496V202c-64-42.4-152.8-68.8-248-68.8s-184,25.6-248,68.8V475.6z"/>
<path style="fill:#EA8F3D;" d="M0,155.6L0,155.6l253.6,248.8l250.4-252c-64-64-152-103.2-249.6-103.2S64,91.6,0,155.6z"/>
<path style="fill:#DB8035;" d="M252.8,402.8l252-250.4c-64-64-153.6-103.2-251.2-103.2"/>
<path style="fill:#D3731C;" d="M19.2,174.8L19.2,174.8l232,228L480.8,174C422.4,115.6,340,78.8,250.4,78.8S83.2,115.6,19.2,174.8z"
	/>
<path style="fill:#C46918;" d="M252.8,402.8l229.6-228c-58.4-58.4-140-96-229.6-96"/>
<path style="fill:#FFFAE3;" d="M52.8,202.8L52.8,202.8l199.2,216l199.2-216c-51.2-51.2-121.6-83.2-200-83.2S100.8,151.6,52.8,202.8z
	"/>
<path style="fill:#F4E49F;" d="M252.8,418.8l199.2-216c-51.2-51.2-121.6-82.4-199.2-82.4"/>
<path style="fill:#DDB357;" d="M50.4,205.2L50.4,205.2L252,402.8l201.6-199.2c-51.2-51.2-123.2-83.2-200.8-83.2
	C169.6,120.4,98.4,154,50.4,205.2z"/>
<path style="fill:#EFD27F;" d="M66.4,220.4L66.4,220.4l186.4,182.4L437.6,218c-47.2-47.2-112-76.8-184.8-76.8
	C180.8,140.4,114.4,173.2,66.4,220.4z"/>
<path style="fill:#E5BE5E;" d="M252.8,402.8L437.6,218c-47.2-48-112.8-77.6-184.8-77.6"/>
<polygon style="fill:#DDB357;" points="500.8,499.6 500.8,213.2 252.8,463.6 4.8,213.2 4.8,499.6 "/>
<polygon style="fill:#EFD27F;" points="252.8,463.6 20.8,232.4 20.8,499.6 484.8,499.6 484.8,232.4 "/>
<polyline style="fill:#E5BE5E;" points="252.8,499.6 484.8,499.6 484.8,232.4 254.4,464.4 "/>
<path style="fill:#FFFAE3;" d="M117.6,267.6l135.2,135.2l134.4-134.4c-5.6-8.8-16-13.6-28-14.4c0-1.6,0-3.2-0.8-4.8
	c-3.2-6.4-11.2-9.6-19.2-7.2c-0.8-2.4-2.4-4.8-4.8-6.4c-10.4-11.2-29.6-10.4-44,0c-8.8-14.4-23.2-22.4-38.4-20.8
	c-8,0.8-15.2,4.8-21.6,10.4c-2.4-4.8-7.2-7.2-11.2-7.2c-4.8,0.8-8.8,4-10.4,9.6c-7.2-2.4-15.2-2.4-21.6,0.8
	c-6.4,4-11.2,10.4-12.8,17.6c-3.2-4.8-8.8-6.4-13.6-5.6c-6.4,1.6-9.6,8.8-8,16.8C139.2,256.4,127.2,258.8,117.6,267.6z"/>
<path style="fill:#FFF2BB;" d="M127.2,276.4l125.6,126.4l125.6-125.6c-4.8-8-15.2-12.8-25.6-12.8c0-1.6,0-3.2-0.8-4
	c-2.4-6.4-10.4-8.8-18.4-6.4c-0.8-2.4-2.4-4-4-6.4c-9.6-10.4-27.2-9.6-41.6,0c-8.8-12.8-21.6-20.8-36-19.2c-8,0.8-14.4,4.8-20,10.4
	c-2.4-4-6.4-6.4-10.4-6.4c-4.8,0-8,4-9.6,8.8c-7.2-2.4-14.4-2.4-20,0.8c-6.4,3.2-10.4,9.6-12,16.8c-3.2-4-8-6.4-12.8-4.8
	c-5.6,1.6-8.8,8.8-7.2,16C147.2,266,135.2,269.2,127.2,276.4z"/>
<path style="fill:#F4E49F;" d="M252.8,402.8l134.4-134.4c-5.6-8.8-16-13.6-28-14.4c0-1.6,0-3.2-0.8-4.8c-3.2-6.4-11.2-9.6-19.2-7.2
	c-0.8-2.4-2.4-4.8-4.8-6.4c-10.4-11.2-29.6-10.4-44,0c-8.8-13.6-22.4-22.4-36.8-20.8"/>
<path style="fill:#E8D37C;" d="M252.8,402l124.8-124.8c-4.8-8-15.2-12.8-25.6-12.8c0-1.6,0-3.2-0.8-4c-2.4-6.4-10.4-8.8-18.4-6.4
	c-0.8-2.4-2.4-4-4-6.4c-9.6-10.4-27.2-9.6-41.6,0c-8-12.8-20.8-20.8-34.4-19.2"/>
<circle style="fill:#E06027;" cx="140" cy="187.6" r="16"/>
<circle style="fill:#FF855A;" cx="137.6" cy="186.8" r="12"/>
<path style="fill:#FFFAE3;" d="M88.8,298.8c-11.2,8.8-18.4,22.4-18.4,37.6c0,13.6,5.6,25.6,14.4,34.4c-2.4,5.6-3.2,11.2-3.2,17.6
	c0,4,0.8,8.8,1.6,12c-12.8,8.8-20.8,23.2-20.8,40s8.8,31.2,21.6,40c0,0,0,1.6,0,2.4c0,5.6,0.8,8.8,2.4,16.8h351.2
	c6.4-8,10.4-19.2,10.4-31.2c0-10.4-3.2-20.8-9.6-28.8c7.2-9.6,11.2-21.6,11.2-34.4c0-15.2-6.4-29.6-16-40c4-7.2,6.4-15.2,6.4-24
	c0-17.6-9.6-32.8-23.2-41.6l-164,164L88.8,298.8z"/>
<path style="fill:#F4E49F;" d="M252.8,499.6h184.8c6.4-8,10.4-19.2,10.4-31.2c0-10.4-3.2-20.8-9.6-28.8c7.2-9.6,11.2-21.6,11.2-34.4
	c0-15.2-6.4-29.6-16-40c4-7.2,6.4-15.2,6.4-24c0-17.6-9.6-32.8-23.2-41.6l-164,164.8"/>
<path style="fill:#FFF2BB;" d="M423.2,439.6c6.4-9.6,10.4-21.6,10.4-34.4c0-15.2-5.6-29.6-14.4-40c4-7.2,5.6-15.2,5.6-24
	c0-14.4-5.6-26.4-14.4-35.2L256,460.4l-3.2,3.2l0,0l0,0L96,306c-6.4,8-9.6,19.2-9.6,30.4c0,13.6,4.8,25.6,12.8,34.4
	c-1.6,5.6-3.2,11.2-3.2,17.6c0,4,0.8,8.8,1.6,12c-11.2,8.8-19.2,23.2-19.2,40s8,31.2,19.2,40c0,0,0,1.6,0,2.4
	c0,5.6,0.8,8.8,2.4,16.8h322.4c5.6-8,9.6-19.2,9.6-31.2C432,458,428.8,447.6,423.2,439.6z"/>
<path style="fill:#E8D37C;" d="M252.8,499.6h169.6c5.6-8,9.6-19.2,9.6-31.2c0-10.4-3.2-20.8-8.8-28.8c6.4-9.6,10.4-21.6,10.4-34.4
	c0-15.2-5.6-29.6-14.4-40c4-7.2,5.6-15.2,5.6-24c0-14.4-5.6-26.4-14.4-35.2L256,460.4l-3.2,3.2l0,0v0.8"/>
<circle style="fill:#E06027;" cx="380" cy="217.2" r="16"/>
<circle style="fill:#FF855A;" cx="382.4" cy="215.6" r="12"/>
<circle style="fill:#E06027;" cx="463.2" cy="340.4" r="16"/>
<circle style="fill:#FF855A;" cx="465.6" cy="338.8" r="12"/>
<circle style="fill:#E06027;" cx="355.2" cy="168.4" r="12"/>
<circle style="fill:#FF855A;" cx="356.8" cy="166.8" r="8.8"/>
<circle style="fill:#E06027;" cx="41.6" cy="292.4" r="12"/>
<circle style="fill:#FF855A;" cx="43.2" cy="290.8" r="8.8"/>
<circle style="fill:#E06027;" cx="276" cy="334" r="12"/>
<circle style="fill:#FF855A;" cx="277.6" cy="333.2" r="8.8"/>
<circle style="fill:#E06027;" cx="187.2" cy="162" r="10.4"/>
<circle style="fill:#FF855A;" cx="187.2" cy="159.6" r="8"/>
<circle style="fill:#E06027;" cx="47.2" cy="366.8" r="10.4"/>
<circle style="fill:#FF855A;" cx="47.2" cy="364.4" r="8"/>
<circle style="fill:#E06027;" cx="198.4" cy="278.8" r="8"/>
<circle style="fill:#FF855A;" cx="199.2" cy="277.2" r="6.4"/>
<circle style="fill:#E06027;" cx="303.2" cy="477.2" r="8"/>
<circle style="fill:#FF855A;" cx="304" cy="475.6" r="6.4"/>
<circle style="fill:#E06027;" cx="320" cy="245.2" r="8"/>
<circle style="fill:#FF855A;" cx="320" cy="243.6" r="6.4"/>
<path style="fill:#E06027;" d="M322.4,458.8c-4,2.4-8.8,0.8-11.2-3.2c-2.4-4-0.8-8.8,3.2-11.2c4-2.4,8.8-0.8,11.2,3.2
	C327.2,451.6,326.4,456.4,322.4,458.8z"/>
<circle style="fill:#FF855A;" cx="318.4" cy="450" r="6.4"/>
<path style="fill:#77003C;" d="M258.4,140.4c-12-4.8-24.8-0.8-28.8,8.8c-3.2,8,3.2,10.4,12.8,14.4c-0.8,1.6-2.4,3.2-3.2,4.8
	c-3.2,7.2,0.8,6.4,4,8s5.6,4.8,8-2.4c0.8-1.6,1.6-4,1.6-5.6c8.8,4,15.2,8,19.2-0.8C276.8,158,270.4,145.2,258.4,140.4z"/>
<path style="fill:#440029;" d="M239.2,168.4c-3.2,7.2,0.8,6.4,4,8s5.6,4.8,8-2.4c0.8-1.6,1.6-4,1.6-5.6c8.8,4,15.2,8,19.2-0.8
	c4-9.6-1.6-22.4-13.6-27.2"/>
<path style="fill:#77003C;" d="M120.8,219.6c-8,4.8-12,13.6-8,20.8c3.2,5.6,7.2,3.2,13.6-0.8c0,1.6,0.8,2.4,1.6,4
	c2.4,4.8,4,2.4,6.4,0.8c2.4-1.6,4.8-0.8,2.4-5.6c-0.8-1.6-1.6-2.4-2.4-3.2c6.4-3.2,11.2-5.6,8-11.2
	C139.2,217.2,129.6,215.6,120.8,219.6z"/>
<path style="fill:#440029;" d="M128,243.6c2.4,4.8,4,2.4,6.4,0.8c2.4-1.6,4.8-0.8,2.4-5.6c-0.8-1.6-1.6-2.4-2.4-3.2
	c6.4-3.2,11.2-5.6,8-11.2c-4-7.2-13.6-8.8-21.6-4.8"/>
<path style="fill:#77003C;" d="M360.8,246.8c-9.6-0.8-17.6,4.8-17.6,12.8c-0.8,6.4,4.8,6.4,12,7.2c0,1.6-0.8,2.4-0.8,4
	c-0.8,5.6,1.6,4,4.8,4c2.4,0,4.8,1.6,5.6-3.2c0-1.6,0-3.2,0-4c7.2,0.8,12,1.6,12.8-4.8C376.8,254.8,370.4,247.6,360.8,246.8z"/>
<path style="fill:#440029;" d="M354.4,270.8c-0.8,5.6,1.6,4,4.8,4c2.4,0,4.8,1.6,5.6-3.2c0-1.6,0-3.2,0-4c7.2,0.8,12,1.6,12.8-4.8
	c0.8-8-6.4-15.2-16-15.2"/>
<path style="fill:#74B208;" d="M209.6,187.6c-2.4-4-8-6.4-12.8-4s-7.2,7.2-6.4,12c-4.8,2.4-7.2,8-4.8,13.6s8.8,8,13.6,5.6
	c4-1.6,6.4-5.6,6.4-9.6c3.2,3.2,7.2,4,11.2,2.4c5.6-2.4,8-8.8,5.6-13.6C220.8,188.4,215.2,186,209.6,187.6z"/>
<g>
	<path style="fill:#52A305;" d="M199.2,214.8c4-1.6,6.4-5.6,6.4-9.6c3.2,3.2,7.2,4,11.2,2.4c5.6-2.4,8-8.8,5.6-13.6s-8-8-12.8-5.6"
		/>
	<path style="fill:#52A305;" d="M206.4,205.2c3.2,3.2,7.2,4,11.2,2.4c5.6-2.4,8-8.8,5.6-13.6s-8-8-12.8-5.6c-2.4-4-8-6.4-12.8-4"/>
</g>
<g>
	
		<ellipse transform="matrix(-0.8583 -0.5131 0.5131 -0.8583 249.9838 471.3575)" style="fill:#9CD827;" cx="190.067" cy="201.166" rx="1.6" ry="4"/>
	<path style="fill:#9CD827;" d="M196.8,186c0.8,0.8,0.8,2.4-0.8,4c-0.8,1.6-2.4,2.4-3.2,2.4c-0.8-0.8-0.8-2.4,0.8-4
		C194.4,186.8,196,185.2,196.8,186z"/>
</g>
<path style="fill:#74B208;" d="M321.6,193.2c0.8-4.8-1.6-10.4-6.4-12s-10.4,0-12.8,4c-4.8-1.6-11.2,0.8-12.8,5.6
	c-2.4,5.6,0,11.2,5.6,13.6c4,1.6,8,0.8,11.2-2.4c0,4,2.4,8,6.4,9.6c5.6,2.4,11.2,0,13.6-5.6C328.8,201.2,326.4,195.6,321.6,193.2z"
	/>
<g>
	<path style="fill:#52A305;" d="M295.2,204.4c4,1.6,8,0.8,11.2-2.4c0,4,2.4,8,6.4,9.6c5.6,2.4,11.2,0,13.6-5.6
		c2.4-4.8,0-11.2-4.8-13.6"/>
	<path style="fill:#52A305;" d="M306.4,202.8c0,4,2.4,8,6.4,9.6c5.6,2.4,11.2,0,13.6-5.6c2.4-4.8,0-11.2-4.8-13.6
		c0.8-4.8-1.6-10.4-6.4-12"/>
</g>
<g>
	
		<ellipse transform="matrix(-0.2331 -0.9725 0.9725 -0.2331 183.6801 521.7473)" style="fill:#9CD827;" cx="297.574" cy="188.446" rx="1.6" ry="4"/>
	<path style="fill:#9CD827;" d="M313.6,182c0,0.8-0.8,1.6-3.2,2.4c-1.6,0.8-3.2,0-4-0.8c0-0.8,0.8-1.6,3.2-2.4
		C311.2,181.2,312.8,181.2,313.6,182z"/>
</g>
<path style="fill:#74B208;" d="M232,314c0-4.8-2.4-8.8-7.2-9.6c-4.8-0.8-8.8,0.8-10.4,5.6c-4.8-0.8-9.6,1.6-10.4,6.4
	c-1.6,4.8,1.6,9.6,6.4,11.2c4,0.8,7.2-0.8,9.6-3.2c0.8,3.2,3.2,6.4,6.4,7.2c4.8,1.6,9.6-1.6,11.2-6.4C239.2,320.4,236,315.6,232,314
	z"/>
<g>
	<path style="fill:#52A305;" d="M210.4,327.6c4,0.8,7.2-0.8,9.6-3.2c0.8,3.2,3.2,6.4,6.4,7.2c4.8,1.6,9.6-1.6,11.2-6.4
		c1.6-4.8-1.6-9.6-6.4-11.2"/>
	<path style="fill:#52A305;" d="M220,324.4c0.8,3.2,3.2,6.4,6.4,7.2c4.8,1.6,9.6-1.6,11.2-6.4c1.6-4.8-1.6-9.6-6.4-11.2
		c0-4.8-2.4-8.8-7.2-9.6"/>
</g>
<g>
	
		<ellipse transform="matrix(-0.3721 -0.9282 0.9282 -0.3721 -2.6185 626.4252)" style="fill:#9CD827;" cx="210.572" cy="314.098" rx="1.6" ry="3.2"/>
	
		<ellipse transform="matrix(-0.3723 -0.9281 0.9281 -0.3723 17.7512 627.0694)" style="fill:#9CD827;" cx="220.924" cy="307.532" rx="1.6" ry="3.2"/>
</g>
<path style="fill:#74B208;" d="M48,325.2c-0.8-3.2-4.8-5.6-8-4.8c-3.2,0.8-5.6,4-5.6,7.2c-4,0.8-6.4,4-5.6,8c0,4,4,6.4,8,5.6
	c3.2-0.8,4.8-2.4,5.6-5.6c1.6,3.2,4,4,7.2,4c4-0.8,6.4-4,5.6-8C54.4,327.6,51.2,325.2,48,325.2z"/>
<g>
	<path style="fill:#52A305;" d="M36.8,341.2c3.2-0.8,4.8-2.4,5.6-5.6c1.6,3.2,4,4,7.2,4c4-0.8,6.4-4,5.6-8c-0.8-4-4-6.4-8-5.6"/>
	<path style="fill:#52A305;" d="M42.4,336.4c1.6,2.4,4,3.2,7.2,3.2c4-0.8,6.4-4,5.6-8c-0.8-4-4-6.4-8-5.6c-0.8-3.2-4.8-5.6-8-4.8"/>
</g>
<g>
	
		<ellipse transform="matrix(-0.7159 -0.6982 0.6982 -0.7159 -174.882 591.43)" style="fill:#9CD827;" cx="32.886" cy="331.295" rx="1.6" ry="2.4"/>
	<path style="fill:#9CD827;" d="M39.2,322c0.8,0,0,1.6-0.8,2.4s-1.6,1.6-2.4,0.8c0-0.8,0-1.6,0.8-2.4S38.4,322,39.2,322z"/>
</g>
<path style="fill:#74B208;" d="M435.2,369.2c0.8-3.2-1.6-6.4-4.8-8c-3.2-0.8-7.2,0.8-8.8,4c-4-0.8-7.2,1.6-8.8,4.8
	c-0.8,4,0.8,8,4.8,8.8c2.4,0.8,5.6,0,7.2-2.4c0,2.4,2.4,4.8,4.8,5.6c4,0.8,8-0.8,8.8-4.8C440.8,374.8,439.2,370.8,435.2,369.2z"/>
<g>
	<path style="fill:#52A305;" d="M418.4,379.6c2.4,0.8,5.6,0,7.2-2.4c0,2.4,2.4,4.8,4.8,5.6c4,0.8,8-0.8,8.8-4.8s-0.8-7.2-4-8.8"/>
	<path style="fill:#52A305;" d="M425.6,377.2c0,2.4,2.4,4.8,4.8,5.6c4,0.8,8-0.8,8.8-4.8s-0.8-7.2-4-8.8c0.8-3.2-1.6-6.4-4.8-8"/>
</g>
<g>
	
		<ellipse transform="matrix(-0.3365 -0.9417 0.9417 -0.3365 213.3216 887.1853)" style="fill:#9CD827;" cx="419.213" cy="368.44" rx="1.6" ry="2.4"/>
	
		<ellipse transform="matrix(-0.3361 -0.9418 0.9418 -0.3361 228.2681 888.0842)" style="fill:#9CD827;" cx="427.14" cy="363.589" rx="0.8" ry="2.4"/>
</g>
<path style="fill:#74B208;" d="M418.4,407.6c0-2.4-0.8-4.8-3.2-5.6c-2.4-0.8-4.8,0.8-5.6,2.4c-2.4-0.8-4.8,0.8-5.6,3.2
	c-0.8,2.4,0.8,5.6,3.2,6.4c1.6,0.8,4,0,4.8-1.6c0,1.6,1.6,3.2,3.2,4c2.4,0.8,5.6-0.8,6.4-3.2C422.4,411.6,420.8,408.4,418.4,407.6z"
	/>
<g>
	<path style="fill:#52A305;" d="M406.4,414.8c1.6,0.8,4,0,4.8-1.6c0,1.6,1.6,3.2,3.2,4c2.4,0.8,5.6-0.8,6.4-3.2
		c0.8-2.4-0.8-4.8-3.2-6.4"/>
	<path style="fill:#52A305;" d="M412,413.2c0,1.6,1.6,3.2,3.2,4c2.4,0.8,5.6-0.8,6.4-3.2c0.8-2.4-0.8-4.8-3.2-6.4
		c0-2.4-0.8-4.8-3.2-5.6"/>
</g>
<g>
	<path style="fill:#9CD827;" d="M408.8,406.8c0,0.8-0.8,0.8-1.6,1.6s-1.6,0-2.4,0c0-0.8,0.8-0.8,1.6-1.6S408.8,406,408.8,406.8z"/>
	
		<ellipse transform="matrix(-0.337 -0.9415 0.9415 -0.337 171.881 928.213)" style="fill:#9CD827;" cx="412.76" cy="403.588" rx="0.8" ry="1.6"/>
</g>
<polygon style="fill:#FFE36E;" points="314.4,171.6 312,142.8 288,158.8 "/>
<polygon style="fill:#FFCF03;" points="314.4,171.6 312,142.8 300,164.4 "/>
<polygon style="fill:#FFE36E;" points="117.6,198 90.4,187.6 94.4,216.4 "/>
<polygon style="fill:#FFCF03;" points="117.6,198 90.4,187.6 104,208.4 "/>
<polygon style="fill:#FFE36E;" points="64.8,401.2 38.4,390 41.6,418.8 "/>
<polygon style="fill:#FFCF03;" points="64.8,401.2 38.4,390 52,411.6 "/>
<polygon style="fill:#FFE36E;" points="269.6,200.4 255.2,186 248.8,206 "/>
<polygon style="fill:#FFCF03;" points="269.6,200.4 255.2,186 257.6,203.6 "/>
<polygon style="fill:#FFE36E;" points="179.2,228.4 170.4,209.2 158.4,226 "/>
<polygon style="fill:#FFCF03;" points="179.2,228.4 170.4,209.2 167.2,226.8 "/>
<polygon style="fill:#FFE36E;" points="348,233.2 345.6,217.2 332.8,226.8 "/>
<polygon style="fill:#FFCF03;" points="348,233.2 345.6,217.2 339.2,230 "/>
<polygon style="fill:#FFE36E;" points="94.4,330.8 92.8,314.8 79.2,324.4 "/>
<polygon style="fill:#FFCF03;" points="94.4,330.8 92.8,314.8 86.4,326.8 "/>
<polygon style="fill:#FFE36E;" points="449.6,476.4 448,460.4 434.4,470 "/>
<polygon style="fill:#FFCF03;" points="449.6,476.4 448,460.4 441.6,472.4 "/>
<polygon style="fill:#FFE36E;" points="90.4,365.2 88.8,349.2 75.2,358.8 "/>
<polygon style="fill:#FFCF03;" points="90.4,365.2 88.8,349.2 81.6,361.2 "/>
<polygon style="fill:#FFE36E;" points="420,219.6 418.4,203.6 404.8,213.2 "/>
<polygon style="fill:#FFCF03;" points="420,219.6 418.4,203.6 411.2,215.6 "/>
<polygon style="fill:#FFE36E;" points="474.4,419.6 472.8,403.6 459.2,412.4 "/>
<polygon style="fill:#FFCF03;" points="474.4,419.6 472.8,403.6 465.6,415.6 "/>
<g>
	<path style="fill:#F4E49F;" d="M178.4,287.6c0,1.6-1.6,4-3.2,4h-16.8c-1.6,0-3.2-2.4-3.2-4l0,0c0-1.6,1.6-4,3.2-4h16.8
		C176.8,283.6,178.4,286,178.4,287.6L178.4,287.6z"/>
	<path style="fill:#F4E49F;" d="M182.4,296.4c0.8,0.8,0,2.4-0.8,2.4l-8.8,4.8c-0.8,0.8-2.4,0-2.4-0.8l0,0c-0.8-0.8,0-2.4,0.8-2.4
		l8.8-4.8C180.8,295.6,182.4,295.6,182.4,296.4L182.4,296.4z"/>
	<path style="fill:#F4E49F;" d="M236,345.2c0.8,0.8,0,2.4-0.8,2.4l-8.8,4.8c-0.8,0.8-2.4,0-2.4-0.8l0,0c-0.8-0.8,0-2.4,0.8-2.4
		l8.8-4.8C234.4,344.4,235.2,344.4,236,345.2L236,345.2z"/>
	<path style="fill:#F4E49F;" d="M246.4,361.2c0,0.8-0.8,1.6-1.6,1.6H236c-0.8,0-1.6-0.8-1.6-1.6l0,0c0-0.8,0.8-1.6,1.6-1.6h8.8
		C245.6,359.6,246.4,360.4,246.4,361.2L246.4,361.2z"/>
	<path style="fill:#F4E49F;" d="M180,265.2c0.8,1.6,0,2.4-1.6,3.2l-12.8,5.6c-1.6,0.8-2.4,0-3.2-1.6l0,0c-0.8-1.6,0-2.4,1.6-3.2
		l12.8-5.6C178.4,263.6,180,264.4,180,265.2L180,265.2z"/>
	<path style="fill:#F4E49F;" d="M204.8,294.8c0.8,0.8,0,2.4-0.8,3.2l-11.2,4.8c-0.8,0.8-2.4,0-3.2-0.8l0,0c-0.8-0.8,0-2.4,0.8-3.2
		l11.2-4.8C203.2,293.2,204.8,293.2,204.8,294.8L204.8,294.8z"/>
	<path style="fill:#F4E49F;" d="M216,339.6c0,0.8-1.6,1.6-2.4,1.6l-12-1.6c-1.6,0-1.6-1.6-1.6-2.4l0,0c0-1.6,1.6-1.6,2.4-1.6l12,2.4
		C215.2,337.2,216,338.8,216,339.6L216,339.6z"/>
	<path style="fill:#F4E49F;" d="M199.2,312.4c0,0.8-1.6,1.6-2.4,1.6l-12-2.4c-1.6,0-1.6-1.6-1.6-2.4l0,0c0-1.6,1.6-1.6,2.4-1.6
		l12,2.4C199.2,310,200,311.6,199.2,312.4L199.2,312.4z"/>
	<path style="fill:#F4E49F;" d="M228.8,298c0,0.8-1.6,1.6-2.4,1.6l-12-2.4c-1.6,0-1.6-1.6-1.6-2.4l0,0c0-1.6,1.6-1.6,2.4-1.6l12,2.4
		C228,295.6,228.8,297.2,228.8,298L228.8,298z"/>
	<path style="fill:#F4E49F;" d="M150.4,431.6c0.8,1.6-0.8,3.2-2.4,4l-16.8,4c-1.6,0.8-3.2-0.8-4-2.4l0,0c-0.8-1.6,0.8-3.2,2.4-4
		l16.8-4C148,429.2,149.6,430,150.4,431.6L150.4,431.6z"/>
	<path style="fill:#F4E49F;" d="M156.8,440.4c0.8,0.8,0.8,1.6,0,2.4l-8,7.2c-0.8,0.8-1.6,0.8-2.4,0l0,0c-0.8-0.8-0.8-1.6,0-2.4
		l8-7.2C155.2,439.6,156.8,440.4,156.8,440.4L156.8,440.4z"/>
	<path style="fill:#F4E49F;" d="M220.8,474.8c0.8,0.8,0.8,1.6,0,2.4l-8,7.2c-0.8,0.8-1.6,0.8-2.4,0l0,0c-0.8-0.8-0.8-1.6,0-2.4
		l8-7.2C219.2,474,220,474,220.8,474.8L220.8,474.8z"/>
	<path style="fill:#F4E49F;" d="M235.2,486.8c0,0.8,0,1.6-1.6,1.6l-8.8,1.6c-0.8,0-1.6,0-1.6-1.6l0,0c0-0.8,0-1.6,1.6-1.6l8.8-1.6
		C234.4,486,235.2,486,235.2,486.8L235.2,486.8z"/>
	<path style="fill:#F4E49F;" d="M147.2,411.6c0.8,0.8,0.8,2.4,0,3.2l-11.2,8.8c-0.8,0.8-2.4,0.8-3.2,0l0,0c-0.8-0.8-0.8-2.4,0-3.2
		l11.2-8.8C144.8,410,146.4,410,147.2,411.6L147.2,411.6z"/>
	<path style="fill:#F4E49F;" d="M178.4,433.2c0.8,0.8,0.8,2.4,0,3.2l-9.6,8c-0.8,0.8-2.4,0.8-3.2,0l0,0c-0.8-0.8-0.8-2.4,0-3.2
		l9.6-8C176,432.4,177.6,432.4,178.4,433.2L178.4,433.2z"/>
	<path style="fill:#F4E49F;" d="M200.8,474.8c0,1.6-0.8,2.4-2.4,2.4l-12,0.8c-1.6,0-2.4-0.8-2.4-2.4l0,0c0-1.6,0.8-2.4,2.4-2.4
		l12-0.8C199.2,472.4,200.8,473.2,200.8,474.8L200.8,474.8z"/>
	<path style="fill:#F4E49F;" d="M177.6,451.6c0,1.6-0.8,2.4-2.4,2.4l-12,0.8c-1.6,0-2.4-0.8-2.4-2.4l0,0c0-1.6,0.8-2.4,2.4-2.4
		l12-0.8C176.8,450,177.6,450.8,177.6,451.6L177.6,451.6z"/>
	<path style="fill:#F4E49F;" d="M202.4,430.8c0,1.6-0.8,2.4-2.4,2.4l-12,0.8c-1.6,0-2.4-0.8-2.4-2.4l0,0c0-1.6,0.8-2.4,2.4-2.4
		l12-0.8C201.6,428.4,202.4,429.2,202.4,430.8L202.4,430.8z"/>
	<path style="fill:#F4E49F;" d="M120,456.4c0.8-1.6,3.2-1.6,4-0.8l13.6,10.4c1.6,0.8,1.6,3.2,0.8,4l0,0c-0.8,1.6-3.2,1.6-4,0.8
		l-13.6-10.4C119.2,459.6,118.4,458,120,456.4L120,456.4z"/>
	<path style="fill:#F4E49F;" d="M122.4,445.2c0-0.8,0.8-1.6,2.4-1.6l10.4,1.6c0.8,0,1.6,0.8,1.6,2.4l0,0c0,0.8-0.8,1.6-2.4,1.6
		l-10.4-1.6C123.2,447.6,122.4,446,122.4,445.2L122.4,445.2z"/>
	<path style="fill:#F4E49F;" d="M109.6,374c0-0.8,0.8-1.6,2.4-1.6l10.4,1.6c0.8,0,1.6,0.8,1.6,2.4l0,0c0,0.8-0.8,1.6-2.4,1.6
		l-10.4-1.6C110.4,376.4,109.6,374.8,109.6,374L109.6,374z"/>
	<path style="fill:#F4E49F;" d="M110.4,355.6c0.8-0.8,1.6-0.8,2.4,0l6.4,5.6c0.8,0.8,0.8,1.6,0,2.4l0,0c-0.8,0.8-1.6,0.8-2.4,0
		l-6.4-5.6C109.6,357.2,109.6,355.6,110.4,355.6L110.4,355.6z"/>
	<path style="fill:#F4E49F;" d="M105.6,471.6c0-1.6,1.6-2.4,3.2-1.6l13.6,3.2c1.6,0,2.4,1.6,1.6,3.2l0,0c0,1.6-1.6,2.4-3.2,1.6
		l-13.6-3.2C106.4,474,105.6,472.4,105.6,471.6L105.6,471.6z"/>
	<path style="fill:#F4E49F;" d="M103.2,433.2c0-0.8,1.6-1.6,2.4-1.6l12,2.4c0.8,0,1.6,1.6,1.6,2.4l0,0c0,1.6-1.6,1.6-2.4,1.6
		l-12-2.4C104,435.6,103.2,434.8,103.2,433.2L103.2,433.2z"/>
	<path style="fill:#F4E49F;" d="M122.4,390.8c0.8-0.8,2.4-0.8,3.2,0l8,8.8c0.8,0.8,0.8,2.4,0,3.2l0,0c-0.8,0.8-2.4,0.8-3.2,0l-8-8.8
		C120.8,392.4,120.8,391.6,122.4,390.8L122.4,390.8z"/>
	<path style="fill:#F4E49F;" d="M118.4,422c0.8-0.8,2.4-0.8,3.2,0l8,8.8c0.8,0.8,0.8,2.4,0,3.2l0,0c-0.8,0.8-2.4,0.8-3.2,0l-8-8.8
		C117.6,424.4,117.6,422.8,118.4,422L118.4,422z"/>
	<path style="fill:#F4E49F;" d="M86.4,416.4c0.8-0.8,2.4-0.8,3.2,0l8,8.8c0.8,0.8,0.8,2.4,0,3.2l0,0c-0.8,0.8-2.4,0.8-3.2,0l-8-8.8
		C85.6,418,85.6,417.2,86.4,416.4L86.4,416.4z"/>
	<path style="fill:#F4E49F;" d="M348.8,286.8c0-1.6-1.6-3.2-3.2-3.2H328c-1.6,0-3.2,1.6-3.2,3.2v1.6c0,1.6,1.6,3.2,3.2,3.2h17.6
		c1.6,0,3.2-1.6,3.2-3.2V286.8z"/>
	<path style="fill:#F4E49F;" d="M324,296.4c-0.8,0.8,0,2.4,0.8,2.4l8.8,4.8c0.8,0.8,2.4,0,2.4-0.8l0,0c0.8-0.8,0-2.4-0.8-2.4
		l-8.8-4.8C325.6,295.6,324.8,295.6,324,296.4L324,296.4z"/>
	<path style="fill:#F4E49F;" d="M270.4,345.2c-0.8,0.8,0,2.4,0.8,2.4l8.8,4.8c0.8,0.8,2.4,0,2.4-0.8l0,0c0.8-0.8,0-2.4-0.8-2.4
		l-8.8-4.8C272,344.4,271.2,344.4,270.4,345.2L270.4,345.2z"/>
	<path style="fill:#F4E49F;" d="M260,361.2c0,0.8,0.8,1.6,1.6,1.6h8.8c0.8,0,1.6-0.8,1.6-1.6l0,0c0-0.8-0.8-1.6-1.6-1.6h-8.8
		C260.8,359.6,260,360.4,260,361.2L260,361.2z"/>
	<path style="fill:#F4E49F;" d="M326.4,265.2c-0.8,1.6,0,2.4,1.6,3.2l12.8,5.6c1.6,0.8,2.4,0,3.2-1.6l0,0c0.8-1.6,0-2.4-1.6-3.2
		l-12.8-5.6C328,263.6,326.4,264.4,326.4,265.2L326.4,265.2z"/>
	<path style="fill:#F4E49F;" d="M301.6,294.8c-0.8,0.8,0,2.4,0.8,3.2l11.2,4.8c0.8,0.8,2.4,0,3.2-0.8l0,0c0.8-0.8,0-2.4-0.8-3.2
		l-11.2-4.8C303.2,293.2,301.6,293.2,301.6,294.8L301.6,294.8z"/>
	<path style="fill:#F4E49F;" d="M290.4,339.6c0,0.8,1.6,1.6,2.4,1.6l12-2.4c0.8,0,1.6-1.6,1.6-2.4l0,0c0-1.6-1.6-1.6-2.4-1.6
		l-12,2.4C291.2,337.2,290.4,338.8,290.4,339.6L290.4,339.6z"/>
	<path style="fill:#F4E49F;" d="M307.2,312.4c0,0.8,1.6,1.6,2.4,1.6l12-2.4c1.6,0,1.6-1.6,1.6-2.4l0,0c0-1.6-1.6-1.6-2.4-1.6
		l-12,2.4C307.2,310,306.4,311.6,307.2,312.4L307.2,312.4z"/>
	<path style="fill:#F4E49F;" d="M277.6,298c0,0.8,1.6,1.6,2.4,1.6l12-2.4c0.8,0,1.6-1.6,1.6-2.4l0,0c0-1.6-1.6-1.6-2.4-1.6l-12,2.4
		C278.4,295.6,277.6,297.2,277.6,298L277.6,298z"/>
	<path style="fill:#F4E49F;" d="M365.6,439.6c-0.8,1.6,0,3.2,1.6,4l15.2,8c1.6,0.8,3.2,0,4-1.6l0,0c0.8-1.6,0-3.2-1.6-4l-15.2-8
		C368.8,438,366.4,438,365.6,439.6L365.6,439.6z"/>
	<path style="fill:#F4E49F;" d="M356.8,446.8c-0.8,0.8-0.8,1.6-0.8,2.4l5.6,8.8c0.8,0.8,1.6,0.8,2.4,0.8l0,0
		c0.8-0.8,0.8-1.6,0.8-2.4l-5.6-8.8C359.2,446.8,357.6,446,356.8,446.8L356.8,446.8z"/>
	<path style="fill:#F4E49F;" d="M287.2,465.2c-0.8,0.8-0.8,1.6-0.8,2.4l5.6,8.8c0.8,0.8,1.6,0.8,2.4,0.8l0,0
		c0.8-0.8,0.8-1.6,0.8-2.4l-5.6-8.8C288.8,465.2,288,465.2,287.2,465.2L287.2,465.2z"/>
	<path style="fill:#F4E49F;" d="M270.4,474c0,0.8,0,1.6,0.8,2.4l8,4c0.8,0,1.6,0,2.4-0.8l0,0c0-0.8,0-1.6-0.8-2.4l-8-4
		C272,473.2,270.4,473.2,270.4,474L270.4,474z"/>
	<path style="fill:#F4E49F;" d="M373.6,420.4c-0.8,0.8-1.6,2.4-0.8,3.2l8.8,11.2c0.8,0.8,2.4,1.6,3.2,0.8l0,0
		c0.8-0.8,1.6-2.4,0.8-3.2l-8.8-11.2C376,420.4,374.4,419.6,373.6,420.4L373.6,420.4z"/>
	<path style="fill:#F4E49F;" d="M338.4,434.8c-0.8,0.8-0.8,2.4-0.8,3.2l7.2,9.6c0.8,0.8,2.4,0.8,3.2,0.8l0,0
		c0.8-0.8,0.8-2.4,0.8-3.2l-8-10.4C340.8,434,339.2,434,338.4,434.8L338.4,434.8z"/>
	<path style="fill:#F4E49F;" d="M307.2,470c0,0.8,0,2.4,1.6,2.4l12,3.2c0.8,0,2.4,0,2.4-1.6l0,0c0-0.8,0-2.4-1.6-2.4l-12-3.2
		C308.8,467.6,307.2,468.4,307.2,470L307.2,470z"/>
	<path style="fill:#F4E49F;" d="M334.4,453.2c0,0.8,0,2.4,1.6,2.4l12,3.2c0.8,0,2.4,0,2.4-1.6l0,0c0-0.8,0-2.4-1.6-2.4l-11.2-3.2
		C336,451.6,335.2,451.6,334.4,453.2L334.4,453.2z"/>
	<path style="fill:#F4E49F;" d="M315.2,426.8c0,0.8,0,2.4,1.6,2.4l12,3.2c0.8,0,2.4,0,2.4-1.6l0,0c0-0.8,0-2.4-1.6-2.4l-12-3.2
		C316.8,424.4,316,425.2,315.2,426.8L315.2,426.8z"/>
	<path style="fill:#F4E49F;" d="M394.4,382.8c0.8,1.6,3.2,1.6,4,0l12.8-11.2c1.6-0.8,1.6-3.2,0-4l0,0c-0.8-1.6-3.2-1.6-4,0
		l-12.8,11.2C393.6,379.6,393.6,381.2,394.4,382.8L394.4,382.8z"/>
	<path style="fill:#F4E49F;" d="M397.6,393.2c0,0.8,1.6,1.6,2.4,1.6l10.4-2.4c0.8,0,1.6-1.6,1.6-2.4l0,0c0-0.8-1.6-1.6-2.4-1.6
		l-10.4,2.4C398.4,391.6,397.6,392.4,397.6,393.2L397.6,393.2z"/>
	<path style="fill:#F4E49F;" d="M388.8,465.2c0,0.8,1.6,1.6,2.4,1.6l10.4-2.4c0.8,0,1.6-1.6,1.6-2.4l0,0c0-0.8-1.6-1.6-2.4-1.6
		l-10.4,2.4C389.6,463.6,388.8,464.4,388.8,465.2L388.8,465.2z"/>
	<path style="fill:#F4E49F;" d="M390.4,484.4c0.8,0.8,1.6,0.8,2.4,0l6.4-5.6c0.8-0.8,0.8-1.6,0-2.4l0,0c-0.8-0.8-1.6-0.8-2.4,0
		l-6.4,5.6C390.4,482.8,390.4,483.6,390.4,484.4L390.4,484.4z"/>
	<path style="fill:#F4E49F;" d="M380,368.4c0,1.6,1.6,2.4,3.2,1.6l13.6-4c1.6,0,2.4-1.6,1.6-3.2l0,0c0-1.6-1.6-2.4-3.2-1.6l-13.6,4
		C380,366,379.2,366.8,380,368.4L380,368.4z"/>
	<path style="fill:#F4E49F;" d="M379.2,406.8c0,0.8,1.6,1.6,2.4,1.6l12-3.2c0.8,0,1.6-1.6,1.6-2.4l0,0c0-0.8-1.6-1.6-2.4-1.6
		l-12,2.4C380,404.4,379.2,405.2,379.2,406.8L379.2,406.8z"/>
	<path style="fill:#F4E49F;" d="M400.8,448.4c0.8,0.8,2.4,0.8,3.2,0l8-9.6c0.8-0.8,0.8-2.4,0-3.2l0,0c-0.8-0.8-2.4-0.8-3.2,0l-8,9.6
		C399.2,446,399.2,447.6,400.8,448.4L400.8,448.4z"/>
	<path style="fill:#F4E49F;" d="M395.2,416.4c0.8,0.8,2.4,0.8,3.2,0l7.2-9.6c0.8-0.8,0.8-2.4,0-3.2l0,0c-0.8-0.8-2.4-0.8-3.2,0
		l-7.2,9.6C394.4,414.8,394.4,415.6,395.2,416.4L395.2,416.4z"/>
	<path style="fill:#F4E49F;" d="M363.2,424.4c0.8,0.8,2.4,0.8,3.2,0l7.2-9.6c0.8-0.8,0.8-2.4,0-3.2l0,0c-0.8-0.8-2.4-0.8-3.2,0
		l-7.2,9.6C362.4,422.8,362.4,423.6,363.2,424.4L363.2,424.4z"/>
</g>
<path style="fill:#C95039;" d="M338.4,294c0.8-0.8,0.8-0.8,1.6-1.6c4.8-7.2-4.8-20.8-20.8-31.2c-13.6-8.8-28-12.8-34.4-8.8l0,0
	c-6.4,4-20.8,0.8-35.2-8.8c-12.8-8.8-21.6-19.2-21.6-27.2c-2.4,1.6-4.8,3.2-6.4,6.4L208,245.2c-0.8,1.6-1.6-1.6-2.4,6.4l0,0
	c-0.8,0-0.8-0.8-1.6-0.8c-4.8,7.2,4.8,20,20.8,30.4c14.4,9.6,28.8,12,35.2,8l0,0c6.4-4,20.8,0,34.4,8.8
	c12.8,8.8,21.6,19.2,21.6,27.2c2.4-1.6,4.8-3.2,6.4-6.4l13.6-20C337.6,297.2,338.4,295.6,338.4,294z M283.2,253.2L283.2,253.2
	L283.2,253.2z M238.4,254c0.8,0.8,1.6,0.8,3.2,1.6C240.8,255.6,239.2,254.8,238.4,254z M216,243.6L216,243.6L216,243.6z M217.6,246
	L217.6,246L217.6,246z M220,246C220,246,220,246.8,220,246C220,246.8,220,246,220,246z M222.4,246.8h0.8
	C222.4,246.8,222.4,246.8,222.4,246.8z M224.8,247.6c0,0,0.8,0,0.8,0.8C225.6,247.6,224.8,247.6,224.8,247.6z M227.2,248.4
	c0.8,0,0.8,0,1.6,0.8C228,249.2,228,248.4,227.2,248.4z M230.4,250c0.8,0,0.8,0.8,1.6,0.8C231.2,250,230.4,250,230.4,250z
	 M232.8,250.8c0.8,0,0.8,0.8,1.6,0.8C233.6,251.6,233.6,251.6,232.8,250.8z M236,252.4c0.8,0,1.6,0.8,1.6,0.8
	C236.8,253.2,236,252.4,236,252.4z M261.6,288.4l0.8-0.8C262.4,287.6,261.6,288.4,261.6,288.4z M305.6,288.4
	c-0.8-0.8-1.6-0.8-3.2-1.6C304,286.8,304.8,287.6,305.6,288.4z M328.8,299.6L328.8,299.6L328.8,299.6z M327.2,296.4
	C326.4,296.4,326.4,296.4,327.2,296.4C326.4,296.4,326.4,296.4,327.2,296.4z M324.8,295.6H324C324,295.6,324,295.6,324.8,295.6z
	 M322.4,295.6h-0.8C321.6,295.6,321.6,295.6,322.4,295.6z M320,294.8c0,0-0.8,0-1.6-0.8C319.2,294,319.2,294.8,320,294.8z
	 M316.8,294c-0.8,0-0.8,0-1.6-0.8C316,293.2,316.8,293.2,316.8,294z M314.4,292.4c-0.8,0-0.8-0.8-1.6-0.8
	C313.6,292.4,313.6,292.4,314.4,292.4z M311.2,291.6c-0.8,0-0.8-0.8-1.6-0.8C310.4,290.8,311.2,290.8,311.2,291.6z M308.8,290
	c-0.8,0-1.6-0.8-1.6-0.8S308,289.2,308.8,290z"/>
<path style="fill:#AD361A;" d="M340,293.2c4.8-7.2-4.8-20.8-20.8-31.2c-12-8-24.8-11.2-32-9.6l-24,36.8c7.2-1.6,20,1.6,32,9.6
	c12.8,8.8,21.6,19.2,21.6,27.2c2.4-1.6,4.8-3.2,6.4-6.4l13.6-20c0.8-1.6,1.6-3.2,2.4-4.8C339.2,294,340,293.2,340,293.2z"/>
<g>
	<path style="fill:#ED8A72;" d="M304.8,283.6c-13.6-8.8-28-12.8-34.4-8.8l0,0c-6.4,4-20.8,0.8-35.2-8.8c-16-10.4-24-26.4-19.2-32.8
		c0-0.8-0.8,0.8,0,0l0,0c0.8-1.6,0.8-1.6,2.4-3.2l-3.2,2.4c-2.4,1.6-3.2,3.2-3.2,3.2l0,0c-0.8,0-0.8,2.4-1.6,3.2
		c-4.8,7.2,4.8,21.6,20.8,32c14.4,9.6,28.8,12.8,35.2,8.8l0,0c6.4-4,20.8,0,34.4,8.8c12.8,8.8,21.6,19.2,21.6,27.2
		c2.4-1.6,4.8-3.2,6.4-6.4l3.2-4.8c-1.6,2.4-4,4.8-6.4,6.4C326.4,303.6,317.6,292.4,304.8,283.6z"/>
	<path style="fill:#ED8A72;" d="M312.8,270.8c-13.6-8.8-28-12.8-34.4-8.8l0,0c-6.4,4-20.8,0.8-35.2-8.8
		c-16-10.4-25.6-24.8-20.8-31.2c0-0.8,0.8-0.8,1.6-1.6l0,0l0,0l-0.8,0.8c-0.8,1.6-1.6,3.2-2.4,4.8l0,0c-0.8,0.8-0.8,0.8-1.6,1.6
		c-4.8,7.2,4.8,20.8,20.8,31.2c14.4,9.6,28.8,12.8,35.2,8.8l0,0c6.4-4,20.8,0,34.4,8.8c12.8,8.8,21.6,19.2,21.6,27.2
		c2.4-1.6,4.8-3.2,6.4-6.4l0.8-2.4c-1.6,2.4-1.6,1.6-4,3.2C334.4,290,326.4,279.6,312.8,270.8z"/>
</g>
<path style="fill:#C95039;" d="M342.4,458.8v0.8c0,3.2,16,7.2,35.2,5.6c16-1.6,29.6-5.6,33.6-5.6l0,0c2.4-8,16.8-8,33.6-9.6
	c15.2-0.8,28.8-0.8,33.6,0.8c0.8-0.8,1.6-3.2,1.6-4l-0.8-9.6c0-0.8,0-1.6-0.8-1.6l0,0V434c0-3.2-16-5.6-35.2-4
	c-16.8,1.6-31.2,4.8-33.6,8l0,0c-3.2,3.2-16.8,6.4-33.6,7.2c-15.2,0.8-28.8,0-33.6-2.4c-0.8,0.8-1.6,2.4-1.6,4l0.8,10.4
	C341.6,458,342.4,458.8,342.4,458.8z M411.2,455.6L411.2,455.6L411.2,455.6z M447.2,442c-0.8,0-2.4,0-3.2,0
	C444.8,442,446.4,442,447.2,442z M471.2,438L471.2,438L471.2,438z M469.6,438C468.8,438,468.8,438,469.6,438
	C468.8,438,468.8,438,469.6,438z M467.2,438.8L467.2,438.8L467.2,438.8z M464.8,439.6H464H464.8z M462.4,439.6c-0.8,0-0.8,0-1.6,0
	C461.6,439.6,462.4,439.6,462.4,439.6z M460,440.4c-0.8,0-0.8,0-1.6,0C459.2,440.4,459.2,440.4,460,440.4z M456.8,440.4
	c-0.8,0-0.8,0-1.6,0C456,441.2,456.8,441.2,456.8,440.4z M453.6,441.2c-0.8,0-1.6,0-1.6,0C452.8,441.2,453.6,441.2,453.6,441.2z
	 M450.4,441.2c-0.8,0-1.6,0-2.4,0C449.6,442,450.4,442,450.4,441.2z M408.8,438L408.8,438L408.8,438z M372.8,450.8
	c0.8,0,2.4,0,3.2,0C375.2,450.8,374.4,450.8,372.8,450.8z M349.6,455.6L349.6,455.6L349.6,455.6z M351.2,454.8L351.2,454.8
	L351.2,454.8z M353.6,454L353.6,454L353.6,454z M355.2,454h0.8C356,454,356,454,355.2,454z M358.4,453.2c0,0,0.8,0,1.6,0
	C359.2,453.2,358.4,453.2,358.4,453.2z M360.8,453.2c0.8,0,0.8,0,1.6,0C361.6,452.4,361.6,452.4,360.8,453.2z M364,452.4
	c0.8,0,0.8,0,1.6,0C364.8,452.4,364,452.4,364,452.4z M366.4,451.6c0.8,0,1.6,0,1.6,0S367.2,451.6,366.4,451.6z M369.6,451.6
	c0.8,0,1.6,0,2.4,0C371.2,451.6,370.4,451.6,369.6,451.6z"/>
<path style="fill:#AD361A;" d="M342.4,459.6c0,3.2,16,5.6,35.2,4c14.4-0.8,26.4-4,32-6.4L408,438c-4.8,2.4-17.6,5.6-32,6.4
	c-15.2,0.8-28.8,0-33.6-2.4c-0.8,1.6-1.6,3.2-1.6,4.8l0.8,10.4C341.6,458,341.6,458.8,342.4,459.6
	C342.4,459.6,342.4,459.6,342.4,459.6z"/>
<g>
	<path style="fill:#ED8A72;" d="M376.8,452.4c16.8-1.6,30.4-4.8,33.6-7.2l0,0c2.4-3.2,16.8-6.4,33.6-8c19.2-1.6,35.2,0,35.2,4v0.8
		l0,0c0.8,0.8,0.8,1.6,0.8,2.4v-4c0-0.8,0-4-0.8-4l0,0v0.8c0-3.2-16-4.8-35.2-3.2c-16.8,1.6-31.2,4.8-33.6,8l0,0
		c-3.2,3.2-16.8,6.4-33.6,8c-15.2,0.8-28.8,0-33.6-1.6c-0.8,1.6-1.6,2.4-1.6,4v2.4c0-1.6,0.8-2.4,1.6-4
		C348,452.4,360.8,453.2,376.8,452.4z"/>
	<path style="fill:#ED8A72;" d="M376.8,458.8c16.8-1.6,30.4-4.8,33.6-7.2l0,0c2.4-3.2,16.8-6.4,33.6-8c19.2-1.6,35.2,0,35.2,4v0.8
		l0,0c0.8,0.8-0.8,1.6,0,2.4l0.8-3.2c0-0.8,0-3.2-0.8-3.2l0,0c0,0,0,0.8,0,0c0-3.2-16-4.8-35.2-3.2c-16.8,1.6-31.2,4.8-33.6,8l0,0
		c-3.2,3.2-16.8,6.4-33.6,8c-15.2,0.8-28.8,0-33.6-1.6c-0.8,1.6-1.6,2.4-1.6,4l0.8,1.6c0-1.6,0.8-0.8,1.6-3.2
		C348,458.8,361.6,460.4,376.8,458.8z"/>
</g>
<circle style="fill:#E06027;" cx="156.8" cy="414.8" r="8"/>
<circle style="fill:#FF855A;" cx="157.6" cy="413.2" r="6.4"/>
<circle style="fill:#E06027;" cx="112.8" cy="476.4" r="8"/>
<circle style="fill:#FF855A;" cx="112" cy="474.8" r="6.4"/>
<path style="fill:#77003C;" d="M152,436.4c-8-3.2-16.8,0-19.2,7.2c-2.4,5.6,2.4,7.2,8.8,9.6c-0.8,0.8-1.6,2.4-1.6,3.2
	c-1.6,4.8,0.8,4,3.2,4.8s4,3.2,5.6-1.6c0.8-1.6,0.8-2.4,0.8-4c6.4,2.4,10.4,4.8,12.8-0.8C164.8,447.6,160,439.6,152,436.4z"/>
<path style="fill:#440029;" d="M139.2,456.4c-1.6,4.8,0.8,4,3.2,4.8s4,3.2,5.6-1.6c0.8-1.6,0.8-2.4,0.8-4c6.4,2.4,10.4,4.8,12.8-0.8
	c2.4-7.2-2.4-15.2-10.4-18.4"/>
<path style="fill:#74B208;" d="M177.6,478c0-2.4-0.8-4.8-3.2-5.6c-2.4-0.8-4.8,0.8-5.6,2.4c-2.4-0.8-4.8,0.8-5.6,3.2
	c-0.8,2.4,0.8,5.6,3.2,6.4c1.6,0.8,4,0,4.8-1.6c0,1.6,1.6,3.2,3.2,4c2.4,0.8,5.6-0.8,6.4-3.2C181.6,481.2,180,478.8,177.6,478z"/>
<g>
	<path style="fill:#52A305;" d="M165.6,484.4c1.6,0.8,4,0,4.8-1.6c0,1.6,1.6,3.2,3.2,4c2.4,0.8,5.6-0.8,6.4-3.2
		c0.8-2.4-0.8-4.8-3.2-6.4"/>
	<path style="fill:#52A305;" d="M171.2,482.8c0,1.6,1.6,3.2,3.2,4c2.4,0.8,5.6-0.8,6.4-3.2c0.8-2.4-0.8-4.8-3.2-6.4
		c0-2.4-0.8-4.8-3.2-5.6"/>
</g>
<g>
	
		<ellipse transform="matrix(-0.3376 -0.9413 0.9413 -0.3376 -226.4817 794.959)" style="fill:#9CD827;" cx="166.473" cy="477.169" rx="0.8" ry="1.6"/>
	
		<ellipse transform="matrix(-0.337 -0.9415 0.9415 -0.337 -216.0957 795.6578)" style="fill:#9CD827;" cx="172.1" cy="473.915" rx="0.8" ry="1.6"/>
</g>
<path style="fill:#C95039;" d="M46.4,482c0,0.8,0,0.8,0.8,1.6c4,4.8,19.2-2.4,33.6-14.4c12-11.2,20-22.4,19.2-28.8l0,0
	c-0.8-5.6,6.4-18.4,19.2-29.6c12-10.4,24-16.8,29.6-16c0-3.2-1.6-4-3.2-6.4l-11.2-13.6c0-1.6-1.6-2.4-1.6-3.2l0,0
	c0-0.8-0.8-0.8-0.8-1.6c-4-4.8-19.2,2.4-33.6,14.4c-12.8,11.2-20.8,24-20,29.6l0,0c0.8,6.4-7.2,17.6-19.2,28.8
	c-12,10.4-24,16.8-29.6,16c0,2.4,1.6,4,3.2,6.4l12,13.6C44.8,480.4,45.6,481.2,46.4,482z M100,438L100,438L100,438z M115.2,399.6
	c-0.8,0.8-1.6,1.6-2.4,2.4C113.6,401.2,114.4,400.4,115.2,399.6z M130.4,380.4L130.4,380.4L130.4,380.4z M129.6,382
	C129.6,382,128.8,382.8,129.6,382C128.8,382.8,129.6,382,129.6,382z M128,384.4L128,384.4L128,384.4z M127.2,386c0,0,0,0.8-0.8,0.8
	C126.4,386.8,126.4,386,127.2,386z M125.6,388.4l-0.8,0.8C124.8,388.4,124.8,388.4,125.6,388.4z M124,390l-0.8,0.8
	C123.2,390.8,123.2,390.8,124,390z M121.6,392.4c0,0.8-0.8,0.8-0.8,1.6C120.8,393.2,121.6,393.2,121.6,392.4z M120,394.8
	c-0.8,0.8-0.8,0.8-1.6,1.6C119.2,395.6,119.2,395.6,120,394.8z M117.6,397.2c-0.8,0.8-0.8,0.8-1.6,1.6
	C116.8,398,116.8,398,117.6,397.2z M78.4,415.6c0,0,0,0.8,0.8,0.8C79.2,416.4,79.2,415.6,78.4,415.6z M63.2,454
	c0.8-0.8,1.6-1.6,2.4-2.4C64.8,452.4,64,453.2,63.2,454z M48,473.2C48,473.2,48,472.4,48,473.2C48,472.4,48,473.2,48,473.2z
	 M48.8,471.6C49.6,470.8,49.6,470.8,48.8,471.6C49.6,470.8,49.6,470.8,48.8,471.6z M50.4,469.2L50.4,469.2L50.4,469.2z M52,467.6
	c0,0,0-0.8,0.8-0.8C52,466.8,52,466.8,52,467.6z M52.8,465.2l0.8-0.8C53.6,464.4,53.6,465.2,52.8,465.2z M55.2,462.8L56,462
	C55.2,462,55.2,462.8,55.2,462.8z M56.8,460.4c0,0,0.8-0.8,0.8-1.6C57.6,459.6,56.8,460.4,56.8,460.4z M59.2,458.8
	c0.8-0.8,0.8-0.8,1.6-1.6C60,457.2,59.2,458,59.2,458.8z M60.8,456.4c0.8-0.8,0.8-0.8,1.6-1.6C62.4,454.8,61.6,455.6,60.8,456.4z"/>
<path style="fill:#AD361A;" d="M47.2,482.8c4,4.8,19.2-2.4,33.6-14.4c10.4-9.6,18.4-20,19.2-26.4l-21.6-24.8
	c-1.6,6.4-8.8,16.8-19.2,26.4c-12,10.4-24,16.8-29.6,16c0,2.4,1.6,4,3.2,6.4l12,13.6c0.8,0.8,1.6,1.6,3.2,2.4
	C47.2,482,47.2,482.8,47.2,482.8z"/>
<g>
	<path style="fill:#ED8A72;" d="M66.4,453.2c12-11.2,18.4-23.2,18.4-28.8l0,0c0-5.6,8-18.4,20.8-29.6c14.4-12.8,29.6-19.2,34.4-14.4
		c0,0,1.6,0.8,1.6,1.6l0,0c0,0.8,2.4,1.6,3.2,2.4l-4-4c-0.8-0.8-1.6-1.6-3.2-2.4l0,0c0-0.8,0-0.8-0.8-1.6c-4-4.8-19.2,2.4-33.6,14.4
		C90.4,402,82.4,414,84,420.4l0,0c0.8,6.4-7.2,17.6-19.2,28.8c-12,10.4-24,16.8-29.6,16c0,2.4,1.6,4,3.2,6.4l1.6,4
		c-1.6-1.6-3.2-4-3.2-6.4C43.2,470,54.4,463.6,66.4,453.2z"/>
	<path style="fill:#ED8A72;" d="M75.2,462c12-11.2,20-23.2,19.2-28.8l0,0c-0.8-5.6,6.4-18.4,19.2-29.6C128,390.8,144,385.2,148,390
		c0,0,0-0.8,0,0l0,0c0,0.8,0,1.6,0.8,2.4v-3.2c0.8-0.8,0-1.6,0-2.4l0,0c0-0.8-2.4-0.8-2.4-1.6c-4-4.8-20,2.4-34.4,14.4
		c-12.8,11.2-20.8,23.2-20,29.6l0,0c0.8,6.4-7.2,18.4-20,29.6c-12,10.4-24,16.8-30.4,16c0,2.4,1.6,4,3.2,6.4l1.6,0.8
		c-1.6-2.4-0.8-1.6-1.6-4C51.2,478.8,63.2,472.4,75.2,462z"/>
</g>
<path style="fill:#77003C;" d="M366.4,398c-8.8,2.4-14.4,9.6-12,16.8c1.6,6.4,6.4,4.8,12.8,2.4c0,1.6,0,2.4,0.8,4
	c0.8,4.8,3.2,3.2,5.6,2.4c2.4-0.8,4.8,0,4-4.8c0-1.6-0.8-2.4-1.6-4c6.4-1.6,11.2-2.4,10.4-8C383.2,400.4,374.4,396.4,366.4,398z"/>
<path style="fill:#440029;" d="M367.2,421.2c0.8,4.8,3.2,3.2,5.6,2.4c2.4-0.8,4.8,0,4-4.8c0-1.6-0.8-2.4-1.6-4
	c6.4-1.6,11.2-2.4,10.4-8c-1.6-7.2-10.4-11.2-18.4-9.6"/>
<polygon style="fill:#FFE36E;" points="402.4,378.8 388,364.4 381.6,383.6 "/>
<polygon style="fill:#FFCF03;" points="402.4,378.8 388,364.4 390.4,382 "/>
<g>
</g>
<g>
</g>
<g>
</g>
<g>
</g>
<g>
</g>
<g>
</g>
<g>
</g>
<g>
</g>
<g>
</g>
<g>
</g>
<g>
</g>
<g>
</g>
<g>
</g>
<g>
</g>
<g>
</g>
</svg>
