<?xml version="1.0" encoding="iso-8859-1"?>
<!-- Generator: Adobe Illustrator 19.0.0, SVG Export Plug-In . SVG Version: 6.00 Build 0)  -->
<svg version="1.1" id="Layer_1" xmlns="http://www.w3.org/2000/svg" xmlns:xlink="http://www.w3.org/1999/xlink" x="0px" y="0px"
	 viewBox="0 0 498.504 498.504" style="enable-background:new 0 0 498.504 498.504;" xml:space="preserve">
<polygon style="fill:#2D9EAA;" points="356.452,498.504 142.052,498.504 53.252,242.504 445.252,242.504 "/>
<polyline style="fill:#18899B;" points="57.252,242.504 445.252,242.504 356.452,498.504 "/>
<polygon style="fill:#99CCCE;" points="322.852,498.504 175.652,498.504 115.652,242.504 382.852,242.504 "/>
<polyline style="fill:#88BCBC;" points="121.252,242.504 382.852,242.504 322.852,498.504 "/>
<polygon style="fill:#18899B;" points="278.052,498.504 220.452,498.504 197.252,242.504 301.252,242.504 "/>
<polyline style="fill:#2D9EAA;" points="273.252,498.504 220.452,498.504 197.252,242.504 "/>
<polygon style="fill:#0A6077;" points="445.252,242.504 53.252,242.504 80.452,185.704 418.852,186.504 "/>
<polygon style="fill:#02445B;" points="401.252,242.504 97.252,242.504 79.652,186.504 418.852,186.504 "/>
<polygon style="fill:#EFD27F;" points="305.252,426.504 193.252,426.504 175.652,314.504 322.852,314.504 "/>
<polyline style="fill:#E2B544;" points="177.252,314.504 322.852,314.504 306.852,421.704 "/>
<g>
	<circle style="fill:#0A6077;" cx="201.252" cy="335.304" r="6.4"/>
	<circle style="fill:#0A6077;" cx="225.252" cy="335.304" r="6.4"/>
	<circle style="fill:#0A6077;" cx="249.252" cy="335.304" r="6.4"/>
	<circle style="fill:#0A6077;" cx="273.252" cy="335.304" r="6.4"/>
	<circle style="fill:#0A6077;" cx="297.252" cy="335.304" r="6.4"/>
	<path style="fill:#0A6077;" d="M212.452,411.304c0,3.2-2.4,5.6-5.6,5.6c-3.2,0-5.6-2.4-5.6-5.6s2.4-5.6,5.6-5.6
		C210.052,405.704,212.452,408.104,212.452,411.304z"/>
	<circle style="fill:#0A6077;" cx="228.452" cy="411.304" r="5.6"/>
	<circle style="fill:#0A6077;" cx="249.252" cy="411.304" r="5.6"/>
	<circle style="fill:#0A6077;" cx="270.052" cy="411.304" r="5.6"/>
	<circle style="fill:#0A6077;" cx="291.652" cy="411.304" r="5.6"/>
</g>
<path style="fill:#EFD27F;" d="M182.852,179.304c-4.8-9.6-15.2-14.4-25.6-11.2c-10.4,3.2-16.8,12.8-15.2,24
	c-10.4,4-16.8,15.2-13.6,26.4s15.2,18.4,27.2,14.4c8.8-2.4,14.4-9.6,15.2-18.4c5.6,6.4,14.4,9.6,23.2,7.2
	c11.2-3.2,18.4-15.2,14.4-27.2C205.252,182.504,194.052,176.104,182.852,179.304z"/>
<g>
	<path style="fill:#E2B544;" d="M155.652,232.104c8.8-2.4,14.4-9.6,15.2-18.4c5.6,6.4,14.4,9.6,23.2,7.2
		c11.2-3.2,18.4-15.2,14.4-27.2c-3.2-11.2-14.4-17.6-25.6-15.2"/>
	<path style="fill:#E2B544;" d="M170.852,213.704c5.6,6.4,14.4,9.6,23.2,7.2c11.2-3.2,18.4-15.2,14.4-27.2
		c-3.2-11.2-14.4-17.6-25.6-15.2c-4.8-9.6-15.2-14.4-25.6-11.2"/>
</g>
<g>
	<path style="fill:#FFF0B0;" d="M144.452,196.904c1.6,1.6,0.8,4.8-1.6,8.8c-2.4,3.2-6.4,5.6-8,4s-0.8-4.8,1.6-8.8
		S142.852,195.304,144.452,196.904z"/>
	<path style="fill:#FFF0B0;" d="M155.652,172.104c1.6,0.8,0.8,4-1.6,7.2c-2.4,3.2-5.6,4.8-6.4,3.2c-1.6-0.8-0.8-4,1.6-7.2
		C151.652,172.904,154.052,171.304,155.652,172.104z"/>
</g>
<path style="fill:#EFD27F;" d="M374.052,24.104c0.8-10.4-5.6-20.8-16-23.2c-10.4-3.2-20.8,2.4-25.6,12c-11.2-2.4-22.4,4.8-25.6,15.2
	c-3.2,12,4,23.2,15.2,26.4c8.8,2.4,17.6-0.8,22.4-7.2c1.6,8,7.2,15.2,16,17.6c12,3.2,24-4,26.4-15.2
	C391.652,39.304,385.252,28.104,374.052,24.104z"/>
<g>
	<path style="fill:#E2B544;" d="M322.852,55.304c8.8,2.4,17.6-0.8,22.4-7.2c1.6,8,7.2,15.2,16,17.6c12,3.2,24-4,26.4-15.2
		c3.2-11.2-3.2-22.4-13.6-26.4"/>
	<path style="fill:#E2B544;" d="M346.052,48.104c1.6,8,7.2,15.2,16,17.6c12,3.2,24-4,26.4-15.2c3.2-11.2-3.2-22.4-13.6-26.4
		c0.8-10.4-5.6-20.8-16-23.2"/>
</g>
<g>
	<path style="fill:#FFF0B0;" d="M332.452,18.504c0.8,1.6-2.4,4.8-6.4,6.4s-8,1.6-8.8-0.8c-0.8-1.6,2.4-4.8,6.4-6.4
		C327.652,16.904,331.652,16.904,332.452,18.504z"/>
	<path style="fill:#FFF0B0;" d="M354.852,4.104c0.8,1.6-1.6,4-5.6,5.6c-3.2,1.6-7.2,0.8-8-0.8s1.6-4,5.6-5.6
		C350.852,2.504,354.052,2.504,354.852,4.104z"/>
</g>
<path style="fill:#EFD27F;" d="M237.252,20.104c-4-6.4-12-8.8-19.2-6.4c-7.2,3.2-10.4,10.4-8.8,17.6c-7.2,3.2-10.4,12-7.2,20
	s12,11.2,20,8c5.6-2.4,9.6-8,9.6-14.4c4,4,11.2,5.6,16.8,3.2c8-3.2,11.2-12,8-20C253.252,20.904,244.452,17.704,237.252,20.104z"/>
<g>
	<path style="fill:#E2B544;" d="M222.052,59.304c5.6-2.4,9.6-8,9.6-14.4c4,4,11.2,5.6,16.8,3.2c8-3.2,11.2-12,8-20
		c-3.2-7.2-11.2-11.2-19.2-8.8"/>
	<path style="fill:#E2B544;" d="M230.852,45.704c4,4,11.2,5.6,16.8,3.2c8-3.2,11.2-12,8-20c-3.2-7.2-11.2-11.2-19.2-8.8
		c-3.2-6.4-11.2-8.8-18.4-6.4"/>
</g>
<g>
	
		<ellipse transform="matrix(-0.8582 -0.5133 0.5133 -0.8582 366.2299 181.0416)" style="fill:#FFF0B0;" cx="208.12" cy="39.938" rx="2.4" ry="5.6"/>
	<path style="fill:#FFF0B0;" d="M217.252,17.704c0.8,0.8,0.8,3.2-0.8,5.6s-3.2,4-4.8,3.2c-0.8-0.8-0.8-3.2,0.8-5.6
		S216.452,16.904,217.252,17.704z"/>
</g>
<path style="fill:#EFD27F;" d="M411.652,152.904c-0.8-6.4-5.6-12-12.8-12c-6.4,0-12.8,4-13.6,10.4c-7.2,0-12.8,5.6-13.6,12.8
	c-0.8,7.2,5.6,13.6,12.8,14.4c5.6,0,10.4-2.4,12.8-7.2c1.6,4.8,6.4,8.8,12,8.8c7.2,0.8,13.6-5.6,14.4-12.8
	C423.652,160.104,418.852,153.704,411.652,152.904z"/>
<g>
	<path style="fill:#E2B544;" d="M384.452,177.704c5.6,0,10.4-2.4,12.8-7.2c1.6,4.8,6.4,8.8,12,8.8c7.2,0.8,13.6-5.6,14.4-12.8
		s-4.8-12.8-12-14.4"/>
	<path style="fill:#E2B544;" d="M397.252,170.504c1.6,4.8,6.4,8.8,12,8.8c7.2,0.8,13.6-5.6,14.4-12.8s-4.8-12.8-12-14.4
		c-0.8-6.4-5.6-12-12.8-12"/>
</g>
<g>
	<path style="fill:#FFF0B0;" d="M385.252,155.304c0.8,0.8-0.8,3.2-3.2,4.8c-2.4,1.6-4.8,1.6-5.6,0.8c-0.8-0.8,0.8-3.2,3.2-4.8
		C382.052,154.504,384.452,153.704,385.252,155.304z"/>
	<path style="fill:#FFF0B0;" d="M397.252,143.304c0.8,0.8-0.8,2.4-2.4,4s-4,1.6-4.8,0.8s0.8-2.4,2.4-4
		C394.852,142.504,396.452,142.504,397.252,143.304z"/>
</g>
<path style="fill:#EFD27F;" d="M266.852,202.504c-0.8-6.4-5.6-12-12.8-12c-6.4,0-12.8,4-13.6,10.4c-7.2,0-12.8,5.6-13.6,12.8
	s5.6,13.6,12.8,14.4c5.6,0,10.4-2.4,12.8-7.2c1.6,4.8,6.4,8.8,12,8.8c7.2,0.8,13.6-5.6,14.4-12.8
	C278.852,209.704,274.052,203.304,266.852,202.504z"/>
<g>
	<path style="fill:#E2B544;" d="M239.652,227.304c5.6,0,10.4-2.4,12.8-7.2c1.6,4.8,6.4,8.8,12,8.8c7.2,0.8,13.6-5.6,14.4-12.8
		s-4.8-12.8-12-14.4"/>
	<path style="fill:#E2B544;" d="M252.452,220.104c1.6,4.8,6.4,8.8,12,8.8c7.2,0.8,13.6-5.6,14.4-12.8s-4.8-12.8-12-14.4
		c-0.8-6.4-5.6-12-12.8-12"/>
</g>
<g>
	
		<ellipse transform="matrix(-0.547 -0.8371 0.8371 -0.547 192.2241 518.8495)" style="fill:#FFF0B0;" cx="236.492" cy="207.416" rx="2.4" ry="4.8"/>
	<path style="fill:#FFF0B0;" d="M252.452,192.904c0.8,0.8-0.8,2.4-2.4,4s-4,1.6-4.8,0.8s0.8-2.4,2.4-4
		C250.052,192.104,252.452,192.104,252.452,192.904z"/>
</g>
<path style="fill:#EFD27F;" d="M383.652,101.704c-0.8-6.4-5.6-12-12.8-12c-6.4,0-12.8,4-13.6,10.4c-7.2,0-12.8,5.6-13.6,12.8
	c-0.8,7.2,5.6,13.6,12.8,14.4c5.6,0,10.4-2.4,12.8-7.2c1.6,4.8,6.4,8.8,12,8.8c7.2,0.8,13.6-5.6,14.4-12.8
	C396.452,108.904,390.852,102.504,383.652,101.704z"/>
<g>
	<path style="fill:#E2B544;" d="M357.252,126.504c5.6,0,10.4-2.4,12.8-7.2c1.6,4.8,6.4,8.8,12,8.8c7.2,0.8,13.6-5.6,14.4-12.8
		s-4.8-12.8-12-14.4"/>
	<path style="fill:#E2B544;" d="M370.052,119.304c1.6,4.8,6.4,8.8,12,8.8c7.2,0.8,13.6-5.6,14.4-12.8s-4.8-12.8-12-14.4
		c-0.8-6.4-5.6-12-12.8-12"/>
</g>
<g>
	<path style="fill:#FFF0B0;" d="M358.052,104.104c0.8,0.8-0.8,3.2-3.2,4.8c-2.4,1.6-4.8,1.6-5.6,0.8c-0.8-0.8,0.8-3.2,3.2-4.8
		C354.852,103.304,357.252,102.504,358.052,104.104z"/>
	<path style="fill:#FFF0B0;" d="M369.252,92.104c0.8,0.8-0.8,2.4-2.4,4s-4,1.6-4.8,0.8c-0.8-0.8,0.8-2.4,2.4-4
		C366.852,91.304,369.252,91.304,369.252,92.104z"/>
</g>
<path style="fill:#EFD27F;" d="M228.452,86.504c-0.8-4-4-8-8-8c-4.8,0-8,2.4-8.8,7.2c-4.8,0-8.8,4-8.8,8c0,4.8,3.2,8.8,8,9.6
	c4,0,7.2-1.6,8.8-4.8c0.8,3.2,4,5.6,8,5.6c4.8,0,8.8-3.2,9.6-8C236.452,91.304,232.452,87.304,228.452,86.504z"/>
<g>
	<path style="fill:#E2B544;" d="M210.052,103.304c4,0,7.2-1.6,8.8-4.8c0.8,3.2,4,5.6,8,5.6c4.8,0,8.8-3.2,9.6-8c0-4.8-3.2-8.8-8-9.6
		"/>
	<path style="fill:#E2B544;" d="M218.852,98.504c0.8,3.2,4,5.6,8,5.6c4.8,0,8.8-3.2,9.6-8c0-4.8-3.2-8.8-8-9.6c-0.8-4-4-8-8-8"/>
</g>
<g>
	<path style="fill:#FFF0B0;" d="M210.852,88.104c0.8,0.8-0.8,2.4-1.6,3.2c-1.6,0.8-3.2,1.6-3.2,0.8c-0.8-0.8,0-2.4,1.6-3.2
		C208.452,87.304,210.052,87.304,210.852,88.104z"/>
	<path style="fill:#FFF0B0;" d="M218.852,80.104c0.8,0.8,0,1.6-1.6,2.4s-2.4,0.8-3.2,0.8c0-0.8,0-1.6,1.6-2.4
		C217.252,80.104,218.052,79.304,218.852,80.104z"/>
</g>
<path style="fill:#EFD27F;" d="M330.852,138.504c-0.8-4-4-8-8-8s-8,2.4-8.8,7.2c-4.8,0-8.8,4-8.8,8c0,4.8,3.2,8.8,8,9.6
	c4,0,7.2-1.6,8.8-4.8c0.8,3.2,4,5.6,8,5.6c4.8,0,8.8-3.2,9.6-8C338.852,142.504,335.652,138.504,330.852,138.504z"/>
<g>
	<path style="fill:#E2B544;" d="M313.252,155.304c4,0,7.2-1.6,8.8-4.8c0.8,3.2,4,5.6,8,5.6c4.8,0,8.8-3.2,9.6-8c0-4.8-3.2-8.8-8-9.6
		"/>
	<path style="fill:#E2B544;" d="M321.252,149.704c0.8,3.2,4,5.6,8,5.6c4.8,0,8.8-3.2,9.6-8c0-4.8-3.2-8.8-8-9.6c-0.8-4-4-8-8-8"/>
</g>
<g>
	<path style="fill:#FFF0B0;" d="M313.252,139.304c0.8,0.8-0.8,2.4-1.6,3.2c-1.6,0.8-3.2,1.6-3.2,0.8c-0.8-0.8,0.8-2.4,1.6-3.2
		C311.652,139.304,313.252,139.304,313.252,139.304z"/>
	<path style="fill:#FFF0B0;" d="M321.252,132.104c0.8,0.8,0,1.6-1.6,2.4c-1.6,0.8-2.4,0.8-3.2,0.8c0-0.8,0-1.6,1.6-2.4
		C319.652,131.304,321.252,131.304,321.252,132.104z"/>
</g>
<path style="fill:#EFD27F;" d="M125.252,144.904c-4-6.4-12-9.6-18.4-6.4c-7.2,3.2-10.4,10.4-8.8,17.6c-7.2,3.2-10.4,12-7.2,20
	c3.2,8,12,11.2,20,8c5.6-2.4,9.6-8,9.6-14.4c4,4,10.4,5.6,16.8,3.2c8-3.2,11.2-12,8-20
	C141.252,145.704,133.252,142.504,125.252,144.904z"/>
<g>
	<path style="fill:#E2B544;" d="M110.052,184.104c5.6-2.4,9.6-8,9.6-14.4c4,4,10.4,5.6,16.8,3.2c8-3.2,11.2-12,8-20
		c-3.2-7.2-11.2-11.2-19.2-8.8"/>
	<path style="fill:#E2B544;" d="M119.652,170.504c4,4,10.4,5.6,16.8,3.2c8-3.2,11.2-12,8-20c-3.2-7.2-11.2-11.2-19.2-8.8
		c-4-6.4-12-9.6-18.4-6.4"/>
</g>
<g>
	<path style="fill:#FFF0B0;" d="M99.652,160.104c1.6,0.8,0.8,3.2-0.8,6.4c-1.6,2.4-4,4-4.8,3.2c-1.6-0.8-0.8-3.2,0.8-6.4
		C95.652,160.904,98.052,159.304,99.652,160.104z"/>
	<path style="fill:#FFF0B0;" d="M106.052,142.504c0.8,0.8,0.8,3.2-0.8,5.6c-1.6,2.4-3.2,4-4.8,3.2c-0.8-0.8-0.8-3.2,0.8-5.6
		C102.852,143.304,105.252,141.704,106.052,142.504z"/>
</g>
<path style="fill:#EFD27F;" d="M258.852,132.104c-2.4-10.4-12-17.6-23.2-16c-10.4,0.8-19.2,9.6-20,20c-11.2,1.6-19.2,12-18.4,23.2
	c0.8,12,12,20.8,24,20c8.8-0.8,16-7.2,18.4-14.4c4,7.2,12,12,20.8,11.2c12-0.8,20.8-12,20-24
	C279.652,140.104,270.052,132.104,258.852,132.104z"/>
<g>
	<path style="fill:#E2B544;" d="M221.252,179.304c8.8-0.8,16-7.2,18.4-14.4c4,7.2,12,12,20.8,11.2c12-0.8,20.8-12,20-24
		c-0.8-11.2-10.4-20-22.4-20"/>
	<path style="fill:#E2B544;" d="M239.652,164.104c4,7.2,12,12,20.8,11.2c12-0.8,20.8-12,20-24c-0.8-11.2-10.4-20-22.4-20
		c-2.4-10.4-12-17.6-23.2-16"/>
</g>
<g>
	<path style="fill:#FFF0B0;" d="M217.252,141.704c1.6,1.6,0,4.8-3.2,8s-7.2,4-8.8,2.4s0-4.8,4-8
		C212.452,140.904,215.652,140.104,217.252,141.704z"/>
	<path style="fill:#FFF0B0;" d="M233.252,120.104c1.6,1.6,0,4.8-3.2,7.2c-3.2,2.4-6.4,3.2-7.2,2.4c-0.8-1.6,0-4.8,3.2-7.2
		C229.252,120.104,232.452,119.304,233.252,120.104z"/>
</g>
<path style="fill:#EFD27F;" d="M315.652,75.304c0-10.4-8-19.2-19.2-20.8c-10.4-1.6-20.8,5.6-23.2,15.2c-11.2-0.8-21.6,7.2-23.2,19.2
	s7.2,23.2,19.2,24.8c8.8,0.8,16.8-3.2,21.6-10.4c2.4,8,9.6,14.4,18.4,15.2c12,1.6,23.2-7.2,24.8-19.2
	C334.052,87.304,326.852,76.904,315.652,75.304z"/>
<g>
	<path style="fill:#E2B544;" d="M268.452,112.904c8.8,0.8,16.8-3.2,21.6-10.4c2.4,8,9.6,14.4,18.4,15.2c12,1.6,23.2-7.2,24.8-19.2
		c1.6-11.2-6.4-21.6-17.6-24"/>
	<path style="fill:#E2B544;" d="M290.052,102.504c2.4,8,9.6,14.4,18.4,15.2c12,1.6,23.2-7.2,24.8-19.2c1.6-11.2-6.4-21.6-17.6-24
		c0-10.4-8-19.2-19.2-20.8"/>
</g>
<g>
	<path style="fill:#FFF0B0;" d="M272.452,75.304c0.8,1.6-1.6,4.8-5.6,7.2c-4,2.4-8,2.4-8.8,0.8s1.6-4.8,5.6-7.2
		C267.652,73.704,271.652,73.704,272.452,75.304z"/>
	<path style="fill:#FFF0B0;" d="M293.252,58.504c0.8,1.6-0.8,4-4.8,6.4c-3.2,1.6-6.4,1.6-7.2,0c-0.8-1.6,0.8-4,4.8-6.4
		C289.252,56.904,292.452,56.904,293.252,58.504z"/>
</g>
<path style="fill:#EFD27F;" d="M359.652,184.104c0-10.4-8-19.2-19.2-20.8c-10.4-1.6-20.8,5.6-23.2,15.2
	c-11.2-0.8-21.6,7.2-23.2,19.2s7.2,23.2,18.4,24.8c8.8,0.8,16.8-3.2,21.6-10.4c2.4,8,9.6,14.4,18.4,15.2c12,1.6,23.2-7.2,24.8-18.4
	C378.052,196.104,370.852,185.704,359.652,184.104z"/>
<g>
	<path style="fill:#E2B544;" d="M312.452,221.704c8.8,0.8,16.8-3.2,21.6-10.4c2.4,8,9.6,14.4,18.4,15.2c12,1.6,23.2-7.2,24.8-18.4
		c1.6-11.2-6.4-21.6-17.6-24"/>
	<path style="fill:#E2B544;" d="M334.052,211.304c2.4,8,9.6,14.4,18.4,15.2c12,1.6,23.2-7.2,24.8-18.4c1.6-11.2-6.4-21.6-17.6-24
		c0-10.4-8-19.2-19.2-20.8"/>
</g>
<g>
	<path style="fill:#FFF0B0;" d="M317.252,184.104c0.8,1.6-1.6,4.8-5.6,7.2s-8,2.4-8.8,0.8c-0.8-1.6,1.6-4.8,5.6-7.2
		C311.652,182.504,315.652,182.504,317.252,184.104z"/>
	<path style="fill:#FFF0B0;" d="M337.252,166.504c0.8,1.6-0.8,4-4.8,6.4c-3.2,1.6-6.4,2.4-7.2,0.8c-0.8-1.6,0.8-4,4.8-6.4
		C333.252,165.704,336.452,164.904,337.252,166.504z"/>
</g>
<path style="fill:#EFD27F;" d="M173.252,84.904c0-10.4-8-19.2-19.2-20.8c-10.4-1.6-20.8,5.6-23.2,15.2c-11.2-0.8-21.6,7.2-23.2,19.2
	s7.2,23.2,19.2,24.8c8.8,0.8,16.8-3.2,21.6-10.4c2.4,8,9.6,14.4,18.4,15.2c12,1.6,23.2-7.2,24.8-18.4
	C191.652,97.704,184.452,87.304,173.252,84.904z"/>
<g>
	<path style="fill:#E2B544;" d="M126.052,122.504c8.8,0.8,16.8-3.2,21.6-10.4c2.4,8,9.6,14.4,18.4,15.2c12,1.6,23.2-7.2,24.8-18.4
		s-6.4-21.6-17.6-24"/>
	<path style="fill:#E2B544;" d="M147.652,112.104c2.4,8,9.6,14.4,18.4,15.2c12,1.6,23.2-7.2,24.8-18.4s-6.4-21.6-17.6-24
		c0-10.4-8-19.2-19.2-20.8"/>
</g>
<g>
	<path style="fill:#FFF0B0;" d="M130.052,85.704c0.8,1.6-1.6,4.8-5.6,7.2c-4,2.4-8,2.4-8.8,0.8s1.6-4.8,5.6-7.2
		C125.252,84.104,129.252,83.304,130.052,85.704z"/>
	<path style="fill:#FFF0B0;" d="M150.852,68.104c0.8,1.6-0.8,4-4.8,6.4c-3.2,1.6-6.4,2.4-8,0.8c-0.8-1.6,0.8-4,4.8-6.4
		S150.052,66.504,150.852,68.104z"/>
</g>
<g>
</g>
<g>
</g>
<g>
</g>
<g>
</g>
<g>
</g>
<g>
</g>
<g>
</g>
<g>
</g>
<g>
</g>
<g>
</g>
<g>
</g>
<g>
</g>
<g>
</g>
<g>
</g>
<g>
</g>
</svg>
