<?xml version="1.0" encoding="iso-8859-1"?>
<!-- Generator: Adobe Illustrator 18.0.0, SVG Export Plug-In . SVG Version: 6.00 Build 0)  -->
<!DOCTYPE svg PUBLIC "-//W3C//DTD SVG 1.1//EN" "http://www.w3.org/Graphics/SVG/1.1/DTD/svg11.dtd">
<svg version="1.1" id="Capa_1" xmlns="http://www.w3.org/2000/svg" xmlns:xlink="http://www.w3.org/1999/xlink" x="0px" y="0px"
	 viewBox="0 0 118.125 118.125" style="enable-background:new 0 0 118.125 118.125;" xml:space="preserve">
<g>
	<path d="M82.27,45.002c-1.892,0.63-2.913,2.674-2.283,4.565c0.588,1.762,0.621,3.623,0.093,5.103l-3.277,9.158
		c-1.304,3.648-5.669,7.934-9.342,9.172L22.613,88.117c-1.36,0.458-2.827,0.356-4.128-0.289c-1.302-0.645-2.271-1.749-2.729-3.11
		L7.504,60.24c-0.459-1.361-0.357-2.827,0.289-4.128c0.645-1.302,1.75-2.271,3.11-2.73l44.851-15.118
		c2.69-0.908,6.781-0.751,10.179,0.388c1.893,0.636,3.936-0.385,4.569-2.272c0.635-1.89-0.383-3.935-2.272-4.569
		c-4.923-1.652-10.588-1.8-14.781-0.385L8.599,46.542c-3.188,1.074-5.771,3.334-7.273,6.363c-1.501,3.029-1.736,6.453-0.662,9.64
		l8.252,24.477c1.075,3.188,3.335,5.77,6.363,7.271c1.778,0.881,3.691,1.326,5.614,1.326c1.353,0,2.709-0.221,4.025-0.665
		l44.847-15.117c5.725-1.929,11.801-7.895,13.833-13.58l3.277-9.159c1.077-3.017,1.063-6.502-0.041-9.814
		C86.205,45.393,84.157,44.376,82.27,45.002z"/>
	<path d="M33.103,63.965c2.831-0.956,4.357-4.036,3.402-6.865c-0.743-2.207-2.806-3.689-5.134-3.689
		c-0.588,0-1.171,0.096-1.731,0.285c-2.831,0.955-4.358,4.035-3.404,6.867c0.744,2.206,2.808,3.688,5.136,3.688
		C31.96,64.25,32.542,64.155,33.103,63.965z M29.656,59.409c-0.319-0.946,0.191-1.975,1.137-2.294
		c0.189-0.064,0.384-0.096,0.579-0.096c0.777,0,1.466,0.496,1.714,1.234c0.319,0.945-0.19,1.974-1.136,2.293
		C31.006,60.862,29.966,60.33,29.656,59.409z"/>
	<path d="M47.878,71.533c0.588,0,1.17-0.096,1.73-0.285c1.372-0.462,2.482-1.431,3.125-2.728c0.642-1.296,0.741-2.766,0.279-4.136
		c-0.742-2.207-2.806-3.69-5.134-3.69c-0.588,0-1.171,0.096-1.731,0.285c-1.371,0.462-2.48,1.431-3.123,2.728
		c-0.644,1.297-0.742,2.766-0.28,4.137C43.488,70.05,45.551,71.533,47.878,71.533z M46.258,65.309
		c0.214-0.433,0.585-0.756,1.042-0.911c0.188-0.064,0.384-0.096,0.579-0.096c0.777,0,1.466,0.496,1.714,1.234
		c0.154,0.458,0.122,0.949-0.093,1.381c-0.215,0.433-0.585,0.756-1.045,0.911c-0.932,0.317-1.98-0.214-2.291-1.138
		C46.01,66.233,46.043,65.742,46.258,65.309z"/>
	<path d="M118.081,35.873c-0.603-6.966-7.028-12.162-16.37-13.238c-16.484-1.899-29.644,17.297-33.979,24.521
		c-0.377,0.056-0.751,0.14-1.116,0.263c-3.38,1.139-5.204,4.817-4.066,8.199c0.889,2.635,3.353,4.405,6.132,4.405
		c0.702,0,1.397-0.114,2.067-0.34c3.381-1.14,5.205-4.818,4.065-8.199c-0.144-0.427-0.343-0.822-0.564-1.2
		c4.887-8.038,15.646-21.741,26.634-20.48c5.784,0.666,9.712,3.292,10.006,6.691c0.344,3.964-4.294,9.436-15.428,12.728
		c-1.911,0.565-3.002,2.572-2.438,4.483c0.464,1.57,1.901,2.587,3.459,2.587c0.339,0,0.684-0.048,1.025-0.149
		C113.56,51.4,118.66,42.562,118.081,35.873z M69.851,57.019c-0.38,0.128-0.773,0.193-1.169,0.193c-1.571,0-2.964-1.001-3.466-2.491
		c-0.411-1.219-0.136-2.501,0.608-3.441c-0.076,1.37,0.629,2.723,1.924,3.4c1.605,0.838,3.542,0.341,4.577-1.081
		C72.305,55.107,71.36,56.51,69.851,57.019z"/>
	<path d="M34.104,73.91c0.258,0.127,0.531,0.188,0.801,0.188c0.664,0,1.303-0.368,1.617-1.003l9.799-19.765
		c0.443-0.892,0.078-1.975-0.814-2.418c-0.894-0.442-1.977-0.078-2.418,0.815L33.29,71.492
		C32.847,72.384,33.212,73.467,34.104,73.91z"/>
	<path d="M25.997,78.639c-2.295,0.766-3.337,0.628-3.809,0.379c-0.19-0.1-0.465-0.31-0.652-0.967
		c-0.906-3.168-2.576-8.009-2.647-8.213c-0.324-0.942-1.351-1.442-2.295-1.116c-0.941,0.326-1.441,1.353-1.115,2.295
		c0.017,0.049,1.709,4.953,2.587,8.026c0.523,1.831,1.615,2.733,2.439,3.168c0.847,0.447,1.773,0.612,2.697,0.612
		c1.42,0,2.834-0.392,3.936-0.759c0.945-0.315,1.456-1.337,1.142-2.282C27.965,78.836,26.945,78.324,25.997,78.639z"/>
</g>
<g>
</g>
<g>
</g>
<g>
</g>
<g>
</g>
<g>
</g>
<g>
</g>
<g>
</g>
<g>
</g>
<g>
</g>
<g>
</g>
<g>
</g>
<g>
</g>
<g>
</g>
<g>
</g>
<g>
</g>
</svg>
