<?xml version="1.0" encoding="iso-8859-1"?>
<!-- Generator: Adobe Illustrator 19.0.0, SVG Export Plug-In . SVG Version: 6.00 Build 0)  -->
<svg version="1.1" id="Layer_1" xmlns="http://www.w3.org/2000/svg" xmlns:xlink="http://www.w3.org/1999/xlink" x="0px" y="0px"
	 viewBox="0 0 499.403 499.403" style="enable-background:new 0 0 499.403 499.403;" xml:space="preserve">
<path style="fill:#0F8433;" d="M435.458,63.403c-7.2-6.4-16.8-7.2-24.8-4c2.4-10.4-1.6-21.6-11.2-26.4c-10.4-5.6-23.2-3.2-30.4,5.6
	c0-10.4-7.2-20.8-18.4-23.2c-5.6-1.6-11.2-0.8-15.2,1.6c-5.6-5.6-12-8.8-19.2-10.4c-12-1.6-22.4,4-28.8,12.8
	c-4.8-12.8-17.6-20.8-31.2-19.2c-15.2,1.6-26.4,13.6-27.2,28c-8-11.2-22.4-16-36-11.2c-16,5.6-24,23.2-17.6,39.2l39.2,105.6
	c-16.8,13.6-28,35.2-28,60c0,41.6,32,75.2,71.2,75.2s71.2-33.6,71.2-75.2c0-5.6-0.8-12-1.6-17.6c8,1.6,16-1.6,21.6-8l88-99.2
	C445.858,87.403,445.058,72.203,435.458,63.403z"/>
<path style="fill:#026824;" d="M413.858,82.603c-6.4-5.6-15.2-7.2-22.4-4c2.4-9.6-1.6-19.2-10.4-24c-9.6-5.6-21.6-3.2-28,4.8
	c0-9.6-6.4-19.2-16.8-21.6c-4.8-1.6-9.6-0.8-14.4,1.6c-4-4.8-10.4-8-17.6-8.8c-10.4-1.6-20.8,4-26.4,12c-4-11.2-16-19.2-28.8-17.6
	c-13.6,1.6-24,12-25.6,25.6c-7.2-10.4-20.8-15.2-32.8-10.4c-14.4,5.6-21.6,21.6-16,36l36,96.8c-16,12.8-25.6,32.8-25.6,55.2
	c0,38.4,29.6,68.8,65.6,68.8s65.6-31.2,65.6-68.8c0-5.6-0.8-10.4-1.6-16c7.2,0.8,15.2-0.8,20-7.2l80.8-91.2
	C423.458,104.203,422.658,90.603,413.858,82.603z"/>
<path style="fill:#003F12;" d="M378.658,113.803c-5.6-4.8-12.8-5.6-19.2-3.2c1.6-8-1.6-16.8-8.8-20.8c-8-4.8-18.4-2.4-24,4.8
	c0-8.8-5.6-16-14.4-18.4c-4-0.8-8.8-0.8-12,1.6c-4-4-8.8-7.2-14.4-8c-9.6-0.8-17.6,3.2-22.4,10.4c-4-9.6-13.6-16.8-24.8-15.2
	c-12,0.8-20.8,10.4-21.6,21.6c-6.4-8.8-17.6-12.8-28-8.8c-12,4.8-18.4,18.4-14.4,31.2l31.2,83.2c-13.6,10.4-22.4,28-22.4,47.2
	c0,32.8,24.8,59.2,56,59.2s56-26.4,56-59.2c0-4.8-0.8-9.6-1.6-13.6c6.4,0.8,12.8-0.8,16.8-6.4l68.8-77.6
	C387.458,132.203,386.658,120.203,378.658,113.803z"/>
<circle style="fill:#00A057;" cx="133.858" cy="121.803" r="95.2"/>
<path style="fill:#008730;" d="M133.858,26.603c52.8,0,95.2,42.4,95.2,95.2s-42.4,95.2-95.2,95.2"/>
<circle style="fill:#E9F98C;" cx="133.858" cy="121.803" r="76"/>
<path style="fill:#BEE874;" d="M187.458,68.203c29.6,29.6,29.6,78.4,0,108s-78.4,29.6-108,0"/>
<g>
	<path style="fill:#80C612;" d="M121.858,77.003L121.858,77.003l12,28l12-28l0,0c0.8-1.6,0.8-3.2,0.8-5.6c0-7.2-5.6-12.8-12.8-12.8
		s-12.8,5.6-12.8,12.8C121.058,73.803,121.058,75.403,121.858,77.003z"/>
	<path style="fill:#80C612;" d="M95.458,100.203L95.458,100.203l28,11.2l-11.2-28l0,0c-0.8-1.6-1.6-3.2-3.2-4.8
		c-4.8-4.8-12.8-4.8-18.4,0c-4.8,4.8-4.8,12.8,0,18.4C92.258,98.603,93.858,99.403,95.458,100.203z"/>
	<path style="fill:#80C612;" d="M159.458,81.803L159.458,81.803l-11.2,28l28-11.2l0,0c1.6-0.8,3.2-1.6,4.8-3.2
		c4.8-4.8,4.8-12.8,0-18.4c-4.8-4.8-12.8-4.8-18.4,0C161.058,78.603,160.258,80.203,159.458,81.803z"/>
	<path style="fill:#80C612;" d="M174.658,145.803L174.658,145.803l-28-11.2l11.2,28l0,0c0.8,1.6,1.6,3.2,3.2,4.8
		c4.8,4.8,12.8,4.8,18.4,0c4.8-4.8,4.8-12.8,0-18.4C177.858,147.403,176.258,146.603,174.658,145.803z"/>
	<path style="fill:#80C612;" d="M145.858,166.603L145.858,166.603l-12-28l-12,28l0,0c-0.8,1.6-0.8,3.2-0.8,5.6
		c0,7.2,5.6,12.8,12.8,12.8s12.8-5.6,12.8-12.8C146.658,169.803,145.858,168.203,145.858,166.603z"/>
	<path style="fill:#80C612;" d="M178.658,109.803L178.658,109.803l-28,12l28,12l0,0c1.6,0.8,3.2,0.8,5.6,0.8
		c7.2,0,12.8-5.6,12.8-12.8c0-7.2-5.6-12.8-12.8-12.8C181.858,109.003,180.258,109.003,178.658,109.803z"/>
	<path style="fill:#80C612;" d="M89.058,133.803L89.058,133.803l28-12l-28-12l0,0c-1.6-0.8-3.2-0.8-5.6-0.8
		c-7.2,0-12.8,5.6-12.8,12.8c0,7.2,5.6,12.8,12.8,12.8C85.858,134.603,87.458,134.603,89.058,133.803z"/>
	<path style="fill:#80C612;" d="M110.658,161.803L110.658,161.803l11.2-28l-28,11.2l0,0c-1.6,0.8-3.2,1.6-4.8,3.2
		c-4.8,4.8-4.8,12.8,0,18.4c4.8,4.8,12.8,4.8,18.4,0C109.058,165.003,109.858,163.403,110.658,161.803z"/>
</g>
<path style="fill:#82C60A;" d="M323.458,45.803L323.458,45.803L323.458,45.803L323.458,45.803c-3.2,46.4-42.4,69.6-23.2,116.8
	c11.2,27.2,41.6,34.4,76.8,40.8l0,0h0.8l0,0c24-24,43.2-50.4,36-79.2C399.458,75.403,353.858,81.003,323.458,45.803z"/>
<path style="fill:#5EA304;" d="M377.058,203.403L377.058,203.403L377.058,203.403L377.058,203.403c24-24,44-51.2,36-79.2
	c-13.6-48.8-59.2-43.2-89.6-78.4l0,0h-0.8l0,0"/>
<g>
	<polygon style="fill:#74B208;" points="347.458,115.403 316.258,108.203 350.658,125.003 366.658,91.403 	"/>
	<polygon style="fill:#74B208;" points="365.058,168.203 334.658,161.003 368.258,177.803 385.058,144.203 	"/>
	<polygon style="fill:#74B208;" points="356.258,141.803 321.058,133.003 359.458,152.203 378.658,113.803 	"/>
</g>
<path style="fill:#82C60A;" d="M449.858,42.603L449.858,42.603L449.858,42.603L449.858,42.603c-16,30.4-52,34.4-54.4,72.8
	c-1.6,22.4,16.8,40,38.4,56l0,0l0,0l0,0c24.8-16,46.4-21.6,50.4-43.2C492.258,90.603,457.858,77.003,449.858,42.603z"/>
<path style="fill:#5EA304;" d="M433.858,171.403L433.858,171.403L433.858,171.403L433.858,171.403c25.6-16,46.4-21.6,50.4-43.2
	c7.2-37.6-26.4-51.2-34.4-85.6l0,0l0,0v0.8"/>
<g>
	<polygon style="fill:#74B208;" points="443.458,98.603 425.058,82.603 442.658,105.803 465.058,88.203 	"/>
	<polygon style="fill:#74B208;" points="437.858,140.203 419.458,125.003 437.058,147.403 459.458,130.603 	"/>
	<polygon style="fill:#74B208;" points="441.058,118.603 420.258,101.003 439.458,127.403 465.058,107.403 	"/>
</g>
<path style="fill:#AF0547;" d="M482.658,225.003c-11.2,45.6-40,31.2-78.4,21.6c-38.4-8.8-70.4-9.6-60-55.2
	c11.2-45.6,55.2-93.6,93.6-84.8C476.258,116.203,493.858,179.403,482.658,225.003z"/>
<path style="fill:#84003C;" d="M438.658,106.603c38.4,8.8,56,72,44.8,117.6s-40,31.2-78.4,21.6"/>
<ellipse transform="matrix(0.2337 -0.9723 0.9723 0.2337 69.3302 582.6507)" style="fill:#5EA304;" cx="404.31" cy="247.341" rx="4.8" ry="32"/>
<path style="fill:#527C00;" d="M405.858,242.603c16.8,4,30.4,9.6,29.6,12.8c-0.8,2.4-15.2,1.6-32-2.4"/>
<ellipse transform="matrix(0.8656 -0.5008 0.5008 0.8656 -7.9489 220.9613)" style="fill:#D12269;" cx="407.599" cy="125.287" rx="25.601" ry="8"/>
<g>
	<circle style="fill:#680034;" cx="377.858" cy="196.203" r="5.6"/>
	<circle style="fill:#680034;" cx="363.458" cy="216.203" r="5.6"/>
	<circle style="fill:#680034;" cx="400.258" cy="179.403" r="5.6"/>
	<circle style="fill:#680034;" cx="385.858" cy="156.203" r="4.8"/>
	<circle style="fill:#680034;" cx="369.858" cy="173.003" r="4.8"/>
	<circle style="fill:#680034;" cx="414.658" cy="153.003" r="4"/>
	<circle style="fill:#680034;" cx="403.458" cy="134.603" r="4"/>
	<circle style="fill:#680034;" cx="423.458" cy="121.803" r="3.2"/>
	<circle style="fill:#680034;" cx="397.058" cy="221.803" r="5.6"/>
</g>
<g>
	<circle style="fill:#C1145A;" cx="451.458" cy="213.803" r="5.6"/>
	<circle style="fill:#C1145A;" cx="455.458" cy="238.603" r="5.6"/>
	<circle style="fill:#C1145A;" cx="438.658" cy="189.003" r="5.6"/>
	<circle style="fill:#C1145A;" cx="462.658" cy="174.603" r="4.8"/>
	<circle style="fill:#C1145A;" cx="469.858" cy="197.003" r="4.8"/>
	<circle style="fill:#C1145A;" cx="438.658" cy="158.603" r="4"/>
	<circle style="fill:#C1145A;" cx="457.058" cy="147.403" r="4"/>
	<circle style="fill:#C1145A;" cx="444.258" cy="127.403" r="3.2"/>
	<circle style="fill:#C1145A;" cx="423.458" cy="228.203" r="5.6"/>
</g>
<path style="fill:#AF0547;" d="M381.058,217.003c-1.6,36-25.6,29.6-55.2,28c-29.6-0.8-54.4,3.2-52.8-32c1.6-36,27.2-78.4,56.8-77.6
	C360.258,137.003,382.658,181.803,381.058,217.003z"/>
<path style="fill:#84003C;" d="M329.858,135.403c29.6,0.8,52.8,45.6,51.2,81.6c-1.6,36-25.6,29.6-55.2,28"/>
<ellipse transform="matrix(0.0384 -0.9993 0.9993 0.0384 67.7344 562.004)" style="fill:#5EA304;" cx="325.875" cy="245.808" rx="4" ry="24.801"/>
<path style="fill:#527C00;" d="M325.858,241.803c13.6,0.8,24,2.4,24,4.8c0,2.4-11.2,3.2-24.8,3.2"/>
<ellipse transform="matrix(0.7506 -0.6608 0.6608 0.7506 -24.4339 243.2027)" style="fill:#D12269;" cx="309.936" cy="153.967" rx="19.201" ry="5.6"/>
<g>
	<circle style="fill:#680034;" cx="298.658" cy="211.403" r="4"/>
	<circle style="fill:#680034;" cx="290.658" cy="229.003" r="4"/>
	<circle style="fill:#680034;" cx="313.058" cy="195.403" r="4"/>
	<circle style="fill:#680034;" cx="298.658" cy="180.203" r="3.2"/>
	<circle style="fill:#680034;" cx="288.258" cy="195.403" r="3.2"/>
	<circle style="fill:#680034;" cx="319.458" cy="173.803" r="3.2"/>
	<circle style="fill:#680034;" cx="308.258" cy="161.003" r="3.2"/>
	<circle style="fill:#680034;" cx="321.058" cy="149.003" r="2.4"/>
	<circle style="fill:#680034;" cx="316.258" cy="227.403" r="4"/>
</g>
<g>
	<circle style="fill:#C1145A;" cx="356.258" cy="213.803" r="4"/>
	<circle style="fill:#C1145A;" cx="362.658" cy="231.403" r="4"/>
	<circle style="fill:#C1145A;" cx="342.658" cy="197.003" r="4"/>
	<circle style="fill:#C1145A;" cx="358.658" cy="182.603" r="3.2"/>
	<circle style="fill:#C1145A;" cx="366.658" cy="198.603" r="3.2"/>
	<circle style="fill:#C1145A;" cx="337.858" cy="174.603" r="3.2"/>
	<path style="fill:#C1145A;" d="M347.458,162.603c0,1.6,0.8,3.2,2.4,3.2s3.2-0.8,3.2-2.4c0-1.6-0.8-3.2-2.4-3.2
		S347.458,161.003,347.458,162.603z"/>
	<circle style="fill:#C1145A;" cx="337.858" cy="149.803" r="2.4"/>
	<circle style="fill:#C1145A;" cx="337.058" cy="228.203" r="4"/>
</g>
<path style="fill:#E9F98C;" d="M304.258,254.603c0,0-112-118.4-156-108s-28,45.6-28,45.6s-36-10.4-46.4,9.6s-29.6,29.6-29.6,29.6
	l-17.6,18.4l27.2,25.6l273.6,5.6L304.258,254.603z"/>
<path style="fill:#BEE874;" d="M281.058,249.003c0,0-92-97.6-128-88.8s-23.2,37.6-23.2,37.6s-29.6-8.8-38.4,8s-24,24-24,24
	l-14.4,15.2l21.6,21.6l224.8,4L281.058,249.003z"/>
<path style="fill:#80C612;" d="M283.458,259.403c0,0-90.4-95.2-125.6-87.2c-35.2,8.8-22.4,36.8-22.4,36.8s-28.8-8.8-37.6,7.2
	s-23.2,23.2-23.2,23.2l-13.6,15.2l21.6,21.6l220,4L283.458,259.403z"/>
<path style="fill:#008730;" d="M284.258,269.003c0,0-85.6-91.2-120-83.2c-33.6,8-21.6,34.4-21.6,34.4s-28-8-36,7.2
	s-22.4,22.4-22.4,22.4l-13.6,14.4l20.8,20.8l209.6,4L284.258,269.003z"/>
<path style="fill:#026824;" d="M293.058,281.803c0,0-85.6-91.2-120-83.2c-33.6,8-21.6,34.4-21.6,34.4s-28-8-36,7.2
	s-22.4,22.4-22.4,22.4l-13.6,14.4l20.8,20.8l209.6,4L293.058,281.803z"/>
<circle style="fill:#D32E26;" cx="49.058" cy="181.803" r="28"/>
<path style="fill:#B20202;" d="M57.858,155.403c14.4,4.8,22.4,20.8,18.4,35.2c-4.8,14.4-20.8,22.4-35.2,18.4"/>
<ellipse transform="matrix(-0.8824 -0.4706 0.4706 -0.8824 -21.1758 341.3807)" style="fill:#F24141;" cx="32.084" cy="173.337" rx="4.8" ry="12.801"/>
<g>
	<path style="fill:#3D1704;" d="M41.858,160.203c0.8,1.6,0,3.2-1.6,4l0,0c-1.6,0.8-3.2,0-4-1.6l-9.6-18.4c-0.8-1.6,0-3.2,1.6-4l0,0
		c1.6-0.8,3.2,0,4,1.6L41.858,160.203z"/>
	<path style="fill:#3D1704;" d="M33.858,125.803c0.8-1.6,2.4-1.6,4-0.8l0,0c1.6,0.8,2.4,2.4,1.6,4l-8,14.4c-0.8,1.6-2.4,1.6-4,0.8
		l0,0c-1.6-0.8-2.4-2.4-1.6-3.2L33.858,125.803z"/>
</g>
<circle style="fill:#D32E26;" cx="42.658" cy="220.203" r="28"/>
<path style="fill:#B20202;" d="M36.258,193.003c15.2-3.2,30.4,5.6,33.6,20.8s-5.6,30.4-20.8,33.6"/>
<ellipse transform="matrix(-0.9988 0.0495 -0.0495 -0.9988 58.3858 441.4724)" style="fill:#F24141;" cx="23.721" cy="221.46" rx="4.8" ry="12.8"/>
<path style="fill:#3D1704;" d="M25.058,205.003c1.6,0.8,1.6,3.2,0.8,4.8l0,0c-0.8,1.6-2.4,1.6-4,0.8l-17.6-11.2
	c-1.6-0.8-2.4-2.4-1.6-4l0,0c0.8-1.6,3.2-1.6,4.8-0.8L25.058,205.003z"/>
<path style="fill:#1BE2D8;" d="M11.458,251.403c22.4,160,121.6,237.6,241.6,237.6s219.2-77.6,241.6-237.6H11.458z"/>
<path style="fill:#06C6C1;" d="M252.258,489.003c120,0,220-77.6,242.4-237.6H9.858"/>
<path style="fill:#07A5A5;" d="M253.058,485.003c120,0,219.2-75.2,241.6-237.6l-243.2,1.6"/>
<rect x="185.858" y="475.403" style="fill:#1BE2D8;" width="136" height="24"/>
<path style="fill:#058A91;" d="M263.458,489.003c112.8-4,208-80.8,230.4-233.6L263.458,489.003z"/>
<rect x="185.858" y="475.403" style="fill:#028399;" width="136" height="24"/>
<polyline style="fill:#006177;" points="185.858,475.403 321.858,475.403 321.858,499.403 "/>
<polygon style="fill:#07A5A5;" points="294.658,317.003 12.258,251.403 304.258,251.403 "/>
<path style="fill:#028399;" d="M497.058,247.403c0,4.8-5.6,12-9.6,12h-465.6c-4.8,0-13.6-6.4-13.6-11.2l0,0c0-8,5.6-12.8,11.2-12.8
	h467.2C491.458,235.403,497.058,240.203,497.058,247.403L497.058,247.403z"/>
<path style="fill:#006177;" d="M497.058,247.403L497.058,247.403c0,5.6-4.8,12-9.6,12h-469.6c-5.6,0-9.6-5.6-9.6-11.2l0,0"/>
<g>
	<circle style="fill:#028399;" cx="102.658" cy="305.003" r="12.8"/>
	<circle style="fill:#028399;" cx="177.858" cy="305.003" r="12.8"/>
	<circle style="fill:#028399;" cx="253.058" cy="305.003" r="12.8"/>
	<circle style="fill:#028399;" cx="327.458" cy="305.003" r="12.8"/>
	<circle style="fill:#028399;" cx="402.658" cy="305.003" r="12.8"/>
</g>
<g>
	<path style="fill:#006177;" d="M102.658,293.003c7.2,0,12.8,5.6,12.8,12.8s-5.6,12.8-12.8,12.8"/>
	<path style="fill:#006177;" d="M177.858,293.003c7.2,0,12.8,5.6,12.8,12.8s-5.6,12.8-12.8,12.8"/>
	<path style="fill:#006177;" d="M253.058,293.003c7.2,0,12.8,5.6,12.8,12.8s-5.6,12.8-12.8,12.8"/>
	<path style="fill:#006177;" d="M327.458,293.003c7.2,0,12.8,5.6,12.8,12.8s-5.6,12.8-12.8,12.8"/>
	<path style="fill:#006177;" d="M402.658,293.003c7.2,0,12.8,5.6,12.8,12.8s-5.6,12.8-12.8,12.8"/>
	<polygon style="fill:#006177;" points="154.658,349.803 129.858,325.803 81.058,373.803 129.858,422.603 154.658,397.803 
		129.858,373.803 	"/>
</g>
<polygon style="fill:#028399;" points="203.458,349.803 178.658,325.803 154.658,349.803 178.658,373.803 154.658,397.803 
	178.658,422.603 203.458,397.803 179.458,373.803 "/>
<g>
	<polygon style="fill:#006177;" points="253.058,349.803 228.258,325.803 203.458,349.803 227.458,373.803 203.458,397.803 
		228.258,422.603 253.058,397.803 229.058,373.803 	"/>
	<polygon style="fill:#006177;" points="301.858,349.803 277.058,325.803 253.058,349.803 277.058,373.803 253.058,397.803 
		277.058,422.603 301.858,397.803 277.858,373.803 	"/>
</g>
<polygon style="fill:#028399;" points="351.458,349.803 326.658,325.803 301.858,349.803 325.858,373.803 301.858,397.803 
	326.658,422.603 351.458,397.803 327.458,373.803 "/>
<polygon style="fill:#006177;" points="424.258,373.803 376.258,325.803 351.458,349.803 375.458,373.803 351.458,397.803 
	376.258,422.603 "/>
<path style="fill:#1BE2D8;" d="M489.858,275.403c0.8,0,0.8-8,1.6-8h-476.8c0.8,0,0.8,8,1.6,8H489.858z"/>
<path style="fill:#42BAC6;" d="M73.858,247.403c0,2.4-1.6,4-4,4h-48c-2.4,0-4-1.6-4-4l0,0c0-2.4,1.6-4,4-4h48
	C72.258,243.403,73.858,245.003,73.858,247.403L73.858,247.403z"/>
<ellipse transform="matrix(-0.512 -0.859 0.859 -0.512 -200.4579 539.447)" style="fill:#9DFCF3;" cx="53.006" cy="326.665" rx="39.201" ry="13.6"/>
<g>
	<path style="fill:#F4F1E6;" d="M352.258,170.603c44-2.4,81.6,16.8,88.8,42.4c0.8-3.2,0.8-5.6,0.8-8.8
		c-1.6-30.4-41.6-53.6-90.4-51.2s-87.2,28.8-85.6,59.2c0,3.2,0.8,5.6,1.6,8.8C272.258,194.603,308.258,173.003,352.258,170.603z"/>
	<path style="fill:#F4F1E6;" d="M337.058,192.203c35.2,2.4,63.2,20,67.2,41.6c0.8-2.4,0.8-4.8,1.6-6.4c1.6-24.8-28.8-46.4-67.2-48.8
		c-38.4-2.4-71.2,15.2-72.8,40c0,2.4,0,4.8,0.8,7.2C271.458,204.203,301.858,189.803,337.058,192.203z"/>
</g>
<path style="fill:#77003C;" d="M49.058,21.003c-10.4-4.8-22.4-0.8-26.4,8c-3.2,8,3.2,9.6,11.2,12.8c-0.8,1.6-1.6,3.2-2.4,4.8
	c-3.2,6.4,0.8,5.6,3.2,7.2c3.2,1.6,4.8,4,8-2.4c0.8-1.6,1.6-3.2,1.6-4.8c8,4,13.6,7.2,17.6-0.8
	C65.058,37.003,59.458,25.803,49.058,21.003z"/>
<path style="fill:#440029;" d="M31.458,46.603c-3.2,6.4,0.8,5.6,3.2,7.2c3.2,1.6,4.8,4,8-2.4c0.8-1.6,1.6-3.2,1.6-4.8
	c8,4,13.6,7.2,17.6-0.8c4-8.8-1.6-20-12-24.8"/>
<path style="fill:#77003C;" d="M19.458,68.203c-8,4-12,13.6-8,20c3.2,5.6,7.2,3.2,13.6-0.8c0,1.6,0.8,2.4,1.6,4
	c2.4,4.8,4,2.4,6.4,1.6c2.4-1.6,4.8-0.8,2.4-5.6c-1.6-1.6-2.4-2.4-3.2-4c6.4-3.2,11.2-4.8,8-10.4
	C37.058,65.803,27.458,64.203,19.458,68.203z"/>
<path style="fill:#440029;" d="M25.858,91.403c2.4,4.8,4,2.4,6.4,1.6c2.4-1.6,4.8-0.8,2.4-5.6c-0.8-1.6-1.6-2.4-2.4-4
	c6.4-3.2,11.2-4.8,8-10.4c-3.2-7.2-12.8-8.8-20.8-4.8"/>
<path style="fill:#77003C;" d="M428.258,12.203c-8,4-12,13.6-8,20c2.4,5.6,7.2,3.2,13.6-0.8c0,1.6,0.8,2.4,1.6,4
	c2.4,4.8,4,2.4,6.4,1.6c2.4-1.6,4.8-0.8,2.4-5.6c-1.6-1.6-2.4-2.4-3.2-4c6.4-3.2,11.2-4.8,8-10.4
	C445.858,9.803,436.258,8.203,428.258,12.203z"/>
<path style="fill:#440029;" d="M434.658,35.403c2.4,4.8,4,2.4,6.4,1.6c2.4-1.6,4.8-0.8,2.4-5.6c-0.8-1.6-1.6-2.4-2.4-4
	c6.4-3.2,11.2-4.8,8-10.4c-3.2-7.2-12.8-8.8-21.6-4.8"/>
<g>
</g>
<g>
</g>
<g>
</g>
<g>
</g>
<g>
</g>
<g>
</g>
<g>
</g>
<g>
</g>
<g>
</g>
<g>
</g>
<g>
</g>
<g>
</g>
<g>
</g>
<g>
</g>
<g>
</g>
</svg>
