<svg height="511pt" viewBox="0 -60 511.9986 511" width="511pt" xmlns="http://www.w3.org/2000/svg"><path d="m158.875 172.804688-133.664062-133.667969c-5.769532-5.765625-15.117188-5.765625-20.886719 0-5.765625 5.769531-5.765625 15.117187 0 20.886719l133.667969 133.664062zm0 0" fill="#9bacb2"/><path d="m222.425781 228.148438c0-52.480469 42.546875-95.027344 95.03125-95.027344 52.480469 0 95.027344 42.546875 95.027344 95.027344zm0 0" fill="#f781bf"/><path d="m317.457031 133.121094c-3.351562 0-6.660156.175781-9.921875.515625 47.820313 4.960937 85.105469 45.378906 85.105469 94.511719h19.84375c0-52.480469-42.546875-95.027344-95.027344-95.027344zm0 0" fill="#f464b7"/><path d="m254.800781 228.148438c0-34.601563 28.050781-62.65625 62.65625-62.65625 34.601563 0 62.65625 28.054687 62.65625 62.65625zm0 0" fill="#ffa4d8"/><path d="m286.128906 228.148438c0-17.300782 14.023438-31.328126 31.328125-31.328126 17.300781 0 31.328125 14.027344 31.328125 31.328126zm0 0" fill="#f781bf"/><path d="m317.457031 196.820312c-3.277343 0-6.433593.503907-9.398437 1.4375 12.707031 3.992188 21.929687 15.863282 21.929687 29.890626h18.796875c0-17.300782-14.027344-31.328126-31.328125-31.328126zm0 0" fill="#f464b7"/><path d="m248.414062 115.144531c2.59375-2.59375 6.890626-2.445312 9.222657.386719 22.246093 27.074219 20.722656 67.136719-4.574219 92.429688-26.914062 26.917968-70.550781 26.917968-97.46875 0zm0 0" fill="#fb4239"/><path d="m272.128906 146.890625c-1.640625 15.0625-8.21875 29.6875-19.761718 41.230469-23.390626 23.390625-59.40625 26.441406-86.105469 9.175781l-10.667969 10.664063c26.917969 26.917968 70.554688 26.917968 97.472656 0 16.605469-16.609376 22.953125-39.582032 19.0625-61.070313zm0 0" fill="#e31f1d"/><path d="m229.066406 134.492188c13.660156 13.660156 13.660156 35.8125 0 49.472656-13.664062 13.660156-35.8125 13.660156-49.472656 0zm0 0" fill="#ff7373"/><path d="m139.648438 125.0625c.230468-3.746094-2.878907-6.855469-6.625-6.625-17.046876 1.054688-61.40625 6.007812-84.65625 29.253906-35.441407 35.445313-8.859376 70.886719-8.859376 70.886719s35.445313 26.585937 70.886719-8.859375c23.25-23.25 28.199219-67.609375 29.253907-84.65625zm0 0" fill="#8bcc3f"/><path d="m124.109375 119.179688c-2.117187 20.460937-8.605469 55.835937-28.511719 75.742187-24.1875 24.1875-48.371094 19.488281-61.296875 14.0625 2.527344 6.015625 5.207031 9.59375 5.207031 9.59375s35.441407 26.582031 70.886719-8.859375c23.246094-23.25 28.199219-67.609375 29.25-84.65625.234375-3.75-2.875-6.855469-6.625-6.625-2.453125.152344-5.46875.386719-8.910156.742188zm0 0" fill="#659922"/><path d="m134.667969 12.304688c-3.789063-.261719-6.9375 2.882812-6.671875 6.675781 1.035156 14.847656 5.417968 49.667969 23.929687 68.183593 29.101563 29.101563 58.203125 7.273438 58.203125 7.273438s21.824219-29.101562-7.277344-58.199219c-18.511718-18.515625-53.335937-22.898437-68.183593-23.933593zm0 0" fill="#8bcc3f"/><path d="m202.851562 36.234375c-2.363281-2.363281-4.996093-4.492187-7.816406-6.417969 17.804688 25.972656.085938 49.613282.085938 49.613282s-23.640625 17.71875-49.613282-.085938c1.925782 2.820312 4.054688 5.453125 6.417969 7.820312 29.101563 29.097657 58.203125 7.273438 58.203125 7.273438s21.824219-29.101562-7.277344-58.203125zm0 0" fill="#659922"/><path d="m353.6875 72.875c-3.789062-.265625-6.9375 2.882812-6.671875 6.671875 1.035156 14.847656 5.414063 49.667969 23.929687 68.183594 29.101563 29.101562 58.199219 7.277343 58.199219 7.277343s21.828125-29.101562-7.273437-58.203124c-18.515625-18.515626-53.335938-22.894532-68.183594-23.929688zm0 0" fill="#8bcc3f"/><path d="m421.871094 96.804688c-2.292969-2.296876-4.84375-4.375-7.570313-6.253907 18.085938 26.066407.246094 49.855469.246094 49.855469s-23.785156 17.835938-49.855469-.25c1.882813 2.730469 3.960938 5.277344 6.253906 7.574219 29.101563 29.101562 58.203126 7.273437 58.203126 7.273437s21.824218-29.097656-7.277344-58.199218zm0 0" fill="#659922"/><path d="m178.570312 186.378906c0 23.070313-18.703124 41.769532-41.773437 41.769532-23.066406 0-41.769531-18.699219-41.769531-41.769532 0-23.070312 18.703125-41.773437 41.769531-41.773437 23.070313 0 41.773437 18.703125 41.773437 41.773437zm0 0" fill="#fe9700"/><path d="m160.949219 152.308594c4.84375 6.820312 7.699219 15.148437 7.699219 24.148437 0 23.070313-18.703126 41.769531-41.769532 41.769531-9.003906 0-17.332031-2.855468-24.152344-7.699218 7.570313 10.660156 20.003907 17.621094 34.070313 17.621094 23.070313 0 41.773437-18.699219 41.773437-41.769532-.003906-14.070312-6.964843-26.503906-17.621093-34.070312zm0 0" fill="#fc7800"/><path d="m152.460938 186.378906c0 8.648438-7.011719 15.664063-15.664063 15.664063-8.648437 0-15.664063-7.015625-15.664063-15.664063 0-8.652344 7.015626-15.664062 15.664063-15.664062 8.652344 0 15.664063 7.011718 15.664063 15.664062zm0 0" fill="#ffd15f"/><path d="m365.492188 228.148438c0-38.0625 30.855468-68.921876 68.921874-68.921876 38.0625 0 68.921876 30.859376 68.921876 68.921876zm0 0" fill="#fb4239"/><path d="m434.414062 159.226562c-2.832031 0-5.613281.191407-8.355468.523438 34.121094 4.125 60.566406 33.164062 60.566406 68.398438h16.710938c0-38.0625-30.859376-68.921876-68.921876-68.921876zm0 0" fill="#e31f1d"/><path d="m399.429688 228.148438c0-19.320313 15.664062-34.980469 34.984374-34.980469 19.320313 0 34.980469 15.660156 34.980469 34.980469zm0 0" fill="#ff7373"/><path d="m326.855469 42.269531c0 23.070313-18.703125 41.773438-41.773438 41.773438-23.066406 0-41.769531-18.703125-41.769531-41.773438 0-23.070312 18.703125-41.769531 41.769531-41.769531 23.070313 0 41.773438 18.699219 41.773438 41.769531zm0 0" fill="#fe9700"/><path d="m308.929688 7.980469c4.710937 6.765625 7.480468 14.980469 7.480468 23.847656 0 23.066406-18.699218 41.769531-41.769531 41.769531-8.867187 0-17.082031-2.769531-23.84375-7.480468 7.546875 10.828124 20.085937 17.921874 34.285156 17.921874 23.070313 0 41.773438-18.699218 41.773438-41.769531 0-14.203125-7.09375-26.738281-17.925781-34.289062zm0 0" fill="#fc7800"/><path d="m300.746094 42.269531c0 8.652344-7.011719 15.664063-15.664063 15.664063-8.648437 0-15.664062-7.011719-15.664062-15.664063 0-8.648437 7.015625-15.664062 15.664062-15.664062 8.652344 0 15.664063 7.015625 15.664063 15.664062zm0 0" fill="#ffd15f"/><g fill="#659922"><path d="m39.507812 226.410156c-2.003906 0-4.007812-.765625-5.539062-2.292968-3.058594-3.058594-3.058594-8.019532 0-11.074219l31.851562-31.855469c3.058594-3.054688 8.019532-3.054688 11.074219 0 3.0625 3.058594 3.0625 8.019531 0 11.078125l-31.847656 31.851563c-1.53125 1.527343-3.535156 2.292968-5.539063 2.292968zm0 0"/><path d="m218.25 120.066406c-.050781 0-.101562 0-.148438 0-4.328124-.082031-7.765624-3.652344-7.683593-7.976562.097656-5.273438-4.503907-10.828125-5.742188-12.027344-.027343-.027344-.058593-.058594-.085937-.085938l-27.394532-27.394531c-3.058593-3.058593-3.058593-8.019531 0-11.074219 3.058594-3.058593 8.019532-3.058593 11.074219 0l27.359375 27.355469c1.320313 1.292969 10.683594 10.914063 10.449219 23.519531-.078125 4.273438-3.570313 7.683594-7.828125 7.683594zm0 0"/><path d="m429.148438 162.839844c-2.003907 0-4.007813-.765625-5.535157-2.292969l-27.402343-27.402344c-3.058594-3.058593-3.058594-8.015625 0-11.074219 3.058593-3.058593 8.015624-3.058593 11.078124 0l27.398438 27.398438c3.058594 3.058594 3.058594 8.019531 0 11.078125-1.527344 1.527344-3.535156 2.292969-5.539062 2.292969zm0 0"/></g><path d="m415.617188 359.855469-2.027344 5.074219c-6.34375 15.859374-21.703125 26.253906-38.785156 26.253906h-235.832032c-17.082031 0-32.441406-10.398438-38.785156-26.253906l-2.027344-5.074219zm0 0" fill="#b8e9ff"/><path d="m256.886719 209.484375h-246.753907c-5.253906 0-9.203124 4.789063-8.199218 9.949219l14.160156 72.828125c7.632812 39.253906 42.015625 67.597656 82.003906 67.597656h317.578125c39.992188 0 74.371094-28.339844 82.003907-67.597656l14.160156-72.828125c1.003906-5.160156-2.945313-9.949219-8.199219-9.949219zm0 0" fill="#d7f1ff"/><path d="m449.035156 209.484375-16.097656 82.777344c-7.632812 39.253906-42.015625 67.59375-82.003906 67.59375h64.742187c39.992188 0 74.371094-28.339844 82.003907-67.59375l14.164062-72.832031c1-5.15625-2.949219-9.949219-8.203125-9.949219h-54.605469zm0 0" fill="#b8e9ff"/></svg>