<?xml version="1.0" encoding="iso-8859-1"?>
<!-- Generator: Adobe Illustrator 19.0.0, SVG Export Plug-In . SVG Version: 6.00 Build 0)  -->
<svg version="1.1" id="Layer_1" xmlns="http://www.w3.org/2000/svg" xmlns:xlink="http://www.w3.org/1999/xlink" x="0px" y="0px"
	 viewBox="0 0 496 496" style="enable-background:new 0 0 496 496;" xml:space="preserve">
<path style="fill:#9DEDE9;" d="M221.6,404.8c0,100-44,90.4-99.2,90.4c-54.4,0-98.4,9.6-98.4-90.4S68,156,123.2,156
	C177.6,156,221.6,304.8,221.6,404.8z"/>
<path style="fill:#7CDADD;" d="M171.2,404.8c0,100-21.6,90.4-48,90.4s-48,9.6-48-90.4S96.8,156,123.2,156
	C149.6,156,171.2,304.8,171.2,404.8z"/>
<path style="fill:#DDDBA8;" d="M32.8,320c-6.4,32-8.8,58.4-8.8,84.8c0,100,44,90.4,99.2,90.4c54.4,0,99.2,9.6,99.2-90.4
	c0-26.4-1.6-53.6-8.8-85.6H32.8V320z"/>
<path style="fill:#C6C291;" d="M171.2,404.8c0-26.4-1.6-52.8-4-84.8h-88c-2.4,32-4,58.4-4,84.8c0,79.2,13.6,89.6,32.8,90.4
	c4.8,0,10.4,0,15.2,0c5.6,0,10.4,0,15.2,0C157.6,494.4,171.2,484.8,171.2,404.8z"/>
<path style="fill:#F2C300;" d="M192,165.6c0,7.2-5.6,10.4-12,10.4H65.6c-5.6,0-9.6-3.2-9.6-10.4v-63.2c0-8,4-14.4,9.6-14.4H180
	c6.4,0,12,6.4,12,14.4V165.6z"/>
<path style="fill:#F79E00;" d="M192,104v61.6c0,7.2-5.6,10.4-12,10.4H65.6c-5.6,0-9.6-3.2-9.6-10.4V104H192z"/>
<path style="fill:#F47F00;" d="M56,104h136v61.6c0,7.2-5.6,10.4-12,10.4"/>
<path style="fill:#D85B07;" d="M135.2,140.8c0,6.4-5.6,12-12,12c-6.4,0-12-5.6-12-12s5.6-12,12-12
	C129.6,128.8,135.2,133.6,135.2,140.8z"/>
<ellipse transform="matrix(-0.9397 -0.3421 0.3421 -0.9397 58.5597 473.46)" style="fill:#C7FFFB;" cx="71.031" cy="231.566" rx="8" ry="43.201"/>
<path style="fill:#EFECC7;" d="M46.4,336.8c6.4,0,11.2,19.2,11.2,43.2s-5.6,43.2-12,43.2S34.4,404,35.2,380
	C35.2,356,40.8,336.8,46.4,336.8z"/>
<polygon style="fill:#9DEDE9;" points="320.8,496 270.4,432 328.8,104 413.6,104 472,432 421.6,496 "/>
<polygon style="fill:#7CDADD;" points="343.2,496 316,432 348,104 394.4,104 426.4,432 399.2,496 "/>
<path style="fill:#7BBF10;" d="M440,77.6c0,7.2-5.6,10.4-12,10.4H314.4C308,88,304,84.8,304,77.6V14.4c0-8,4-14.4,10.4-14.4h114.4
	c5.6,0,11.2,6.4,11.2,14.4V77.6z"/>
<path style="fill:#5EA304;" d="M440,16v61.6c0,7.2-5.6,10.4-12,10.4H314.4C308,88,304,84.8,304,77.6V16H440z"/>
<path style="fill:#068C09;" d="M304,16h136v61.6c0,7.2-5.6,10.4-12,10.4"/>
<circle style="fill:#007200;" cx="371.2" cy="52" r="12"/>
<polygon style="fill:#DDDBA8;" points="270.4,432 320.8,496 421.6,496 472,432 450.4,312 292,312 "/>
<polygon style="fill:#C6C291;" points="415.2,312 327.2,312 316,431.2 343.2,496 399.2,496 426.4,431.2 "/>
<polygon style="fill:#C7FFFB;" points="312.8,255.2 316.8,231.2 332.8,120 342.4,120 "/>
<polygon style="fill:#EFECC7;" points="310.4,432 275.2,432 292.8,324.8 292.8,324.8 "/>
<g>
</g>
<g>
</g>
<g>
</g>
<g>
</g>
<g>
</g>
<g>
</g>
<g>
</g>
<g>
</g>
<g>
</g>
<g>
</g>
<g>
</g>
<g>
</g>
<g>
</g>
<g>
</g>
<g>
</g>
</svg>
