<?xml version="1.0" encoding="iso-8859-1"?>
<!-- Generator: Adobe Illustrator 19.0.0, SVG Export Plug-In . SVG Version: 6.00 Build 0)  -->
<svg version="1.1" id="Layer_1" xmlns="http://www.w3.org/2000/svg" xmlns:xlink="http://www.w3.org/1999/xlink" x="0px" y="0px"
	 viewBox="0 0 505.6 505.6" style="enable-background:new 0 0 505.6 505.6;" xml:space="preserve">
<path style="fill:#D31818;" d="M456.8,174.8c0,68-91.2,123.2-204,123.2s-204-55.2-204-123.2s91.2,7.2,204,7.2
	C365.6,182,456.8,106.8,456.8,174.8z"/>
<path style="fill:#A80000;" d="M456.8,174.8c0,68-91.2,123.2-204,123.2s-204-55.2-204-123.2S140,214,252.8,214
	C365.6,214,456.8,106.8,456.8,174.8z"/>
<path style="fill:#870000;" d="M456.8,174.8c0,68-91.2,123.2-204,123.2s-204-55.2-204-123.2S140,262,252.8,262
	S456.8,106.8,456.8,174.8z"/>
<path style="fill:#A80000;" d="M46.4,106L0,156.4c20.8,15.2,44.8,18.4,56.8,5.6C68,149.2,63.2,125.2,46.4,106z"/>
<path style="fill:#870000;" d="M37.6,128.4L0,156.4c20.8,15.2,44.8,18.4,56.8,5.6C68,149.2,55.2,147.6,37.6,128.4z"/>
<path style="fill:#D31818;" d="M67.2,142.8c2.4,2.4,3.2,5.6,0.8,8l-18.4,20.8c-1.6,2.4-5.6,2.4-8,0l0,0c-2.4-2.4-3.2-5.6-0.8-8
	l18.4-20.8C61.6,141.2,64.8,141.2,67.2,142.8L67.2,142.8z"/>
<path style="fill:#A80000;" d="M459.2,106l46.4,50.4c-20.8,15.2-44.8,18.4-56.8,5.6C437.6,149.2,442.4,125.2,459.2,106z"/>
<path style="fill:#870000;" d="M468,128.4l37.6,28c-20.8,15.2-44.8,18.4-56.8,5.6C437.6,149.2,450.4,147.6,468,128.4z"/>
<path style="fill:#D31818;" d="M438.4,142.8c-2.4,2.4-3.2,5.6-0.8,8l18.4,20.8c2.4,2.4,5.6,2.4,8,0l0,0c2.4-2.4,3.2-5.6,0.8-8
	l-18.4-20.8C444,141.2,440.8,141.2,438.4,142.8L438.4,142.8z"/>
<g>
	
		<ellipse transform="matrix(-0.3273 -0.9449 0.9449 -0.3273 330.7733 575.6464)" style="fill:#F76F54;" cx="370.29" cy="170.083" rx="4" ry="26.399"/>
	
		<ellipse transform="matrix(-0.3273 0.9449 -0.9449 -0.3273 339.8939 99.2653)" style="fill:#F76F54;" cx="134.613" cy="170.619" rx="4" ry="26.399"/>
</g>
<g>
	
		<ellipse transform="matrix(0.1731 -0.9849 0.9849 0.1731 -100.8511 432.5826)" style="fill:#D31818;" cx="207.195" cy="276.352" rx="8" ry="23.2"/>
	
		<ellipse transform="matrix(0.1731 0.9849 -0.9849 0.1731 532.8658 -81.9204)" style="fill:#D31818;" cx="315.22" cy="276.383" rx="8" ry="23.2"/>
	<ellipse style="fill:#D31818;" cx="259.2" cy="280.4" rx="20" ry="5.6"/>
</g>
<path style="fill:#333333;" d="M196.8,356.4L196.8,356.4c2.4,32,24,52,48,57.6v68.8c0,10.4,4.8,10.4,12,10.4c7.2,0,12,0,12-10.4V414
	c32-5.6,50.4-25.6,52.8-57.6l0,0l0,0l0,0l0,0l-0.8-84.8c-8,1.6-12,2.4-20,4v51.2c0,0-4-1.6-5.6-1.6h-26.4v-46.4
	c-8,0-8.8,0.8-14.4,0.8c-0.8,0-1.6,0-1.6,0v44.8h-32c-1.6,0-8.8,0.8-8,1.6v-49.6c0-0.8-8-1.6-16-2.4V356.4L196.8,356.4"/>
<path d="M244.8,412.4v70.4c0,10.4,4.8,10.4,12,10.4c7.2,0,12,0,12-10.4V414c32-5.6,50.4-25.6,52.8-57.6l0,0l0,0c0-0.8,0,0,0,0l0,0
	l-0.8-84.8c-8,1.6-12,2.4-20,4v51.2c0,0-1.6-1.6-5.6-1.6h-26.4v-46.4c-8,0-11.2,0-16.8,0"/>
<g>
	<path style="fill:#870000;" d="M156.8,128.4c0,2.4-1.6,4-4,4l0,0c-2.4,0-4-1.6-4-4v-88c0-2.4,1.6-4,4-4l0,0c2.4,0,4,1.6,4,4V128.4z
		"/>
	<path style="fill:#870000;" d="M196.8,104.4c0,2.4-1.6,4-4,4l0,0c-2.4,0-4-1.6-4-4v-88c0-2.4,1.6-4,4-4l0,0c2.4,0,4,1.6,4,4V104.4z
		"/>
	<path style="fill:#870000;" d="M308.8,128.4c0,2.4-1.6,4-4,4l0,0c-2.4,0-4-1.6-4-4v-88c0-2.4,1.6-4,4-4l0,0c2.4,0,4,1.6,4,4V128.4z
		"/>
	<path style="fill:#870000;" d="M340.8,104.4c0,2.4-1.6,4-4,4l0,0c-2.4,0-4-1.6-4-4v-88c0-2.4,1.6-4,4-4l0,0c2.4,0,4,1.6,4,4V104.4z
		"/>
</g>
<g>
</g>
<g>
</g>
<g>
</g>
<g>
</g>
<g>
</g>
<g>
</g>
<g>
</g>
<g>
</g>
<g>
</g>
<g>
</g>
<g>
</g>
<g>
</g>
<g>
</g>
<g>
</g>
<g>
</g>
</svg>
