<?xml version="1.0" encoding="iso-8859-1"?>
<!-- Generator: Adobe Illustrator 18.0.0, SVG Export Plug-In . SVG Version: 6.00 Build 0)  -->
<!DOCTYPE svg PUBLIC "-//W3C//DTD SVG 1.1//EN" "http://www.w3.org/Graphics/SVG/1.1/DTD/svg11.dtd">
<svg version="1.1" id="Capa_1" xmlns="http://www.w3.org/2000/svg" xmlns:xlink="http://www.w3.org/1999/xlink" x="0px" y="0px"
	 viewBox="0 0 84.011 84.011" style="enable-background:new 0 0 84.011 84.011;" xml:space="preserve">
<g>
	<path d="M78.436,69.153L60.475,47.888c-0.144-0.17-0.304-0.318-0.47-0.455c2.715-4.187,4.374-9.003,4.806-14.115
		c0.689-8.181-1.848-16.141-7.146-22.412C51.814,3.975,43.251,0,34.172,0c-7.239,0-14.277,2.576-19.816,7.255
		c-6.273,5.297-10.107,12.72-10.797,20.9c-0.69,8.181,1.848,16.14,7.144,22.41c5.853,6.931,14.417,10.905,23.496,10.905
		c4.18,0,8.291-0.863,12.087-2.489c0.109,0.196,0.236,0.386,0.387,0.564l17.958,21.264c1.783,2.113,4.337,3.201,6.909,3.201
		c2.059,0,4.129-0.698,5.823-2.127C81.168,78.67,81.649,72.959,78.436,69.153z M16.217,45.908
		c-4.053-4.798-5.994-10.888-5.467-17.147c0.528-6.26,3.462-11.939,8.262-15.993c4.239-3.579,9.623-5.551,15.16-5.551
		c6.949,0,13.502,3.041,17.98,8.344c4.053,4.8,5.995,10.89,5.467,17.149c-0.527,6.26-3.462,11.939-8.261,15.993
		c-4.238,3.578-9.622,5.55-15.159,5.55C27.25,54.254,20.696,51.212,16.217,45.908z M72.707,76.368
		c-0.767,0.649-1.915,0.55-2.563-0.215L52.577,55.351c0.488-0.364,0.97-0.739,1.438-1.134c0.462-0.39,0.906-0.795,1.341-1.207
		L72.922,73.81C73.568,74.574,73.471,75.724,72.707,76.368z"/>
	<path d="M39.221,14.668c-0.947-0.295-1.962,0.232-2.261,1.185c-0.297,0.951,0.233,1.963,1.185,2.261
		c2.396,0.749,4.522,2.162,6.147,4.087c0.357,0.423,0.867,0.641,1.38,0.641c0.411,0,0.824-0.14,1.163-0.426
		c0.762-0.644,0.857-1.781,0.215-2.543C44.98,17.422,42.273,15.623,39.221,14.668z"/>
	<path d="M23.321,17.872c-3.437,2.902-5.537,6.968-5.915,11.45c-0.378,4.481,1.013,8.842,3.915,12.278
		c0.357,0.423,0.867,0.641,1.38,0.641c0.411,0,0.824-0.141,1.163-0.427c0.762-0.643,0.857-1.781,0.215-2.542
		c-2.281-2.7-3.373-6.126-3.076-9.647c0.296-3.522,1.946-6.716,4.646-8.995c0.762-0.643,0.858-1.781,0.215-2.543
		C25.221,17.325,24.082,17.229,23.321,17.872z"/>
</g>
<g>
</g>
<g>
</g>
<g>
</g>
<g>
</g>
<g>
</g>
<g>
</g>
<g>
</g>
<g>
</g>
<g>
</g>
<g>
</g>
<g>
</g>
<g>
</g>
<g>
</g>
<g>
</g>
<g>
</g>
</svg>
