<?xml version="1.0" encoding="iso-8859-1"?>
<!-- Generator: Adobe Illustrator 18.0.0, SVG Export Plug-In . SVG Version: 6.00 Build 0)  -->
<!DOCTYPE svg PUBLIC "-//W3C//DTD SVG 1.1//EN" "http://www.w3.org/Graphics/SVG/1.1/DTD/svg11.dtd">
<svg version="1.1" id="Capa_1" xmlns="http://www.w3.org/2000/svg" xmlns:xlink="http://www.w3.org/1999/xlink" x="0px" y="0px"
	 viewBox="0 0 93.55 93.55" style="enable-background:new 0 0 93.55 93.55;" xml:space="preserve">
<g>
	<path d="M43.439,39.887l8.326,3.32c0.429,0.171,0.883,0.256,1.336,0.256c0.485,0,0.971-0.098,1.425-0.293
		c0.879-0.378,1.572-1.09,1.927-1.979l11.006-27.608c0.738-1.852-0.165-3.951-2.016-4.689l-8.326-3.319
		c-0.888-0.354-1.882-0.34-2.762,0.037c-0.879,0.378-1.572,1.09-1.927,1.979L41.423,35.199
		C40.685,37.05,41.588,39.149,43.439,39.887z M57.797,13.615l1.622,0.646l-8.333,20.904l-1.622-0.646L57.797,13.615z"/>
	<path d="M89.941,33.136H71.987c-1.993,0-3.609,1.616-3.609,3.609c0,1.993,1.616,3.609,3.609,3.609h14.345v4.58H7.218v-4.58h24.47
		c1.993,0,3.609-1.616,3.609-3.609c0-1.993-1.616-3.609-3.609-3.609H3.609C1.616,33.136,0,34.752,0,36.745v11.797
		c0,1.993,1.616,3.608,3.609,3.608h2.685l8.407,27.489c1.474,4.818,6.575,8.592,11.613,8.592h40.92
		c5.038,0,10.14-3.773,11.613-8.592l5.179-16.933c0.583-1.906-0.489-3.924-2.395-4.507c-1.905-0.583-3.923,0.489-4.506,2.396
		l-5.179,16.934c-0.548,1.792-2.838,3.486-4.712,3.486h-40.92c-1.874,0-4.163-1.694-4.712-3.486L13.841,52.15h76.1
		c1.993,0,3.609-1.615,3.609-3.608V36.745C93.55,34.752,91.934,33.136,89.941,33.136z"/>
	<path d="M28.323,57.318c-0.982,0.172-1.638,1.107-1.466,2.089l2.706,15.428c0.154,0.876,0.916,1.493,1.775,1.493
		c0.104,0,0.208-0.009,0.313-0.027c0.982-0.172,1.638-1.107,1.466-2.089l-2.706-15.428C30.24,57.803,29.305,57.145,28.323,57.318z"
		/>
	<path d="M63.546,58.784l-2.707,15.428c-0.172,0.982,0.484,1.916,1.465,2.089c0.105,0.019,0.21,0.027,0.314,0.027
		c0.86,0,1.622-0.617,1.775-1.493l2.707-15.428c0.172-0.981-0.484-1.916-1.465-2.089C64.653,57.144,63.718,57.803,63.546,58.784z"/>
	<path d="M45.174,58.786v15.435c0,0.996,0.808,1.805,1.804,1.805c0.997,0,1.804-0.809,1.804-1.805V58.786
		c0-0.996-0.808-1.805-1.804-1.805C45.982,56.981,45.174,57.79,45.174,58.786z"/>
</g>
<g>
</g>
<g>
</g>
<g>
</g>
<g>
</g>
<g>
</g>
<g>
</g>
<g>
</g>
<g>
</g>
<g>
</g>
<g>
</g>
<g>
</g>
<g>
</g>
<g>
</g>
<g>
</g>
<g>
</g>
</svg>
