<?xml version="1.0" encoding="iso-8859-1"?>
<!-- Generator: Adobe Illustrator 19.0.0, SVG Export Plug-In . SVG Version: 6.00 Build 0)  -->
<svg version="1.1" id="Layer_1" xmlns="http://www.w3.org/2000/svg" xmlns:xlink="http://www.w3.org/1999/xlink" x="0px" y="0px"
	 viewBox="0 0 500.8 500.8" style="enable-background:new 0 0 500.8 500.8;" xml:space="preserve">
<path style="fill:#FCF7C5;" d="M499.2,235.079H0l77.6,180.8v0.8c0,23.2,76.8,41.6,170.4,41.6c94.4,0,171.2-18.4,171.2-41.6v-1.6
	L499.2,235.079z"/>
<path style="fill:#EFE5AB;" d="M250.4,457.479c94.4,0,169.6-18.4,169.6-40.8c0,0-0.8-0.8-0.8-1.6l81.6-180H1.6"/>
<ellipse style="fill:#E2D998;" cx="250.4" cy="235.079" rx="250.4" ry="60.8"/>
<path style="fill:#C6B96D;" d="M250.4,174.279c138.4,0,250.4,27.2,250.4,60.8s-112,60.8-250.4,60.8"/>
<path style="fill:#F47400;" d="M250.4,207.079c-114.4,0-207.2,22.4-207.2,49.6c0,5.6,3.2,10.4,9.6,15.2
	c45.6,14.4,116.8,23.2,197.6,23.2s151.2-8.8,197.6-23.2c6.4-4.8,9.6-9.6,9.6-15.2C457.6,229.479,364.8,207.079,250.4,207.079z"/>
<path style="fill:#F25600;" d="M250.4,295.079c80,0,151.2-8.8,197.6-23.2c6.4-4.8,9.6-9.6,9.6-15.2c0-28-92.8-49.6-207.2-49.6"/>
<ellipse style="fill:#FF8B00;" cx="333.6" cy="247.079" rx="56" ry="11.2"/>
<polygon style="fill:#5EA304;" points="215.2,435.079 181.6,379.079 215.2,323.079 281.6,323.079 315.2,379.079 281.6,435.079 "/>
<polyline style="fill:#357503;" points="217.6,323.079 281.6,323.079 315.2,379.079 281.6,435.079 "/>
<path style="fill:#00233F;" d="M352,243.079c4.8-16,9.6-32,15.2-49.6c32.8-100,65.6-139.2,32.8-149.6s-29.6,39.2-62.4,139.2
	c-7.2,21.6-14.4,43.2-21.6,59.2h36V243.079z"/>
<ellipse transform="matrix(-0.3203 0.9473 -0.9473 -0.3203 575.6954 -270.1767)" style="fill:#262E87;" cx="384.773" cy="71.441" rx="21.6" ry="8.8"/>
<path style="fill:#F25600;" d="M136.8,215.079c-35.2,5.6-62.4,13.6-78.4,23.2l-14.4,14.4c-0.8,1.6-0.8,3.2-0.8,4.8
	c0,5.6,3.2,10.4,9.6,15.2c39.2,12,96.8,20.8,163.2,22.4L136.8,215.079z"/>
<path style="fill:#357503;" d="M116.8,267.079L116.8,267.079L116.8,267.079L116.8,267.079c26.4,0,51.2-29.6,52-55.2
	c0.8-44.8-39.2-59.2-55.2-96.8l0,0l0,0l0,0"/>
<path style="fill:#5EA304;" d="M119.2,263.079v0.8l-0.8,0.8l0,0c-28-16-51.2-31.2-53.6-56.8c-4.8-44.8,32.8-56,48.8-92.8l0,0l0,0
	l0,0"/>
<path style="fill:#357503;" d="M118.4,265.479L118.4,265.479L118.4,265.479L118.4,265.479c8-24,13.6-49.6-2.4-66.4
	c-28-29.6-60-9.6-95.2-23.2l0,0l0,0l0,0"/>
<path style="fill:#5EA304;" d="M118.4,265.479L118.4,265.479L118.4,265.479L118.4,265.479c-28.8,8-53.6,13.6-72-1.6
	c-32-26.4-11.2-56-26.4-88.8l0,0l0,0l0,0"/>
<ellipse transform="matrix(-0.0417 -0.9991 0.9991 -0.0417 1.1609 440.833)" style="fill:#FFA300;" cx="211.991" cy="219.86" rx="5.6" ry="34.399"/>
<g>
</g>
<g>
</g>
<g>
</g>
<g>
</g>
<g>
</g>
<g>
</g>
<g>
</g>
<g>
</g>
<g>
</g>
<g>
</g>
<g>
</g>
<g>
</g>
<g>
</g>
<g>
</g>
<g>
</g>
</svg>
