<?xml version="1.0" encoding="iso-8859-1"?>
<!-- Generator: Adobe Illustrator 18.0.0, SVG Export Plug-In . SVG Version: 6.00 Build 0)  -->
<!DOCTYPE svg PUBLIC "-//W3C//DTD SVG 1.1//EN" "http://www.w3.org/Graphics/SVG/1.1/DTD/svg11.dtd">
<svg version="1.1" id="Capa_1" xmlns="http://www.w3.org/2000/svg" xmlns:xlink="http://www.w3.org/1999/xlink" x="0px" y="0px"
	 viewBox="0 0 95.727 95.727" style="enable-background:new 0 0 95.727 95.727;" xml:space="preserve">
<g>
	<path d="M47.863,7.926C21.472,7.926,0,22.879,0,41.259C0,53.57,9.744,64.857,25.078,70.61l-1.71,13.115
		c-0.194,1.488,0.552,2.94,1.875,3.648c0.535,0.287,1.121,0.428,1.702,0.428c0.854,0,1.7-0.303,2.373-0.889l15.417-13.447
		c1.502-1.31,1.657-3.59,0.348-5.092c-1.31-1.501-3.589-1.658-5.092-0.348l-8.233,7.182l0.858-6.58
		c0.227-1.734-0.823-3.38-2.49-3.908C16.209,60.319,7.217,51.11,7.217,41.259c0-14.4,18.234-26.115,40.646-26.115
		S88.51,26.859,88.51,41.259c0,11.745-12.9,22.39-30.674,25.311c-1.967,0.323-3.299,2.18-2.976,4.146
		c0.323,1.967,2.177,3.298,4.145,2.976c21.621-3.554,36.721-16.891,36.721-32.433C95.727,22.879,74.255,7.926,47.863,7.926z"/>
	<path d="M46.761,30.817c-1.965,0-3.572,0.387-5.239,1.429c-0.388,0.238-0.744,0.565-0.744,1.131c0,0.655,0.535,1.191,1.19,1.191
		c0.238,0,0.565-0.119,0.744-0.238c1.042-0.655,2.471-0.982,3.811-0.982c3.007,0,4.257,1.221,4.257,3.245
		c0,2.917-5.507,3.542-5.507,8.604c0,0.625,0.565,1.161,1.31,1.161c0.684,0,1.309-0.506,1.309-1.161
		c0-3.811,5.567-3.989,5.567-8.752C53.459,32.99,50.81,30.817,46.761,30.817z"/>
	<path d="M46.522,48.47c-0.952,0-1.756,0.804-1.756,1.756c0,0.982,0.804,1.786,1.756,1.786c0.982,0,1.786-0.804,1.786-1.786
		C48.309,49.274,47.505,48.47,46.522,48.47z"/>
	<path d="M26.245,30.7c0.909-0.408,1.315-1.475,0.908-2.385c-0.407-0.91-1.475-1.315-2.385-0.908
		c-8.516,3.817-10.076,9.797-10.248,13.021c-0.248,4.647,2.041,9.329,5.566,11.385c0.286,0.167,0.599,0.246,0.907,0.246
		c0.621,0,1.226-0.321,1.56-0.896c0.502-0.861,0.211-1.966-0.649-2.468c-2.029-1.184-3.979-4.338-3.78-8.075
		C18.346,36.471,21.229,32.949,26.245,30.7z"/>
</g>
<g>
</g>
<g>
</g>
<g>
</g>
<g>
</g>
<g>
</g>
<g>
</g>
<g>
</g>
<g>
</g>
<g>
</g>
<g>
</g>
<g>
</g>
<g>
</g>
<g>
</g>
<g>
</g>
<g>
</g>
</svg>
