<?xml version="1.0" encoding="iso-8859-1"?>
<!-- Generator: Adobe Illustrator 19.0.0, SVG Export Plug-In . SVG Version: 6.00 Build 0)  -->
<svg version="1.1" id="Layer_1" xmlns="http://www.w3.org/2000/svg" xmlns:xlink="http://www.w3.org/1999/xlink" x="0px" y="0px"
	 viewBox="0 0 496.414 496.414" style="enable-background:new 0 0 496.414 496.414;" xml:space="preserve">
<path style="fill:#EFAC8E;" d="M496.154,239.505l-109.6,8.8c-78.4-18.4-181.6-28.8-253.6-12c-36.8,8.8-66.4,22.4-87.2,38.4
	l-45.6,22.4v47.2c0,22.4,0,45.6,8,65.6c32.8,84,168.8,57.6,244-1.6c132.8-104.8,244-86.4,243.2-112.8h0.8V239.505z"/>
<path style="fill:#E29779;" d="M252.954,408.305c132.8-104.8,244-86.4,243.2-112.8l0,0v-56l-109.6,8.8
	c-78.4-18.4-59.2-51.2-130.4-33.6"/>
<path style="fill:#F9E4D9;" d="M496.154,237.105c6.4,29.6-106.4,5.6-244,111.2c-76.8,58.4-212,82.4-244-1.6
	c-23.2-60.8-1.6-143.2,126.4-172S489.754,207.505,496.154,237.105z"/>
<path style="fill:#EFCEBF;" d="M134.554,174.705c128-28.8,355.2,32.8,361.6,62.4s-106.4,5.6-244,111.2"/>
<path style="fill:#C95039;" d="M460.954,233.905c5.6,26.4-95.2,4.8-217.6,99.2c-68,52-188.8,73.6-217.6-1.6
	c-20.8-54.4-1.6-127.2,112.8-152.8C252.154,153.105,454.554,207.505,460.954,233.905z"/>
<path style="fill:#AF3727;" d="M138.554,178.705c114.4-25.6,316.8,28.8,322.4,55.2s-95.2,4.8-217.6,99.2"/>
<ellipse style="fill:#E29779;" cx="180.154" cy="231.505" rx="21.6" ry="8.8"/>
<ellipse style="fill:#F9E4D9;" cx="180.154" cy="231.505" rx="12.8" ry="4.8"/>
<ellipse transform="matrix(0.6149 -0.7886 0.7886 0.6149 -173.5527 144.3931)" style="fill:#DB7F63;" cx="61.068" cy="249.897" rx="46.4" ry="15.2"/>
<g>
	<ellipse style="fill:#AF3727;" cx="157.754" cy="302.705" rx="14.4" ry="7.2"/>
	<ellipse style="fill:#AF3727;" cx="99.354" cy="328.305" rx="23.2" ry="11.2"/>
	<ellipse style="fill:#AF3727;" cx="130.554" cy="261.105" rx="10.4" ry="5.6"/>
</g>
<g>
	<ellipse style="fill:#C95039;" cx="283.354" cy="247.505" rx="10.4" ry="5.6"/>
	<ellipse style="fill:#C95039;" cx="263.354" cy="200.305" rx="15.2" ry="8"/>
</g>
<path style="fill:#80C414;" d="M376.154,396.305c0,12.8-12.8,22.4-28.8,22.4s-28.8-10.4-28.8-22.4c0-12.8,12.8-6.4,28.8-6.4
	S376.154,384.305,376.154,396.305z"/>
<path style="fill:#5EA304;" d="M348.154,389.905c16,0,28.8-5.6,28.8,6.4c0,12.8-12.8,22.4-28.8,22.4"/>
<ellipse transform="matrix(0.1067 -0.9943 0.9943 0.1067 -95.0068 683.6891)" style="fill:#ADE542;" cx="332.988" cy="394.718" rx="4" ry="10.4"/>
<path style="fill:#80C414;" d="M461.754,443.505c-4,12-19.2,17.6-34.4,12.8c-15.2-4.8-24-18.4-20-30.4s14.4-2.4,28.8,2.4
	C451.354,433.105,465.754,431.505,461.754,443.505z"/>
<path style="fill:#5EA304;" d="M436.954,428.305c15.2,4.8,28.8,3.2,24.8,15.2s-19.2,17.6-34.4,12.8"/>
<ellipse transform="matrix(0.4079 -0.913 0.913 0.4079 -141.9469 637.9137)" style="fill:#ADE542;" cx="420.868" cy="428.4" rx="4" ry="10.4"/>
<path style="fill:#80C414;" d="M458.554,348.305c4.8,11.2-2.4,25.6-16.8,32s-30.4,2.4-35.2-8.8s8.8-11.2,23.2-17.6
	C444.154,347.505,453.754,337.105,458.554,348.305z"/>
<path style="fill:#5EA304;" d="M429.754,353.905c14.4-6.4,24-16.8,28.8-5.6c4.8,11.2-2.4,25.6-16.8,32"/>
<path style="fill:#ADE542;" d="M427.354,361.105c0.8,2.4-3.2,5.6-8.8,7.2c-5.6,1.6-10.4,1.6-11.2-0.8c-0.8-2.4,3.2-5.6,8.8-7.2
	C421.754,358.705,426.554,359.505,427.354,361.105z"/>
<ellipse style="fill:#99261D;" cx="176.154" cy="191.505" rx="32" ry="7.2"/>
<path d="M184.154,188.305c0,2.4-4,4.8-8,4.8l0,0c-4,0-8-2.4-8-4.8v-150.4c0-2.4,4-4.8,8-4.8l0,0c4,0,8,2.4,8,4.8V188.305z"/>
<rect x="184.154" y="40.305" style="fill:#80C414;" width="72" height="56"/>
<polyline style="fill:#5EA304;" points="184.154,40.305 256.154,40.305 256.154,96.305 "/>
<g>
</g>
<g>
</g>
<g>
</g>
<g>
</g>
<g>
</g>
<g>
</g>
<g>
</g>
<g>
</g>
<g>
</g>
<g>
</g>
<g>
</g>
<g>
</g>
<g>
</g>
<g>
</g>
<g>
</g>
</svg>
