<?xml version="1.0" encoding="iso-8859-1"?>
<!-- Generator: Adobe Illustrator 19.0.0, SVG Export Plug-In . SVG Version: 6.00 Build 0)  -->
<svg version="1.1" id="Layer_1" xmlns="http://www.w3.org/2000/svg" xmlns:xlink="http://www.w3.org/1999/xlink" x="0px" y="0px"
	 viewBox="0 0 496 496" style="enable-background:new 0 0 496 496;" xml:space="preserve">
<rect y="288.4" width="496" height="200"/>
<path style="fill:#DBD2D5;" d="M490.4,342.8c0,43.2-69.6,46.4-155.2,46.4S180,386,180,342.8s69.6-78.4,155.2-78.4
	S490.4,299.6,490.4,342.8z"/>
<path style="fill:#EA5647;" d="M335.2,264.4c78.4,0,144,29.6,153.6,68c0.8-3.2,1.6-5.6,1.6-9.6c0-43.2-69.6-127.2-155.2-127.2
	S180,279.6,180,322.8c0,3.2,0.8,6.4,1.6,9.6C192,294,256.8,264.4,335.2,264.4z"/>
<path style="fill:#D32E26;" d="M335.2,264.4c78.4,0,144,29.6,153.6,68c0.8-3.2,1.6-5.6,1.6-9.6c0-43.2-69.6-108-155.2-108
	S180,279.6,180,322.8c0,3.2,0.8,6.4,1.6,9.6C192,294,256.8,264.4,335.2,264.4z"/>
<path style="fill:#B51212;" d="M335.2,264.4c78.4,0,144,29.6,153.6,68c0.8-3.2,1.6-5.6,1.6-9.6c0-43.2-69.6-78.4-155.2-78.4
	S180,279.6,180,322.8c0,3.2,0.8,6.4,1.6,9.6C192,294,256.8,264.4,335.2,264.4z"/>
<path style="fill:#FFFFFF;" d="M490.4,342.8c0,43.2-69.6,36.8-155.2,36.8S180,386,180,342.8s69.6-59.2,155.2-59.2
	C420.8,283.6,490.4,299.6,490.4,342.8z"/>
<g>
	<path style="fill:#FF7C76;" d="M320,196.4v68c8,0,8.8,0,12.8,0c3.2,0,11.2,0,11.2,0v-68c0,0-7.2-0.8-11.2-0.8S328,196.4,320,196.4z
		"/>
	<path style="fill:#FF7C76;" d="M265.6,272.4c7.2-1.6,14.4-3.2,21.6-4.8l-12.8-58.4c-7.2,3.2-13.6,7.2-20,11.2L265.6,272.4z"/>
	<path style="fill:#FF7C76;" d="M217.6,291.6c6.4-4,12.8-7.2,20.8-10.4l-22.4-28c-5.6,5.6-10.4,12-14.4,17.6L217.6,291.6z"/>
	<path style="fill:#FF7C76;" d="M380.8,267.6c7.2,0.8,15.2,2.4,21.6,4l12-52c-6.4-4-13.6-8-20.8-11.2L380.8,267.6z"/>
	<path style="fill:#FF7C76;" d="M452,290.8l16-21.6c-4-5.6-8.8-12-14.4-17.6l-22.4,29.6C438.4,284.4,445.6,287.6,452,290.8z"/>
</g>
<g>
	<circle style="fill:#DBD2D5;" cx="220" cy="327.6" r="6.4"/>
	<circle style="fill:#DBD2D5;" cx="416" cy="320.4" r="6.4"/>
	<circle style="fill:#DBD2D5;" cx="250.4" cy="353.2" r="6.4"/>
	<circle style="fill:#DBD2D5;" cx="448" cy="348.4" r="6.4"/>
	<circle style="fill:#DBD2D5;" cx="407.2" cy="356.4" r="4"/>
	<circle style="fill:#DBD2D5;" cx="308" cy="347.6" r="4"/>
	<circle style="fill:#DBD2D5;" cx="279.2" cy="328.4" r="4"/>
	<circle style="fill:#DBD2D5;" cx="253.6" cy="318" r="4"/>
	<circle style="fill:#DBD2D5;" cx="356" cy="338" r="6.4"/>
</g>
<polygon style="fill:#494949;" points="129.6,266 115.2,266.8 92,10.8 122.4,9.2 "/>
<polyline points="92,10.8 122.4,9.2 129.6,266 "/>
<polygon style="fill:#494949;" points="156,265.2 141.6,263.6 157.6,7.6 187.2,10 "/>
<polyline points="157.6,7.6 187.2,10 156,265.2 "/>
<path style="fill:#DBD2D5;" d="M369.6,420.4c0,50.4-80.8,53.6-180,53.6s-180-3.2-180-53.6s80.8-91.2,180-91.2S369.6,370,369.6,420.4
	z"/>
<path style="fill:#E53871;" d="M189.6,329.2c91.2,0,167.2,34.4,178.4,79.2c0.8-3.2,1.6-7.2,1.6-11.2c0-50.4-80.8-148-180-148
	s-180,97.6-180,148c0,4,0.8,7.2,1.6,11.2C22.4,364.4,97.6,329.2,189.6,329.2z"/>
<path style="fill:#D32054;" d="M189.6,329.2c91.2,0,167.2,34.4,178.4,79.2c0.8-3.2,1.6-7.2,1.6-11.2c0-50.4-80.8-125.6-180-125.6
	C89.6,272.4,8.8,347.6,8.8,398c0,4,0.8,7.2,1.6,11.2C22.4,364.4,97.6,329.2,189.6,329.2z"/>
<path style="fill:#B51248;" d="M189.6,329.2c91.2,0,167.2,34.4,178.4,79.2c0.8-3.2,1.6-7.2,1.6-11.2c0-50.4-80.8-91.2-180-91.2
	s-180,40.8-180,91.2c0,4,0.8,7.2,1.6,11.2C22.4,364.4,97.6,329.2,189.6,329.2z"/>
<path style="fill:#FFFFFF;" d="M369.6,420.4c0,50.4-80.8,42.4-180,42.4s-180,8-180-42.4s80.8-68.8,180-68.8
	C288.8,352.4,369.6,370,369.6,420.4z"/>
<g>
	<path style="fill:#FF7C76;" d="M176,250.8V330c0,0,8,0,12.8,0c4,0,11.2,0,11.2,0v-79.2c0,0-7.2-0.8-11.2-0.8
		C184,250,176,250,176,250.8z"/>
	<path style="fill:#FF7C76;" d="M108.8,339.6c8-2.4,16.8-4,25.6-5.6l-15.2-68c-8,4-16,8-24,12.8L108.8,339.6z"/>
	<path style="fill:#FF7C76;" d="M52,362c7.2-4,15.2-8,24-12l-25.6-33.6c-6.4,7.2-12,13.6-16.8,20.8L52,362z"/>
	<path style="fill:#FF7C76;" d="M242.4,334c8.8,1.6,17.6,3.2,25.6,4.8l13.6-60.8c-8-4.8-15.2-8.8-24-12.8L242.4,334z"/>
	<path style="fill:#FF7C76;" d="M324.8,360.4l19.2-24.8c-4.8-7.2-10.4-13.6-16.8-20.8l-25.6,33.6
		C309.6,352.4,317.6,356.4,324.8,360.4z"/>
</g>
<g>
	<circle style="fill:#DBD2D5;" cx="55.2" cy="402.8" r="8"/>
	<circle style="fill:#DBD2D5;" cx="283.2" cy="394.8" r="8"/>
	<circle style="fill:#DBD2D5;" cx="90.4" cy="432.4" r="8"/>
	<circle style="fill:#DBD2D5;" cx="320.8" cy="427.6" r="8"/>
	<circle style="fill:#DBD2D5;" cx="272.8" cy="437.2" r="4.8"/>
	<circle style="fill:#DBD2D5;" cx="157.6" cy="426" r="4.8"/>
	<circle style="fill:#DBD2D5;" cx="124.8" cy="404.4" r="4.8"/>
	<circle style="fill:#DBD2D5;" cx="94.4" cy="392.4" r="4.8"/>
	<circle style="fill:#DBD2D5;" cx="213.6" cy="415.6" r="8"/>
</g>
<ellipse style="fill:#B51212;" cx="334.4" cy="206.8" rx="22.4" ry="5.6"/>
<path d="M336,202.8c0,4-0.8,4-4,4l0,0c-3.2,0-4,0-4-4V72.4c0-4,0.8-7.2,4-7.2l0,0c3.2,0,4,3.2,4,7.2V202.8z"/>
<rect x="336" y="72.4" style="fill:#494949;" width="104" height="64"/>
<polyline points="336,72.4 440,72.4 440,136.4 "/>
<circle style="fill:#D32E26;" cx="388.8" cy="106.8" r="20.8"/>
<path style="fill:#A80000;" d="M403.2,92.4c8,8,8,21.6,0,29.6c-8,8-21.6,8-29.6,0"/>
<g>
</g>
<g>
</g>
<g>
</g>
<g>
</g>
<g>
</g>
<g>
</g>
<g>
</g>
<g>
</g>
<g>
</g>
<g>
</g>
<g>
</g>
<g>
</g>
<g>
</g>
<g>
</g>
<g>
</g>
</svg>
