<?xml version="1.0" encoding="iso-8859-1"?>
<!-- Generator: Adobe Illustrator 19.0.0, SVG Export Plug-In . SVG Version: 6.00 Build 0)  -->
<svg version="1.1" id="Layer_1" xmlns="http://www.w3.org/2000/svg" xmlns:xlink="http://www.w3.org/1999/xlink" x="0px" y="0px"
	 viewBox="0 0 496 496" style="enable-background:new 0 0 496 496;" xml:space="preserve">
<path style="fill:#F2B233;" d="M496,113.6c-63.2-15.2-151.2-24.8-248.8-24.8c-96.8,0-184,9.6-247.2,24V432h496V228l0,0V113.6z"/>
<path style="fill:#F28C27;" d="M496,160.8C432.8,148,344.8,140,247.2,140c-96.8,0-184,8-247.2,20.8V432h496V258.4l0,0V160.8z"/>
<path style="fill:#211814;" d="M496,256c-63.2-8.8-151.2-13.6-248.8-13.6c-96.8,0-184,4.8-247.2,13.6v176h496V318.4l0,0V256z"/>
<path style="fill:#82C60A;" d="M184,64L184,64L184,64L184,64c1.6,43.2-33.6,69.6-11.2,112c12.8,24.8,41.6,32,75.2,32l0,0v-0.8l0,0
	c24-26.4,36-51.2,26.4-76.8C257.6,85.6,215.2,94.4,184,64z"/>
<path style="fill:#5EA304;" d="M248,208L248,208L248,208v-0.8c24-26.4,36-51.2,26.4-76.8C257.6,85.6,216,94.4,184,64l0,0l0,0v0.8"/>
<g>
	<polygon style="fill:#74B208;" points="212.8,127.2 183.2,123.2 216,136 228.8,103.2 	"/>
	<polygon style="fill:#74B208;" points="233.6,175.2 204.8,171.2 237.6,184 250.4,150.4 	"/>
	<polygon style="fill:#74B208;" points="223.2,151.2 189.6,146.4 227.2,160.8 241.6,123.2 	"/>
</g>
<path style="fill:#82C60A;" d="M337.6,99.2L337.6,99.2L337.6,99.2L337.6,99.2c-34.4,17.6-68,0-93.6,33.6c-14.4,20-6.4,44.8,4,72v0.8
	v1.6l0,0c28.8,0,55.2,8,72-9.6C348.8,167.2,325.6,136,337.6,99.2z"/>
<path style="fill:#5EA304;" d="M248,205.6v0.8v1.6l0,0c28.8,0,55.2,8,72-9.6c28.8-31.2,5.6-61.6,17.6-98.4l0,0l0,0l0,0"/>
<g>
	<polygon style="fill:#74B208;" points="297.6,146.4 289.6,121.6 292,152.8 324,150.4 	"/>
	<polygon style="fill:#74B208;" points="268,182.4 260,157.6 262.4,188.8 293.6,185.6 	"/>
	<polygon style="fill:#74B208;" points="283.2,164 273.6,136 276.8,171.2 312.8,168 	"/>
</g>
<path style="fill:#057C5D;" d="M248,328.8L248,328.8L248,328.8V208l-237.6-2.4V328l0,0c0,0,2.4-0.8,0,0l0,0l0,0
	c0.8,16,53.6,40,118.4,40s117.6-24,118.4-40L248,328.8L248,328.8z"/>
<g>
	<path style="fill:#025642;" d="M10.4,328C10.4,328.8,10.4,328.8,10.4,328"/>
	<path style="fill:#025642;" d="M128.8,368c64.8,0,117.6-24,118.4-40h0.8v0.8l0,0l0,0V208H16"/>
</g>
<ellipse style="fill:#FFFFFF;" cx="128.8" cy="205.6" rx="118.4" ry="31.2"/>
<path style="fill:#E1EFEB;" d="M128.8,174.4c65.6,0,118.4,14.4,118.4,31.2c0,17.6-52.8,31.2-118.4,31.2"/>
<ellipse style="fill:#F4B425;" cx="128.8" cy="201.6" rx="68" ry="18.4"/>
<path style="fill:#F28C27;" d="M128.8,184c37.6,0,68,8,68,18.4s-30.4,18.4-68,18.4"/>
<path style="fill:#0CAD7F;" d="M16.8,237.6C16.8,238.4,16,238.4,16.8,237.6L16,320.8c0,1.6,2.4,12,4,12s4-1.6,4-3.2v-88
	C24,240.8,18.4,239.2,16.8,237.6z"/>
<g>
	<path style="fill:#025642;" d="M480,328.8L480,328.8L480,328.8V208H248v120l0,0l0,0l0,0h-0.8c0.8,16,53.6,40,118.4,40
		s117.6-24,118.4-40L480,328.8L480,328.8z"/>
	<path style="fill:#025642;" d="M247.2,328C247.2,328.8,246.4,328.8,247.2,328"/>
</g>
<path style="fill:#00382D;" d="M365.6,370.4c64.8,0,116.8-26.4,117.6-42.4H480v0.8l0,0l3.2-0.8V205.6L248,208"/>
<ellipse style="fill:#FFFFFF;" cx="365.6" cy="205.6" rx="118.4" ry="31.2"/>
<path style="fill:#E1EFEB;" d="M365.6,174.4c65.6,0,118.4,14.4,118.4,31.2c0,17.6-52.8,31.2-118.4,31.2"/>
<ellipse style="fill:#71D331;" cx="365.6" cy="201.6" rx="68" ry="18.4"/>
<path style="fill:#62B730;" d="M365.6,184c37.6,0,68,8,68,18.4s-30.4,18.4-68,18.4"/>
<path style="fill:#0CAD7F;" d="M256.8,237.6C256.8,238.4,256,238.4,256.8,237.6l-0.8,83.2c0,1.6,2.4,12,4,12s4-1.6,4-3.2v-88
	C256,240.8,258.4,239.2,256.8,237.6z"/>
<path style="fill:#057C5D;" d="M382.4,392L382.4,392C381.6,394.4,382.4,392,382.4,392V264H145.6v126.4l0,0l0,0l0,0l0,0
	c0.8,16,53.6,40,118.4,40C329.6,431.2,381.6,408,382.4,392L382.4,392L382.4,392z"/>
<g>
	<path style="fill:#025642;" d="M145.6,389.6L145.6,389.6"/>
	<path style="fill:#025642;" d="M264,431.2c64.8,0,117.6-23.2,118.4-39.2l0,0l0,0c-1.6,1.6,0,0,0,0l0,0V267.2L144,264"/>
</g>
<ellipse style="fill:#FFFFFF;" cx="264" cy="267.2" rx="118.4" ry="31.2"/>
<path style="fill:#E1EFEB;" d="M264,235.2c65.6,0,118.4,14.4,118.4,31.2c0,17.6-52.8,31.2-118.4,31.2"/>
<ellipse style="fill:#EF7373;" cx="264" cy="263.2" rx="68" ry="18.4"/>
<path style="fill:#ED4545;" d="M264,245.6c37.6,0,68,8,68,18.4c0,9.6-30.4,18.4-68,18.4"/>
<path style="fill:#0CAD7F;" d="M152.8,299.2C152.8,299.2,152,300,152.8,299.2l-0.8,83.2c0,1.6,2.4,12,4,12s4-1.6,4-3.2v-88
	C160,301.6,154.4,300.8,152.8,299.2z"/>
<g>
</g>
<g>
</g>
<g>
</g>
<g>
</g>
<g>
</g>
<g>
</g>
<g>
</g>
<g>
</g>
<g>
</g>
<g>
</g>
<g>
</g>
<g>
</g>
<g>
</g>
<g>
</g>
<g>
</g>
</svg>
