<?xml version="1.0" encoding="iso-8859-1"?>
<!-- Generator: Adobe Illustrator 19.0.0, SVG Export Plug-In . SVG Version: 6.00 Build 0)  -->
<svg version="1.1" id="Layer_1" xmlns="http://www.w3.org/2000/svg" xmlns:xlink="http://www.w3.org/1999/xlink" x="0px" y="0px"
	 viewBox="0 0 499.865 499.865" style="enable-background:new 0 0 499.865 499.865;" xml:space="preserve">
<path style="fill:#CEAB4A;" d="M493.465,392.333c-22.4-168-124-284.8-245.6-284.8s-224,116.8-246.4,284.8H493.465z"/>
<path style="fill:#B28E32;" d="M1.465,392.333h492c-22.4-168-124-284.8-245.6-284.8"/>
<polygon style="fill:#88C600;" points="101.465,233.933 84.665,285.933 31.865,269.133 30.265,181.133 "/>
<polygon style="fill:#3AAD0B;" points="101.465,233.933 84.665,285.933 67.865,250.733 30.265,181.133 "/>
<polygon style="fill:#88C600;" points="65.465,278.733 67.065,314.733 31.065,316.333 10.265,261.933 "/>
<polygon style="fill:#3AAD0B;" points="65.465,278.733 67.065,314.733 48.665,296.333 10.265,261.933 "/>
<path style="fill:#722F01;" d="M273.465,272.333c0,48.8-40.8,88-89.6,88h-8.8c-48.8,0-85.6-38.4-85.6-88v-32c0-48.8,36.8-88,85.6-88
	h8.8c48.8,0,89.6,39.2,89.6,88V272.333z"/>
<path style="fill:#562300;" d="M177.465,152.333h6.4c48.8,0,89.6,39.2,89.6,88v32c0,48.8-40.8,88-89.6,88h-6.4"/>
<ellipse transform="matrix(-0.6549 0.7557 -0.7557 -0.6549 359.6627 225.7526)" style="fill:#994207;" cx="128.287" cy="194.996" rx="32" ry="13.6"/>
<path style="fill:#722F01;" d="M331.865,309.933c-26.4,41.6-81.6,53.6-122.4,27.2l-8-4.8c-41.6-26.4-53.6-80.8-27.2-122.4l17.6-27.2
	c26.4-41.6,80.8-53.6,122.4-27.2l7.2,4.8c41.6,26.4,53.6,80.8,27.2,122.4L331.865,309.933z"/>
<path style="fill:#562300;" d="M314.265,155.533l7.2,4.8c41.6,26.4,53.6,80.8,27.2,122.4l-17.6,27.2
	c-25.6,41.6-80.8,53.6-121.6,27.2l-8-4.8"/>
<ellipse transform="matrix(-0.9576 0.2882 -0.2882 -0.9576 538.1673 254.389)" style="fill:#994207;" cx="250.358" cy="166.809" rx="32.001" ry="13.6"/>
<path style="fill:#EF112C;" d="M395.865,212.333c-15.2,44.8-37.6,76.8-50.4,72.8s-11.2-44,4-88c15.2-44.8,27.2-46.4,40-42.4
	S411.065,168.333,395.865,212.333z"/>
<g>
	<path style="fill:#B20026;" d="M390.265,154.733c12.8,4,20.8,13.6,6.4,57.6c-15.2,44.8-37.6,76.8-50.4,72.8"/>
	
		<ellipse transform="matrix(0.3187 -0.9479 0.9479 0.3187 86.9314 484.8113)" style="fill:#B20026;" cx="380.706" cy="181.935" rx="4.8" ry="14.401"/>
	
		<ellipse transform="matrix(0.3189 -0.9478 0.9478 0.3189 63.4614 492.3189)" style="fill:#B20026;" cx="374.274" cy="202.005" rx="4.8" ry="14.4"/>
	
		<ellipse transform="matrix(0.3187 -0.9479 0.9479 0.3187 39.7947 499.0849)" style="fill:#B20026;" cx="367.067" cy="221.861" rx="4.8" ry="14.401"/>
	
		<ellipse transform="matrix(0.3189 -0.9478 0.9478 0.3189 16.305 506.5363)" style="fill:#B20026;" cx="360.588" cy="241.924" rx="4.8" ry="14.4"/>
</g>
<ellipse transform="matrix(-0.8489 0.5286 -0.5286 -0.8489 781.3143 100.7027)" style="fill:#F97A90;" cx="376.262" cy="162.039" rx="8.8" ry="4.8"/>
<path style="fill:#EF112C;" d="M87.865,334.733c-42.4,19.2-81.6,25.6-87.2,12.8c-5.6-12,24.8-37.6,67.2-57.6
	c42.4-19.2,52.8-12,58.4,0C131.865,302.733,130.265,315.533,87.865,334.733z"/>
<g>
	<path style="fill:#B20026;" d="M126.265,290.733c5.6,12,4.8,24.8-38.4,44c-42.4,19.2-81.6,25.6-87.2,12.8"/>
	
		<ellipse transform="matrix(0.9101 -0.4143 0.4143 0.9101 -116.5473 68.5612)" style="fill:#B20026;" cx="99.772" cy="302.942" rx="4.8" ry="14.399"/>
	
		<ellipse transform="matrix(0.9104 -0.4137 0.4137 0.9104 -121.7037 61.2203)" style="fill:#B20026;" cx="80.5" cy="311.612" rx="4.8" ry="14.4"/>
	
		<ellipse transform="matrix(0.9101 -0.4143 0.4143 0.9101 -127.1819 54.172)" style="fill:#B20026;" cx="61.285" cy="320.262" rx="4.8" ry="14.399"/>
	
		<ellipse transform="matrix(0.9103 -0.4139 0.4139 0.9103 -132.3911 46.8865)" style="fill:#B20026;" cx="42.002" cy="328.957" rx="4.8" ry="14.4"/>
</g>
<ellipse transform="matrix(-0.9659 -0.259 0.259 -0.9659 145.1078 590.9274)" style="fill:#F97A90;" cx="111.48" cy="285.905" rx="8.8" ry="4.8"/>
<path style="fill:#82C60A;" d="M491.865,188.333L491.865,188.333L491.865,188.333L491.865,188.333c-36.8,15.2-68.8-5.6-97.6,27.2
	c-16.8,19.2-8.8,45.6-0.8,75.2l0,0h-0.8l0,0c29.6,8,55.2,13.6,74.4-3.2C499.065,257.933,476.665,225.133,491.865,188.333z"/>
<path style="fill:#5EA304;" d="M393.465,288.333v2.4h-0.8l0,0c29.6,8,55.2,13.6,74.4-3.2c32.8-29.6,10.4-62.4,25.6-99.2l0,0l0,0
	l0.8-0.8"/>
<g>
	<polygon style="fill:#74B208;" points="447.065,233.933 441.465,207.533 441.465,240.333 474.265,239.533 	"/>
	<polygon style="fill:#74B208;" points="413.465,268.333 407.865,241.933 407.865,273.933 440.665,273.933 	"/>
	<polygon style="fill:#74B208;" points="431.065,250.733 423.865,220.333 423.865,257.133 460.665,257.133 	"/>
</g>
<path style="fill:#F4F1E6;" d="M251.065,185.933c44-2.4,81.6,16.8,88.8,42.4c0.8-3.2,0.8-5.6,0.8-8.8c-1.6-30.4-41.6-53.6-90.4-51.2
	s-87.2,28.8-85.6,59.2c0,3.2,0.8,5.6,1.6,8.8C171.065,209.933,207.065,187.533,251.065,185.933z"/>
<path style="fill:#82C60A;" d="M499.065,281.933L499.065,281.933L499.065,281.933L499.065,281.933c-36.8,15.2-68.8-5.6-97.6,27.2
	c-16.8,19.2-8,45.6,0,75.2l0,0h-1.6l0,0c29.6,8,55.2,13.6,73.6-3.2C506.265,351.533,483.865,317.933,499.065,281.933z"/>
<path style="fill:#5EA304;" d="M401.465,384.333L401.465,384.333h-1.6l0,0c29.6,8,55.2,13.6,73.6-3.2c32.8-29.6,10.4-62.4,25.6-99.2
	l0,0h-0.8l1.6,0.8"/>
<g>
	<polygon style="fill:#74B208;" points="454.265,326.733 447.865,300.333 448.665,333.133 480.665,332.333 	"/>
	<polygon style="fill:#74B208;" points="420.665,361.133 414.265,334.733 415.065,367.533 447.065,366.733 	"/>
	<polygon style="fill:#74B208;" points="438.265,343.533 431.065,313.933 431.065,350.733 467.865,349.933 	"/>
</g>
<path style="fill:#FFDC6C;" d="M493.465,392.333c-22.4-104-124-182.4-245.6-182.4s-224,78.4-246.4,182.4H493.465z"/>
<path style="fill:#EABB47;" d="M145.465,392.333h348c-22.4-104-125.6-182.4-248-182.4"/>
<circle style="fill:#F4CB56;" cx="85.465" cy="309.933" r="9.6"/>
<g>
	<circle style="fill:#FFDC6C;" cx="255.865" cy="351.533" r="9.6"/>
	<circle style="fill:#FFDC6C;" cx="394.265" cy="342.733" r="9.6"/>
	<circle style="fill:#FFDC6C;" cx="292.665" cy="315.533" r="9.6"/>
</g>
<circle style="fill:#B28E32;" cx="387.865" cy="303.533" r="9.6"/>
<g>
	<circle style="fill:#FFDC6C;" cx="317.465" cy="273.933" r="16"/>
	<circle style="fill:#FFDC6C;" cx="335.065" cy="319.533" r="4.8"/>
	<circle style="fill:#FFDC6C;" cx="252.665" cy="285.933" r="5.6"/>
</g>
<circle style="fill:#F4CB56;" cx="164.665" cy="277.933" r="9.6"/>
<circle style="fill:#CEAB4A;" cx="187.065" cy="245.933" r="9.6"/>
<g>
	<circle style="fill:#B28E32;" cx="442.265" cy="358.733" r="12"/>
	<circle style="fill:#B28E32;" cx="327.865" cy="357.933" r="4.8"/>
	<circle style="fill:#B28E32;" cx="206.265" cy="357.133" r="4.8"/>
	<circle style="fill:#B28E32;" cx="268.665" cy="253.133" r="4.8"/>
</g>
<circle style="fill:#F4CB56;" cx="107.865" cy="349.933" r="4.8"/>
<g>
	<circle style="fill:#CEAB4A;" cx="131.865" cy="321.933" r="4.8"/>
	<circle style="fill:#CEAB4A;" cx="51.065" cy="363.533" r="10.4"/>
</g>
<path style="fill:#F4F1E6;" d="M284.665,151.533c37.6,14.4,60.8,45.6,56.8,72.8c1.6-2.4,3.2-4.8,4-7.2
	c11.2-28.8-13.6-64.8-54.4-80.8c-41.6-16-84-6.4-95.2,22.4c-0.8,2.4-1.6,5.6-2.4,8C208.665,143.533,247.065,136.333,284.665,151.533
	z"/>
<g>
</g>
<g>
</g>
<g>
</g>
<g>
</g>
<g>
</g>
<g>
</g>
<g>
</g>
<g>
</g>
<g>
</g>
<g>
</g>
<g>
</g>
<g>
</g>
<g>
</g>
<g>
</g>
<g>
</g>
</svg>
