<?xml version="1.0" encoding="utf-8"?>
<!-- Generator: Adobe Illustrator 25.0.1, SVG Export Plug-In . SVG Version: 6.00 Build 0)  -->
<svg version="1.1" id="Capa_1" xmlns="http://www.w3.org/2000/svg" xmlns:xlink="http://www.w3.org/1999/xlink" x="0px" y="0px"
	 viewBox="0 0 482.6 482.6" enable-background="new 0 0 482.6 482.6" xml:space="preserve">
<g>
	<path fill="none" stroke="#000000" stroke-width="39" stroke-miterlimit="10" d="M25.7,104.2c1.2-13.3,6.3-24.4,15.9-34L78.8,33
		c5.8-5.6,12.2-8.5,18.4-8.5c6.1,0,12.3,2.9,18,8.7c6.7,6.2,13,12.7,19.8,19.6c3.4,3.5,6.9,7,10.4,10.6l29.8,29.8
		c6.2,6.2,9.4,12.5,9.4,18.7s-3.2,12.5-9.4,18.7c-3.1,3.1-6.2,6.3-9.3,9.4c-9.3,9.4-18,18.3-27.6,26.8c-0.2,0.2-0.3,0.3-0.5,0.5
		c-8.3,8.3-7,16.2-5,22.2c0.1,0.3,0.2,0.5,0.3,0.8c7.7,18.5,18.4,36.1,35.1,57.1c30,37,61.6,65.7,96.4,87.8c4.3,2.8,8.9,5,13.2,7.2
		c4,2,7.7,3.9,11,6c0.4,0.2,0.7,0.4,1.1,0.6c3.3,1.7,6.5,2.5,9.7,2.5c8,0,13.2-5.1,14.9-6.8l37.4-37.4c5.8-5.8,12.1-8.9,18.3-8.9
		c7.6,0,13.8,4.7,17.7,8.9l60.3,60.2c12,12,11.9,25-0.3,37.7c-4.2,4.5-8.6,8.8-13.3,13.3c-7,6.8-14.3,13.8-20.9,21.7
		c-11.5,12.4-25.2,18.2-42.9,18.2c-1.7,0-3.5-0.1-5.2-0.2c-32.8-2.1-63.3-14.9-86.2-25.8c-62.2-30.1-116.8-72.8-162.1-127
		c-37.3-44.9-62.4-86.7-79-131.5C28,146.4,24.1,124.3,25.7,104.2z"/>
</g>
</svg>
