<?xml version="1.0" encoding="iso-8859-1"?>
<!-- Generator: Adobe Illustrator 18.0.0, SVG Export Plug-In . SVG Version: 6.00 Build 0)  -->
<!DOCTYPE svg PUBLIC "-//W3C//DTD SVG 1.1//EN" "http://www.w3.org/Graphics/SVG/1.1/DTD/svg11.dtd">
<svg version="1.1" id="Capa_1" xmlns="http://www.w3.org/2000/svg" xmlns:xlink="http://www.w3.org/1999/xlink" x="0px" y="0px"
	 viewBox="0 0 90.998 90.998" style="enable-background:new 0 0 90.998 90.998;" xml:space="preserve">
<g>
	<path d="M85.12,13.04c-2.935-5.87-8.372-9.103-15.31-9.103c-1.616,0-3,0.18-3.959,0.353C62.888,3.006,54.856,0,44.639,0
		c-5.332,0-10.524,0.825-15.431,2.453C3.98,10.819,3.161,38.985,3.155,39.269c-0.032,1.689,1.113,3.175,2.755,3.574
		c0.385,0.094,9.563,2.294,20.432,2.294c6.507,0,12.284-0.796,17.17-2.365c10.325-3.316,17.407-9.152,21.305-13.118
		c2.716,3.524,6.49,6.134,9.747,7.919c0.371,3.667,1.47,19.641-5.888,31.297c-4.938,7.821-11.243,11.722-14.094,13.186
		c-0.957-2.424-3.317-4.143-6.082-4.143c-3.612,0-6.542,2.93-6.542,6.542c0,3.614,2.929,6.544,6.542,6.544
		c3.109,0,5.706-2.171,6.372-5.079c2.214-0.958,10.502-5.062,16.856-15.124c6.983-11.062,7.01-25.186,6.615-31.377
		c1.677,0.725,2.832,1.103,2.998,1.155c1.869,0.601,3.866-0.401,4.508-2.251C86.049,37.75,90.673,24.144,85.12,13.04z M79.963,32.25
		c-4.066-1.928-9.486-5.398-11.119-10.023c-0.45-1.275-1.575-2.192-2.915-2.375c-1.347-0.181-2.67,0.399-3.445,1.507
		c-0.07,0.1-7.144,10.032-21.179,14.54c-4.171,1.34-9.206,2.02-14.962,2.02c-6.41,0-12.283-0.855-15.683-1.472
		c0.927-6.492,4.798-21.832,20.82-27.145c4.173-1.384,8.6-2.086,13.159-2.086c10.914,0,19.097,4.037,19.171,4.074
		c0.8,0.405,1.741,0.493,2.604,0.256c0.015-0.004,1.459-0.393,3.397-0.393c4.179,0,7.158,1.72,8.854,5.113
		C81.356,21.65,80.747,28.227,79.963,32.25z"/>
	<path d="M58.325,61.292c0-0.996-0.808-1.805-1.804-1.805c-0.997,0-1.804,0.809-1.804,1.805c0,3.428-2.789,6.216-6.216,6.216
		c-3.427,0-6.215-2.788-6.215-6.216c0-0.996-0.808-1.805-1.804-1.805c-0.997,0-1.804,0.809-1.804,1.805
		c0,5.417,4.407,9.825,9.823,9.825C53.918,71.118,58.325,66.709,58.325,61.292z"/>
	<circle cx="35.999" cy="51.333" r="2.595"/>
	<circle cx="57.701" cy="51.333" r="2.595"/>
	<path d="M49.447,13.104c-17.145-2.381-26.6,11.018-26.995,11.589c-0.566,0.82-0.359,1.944,0.461,2.51
		c0.313,0.216,0.67,0.319,1.023,0.319c0.573,0,1.137-0.273,1.487-0.78c0.083-0.122,8.556-12.141,23.528-10.063
		c0.984,0.136,1.898-0.551,2.035-1.539C51.124,14.152,50.435,13.241,49.447,13.104z"/>
</g>
<g>
</g>
<g>
</g>
<g>
</g>
<g>
</g>
<g>
</g>
<g>
</g>
<g>
</g>
<g>
</g>
<g>
</g>
<g>
</g>
<g>
</g>
<g>
</g>
<g>
</g>
<g>
</g>
<g>
</g>
</svg>
