<?xml version="1.0" encoding="iso-8859-1"?>
<!-- Generator: Adobe Illustrator 19.0.0, SVG Export Plug-In . SVG Version: 6.00 Build 0)  -->
<svg version="1.1" id="Layer_1" xmlns="http://www.w3.org/2000/svg" xmlns:xlink="http://www.w3.org/1999/xlink" x="0px" y="0px"
	 viewBox="0 0 494.4 494.4" style="enable-background:new 0 0 494.4 494.4;" xml:space="preserve">
<path style="fill:#C92B00;" d="M494.4,268.4c0,124-110.4,204-247.2,204S0,392.4,0,268.4S110.4,95.6,247.2,95.6
	S494.4,144.4,494.4,268.4z"/>
<path style="fill:#A01C02;" d="M247.2,95.6c136.8,0,247.2,48,247.2,172.8c0,124-110.4,204-247.2,204"/>
<g>
	
		<ellipse transform="matrix(-0.4966 -0.868 0.868 -0.4966 -0.709 349.1661)" style="fill:#EF4220;" cx="100.899" cy="174.789" rx="25.6" ry="68.801"/>
	
		<ellipse transform="matrix(-0.4967 -0.8679 0.8679 -0.4967 -161.8147 411.2032)" style="fill:#EF4220;" cx="38.318" cy="252.518" rx="16" ry="15.2"/>
</g>
<ellipse style="fill:#5EA304;" cx="247.2" cy="105.2" rx="105.6" ry="30.4"/>
<ellipse style="fill:#388C02;" cx="247.2" cy="96.4" rx="93.6" ry="21.6"/>
<polygon style="fill:#5EA304;" points="204,133.2 247.2,177.2 291.2,133.2 "/>
<polygon style="fill:#388C02;" points="240.8,134.8 247.2,177.2 289.6,134.8 "/>
<polygon style="fill:#5EA304;" points="142.4,108.4 164.8,154 209.6,130.8 "/>
<g>
	<polygon style="fill:#388C02;" points="171.2,118 164.8,154 209.6,130.8 	"/>
	<polygon style="fill:#388C02;" points="351.2,109.2 329.6,154 284.8,130.8 	"/>
</g>
<polygon style="fill:#5EA304;" points="323.2,118 329.6,154 284.8,130.8 "/>
<polygon style="fill:#388C02;" points="266.4,86.8 228,86.8 236,25.2 258.4,25.2 "/>
<polyline style="fill:#036D2E;" points="239.2,22.8 258.4,25.2 268.8,86.8 "/>
<g>
	<ellipse style="fill:#5EA304;" cx="247.2" cy="25.2" rx="11.2" ry="3.2"/>
	
		<ellipse transform="matrix(-0.1529 -0.9882 0.9882 -0.1529 137.1183 297.4612)" style="fill:#5EA304;" cx="196.047" cy="89.964" rx="6.4" ry="23.199"/>
</g>
<g>
</g>
<g>
</g>
<g>
</g>
<g>
</g>
<g>
</g>
<g>
</g>
<g>
</g>
<g>
</g>
<g>
</g>
<g>
</g>
<g>
</g>
<g>
</g>
<g>
</g>
<g>
</g>
<g>
</g>
</svg>
