<?xml version="1.0" encoding="iso-8859-1"?>
<!-- Generator: Adobe Illustrator 18.0.0, SVG Export Plug-In . SVG Version: 6.00 Build 0)  -->
<!DOCTYPE svg PUBLIC "-//W3C//DTD SVG 1.1//EN" "http://www.w3.org/Graphics/SVG/1.1/DTD/svg11.dtd">
<svg version="1.1" id="Capa_1" xmlns="http://www.w3.org/2000/svg" xmlns:xlink="http://www.w3.org/1999/xlink" x="0px" y="0px"
	 viewBox="0 0 90.226 90.226" style="enable-background:new 0 0 90.226 90.226;" xml:space="preserve">
<g>
	<path d="M43.229,58.464c-1.85,0-3.634,0.413-5.304,1.229c-2.905,1.418-5.084,3.883-6.135,6.94c-1.05,3.056-0.848,6.339,0.57,9.243
		c2.046,4.19,6.215,6.793,10.879,6.793c1.851,0,3.636-0.414,5.305-1.23c2.905-1.418,5.083-3.883,6.134-6.939
		c1.051-3.057,0.848-6.34-0.57-9.242C52.063,61.068,47.894,58.464,43.229,58.464z M47.853,72.155
		c-0.424,1.232-1.303,2.227-2.476,2.8c-0.676,0.33-1.396,0.497-2.138,0.497c-1.884,0-3.567-1.05-4.393-2.741
		c-0.573-1.173-0.654-2.498-0.23-3.731c0.424-1.233,1.303-2.228,2.475-2.8c0.676-0.33,1.396-0.498,2.138-0.498
		c1.884,0,3.567,1.051,4.394,2.744C48.194,69.597,48.276,70.921,47.853,72.155z"/>
	<path d="M34.835,55.903c0.531,0,1.071-0.118,1.581-0.367c1.791-0.874,2.533-3.035,1.658-4.826l-18.277-37.42
		c-2.401-4.917-8.093-7.093-12.684-4.85l-5.088,2.485c-1.791,0.874-2.533,3.035-1.658,4.826c0.874,1.792,3.036,2.533,4.826,1.658
		l5.086-2.483c0.986-0.485,2.4,0.236,3.033,1.531l18.277,37.42C32.215,55.159,33.499,55.903,34.835,55.903z"/>
	<path d="M89.858,46.829c-0.873-1.79-3.034-2.533-4.826-1.658L60.444,57.179c-1.791,0.874-2.533,3.035-1.658,4.826
		c0.625,1.281,1.909,2.025,3.245,2.025c0.531,0,1.071-0.118,1.581-0.367L88.2,51.655C89.991,50.781,90.733,48.62,89.858,46.829z"/>
	<path d="M47.136,51.533c0.625,1.281,1.909,2.025,3.245,2.025c0.531,0,1.071-0.118,1.581-0.367L74.853,42.01
		c0.859-0.42,1.518-1.164,1.829-2.069c0.311-0.905,0.25-1.896-0.171-2.757l-10.766-22.04c-0.874-1.79-3.033-2.532-4.826-1.658
		L38.028,24.666c-0.859,0.42-1.517,1.164-1.829,2.069c-0.311,0.905-0.25,1.896,0.171,2.757L47.136,51.533z M60.844,21.554
		l7.599,15.555l-16.405,8.014l-7.599-15.555L60.844,21.554z"/>
	<path d="M59.586,27.833c-0.435-0.898-1.517-1.271-2.411-0.835l-7.218,3.503c-0.896,0.435-1.271,1.515-0.835,2.411
		c0.311,0.642,0.955,1.017,1.624,1.017c0.265,0,0.533-0.059,0.787-0.182l7.218-3.503C59.648,29.81,60.022,28.73,59.586,27.833z"/>
</g>
<g>
</g>
<g>
</g>
<g>
</g>
<g>
</g>
<g>
</g>
<g>
</g>
<g>
</g>
<g>
</g>
<g>
</g>
<g>
</g>
<g>
</g>
<g>
</g>
<g>
</g>
<g>
</g>
<g>
</g>
</svg>
