<svg xmlns="http://www.w3.org/2000/svg" viewBox="0 0 213.14 212.46"><g id="Layer_2" data-name="Layer 2"><g id="Layer_1-2" data-name="Layer 1"><path d="M200.8,90.14a13.8,13.8,0,0,1,11,19.58c-11.77,25.18-36.86,71.22-70.77,91.5-38.78,23.2-76.14,6.06-86.71-11.62-12.08-20.19-17.35-64,23.71-88.52C108.13,83.09,169.89,86.84,200.8,90.14Z" style="fill:#dc163b"/><path d="M33.81,166.1c-19-14.14-37.48-43.91-20-80.88C28.43,54.11,80.13,23.38,108,8.55a15,15,0,0,1,21.88,11,322.23,322.23,0,0,1,3.69,56.23" style="fill:none;stroke:#dc163b;stroke-linecap:round;stroke-miterlimit:10;stroke-width:13.57642936706543px"/><path d="M133.15,87.82c-1.46,15.4-5.12,32.42-11.26,45.44C104.11,171,68.38,181,48.3,175.22,41.51,154.86,41.51,90.37,133.15,87.82Z" style="fill:#ff9100"/><path d="M154.44,34.42c8.69-1.79,16.88-3.2,24-4.3a18.34,18.34,0,0,1,20.74,21.93c-1.13,5.32-5.06,15.49-6.74,21.77" style="fill:none;stroke:#ff9100;stroke-linecap:round;stroke-miterlimit:10;stroke-width:13.57642936706543px"/></g></g></svg>