<svg id="Layer_1" data-name="Layer 1" xmlns="http://www.w3.org/2000/svg" viewBox="0 0 2960 2960"><g id="Group_1" data-name="Group 1"><g id="Layer_5_Image" data-name="Layer 5 Image"><g style="isolation:isolate"><path d="M2960,982V2960H.19V956c2.61,2.78,5.71,5.25,7.76,8.41a1790.24,1790.24,0,0,0,155.26,205.69c283,323.5,677.31,536.17,1109.19,588.73q90.88,11.06,182.34,13.09c47.32,1.08,94.61-.2,141.88-3q84.36-5.09,167.82-18.09c87.69-13.6,173.93-33.52,258.35-60.79q520-168,857.49-598.09C2908.24,1056.4,2933.49,1018.72,2960,982Z" style="fill:#dc163b"/></g></g></g><g id="Ellipse_3_copy_2" data-name="Ellipse 3 copy 2"><path d="M2494.43,1193.56a1774.65,1774.65,0,0,1-21.62,276.78,1750.89,1750.89,0,0,1-257.57,675.34q-3.6,5.59-7.24,11.15c-308.55,471.61-837.15,786.25-1440,798.08q-17.6.35-35.27.35c-262,0-504.8,4-732.73,4.65V59.17H2080.64A1767.49,1767.49,0,0,1,2208,230.32C2389.12,507.14,2494.43,838.05,2494.43,1193.56Z" style="fill:#cd1336;fill-rule:evenodd"/></g><g id="Ellipse_3_copy" data-name="Ellipse 3 copy"><path d="M2960,0V1508.88c-182.29,276.54-440.41,498.68-744.76,636.8-2.41,1.09-4.82,2.18-7.24,3.25-219.81,98.56-463.5,153.38-720,153.38s-500.19-54.82-720-153.37C451.46,2007,184.43,1774.37,0,1484.1V0Z" style="fill:#c21031;fill-rule:evenodd"/></g><g id="Ellipse_3" data-name="Ellipse 3"><path d="M2960,0V977.66a1771.6,1771.6,0,0,1-487.19,492.68A1758.25,1758.25,0,0,1,2208,1617.71c-219.81,98.56-463.5,153.38-720,153.38s-500.19-54.82-720-153.37C451.46,1475.79,184.43,1243.15,0,952.88V0Z" style="fill:#fff;fill-rule:evenodd"/></g><path d="M0,151S791-223.48,1657,282c625.7,365.23,698.9,1110,722,1248-113.3,88.78-820.3,448.47-1568.9,119.29C538.1,1529.72,215,1303.3,0,963Z" style="fill:#fdf0f3;fill-rule:evenodd;isolation:isolate"/></svg>