<?xml version="1.0" encoding="iso-8859-1"?>
<!-- Generator: Adobe Illustrator 18.0.0, SVG Export Plug-In . SVG Version: 6.00 Build 0)  -->
<!DOCTYPE svg PUBLIC "-//W3C//DTD SVG 1.1//EN" "http://www.w3.org/Graphics/SVG/1.1/DTD/svg11.dtd">
<svg version="1.1" id="Capa_1" xmlns="http://www.w3.org/2000/svg" xmlns:xlink="http://www.w3.org/1999/xlink" x="0px" y="0px"
	 viewBox="0 0 92.134 92.134" style="enable-background:new 0 0 92.134 92.134;" xml:space="preserve">
<g>
	<path d="M73.503,73.123H12.63c-2.984,0-5.413-2.429-5.413-5.413V24.424c0-2.984,2.429-5.413,5.413-5.413h59.797
		c3.254,0,5.413,1.651,5.413,2.743v6.351c0,1.993,1.615,3.608,3.608,3.608c1.993,0,3.608-1.615,3.608-3.608v-6.351
		c0-5.585-5.548-9.96-12.63-9.96H12.63C5.666,11.794,0,17.46,0,24.424v43.285c0,6.964,5.666,12.63,12.63,12.63h60.873
		c1.993,0,3.608-1.615,3.608-3.608C77.111,74.738,75.496,73.123,73.503,73.123z"/>
	<path d="M82.21,32.552H65.119c-5.473,0-9.924,4.451-9.924,9.924v7.182c0,5.473,4.451,9.924,9.924,9.924H82.21
		c5.473,0,9.924-4.451,9.924-9.924v-7.182C92.134,37.003,87.683,32.552,82.21,32.552z M84.917,49.658
		c0,1.492-1.215,2.707-2.707,2.707H65.119c-1.492,0-2.707-1.215-2.707-2.707v-7.182c0-1.492,1.215-2.707,2.707-2.707H82.21
		c1.492,0,2.707,1.215,2.707,2.707V49.658z"/>
	<circle cx="69.89" cy="46.066" r="4.052"/>
	<path d="M16.667,38.199c-0.996,0-1.805,0.809-1.805,1.805v17.142c0,5.414,1.611,9.021,9.473,9.021h17.142
		c0.996,0,1.805-0.809,1.805-1.805c0-0.996-0.809-1.805-1.805-1.805H24.335c-5.358,0-5.863-1.483-5.863-5.411V40.003
		C18.472,39.007,17.663,38.199,16.667,38.199z"/>
</g>
<g>
</g>
<g>
</g>
<g>
</g>
<g>
</g>
<g>
</g>
<g>
</g>
<g>
</g>
<g>
</g>
<g>
</g>
<g>
</g>
<g>
</g>
<g>
</g>
<g>
</g>
<g>
</g>
<g>
</g>
</svg>
