<?xml version="1.0" encoding="iso-8859-1"?>
<!-- Generator: Adobe Illustrator 19.0.0, SVG Export Plug-In . SVG Version: 6.00 Build 0)  -->
<svg version="1.1" id="Layer_1" xmlns="http://www.w3.org/2000/svg" xmlns:xlink="http://www.w3.org/1999/xlink" x="0px" y="0px"
	 viewBox="0 0 499.2 499.2" style="enable-background:new 0 0 499.2 499.2;" xml:space="preserve">
<path style="fill:#026824;" d="M0,127.6c3.2,136,113.6,244,249.6,244s246.4-108,249.6-244H0z"/>
<path style="fill:#B5D861;" d="M249.6,127.6V342c-120-0.8-216.8-94.4-220-214.4H249.6z"/>
<path style="fill:#00591B;" d="M249.6,127.6v244c136,0,246.4-108,249.6-244H249.6z"/>
<path style="fill:#96C639;" d="M249.6,127.6V342c120-0.8,218.4-94.4,220.8-214.4H249.6z"/>
<path style="fill:#C92B00;" d="M59.2,127.6c2.4,104,86.4,186.4,190.4,186.4s188-82.4,190.4-186.4H59.2z"/>
<path style="fill:#9E1600;" d="M249.6,127.6V314c104-0.8,188-82.4,190.4-186.4H249.6z"/>
<path style="fill:#441F06;" d="M120,179.6L120,179.6l31.2-20l-34.4-8l0,0c-2.4-0.8-4-0.8-6.4,0c-8,1.6-14.4,9.6-12.8,18.4
	c0.8,8.8,8.8,14.4,16.8,12.8C116.8,181.2,118.4,180.4,120,179.6z"/>
<path style="fill:#773D0E;" d="M151.2,158.8l-34.4-8l0,0c-2.4-0.8-4-0.8-6.4,0c-8,1.6-14.4,9.6-12.8,18.4"/>
<path style="fill:#441F06;" d="M164,226L164,226l4.8-36.8L140,207.6l0,0c0,0.8-4,4-4.8,6.4c-4.8,7.2-1.6,16.8,5.6,22.4
	c7.2,4.8,16.8,3.2,21.6-4C162.4,230,164,228.4,164,226z"/>
<path style="fill:#773D0E;" d="M168.8,189.2L140,207.6l0,0c-1.6,0.8-4,4-4.8,6.4c-4.8,7.2-1.6,16.8,5.6,22.4"/>
<path style="fill:#441F06;" d="M195.2,265.2L195.2,265.2l0.8-17.6l-10.4,12l0,0c0,0.8-2.4,2.4-2.4,3.2c-1.6,4-0.8,7.2,3.2,8.8
	c4,1.6,8,0,8.8-4C196,267.6,195.2,266,195.2,265.2z"/>
<path style="fill:#773D0E;" d="M196,247.6l-10.4,12l0,0c0,0-2.4,2.4-2.4,3.2c-1.6,4-0.8,7.2,3.2,8.8"/>
<path style="fill:#441F06;" d="M229.6,219.6L229.6,219.6l-7.2-28L207.2,214l0,0c-0.8,1.6-1.6,3.2-1.6,4.8
	c-0.8,6.4,3.2,12.8,9.6,14.4c6.4,1.6,12.8-2.4,13.6-8.8C229.6,222.8,229.6,221.2,229.6,219.6z"/>
<path style="fill:#773D0E;" d="M222.4,191.6L207.2,214l0,0c-0.8,1.6-1.6,3.2-1.6,4.8c-0.8,6.4,3.2,12.8,9.6,14.4"/>
<path style="fill:#441F06;" d="M204.8,174L204.8,174l8.8-24.8l-20,9.6l0,0c-2.4,0.8-4.8,1.6-5.6,2.4c-4,4.8-4,11.2,0,15.2
	s10.4,5.6,14.4,0.8C203.2,176.4,204.8,174,204.8,174z"/>
<path style="fill:#773D0E;" d="M213.6,149.2l-20,9.6l0,0c-1.6,0.8-4.8,1.6-5.6,2.4c-4,4.8-4,11.2,0,15.2"/>
<path style="fill:#441F06;" d="M316,159.6L316,159.6l-24.8-10.4l8.8,18.4l0,0c1.6,3.2,3.2,6.4,4,8c4.8,4,9.6,4,14.4,0
	c4-4,5.6-10.4,0.8-13.6C318.4,160.4,316,159.6,316,159.6z"/>
<path style="fill:#773D0E;" d="M291.2,149.2l8.8,18.4l0,0c1.6,3.2,3.2,6.4,4,8c4.8,4,9.6,4,14.4,0"/>
<path style="fill:#441F06;" d="M379.2,179.6L379.2,179.6l-31.2-20l34.4-8l0,0c2.4-0.8,4-0.8,6.4,0c8,1.6,14.4,9.6,12.8,18.4
	c-0.8,8.8-8.8,14.4-16.8,12.8C382.4,181.2,380.8,180.4,379.2,179.6z"/>
<path style="fill:#773D0E;" d="M348,158.8l34.4-8l0,0c2.4-0.8,4-0.8,6.4,0c8,1.6,14.4,9.6,12.8,18.4"/>
<path style="fill:#441F06;" d="M335.2,226L335.2,226l-4.8-36.8l31.2,20l0,0c0,0.8,1.6,2.4,3.2,4.8c4.8,7.2,1.6,16.8-5.6,22.4
	c-7.2,4.8-16.8,3.2-21.6-4C336.8,230,335.2,228.4,335.2,226z"/>
<path style="fill:#773D0E;" d="M330.4,189.2l31.2,20l0,0c1.6,1.6,1.6,2.4,3.2,4.8c4.8,7.2,2.4,16.8-4.8,22.4"/>
<path style="fill:#441F06;" d="M304,265.2L304,265.2l-0.8-17.6l10.4,12l0,0c0,0.8,3.2,3.2,3.2,4c1.6,4,0,6.4-4,8s-8,0-8.8-4
	C303.2,267.6,304,266,304,265.2z"/>
<path style="fill:#773D0E;" d="M303.2,247.6l10.4,12l0,0c0.8,0.8,3.2,3.2,3.2,4c1.6,4,0,6.4-4,8"/>
<path style="fill:#441F06;" d="M269.6,219.6L269.6,219.6l6.4-27.2l15.2,22.4l0,0c0.8,1.6,1.6,3.2,1.6,4.8c0.8,6.4-3.2,12.8-9.6,14.4
	c-6.4,1.6-12.8-2.4-13.6-8.8C269.6,222.8,269.6,221.2,269.6,219.6z"/>
<path style="fill:#773D0E;" d="M276.8,191.6L292,214l0,0c0.8,1.6,1.6,3.2,1.6,4.8c0.8,6.4-3.2,12.8-9.6,14.4"/>
<polygon style="fill:#EF441D;" points="244,128.4 145.6,142.8 68,127.6 245.6,127.6 "/>
<g>
</g>
<g>
</g>
<g>
</g>
<g>
</g>
<g>
</g>
<g>
</g>
<g>
</g>
<g>
</g>
<g>
</g>
<g>
</g>
<g>
</g>
<g>
</g>
<g>
</g>
<g>
</g>
<g>
</g>
</svg>
